G75*
%MOIN*%
%OFA0B0*%
%FSLAX25Y25*%
%IPPOS*%
%LPD*%
%AMOC8*
5,1,8,0,0,1.08239X$1,22.5*
%
%ADD10C,0.01500*%
%ADD11C,0.01100*%
D10*
X0027750Y0001750D02*
X0027750Y0474750D01*
X0001750Y0423750D02*
X0690750Y0423750D01*
X0639750Y0474750D02*
X0639750Y0001750D01*
X0690750Y0027750D02*
X0001750Y0027750D01*
X0027750Y0047750D02*
X0639750Y0047750D01*
X0537750Y0001750D02*
X0537750Y0474750D01*
X0435750Y0474750D02*
X0435750Y0001750D01*
X0333750Y0001750D02*
X0333750Y0474750D01*
X0231750Y0474750D02*
X0231750Y0001750D01*
X0129750Y0001750D02*
X0129750Y0474750D01*
X0027750Y0311750D02*
X0639750Y0311750D01*
X0690750Y0291750D02*
X0001750Y0291750D01*
X0027750Y0179750D02*
X0639750Y0179750D01*
X0690750Y0159750D02*
X0001750Y0159750D01*
D11*
X0011852Y0480800D02*
X0013163Y0484733D01*
X0010541Y0484733D02*
X0011852Y0480800D01*
X0015834Y0483094D02*
X0019768Y0483094D01*
X0023136Y0483094D02*
X0024774Y0482439D01*
X0024775Y0482439D02*
X0024827Y0482416D01*
X0024878Y0482389D01*
X0024927Y0482359D01*
X0024974Y0482326D01*
X0025019Y0482290D01*
X0025061Y0482250D01*
X0025100Y0482208D01*
X0025136Y0482164D01*
X0025169Y0482117D01*
X0025199Y0482067D01*
X0025226Y0482016D01*
X0025249Y0481964D01*
X0025268Y0481910D01*
X0025284Y0481854D01*
X0025296Y0481798D01*
X0025304Y0481741D01*
X0025308Y0481684D01*
X0025309Y0481626D01*
X0025305Y0481569D01*
X0025298Y0481512D01*
X0025286Y0481455D01*
X0025271Y0481400D01*
X0025253Y0481345D01*
X0025230Y0481292D01*
X0025204Y0481241D01*
X0025175Y0481192D01*
X0025142Y0481144D01*
X0025106Y0481099D01*
X0025068Y0481057D01*
X0025026Y0481017D01*
X0024982Y0480980D01*
X0024935Y0480946D01*
X0024887Y0480915D01*
X0024836Y0480888D01*
X0024784Y0480864D01*
X0024730Y0480844D01*
X0024675Y0480828D01*
X0024619Y0480815D01*
X0024562Y0480806D01*
X0024504Y0480801D01*
X0024447Y0480800D01*
X0024938Y0484405D02*
X0024831Y0484451D01*
X0024722Y0484494D01*
X0024612Y0484534D01*
X0024500Y0484570D01*
X0024388Y0484602D01*
X0024274Y0484631D01*
X0024160Y0484657D01*
X0024045Y0484678D01*
X0023930Y0484697D01*
X0023813Y0484711D01*
X0023697Y0484722D01*
X0023580Y0484729D01*
X0023463Y0484733D01*
X0023463Y0484734D02*
X0023406Y0484733D01*
X0023348Y0484728D01*
X0023291Y0484719D01*
X0023235Y0484706D01*
X0023180Y0484690D01*
X0023126Y0484670D01*
X0023074Y0484646D01*
X0023023Y0484619D01*
X0022975Y0484588D01*
X0022928Y0484554D01*
X0022884Y0484517D01*
X0022842Y0484477D01*
X0022804Y0484435D01*
X0022768Y0484390D01*
X0022735Y0484342D01*
X0022706Y0484293D01*
X0022680Y0484242D01*
X0022657Y0484189D01*
X0022639Y0484134D01*
X0022624Y0484079D01*
X0022612Y0484022D01*
X0022605Y0483965D01*
X0022601Y0483908D01*
X0022602Y0483850D01*
X0022606Y0483793D01*
X0022614Y0483736D01*
X0022626Y0483680D01*
X0022642Y0483624D01*
X0022661Y0483570D01*
X0022684Y0483518D01*
X0022711Y0483467D01*
X0022741Y0483417D01*
X0022774Y0483370D01*
X0022810Y0483326D01*
X0022849Y0483284D01*
X0022891Y0483244D01*
X0022936Y0483208D01*
X0022983Y0483175D01*
X0023032Y0483145D01*
X0023083Y0483118D01*
X0023135Y0483095D01*
X0022644Y0481128D02*
X0022778Y0481082D01*
X0022913Y0481039D01*
X0023049Y0481000D01*
X0023186Y0480964D01*
X0023323Y0480932D01*
X0023462Y0480903D01*
X0023601Y0480877D01*
X0023741Y0480856D01*
X0023882Y0480837D01*
X0024022Y0480823D01*
X0024164Y0480812D01*
X0024305Y0480804D01*
X0024447Y0480801D01*
X0027988Y0481783D02*
X0027988Y0483750D01*
X0027990Y0483812D01*
X0027996Y0483873D01*
X0028005Y0483934D01*
X0028019Y0483994D01*
X0028036Y0484054D01*
X0028057Y0484112D01*
X0028082Y0484169D01*
X0028110Y0484224D01*
X0028141Y0484277D01*
X0028176Y0484328D01*
X0028214Y0484377D01*
X0028254Y0484423D01*
X0028298Y0484467D01*
X0028344Y0484507D01*
X0028393Y0484545D01*
X0028444Y0484580D01*
X0028497Y0484611D01*
X0028552Y0484639D01*
X0028609Y0484664D01*
X0028667Y0484685D01*
X0028727Y0484702D01*
X0028787Y0484716D01*
X0028848Y0484725D01*
X0028909Y0484731D01*
X0028971Y0484733D01*
X0030282Y0484733D01*
X0032695Y0483422D02*
X0032695Y0482111D01*
X0032696Y0482111D02*
X0032698Y0482040D01*
X0032704Y0481969D01*
X0032713Y0481899D01*
X0032727Y0481829D01*
X0032744Y0481760D01*
X0032765Y0481692D01*
X0032789Y0481626D01*
X0032817Y0481561D01*
X0032849Y0481497D01*
X0032884Y0481435D01*
X0032922Y0481375D01*
X0032963Y0481318D01*
X0033008Y0481262D01*
X0033055Y0481209D01*
X0033105Y0481159D01*
X0033158Y0481112D01*
X0033214Y0481067D01*
X0033271Y0481026D01*
X0033331Y0480988D01*
X0033393Y0480953D01*
X0033457Y0480921D01*
X0033522Y0480893D01*
X0033588Y0480869D01*
X0033656Y0480848D01*
X0033725Y0480831D01*
X0033795Y0480817D01*
X0033865Y0480808D01*
X0033936Y0480802D01*
X0034007Y0480800D01*
X0034078Y0480802D01*
X0034149Y0480808D01*
X0034219Y0480817D01*
X0034289Y0480831D01*
X0034358Y0480848D01*
X0034426Y0480869D01*
X0034492Y0480893D01*
X0034557Y0480921D01*
X0034621Y0480953D01*
X0034683Y0480988D01*
X0034743Y0481026D01*
X0034800Y0481067D01*
X0034856Y0481112D01*
X0034909Y0481159D01*
X0034959Y0481209D01*
X0035006Y0481262D01*
X0035051Y0481318D01*
X0035092Y0481375D01*
X0035130Y0481435D01*
X0035165Y0481497D01*
X0035197Y0481561D01*
X0035225Y0481626D01*
X0035249Y0481692D01*
X0035270Y0481760D01*
X0035287Y0481829D01*
X0035301Y0481899D01*
X0035310Y0481969D01*
X0035316Y0482040D01*
X0035318Y0482111D01*
X0035318Y0483422D01*
X0035316Y0483493D01*
X0035310Y0483564D01*
X0035301Y0483634D01*
X0035287Y0483704D01*
X0035270Y0483773D01*
X0035249Y0483841D01*
X0035225Y0483907D01*
X0035197Y0483972D01*
X0035165Y0484036D01*
X0035130Y0484098D01*
X0035092Y0484158D01*
X0035051Y0484215D01*
X0035006Y0484271D01*
X0034959Y0484324D01*
X0034909Y0484374D01*
X0034856Y0484421D01*
X0034800Y0484466D01*
X0034743Y0484507D01*
X0034683Y0484545D01*
X0034621Y0484580D01*
X0034557Y0484612D01*
X0034492Y0484640D01*
X0034426Y0484664D01*
X0034358Y0484685D01*
X0034289Y0484702D01*
X0034219Y0484716D01*
X0034149Y0484725D01*
X0034078Y0484731D01*
X0034007Y0484733D01*
X0033936Y0484731D01*
X0033865Y0484725D01*
X0033795Y0484716D01*
X0033725Y0484702D01*
X0033656Y0484685D01*
X0033588Y0484664D01*
X0033522Y0484640D01*
X0033457Y0484612D01*
X0033393Y0484580D01*
X0033331Y0484545D01*
X0033271Y0484507D01*
X0033214Y0484466D01*
X0033158Y0484421D01*
X0033105Y0484374D01*
X0033055Y0484324D01*
X0033008Y0484271D01*
X0032963Y0484215D01*
X0032922Y0484158D01*
X0032884Y0484098D01*
X0032849Y0484036D01*
X0032817Y0483972D01*
X0032789Y0483907D01*
X0032765Y0483841D01*
X0032744Y0483773D01*
X0032727Y0483704D01*
X0032713Y0483634D01*
X0032704Y0483564D01*
X0032698Y0483493D01*
X0032696Y0483422D01*
X0030282Y0480800D02*
X0028971Y0480800D01*
X0028909Y0480802D01*
X0028848Y0480808D01*
X0028787Y0480817D01*
X0028727Y0480831D01*
X0028667Y0480848D01*
X0028609Y0480869D01*
X0028552Y0480894D01*
X0028497Y0480922D01*
X0028444Y0480953D01*
X0028393Y0480988D01*
X0028344Y0481026D01*
X0028298Y0481066D01*
X0028254Y0481110D01*
X0028214Y0481156D01*
X0028176Y0481205D01*
X0028141Y0481256D01*
X0028110Y0481309D01*
X0028082Y0481364D01*
X0028057Y0481421D01*
X0028036Y0481479D01*
X0028019Y0481539D01*
X0028005Y0481599D01*
X0027996Y0481660D01*
X0027990Y0481721D01*
X0027988Y0481783D01*
X0038284Y0480800D02*
X0038284Y0484733D01*
X0040251Y0484733D01*
X0040251Y0484078D01*
X0042337Y0483422D02*
X0042337Y0481783D01*
X0042339Y0481721D01*
X0042345Y0481660D01*
X0042354Y0481599D01*
X0042368Y0481539D01*
X0042385Y0481479D01*
X0042406Y0481421D01*
X0042431Y0481364D01*
X0042459Y0481309D01*
X0042490Y0481256D01*
X0042525Y0481205D01*
X0042563Y0481156D01*
X0042603Y0481110D01*
X0042647Y0481066D01*
X0042693Y0481026D01*
X0042742Y0480988D01*
X0042793Y0480953D01*
X0042846Y0480922D01*
X0042901Y0480894D01*
X0042958Y0480869D01*
X0043016Y0480848D01*
X0043076Y0480831D01*
X0043136Y0480817D01*
X0043197Y0480808D01*
X0043258Y0480802D01*
X0043320Y0480800D01*
X0044959Y0480800D01*
X0044959Y0482767D02*
X0042337Y0482767D01*
X0042337Y0483422D02*
X0042339Y0483493D01*
X0042345Y0483564D01*
X0042354Y0483634D01*
X0042368Y0483704D01*
X0042385Y0483773D01*
X0042406Y0483841D01*
X0042430Y0483907D01*
X0042458Y0483972D01*
X0042490Y0484036D01*
X0042525Y0484098D01*
X0042563Y0484158D01*
X0042604Y0484215D01*
X0042649Y0484271D01*
X0042696Y0484324D01*
X0042746Y0484374D01*
X0042799Y0484421D01*
X0042855Y0484466D01*
X0042912Y0484507D01*
X0042972Y0484545D01*
X0043034Y0484580D01*
X0043098Y0484612D01*
X0043163Y0484640D01*
X0043229Y0484664D01*
X0043297Y0484685D01*
X0043366Y0484702D01*
X0043436Y0484716D01*
X0043506Y0484725D01*
X0043577Y0484731D01*
X0043648Y0484733D01*
X0043719Y0484731D01*
X0043790Y0484725D01*
X0043860Y0484716D01*
X0043930Y0484702D01*
X0043999Y0484685D01*
X0044067Y0484664D01*
X0044133Y0484640D01*
X0044198Y0484612D01*
X0044262Y0484580D01*
X0044324Y0484545D01*
X0044384Y0484507D01*
X0044441Y0484466D01*
X0044497Y0484421D01*
X0044550Y0484374D01*
X0044600Y0484324D01*
X0044647Y0484271D01*
X0044692Y0484215D01*
X0044733Y0484158D01*
X0044771Y0484098D01*
X0044806Y0484036D01*
X0044838Y0483972D01*
X0044866Y0483907D01*
X0044890Y0483841D01*
X0044911Y0483773D01*
X0044928Y0483704D01*
X0044942Y0483634D01*
X0044951Y0483564D01*
X0044957Y0483493D01*
X0044959Y0483422D01*
X0044959Y0482767D01*
X0112541Y0484733D02*
X0113852Y0480800D01*
X0115163Y0484733D01*
X0117834Y0483094D02*
X0121768Y0483094D01*
X0125136Y0483094D02*
X0126774Y0482439D01*
X0126775Y0482439D02*
X0126827Y0482416D01*
X0126878Y0482389D01*
X0126927Y0482359D01*
X0126974Y0482326D01*
X0127019Y0482290D01*
X0127061Y0482250D01*
X0127100Y0482208D01*
X0127136Y0482164D01*
X0127169Y0482117D01*
X0127199Y0482067D01*
X0127226Y0482016D01*
X0127249Y0481964D01*
X0127268Y0481910D01*
X0127284Y0481854D01*
X0127296Y0481798D01*
X0127304Y0481741D01*
X0127308Y0481684D01*
X0127309Y0481626D01*
X0127305Y0481569D01*
X0127298Y0481512D01*
X0127286Y0481455D01*
X0127271Y0481400D01*
X0127253Y0481345D01*
X0127230Y0481292D01*
X0127204Y0481241D01*
X0127175Y0481192D01*
X0127142Y0481144D01*
X0127106Y0481099D01*
X0127068Y0481057D01*
X0127026Y0481017D01*
X0126982Y0480980D01*
X0126935Y0480946D01*
X0126887Y0480915D01*
X0126836Y0480888D01*
X0126784Y0480864D01*
X0126730Y0480844D01*
X0126675Y0480828D01*
X0126619Y0480815D01*
X0126562Y0480806D01*
X0126504Y0480801D01*
X0126447Y0480800D01*
X0126938Y0484405D02*
X0126831Y0484451D01*
X0126722Y0484494D01*
X0126612Y0484534D01*
X0126500Y0484570D01*
X0126388Y0484602D01*
X0126274Y0484631D01*
X0126160Y0484657D01*
X0126045Y0484678D01*
X0125930Y0484697D01*
X0125813Y0484711D01*
X0125697Y0484722D01*
X0125580Y0484729D01*
X0125463Y0484733D01*
X0125463Y0484734D02*
X0125406Y0484733D01*
X0125348Y0484728D01*
X0125291Y0484719D01*
X0125235Y0484706D01*
X0125180Y0484690D01*
X0125126Y0484670D01*
X0125074Y0484646D01*
X0125023Y0484619D01*
X0124975Y0484588D01*
X0124928Y0484554D01*
X0124884Y0484517D01*
X0124842Y0484477D01*
X0124804Y0484435D01*
X0124768Y0484390D01*
X0124735Y0484342D01*
X0124706Y0484293D01*
X0124680Y0484242D01*
X0124657Y0484189D01*
X0124639Y0484134D01*
X0124624Y0484079D01*
X0124612Y0484022D01*
X0124605Y0483965D01*
X0124601Y0483908D01*
X0124602Y0483850D01*
X0124606Y0483793D01*
X0124614Y0483736D01*
X0124626Y0483680D01*
X0124642Y0483624D01*
X0124661Y0483570D01*
X0124684Y0483518D01*
X0124711Y0483467D01*
X0124741Y0483417D01*
X0124774Y0483370D01*
X0124810Y0483326D01*
X0124849Y0483284D01*
X0124891Y0483244D01*
X0124936Y0483208D01*
X0124983Y0483175D01*
X0125032Y0483145D01*
X0125083Y0483118D01*
X0125135Y0483095D01*
X0124644Y0481128D02*
X0124778Y0481082D01*
X0124913Y0481039D01*
X0125049Y0481000D01*
X0125186Y0480964D01*
X0125323Y0480932D01*
X0125462Y0480903D01*
X0125601Y0480877D01*
X0125741Y0480856D01*
X0125882Y0480837D01*
X0126022Y0480823D01*
X0126164Y0480812D01*
X0126305Y0480804D01*
X0126447Y0480801D01*
X0129988Y0481783D02*
X0129988Y0483750D01*
X0129990Y0483812D01*
X0129996Y0483873D01*
X0130005Y0483934D01*
X0130019Y0483994D01*
X0130036Y0484054D01*
X0130057Y0484112D01*
X0130082Y0484169D01*
X0130110Y0484224D01*
X0130141Y0484277D01*
X0130176Y0484328D01*
X0130214Y0484377D01*
X0130254Y0484423D01*
X0130298Y0484467D01*
X0130344Y0484507D01*
X0130393Y0484545D01*
X0130444Y0484580D01*
X0130497Y0484611D01*
X0130552Y0484639D01*
X0130609Y0484664D01*
X0130667Y0484685D01*
X0130727Y0484702D01*
X0130787Y0484716D01*
X0130848Y0484725D01*
X0130909Y0484731D01*
X0130971Y0484733D01*
X0132282Y0484733D01*
X0134695Y0483422D02*
X0134695Y0482111D01*
X0134696Y0482111D02*
X0134698Y0482040D01*
X0134704Y0481969D01*
X0134713Y0481899D01*
X0134727Y0481829D01*
X0134744Y0481760D01*
X0134765Y0481692D01*
X0134789Y0481626D01*
X0134817Y0481561D01*
X0134849Y0481497D01*
X0134884Y0481435D01*
X0134922Y0481375D01*
X0134963Y0481318D01*
X0135008Y0481262D01*
X0135055Y0481209D01*
X0135105Y0481159D01*
X0135158Y0481112D01*
X0135214Y0481067D01*
X0135271Y0481026D01*
X0135331Y0480988D01*
X0135393Y0480953D01*
X0135457Y0480921D01*
X0135522Y0480893D01*
X0135588Y0480869D01*
X0135656Y0480848D01*
X0135725Y0480831D01*
X0135795Y0480817D01*
X0135865Y0480808D01*
X0135936Y0480802D01*
X0136007Y0480800D01*
X0136078Y0480802D01*
X0136149Y0480808D01*
X0136219Y0480817D01*
X0136289Y0480831D01*
X0136358Y0480848D01*
X0136426Y0480869D01*
X0136492Y0480893D01*
X0136557Y0480921D01*
X0136621Y0480953D01*
X0136683Y0480988D01*
X0136743Y0481026D01*
X0136800Y0481067D01*
X0136856Y0481112D01*
X0136909Y0481159D01*
X0136959Y0481209D01*
X0137006Y0481262D01*
X0137051Y0481318D01*
X0137092Y0481375D01*
X0137130Y0481435D01*
X0137165Y0481497D01*
X0137197Y0481561D01*
X0137225Y0481626D01*
X0137249Y0481692D01*
X0137270Y0481760D01*
X0137287Y0481829D01*
X0137301Y0481899D01*
X0137310Y0481969D01*
X0137316Y0482040D01*
X0137318Y0482111D01*
X0137318Y0483422D01*
X0137316Y0483493D01*
X0137310Y0483564D01*
X0137301Y0483634D01*
X0137287Y0483704D01*
X0137270Y0483773D01*
X0137249Y0483841D01*
X0137225Y0483907D01*
X0137197Y0483972D01*
X0137165Y0484036D01*
X0137130Y0484098D01*
X0137092Y0484158D01*
X0137051Y0484215D01*
X0137006Y0484271D01*
X0136959Y0484324D01*
X0136909Y0484374D01*
X0136856Y0484421D01*
X0136800Y0484466D01*
X0136743Y0484507D01*
X0136683Y0484545D01*
X0136621Y0484580D01*
X0136557Y0484612D01*
X0136492Y0484640D01*
X0136426Y0484664D01*
X0136358Y0484685D01*
X0136289Y0484702D01*
X0136219Y0484716D01*
X0136149Y0484725D01*
X0136078Y0484731D01*
X0136007Y0484733D01*
X0135936Y0484731D01*
X0135865Y0484725D01*
X0135795Y0484716D01*
X0135725Y0484702D01*
X0135656Y0484685D01*
X0135588Y0484664D01*
X0135522Y0484640D01*
X0135457Y0484612D01*
X0135393Y0484580D01*
X0135331Y0484545D01*
X0135271Y0484507D01*
X0135214Y0484466D01*
X0135158Y0484421D01*
X0135105Y0484374D01*
X0135055Y0484324D01*
X0135008Y0484271D01*
X0134963Y0484215D01*
X0134922Y0484158D01*
X0134884Y0484098D01*
X0134849Y0484036D01*
X0134817Y0483972D01*
X0134789Y0483907D01*
X0134765Y0483841D01*
X0134744Y0483773D01*
X0134727Y0483704D01*
X0134713Y0483634D01*
X0134704Y0483564D01*
X0134698Y0483493D01*
X0134696Y0483422D01*
X0132282Y0480800D02*
X0130971Y0480800D01*
X0130909Y0480802D01*
X0130848Y0480808D01*
X0130787Y0480817D01*
X0130727Y0480831D01*
X0130667Y0480848D01*
X0130609Y0480869D01*
X0130552Y0480894D01*
X0130497Y0480922D01*
X0130444Y0480953D01*
X0130393Y0480988D01*
X0130344Y0481026D01*
X0130298Y0481066D01*
X0130254Y0481110D01*
X0130214Y0481156D01*
X0130176Y0481205D01*
X0130141Y0481256D01*
X0130110Y0481309D01*
X0130082Y0481364D01*
X0130057Y0481421D01*
X0130036Y0481479D01*
X0130019Y0481539D01*
X0130005Y0481599D01*
X0129996Y0481660D01*
X0129990Y0481721D01*
X0129988Y0481783D01*
X0140284Y0480800D02*
X0140284Y0484733D01*
X0142251Y0484733D01*
X0142251Y0484078D01*
X0144337Y0483422D02*
X0144337Y0481783D01*
X0144339Y0481721D01*
X0144345Y0481660D01*
X0144354Y0481599D01*
X0144368Y0481539D01*
X0144385Y0481479D01*
X0144406Y0481421D01*
X0144431Y0481364D01*
X0144459Y0481309D01*
X0144490Y0481256D01*
X0144525Y0481205D01*
X0144563Y0481156D01*
X0144603Y0481110D01*
X0144647Y0481066D01*
X0144693Y0481026D01*
X0144742Y0480988D01*
X0144793Y0480953D01*
X0144846Y0480922D01*
X0144901Y0480894D01*
X0144958Y0480869D01*
X0145016Y0480848D01*
X0145076Y0480831D01*
X0145136Y0480817D01*
X0145197Y0480808D01*
X0145258Y0480802D01*
X0145320Y0480800D01*
X0146959Y0480800D01*
X0146959Y0482767D02*
X0144337Y0482767D01*
X0144337Y0483422D02*
X0144339Y0483493D01*
X0144345Y0483564D01*
X0144354Y0483634D01*
X0144368Y0483704D01*
X0144385Y0483773D01*
X0144406Y0483841D01*
X0144430Y0483907D01*
X0144458Y0483972D01*
X0144490Y0484036D01*
X0144525Y0484098D01*
X0144563Y0484158D01*
X0144604Y0484215D01*
X0144649Y0484271D01*
X0144696Y0484324D01*
X0144746Y0484374D01*
X0144799Y0484421D01*
X0144855Y0484466D01*
X0144912Y0484507D01*
X0144972Y0484545D01*
X0145034Y0484580D01*
X0145098Y0484612D01*
X0145163Y0484640D01*
X0145229Y0484664D01*
X0145297Y0484685D01*
X0145366Y0484702D01*
X0145436Y0484716D01*
X0145506Y0484725D01*
X0145577Y0484731D01*
X0145648Y0484733D01*
X0145719Y0484731D01*
X0145790Y0484725D01*
X0145860Y0484716D01*
X0145930Y0484702D01*
X0145999Y0484685D01*
X0146067Y0484664D01*
X0146133Y0484640D01*
X0146198Y0484612D01*
X0146262Y0484580D01*
X0146324Y0484545D01*
X0146384Y0484507D01*
X0146441Y0484466D01*
X0146497Y0484421D01*
X0146550Y0484374D01*
X0146600Y0484324D01*
X0146647Y0484271D01*
X0146692Y0484215D01*
X0146733Y0484158D01*
X0146771Y0484098D01*
X0146806Y0484036D01*
X0146838Y0483972D01*
X0146866Y0483907D01*
X0146890Y0483841D01*
X0146911Y0483773D01*
X0146928Y0483704D01*
X0146942Y0483634D01*
X0146951Y0483564D01*
X0146957Y0483493D01*
X0146959Y0483422D01*
X0146959Y0482767D01*
X0214541Y0484733D02*
X0215852Y0480800D01*
X0217163Y0484733D01*
X0219834Y0483094D02*
X0223768Y0483094D01*
X0227136Y0483094D02*
X0228774Y0482439D01*
X0228775Y0482439D02*
X0228827Y0482416D01*
X0228878Y0482389D01*
X0228927Y0482359D01*
X0228974Y0482326D01*
X0229019Y0482290D01*
X0229061Y0482250D01*
X0229100Y0482208D01*
X0229136Y0482164D01*
X0229169Y0482117D01*
X0229199Y0482067D01*
X0229226Y0482016D01*
X0229249Y0481964D01*
X0229268Y0481910D01*
X0229284Y0481854D01*
X0229296Y0481798D01*
X0229304Y0481741D01*
X0229308Y0481684D01*
X0229309Y0481626D01*
X0229305Y0481569D01*
X0229298Y0481512D01*
X0229286Y0481455D01*
X0229271Y0481400D01*
X0229253Y0481345D01*
X0229230Y0481292D01*
X0229204Y0481241D01*
X0229175Y0481192D01*
X0229142Y0481144D01*
X0229106Y0481099D01*
X0229068Y0481057D01*
X0229026Y0481017D01*
X0228982Y0480980D01*
X0228935Y0480946D01*
X0228887Y0480915D01*
X0228836Y0480888D01*
X0228784Y0480864D01*
X0228730Y0480844D01*
X0228675Y0480828D01*
X0228619Y0480815D01*
X0228562Y0480806D01*
X0228504Y0480801D01*
X0228447Y0480800D01*
X0228938Y0484405D02*
X0228831Y0484451D01*
X0228722Y0484494D01*
X0228612Y0484534D01*
X0228500Y0484570D01*
X0228388Y0484602D01*
X0228274Y0484631D01*
X0228160Y0484657D01*
X0228045Y0484678D01*
X0227930Y0484697D01*
X0227813Y0484711D01*
X0227697Y0484722D01*
X0227580Y0484729D01*
X0227463Y0484733D01*
X0227463Y0484734D02*
X0227406Y0484733D01*
X0227348Y0484728D01*
X0227291Y0484719D01*
X0227235Y0484706D01*
X0227180Y0484690D01*
X0227126Y0484670D01*
X0227074Y0484646D01*
X0227023Y0484619D01*
X0226975Y0484588D01*
X0226928Y0484554D01*
X0226884Y0484517D01*
X0226842Y0484477D01*
X0226804Y0484435D01*
X0226768Y0484390D01*
X0226735Y0484342D01*
X0226706Y0484293D01*
X0226680Y0484242D01*
X0226657Y0484189D01*
X0226639Y0484134D01*
X0226624Y0484079D01*
X0226612Y0484022D01*
X0226605Y0483965D01*
X0226601Y0483908D01*
X0226602Y0483850D01*
X0226606Y0483793D01*
X0226614Y0483736D01*
X0226626Y0483680D01*
X0226642Y0483624D01*
X0226661Y0483570D01*
X0226684Y0483518D01*
X0226711Y0483467D01*
X0226741Y0483417D01*
X0226774Y0483370D01*
X0226810Y0483326D01*
X0226849Y0483284D01*
X0226891Y0483244D01*
X0226936Y0483208D01*
X0226983Y0483175D01*
X0227032Y0483145D01*
X0227083Y0483118D01*
X0227135Y0483095D01*
X0226644Y0481128D02*
X0226778Y0481082D01*
X0226913Y0481039D01*
X0227049Y0481000D01*
X0227186Y0480964D01*
X0227323Y0480932D01*
X0227462Y0480903D01*
X0227601Y0480877D01*
X0227741Y0480856D01*
X0227882Y0480837D01*
X0228022Y0480823D01*
X0228164Y0480812D01*
X0228305Y0480804D01*
X0228447Y0480801D01*
X0231988Y0481783D02*
X0231988Y0483750D01*
X0231990Y0483812D01*
X0231996Y0483873D01*
X0232005Y0483934D01*
X0232019Y0483994D01*
X0232036Y0484054D01*
X0232057Y0484112D01*
X0232082Y0484169D01*
X0232110Y0484224D01*
X0232141Y0484277D01*
X0232176Y0484328D01*
X0232214Y0484377D01*
X0232254Y0484423D01*
X0232298Y0484467D01*
X0232344Y0484507D01*
X0232393Y0484545D01*
X0232444Y0484580D01*
X0232497Y0484611D01*
X0232552Y0484639D01*
X0232609Y0484664D01*
X0232667Y0484685D01*
X0232727Y0484702D01*
X0232787Y0484716D01*
X0232848Y0484725D01*
X0232909Y0484731D01*
X0232971Y0484733D01*
X0234282Y0484733D01*
X0236695Y0483422D02*
X0236695Y0482111D01*
X0236696Y0482111D02*
X0236698Y0482040D01*
X0236704Y0481969D01*
X0236713Y0481899D01*
X0236727Y0481829D01*
X0236744Y0481760D01*
X0236765Y0481692D01*
X0236789Y0481626D01*
X0236817Y0481561D01*
X0236849Y0481497D01*
X0236884Y0481435D01*
X0236922Y0481375D01*
X0236963Y0481318D01*
X0237008Y0481262D01*
X0237055Y0481209D01*
X0237105Y0481159D01*
X0237158Y0481112D01*
X0237214Y0481067D01*
X0237271Y0481026D01*
X0237331Y0480988D01*
X0237393Y0480953D01*
X0237457Y0480921D01*
X0237522Y0480893D01*
X0237588Y0480869D01*
X0237656Y0480848D01*
X0237725Y0480831D01*
X0237795Y0480817D01*
X0237865Y0480808D01*
X0237936Y0480802D01*
X0238007Y0480800D01*
X0238078Y0480802D01*
X0238149Y0480808D01*
X0238219Y0480817D01*
X0238289Y0480831D01*
X0238358Y0480848D01*
X0238426Y0480869D01*
X0238492Y0480893D01*
X0238557Y0480921D01*
X0238621Y0480953D01*
X0238683Y0480988D01*
X0238743Y0481026D01*
X0238800Y0481067D01*
X0238856Y0481112D01*
X0238909Y0481159D01*
X0238959Y0481209D01*
X0239006Y0481262D01*
X0239051Y0481318D01*
X0239092Y0481375D01*
X0239130Y0481435D01*
X0239165Y0481497D01*
X0239197Y0481561D01*
X0239225Y0481626D01*
X0239249Y0481692D01*
X0239270Y0481760D01*
X0239287Y0481829D01*
X0239301Y0481899D01*
X0239310Y0481969D01*
X0239316Y0482040D01*
X0239318Y0482111D01*
X0239318Y0483422D01*
X0239316Y0483493D01*
X0239310Y0483564D01*
X0239301Y0483634D01*
X0239287Y0483704D01*
X0239270Y0483773D01*
X0239249Y0483841D01*
X0239225Y0483907D01*
X0239197Y0483972D01*
X0239165Y0484036D01*
X0239130Y0484098D01*
X0239092Y0484158D01*
X0239051Y0484215D01*
X0239006Y0484271D01*
X0238959Y0484324D01*
X0238909Y0484374D01*
X0238856Y0484421D01*
X0238800Y0484466D01*
X0238743Y0484507D01*
X0238683Y0484545D01*
X0238621Y0484580D01*
X0238557Y0484612D01*
X0238492Y0484640D01*
X0238426Y0484664D01*
X0238358Y0484685D01*
X0238289Y0484702D01*
X0238219Y0484716D01*
X0238149Y0484725D01*
X0238078Y0484731D01*
X0238007Y0484733D01*
X0237936Y0484731D01*
X0237865Y0484725D01*
X0237795Y0484716D01*
X0237725Y0484702D01*
X0237656Y0484685D01*
X0237588Y0484664D01*
X0237522Y0484640D01*
X0237457Y0484612D01*
X0237393Y0484580D01*
X0237331Y0484545D01*
X0237271Y0484507D01*
X0237214Y0484466D01*
X0237158Y0484421D01*
X0237105Y0484374D01*
X0237055Y0484324D01*
X0237008Y0484271D01*
X0236963Y0484215D01*
X0236922Y0484158D01*
X0236884Y0484098D01*
X0236849Y0484036D01*
X0236817Y0483972D01*
X0236789Y0483907D01*
X0236765Y0483841D01*
X0236744Y0483773D01*
X0236727Y0483704D01*
X0236713Y0483634D01*
X0236704Y0483564D01*
X0236698Y0483493D01*
X0236696Y0483422D01*
X0234282Y0480800D02*
X0232971Y0480800D01*
X0232909Y0480802D01*
X0232848Y0480808D01*
X0232787Y0480817D01*
X0232727Y0480831D01*
X0232667Y0480848D01*
X0232609Y0480869D01*
X0232552Y0480894D01*
X0232497Y0480922D01*
X0232444Y0480953D01*
X0232393Y0480988D01*
X0232344Y0481026D01*
X0232298Y0481066D01*
X0232254Y0481110D01*
X0232214Y0481156D01*
X0232176Y0481205D01*
X0232141Y0481256D01*
X0232110Y0481309D01*
X0232082Y0481364D01*
X0232057Y0481421D01*
X0232036Y0481479D01*
X0232019Y0481539D01*
X0232005Y0481599D01*
X0231996Y0481660D01*
X0231990Y0481721D01*
X0231988Y0481783D01*
X0242284Y0480800D02*
X0242284Y0484733D01*
X0244251Y0484733D01*
X0244251Y0484078D01*
X0246337Y0483422D02*
X0246337Y0481783D01*
X0246339Y0481721D01*
X0246345Y0481660D01*
X0246354Y0481599D01*
X0246368Y0481539D01*
X0246385Y0481479D01*
X0246406Y0481421D01*
X0246431Y0481364D01*
X0246459Y0481309D01*
X0246490Y0481256D01*
X0246525Y0481205D01*
X0246563Y0481156D01*
X0246603Y0481110D01*
X0246647Y0481066D01*
X0246693Y0481026D01*
X0246742Y0480988D01*
X0246793Y0480953D01*
X0246846Y0480922D01*
X0246901Y0480894D01*
X0246958Y0480869D01*
X0247016Y0480848D01*
X0247076Y0480831D01*
X0247136Y0480817D01*
X0247197Y0480808D01*
X0247258Y0480802D01*
X0247320Y0480800D01*
X0248959Y0480800D01*
X0248959Y0482767D02*
X0246337Y0482767D01*
X0246337Y0483422D02*
X0246339Y0483493D01*
X0246345Y0483564D01*
X0246354Y0483634D01*
X0246368Y0483704D01*
X0246385Y0483773D01*
X0246406Y0483841D01*
X0246430Y0483907D01*
X0246458Y0483972D01*
X0246490Y0484036D01*
X0246525Y0484098D01*
X0246563Y0484158D01*
X0246604Y0484215D01*
X0246649Y0484271D01*
X0246696Y0484324D01*
X0246746Y0484374D01*
X0246799Y0484421D01*
X0246855Y0484466D01*
X0246912Y0484507D01*
X0246972Y0484545D01*
X0247034Y0484580D01*
X0247098Y0484612D01*
X0247163Y0484640D01*
X0247229Y0484664D01*
X0247297Y0484685D01*
X0247366Y0484702D01*
X0247436Y0484716D01*
X0247506Y0484725D01*
X0247577Y0484731D01*
X0247648Y0484733D01*
X0247719Y0484731D01*
X0247790Y0484725D01*
X0247860Y0484716D01*
X0247930Y0484702D01*
X0247999Y0484685D01*
X0248067Y0484664D01*
X0248133Y0484640D01*
X0248198Y0484612D01*
X0248262Y0484580D01*
X0248324Y0484545D01*
X0248384Y0484507D01*
X0248441Y0484466D01*
X0248497Y0484421D01*
X0248550Y0484374D01*
X0248600Y0484324D01*
X0248647Y0484271D01*
X0248692Y0484215D01*
X0248733Y0484158D01*
X0248771Y0484098D01*
X0248806Y0484036D01*
X0248838Y0483972D01*
X0248866Y0483907D01*
X0248890Y0483841D01*
X0248911Y0483773D01*
X0248928Y0483704D01*
X0248942Y0483634D01*
X0248951Y0483564D01*
X0248957Y0483493D01*
X0248959Y0483422D01*
X0248959Y0482767D01*
X0316541Y0484733D02*
X0317852Y0480800D01*
X0319163Y0484733D01*
X0321834Y0483094D02*
X0325768Y0483094D01*
X0329136Y0483094D02*
X0330774Y0482439D01*
X0330775Y0482439D02*
X0330827Y0482416D01*
X0330878Y0482389D01*
X0330927Y0482359D01*
X0330974Y0482326D01*
X0331019Y0482290D01*
X0331061Y0482250D01*
X0331100Y0482208D01*
X0331136Y0482164D01*
X0331169Y0482117D01*
X0331199Y0482067D01*
X0331226Y0482016D01*
X0331249Y0481964D01*
X0331268Y0481910D01*
X0331284Y0481854D01*
X0331296Y0481798D01*
X0331304Y0481741D01*
X0331308Y0481684D01*
X0331309Y0481626D01*
X0331305Y0481569D01*
X0331298Y0481512D01*
X0331286Y0481455D01*
X0331271Y0481400D01*
X0331253Y0481345D01*
X0331230Y0481292D01*
X0331204Y0481241D01*
X0331175Y0481192D01*
X0331142Y0481144D01*
X0331106Y0481099D01*
X0331068Y0481057D01*
X0331026Y0481017D01*
X0330982Y0480980D01*
X0330935Y0480946D01*
X0330887Y0480915D01*
X0330836Y0480888D01*
X0330784Y0480864D01*
X0330730Y0480844D01*
X0330675Y0480828D01*
X0330619Y0480815D01*
X0330562Y0480806D01*
X0330504Y0480801D01*
X0330447Y0480800D01*
X0330938Y0484405D02*
X0330831Y0484451D01*
X0330722Y0484494D01*
X0330612Y0484534D01*
X0330500Y0484570D01*
X0330388Y0484602D01*
X0330274Y0484631D01*
X0330160Y0484657D01*
X0330045Y0484678D01*
X0329930Y0484697D01*
X0329813Y0484711D01*
X0329697Y0484722D01*
X0329580Y0484729D01*
X0329463Y0484733D01*
X0329463Y0484734D02*
X0329406Y0484733D01*
X0329348Y0484728D01*
X0329291Y0484719D01*
X0329235Y0484706D01*
X0329180Y0484690D01*
X0329126Y0484670D01*
X0329074Y0484646D01*
X0329023Y0484619D01*
X0328975Y0484588D01*
X0328928Y0484554D01*
X0328884Y0484517D01*
X0328842Y0484477D01*
X0328804Y0484435D01*
X0328768Y0484390D01*
X0328735Y0484342D01*
X0328706Y0484293D01*
X0328680Y0484242D01*
X0328657Y0484189D01*
X0328639Y0484134D01*
X0328624Y0484079D01*
X0328612Y0484022D01*
X0328605Y0483965D01*
X0328601Y0483908D01*
X0328602Y0483850D01*
X0328606Y0483793D01*
X0328614Y0483736D01*
X0328626Y0483680D01*
X0328642Y0483624D01*
X0328661Y0483570D01*
X0328684Y0483518D01*
X0328711Y0483467D01*
X0328741Y0483417D01*
X0328774Y0483370D01*
X0328810Y0483326D01*
X0328849Y0483284D01*
X0328891Y0483244D01*
X0328936Y0483208D01*
X0328983Y0483175D01*
X0329032Y0483145D01*
X0329083Y0483118D01*
X0329135Y0483095D01*
X0328644Y0481128D02*
X0328778Y0481082D01*
X0328913Y0481039D01*
X0329049Y0481000D01*
X0329186Y0480964D01*
X0329323Y0480932D01*
X0329462Y0480903D01*
X0329601Y0480877D01*
X0329741Y0480856D01*
X0329882Y0480837D01*
X0330022Y0480823D01*
X0330164Y0480812D01*
X0330305Y0480804D01*
X0330447Y0480801D01*
X0333988Y0481783D02*
X0333988Y0483750D01*
X0333990Y0483812D01*
X0333996Y0483873D01*
X0334005Y0483934D01*
X0334019Y0483994D01*
X0334036Y0484054D01*
X0334057Y0484112D01*
X0334082Y0484169D01*
X0334110Y0484224D01*
X0334141Y0484277D01*
X0334176Y0484328D01*
X0334214Y0484377D01*
X0334254Y0484423D01*
X0334298Y0484467D01*
X0334344Y0484507D01*
X0334393Y0484545D01*
X0334444Y0484580D01*
X0334497Y0484611D01*
X0334552Y0484639D01*
X0334609Y0484664D01*
X0334667Y0484685D01*
X0334727Y0484702D01*
X0334787Y0484716D01*
X0334848Y0484725D01*
X0334909Y0484731D01*
X0334971Y0484733D01*
X0336282Y0484733D01*
X0338695Y0483422D02*
X0338695Y0482111D01*
X0338696Y0482111D02*
X0338698Y0482040D01*
X0338704Y0481969D01*
X0338713Y0481899D01*
X0338727Y0481829D01*
X0338744Y0481760D01*
X0338765Y0481692D01*
X0338789Y0481626D01*
X0338817Y0481561D01*
X0338849Y0481497D01*
X0338884Y0481435D01*
X0338922Y0481375D01*
X0338963Y0481318D01*
X0339008Y0481262D01*
X0339055Y0481209D01*
X0339105Y0481159D01*
X0339158Y0481112D01*
X0339214Y0481067D01*
X0339271Y0481026D01*
X0339331Y0480988D01*
X0339393Y0480953D01*
X0339457Y0480921D01*
X0339522Y0480893D01*
X0339588Y0480869D01*
X0339656Y0480848D01*
X0339725Y0480831D01*
X0339795Y0480817D01*
X0339865Y0480808D01*
X0339936Y0480802D01*
X0340007Y0480800D01*
X0340078Y0480802D01*
X0340149Y0480808D01*
X0340219Y0480817D01*
X0340289Y0480831D01*
X0340358Y0480848D01*
X0340426Y0480869D01*
X0340492Y0480893D01*
X0340557Y0480921D01*
X0340621Y0480953D01*
X0340683Y0480988D01*
X0340743Y0481026D01*
X0340800Y0481067D01*
X0340856Y0481112D01*
X0340909Y0481159D01*
X0340959Y0481209D01*
X0341006Y0481262D01*
X0341051Y0481318D01*
X0341092Y0481375D01*
X0341130Y0481435D01*
X0341165Y0481497D01*
X0341197Y0481561D01*
X0341225Y0481626D01*
X0341249Y0481692D01*
X0341270Y0481760D01*
X0341287Y0481829D01*
X0341301Y0481899D01*
X0341310Y0481969D01*
X0341316Y0482040D01*
X0341318Y0482111D01*
X0341318Y0483422D01*
X0341316Y0483493D01*
X0341310Y0483564D01*
X0341301Y0483634D01*
X0341287Y0483704D01*
X0341270Y0483773D01*
X0341249Y0483841D01*
X0341225Y0483907D01*
X0341197Y0483972D01*
X0341165Y0484036D01*
X0341130Y0484098D01*
X0341092Y0484158D01*
X0341051Y0484215D01*
X0341006Y0484271D01*
X0340959Y0484324D01*
X0340909Y0484374D01*
X0340856Y0484421D01*
X0340800Y0484466D01*
X0340743Y0484507D01*
X0340683Y0484545D01*
X0340621Y0484580D01*
X0340557Y0484612D01*
X0340492Y0484640D01*
X0340426Y0484664D01*
X0340358Y0484685D01*
X0340289Y0484702D01*
X0340219Y0484716D01*
X0340149Y0484725D01*
X0340078Y0484731D01*
X0340007Y0484733D01*
X0339936Y0484731D01*
X0339865Y0484725D01*
X0339795Y0484716D01*
X0339725Y0484702D01*
X0339656Y0484685D01*
X0339588Y0484664D01*
X0339522Y0484640D01*
X0339457Y0484612D01*
X0339393Y0484580D01*
X0339331Y0484545D01*
X0339271Y0484507D01*
X0339214Y0484466D01*
X0339158Y0484421D01*
X0339105Y0484374D01*
X0339055Y0484324D01*
X0339008Y0484271D01*
X0338963Y0484215D01*
X0338922Y0484158D01*
X0338884Y0484098D01*
X0338849Y0484036D01*
X0338817Y0483972D01*
X0338789Y0483907D01*
X0338765Y0483841D01*
X0338744Y0483773D01*
X0338727Y0483704D01*
X0338713Y0483634D01*
X0338704Y0483564D01*
X0338698Y0483493D01*
X0338696Y0483422D01*
X0336282Y0480800D02*
X0334971Y0480800D01*
X0334909Y0480802D01*
X0334848Y0480808D01*
X0334787Y0480817D01*
X0334727Y0480831D01*
X0334667Y0480848D01*
X0334609Y0480869D01*
X0334552Y0480894D01*
X0334497Y0480922D01*
X0334444Y0480953D01*
X0334393Y0480988D01*
X0334344Y0481026D01*
X0334298Y0481066D01*
X0334254Y0481110D01*
X0334214Y0481156D01*
X0334176Y0481205D01*
X0334141Y0481256D01*
X0334110Y0481309D01*
X0334082Y0481364D01*
X0334057Y0481421D01*
X0334036Y0481479D01*
X0334019Y0481539D01*
X0334005Y0481599D01*
X0333996Y0481660D01*
X0333990Y0481721D01*
X0333988Y0481783D01*
X0344284Y0480800D02*
X0344284Y0484733D01*
X0346251Y0484733D01*
X0346251Y0484078D01*
X0348337Y0483422D02*
X0348337Y0481783D01*
X0348339Y0481721D01*
X0348345Y0481660D01*
X0348354Y0481599D01*
X0348368Y0481539D01*
X0348385Y0481479D01*
X0348406Y0481421D01*
X0348431Y0481364D01*
X0348459Y0481309D01*
X0348490Y0481256D01*
X0348525Y0481205D01*
X0348563Y0481156D01*
X0348603Y0481110D01*
X0348647Y0481066D01*
X0348693Y0481026D01*
X0348742Y0480988D01*
X0348793Y0480953D01*
X0348846Y0480922D01*
X0348901Y0480894D01*
X0348958Y0480869D01*
X0349016Y0480848D01*
X0349076Y0480831D01*
X0349136Y0480817D01*
X0349197Y0480808D01*
X0349258Y0480802D01*
X0349320Y0480800D01*
X0350959Y0480800D01*
X0350959Y0482767D02*
X0348337Y0482767D01*
X0348337Y0483422D02*
X0348339Y0483493D01*
X0348345Y0483564D01*
X0348354Y0483634D01*
X0348368Y0483704D01*
X0348385Y0483773D01*
X0348406Y0483841D01*
X0348430Y0483907D01*
X0348458Y0483972D01*
X0348490Y0484036D01*
X0348525Y0484098D01*
X0348563Y0484158D01*
X0348604Y0484215D01*
X0348649Y0484271D01*
X0348696Y0484324D01*
X0348746Y0484374D01*
X0348799Y0484421D01*
X0348855Y0484466D01*
X0348912Y0484507D01*
X0348972Y0484545D01*
X0349034Y0484580D01*
X0349098Y0484612D01*
X0349163Y0484640D01*
X0349229Y0484664D01*
X0349297Y0484685D01*
X0349366Y0484702D01*
X0349436Y0484716D01*
X0349506Y0484725D01*
X0349577Y0484731D01*
X0349648Y0484733D01*
X0349719Y0484731D01*
X0349790Y0484725D01*
X0349860Y0484716D01*
X0349930Y0484702D01*
X0349999Y0484685D01*
X0350067Y0484664D01*
X0350133Y0484640D01*
X0350198Y0484612D01*
X0350262Y0484580D01*
X0350324Y0484545D01*
X0350384Y0484507D01*
X0350441Y0484466D01*
X0350497Y0484421D01*
X0350550Y0484374D01*
X0350600Y0484324D01*
X0350647Y0484271D01*
X0350692Y0484215D01*
X0350733Y0484158D01*
X0350771Y0484098D01*
X0350806Y0484036D01*
X0350838Y0483972D01*
X0350866Y0483907D01*
X0350890Y0483841D01*
X0350911Y0483773D01*
X0350928Y0483704D01*
X0350942Y0483634D01*
X0350951Y0483564D01*
X0350957Y0483493D01*
X0350959Y0483422D01*
X0350959Y0482767D01*
X0418541Y0484733D02*
X0419852Y0480800D01*
X0421163Y0484733D01*
X0423834Y0483094D02*
X0427768Y0483094D01*
X0431136Y0483094D02*
X0432774Y0482439D01*
X0432775Y0482439D02*
X0432827Y0482416D01*
X0432878Y0482389D01*
X0432927Y0482359D01*
X0432974Y0482326D01*
X0433019Y0482290D01*
X0433061Y0482250D01*
X0433100Y0482208D01*
X0433136Y0482164D01*
X0433169Y0482117D01*
X0433199Y0482067D01*
X0433226Y0482016D01*
X0433249Y0481964D01*
X0433268Y0481910D01*
X0433284Y0481854D01*
X0433296Y0481798D01*
X0433304Y0481741D01*
X0433308Y0481684D01*
X0433309Y0481626D01*
X0433305Y0481569D01*
X0433298Y0481512D01*
X0433286Y0481455D01*
X0433271Y0481400D01*
X0433253Y0481345D01*
X0433230Y0481292D01*
X0433204Y0481241D01*
X0433175Y0481192D01*
X0433142Y0481144D01*
X0433106Y0481099D01*
X0433068Y0481057D01*
X0433026Y0481017D01*
X0432982Y0480980D01*
X0432935Y0480946D01*
X0432887Y0480915D01*
X0432836Y0480888D01*
X0432784Y0480864D01*
X0432730Y0480844D01*
X0432675Y0480828D01*
X0432619Y0480815D01*
X0432562Y0480806D01*
X0432504Y0480801D01*
X0432447Y0480800D01*
X0432938Y0484405D02*
X0432831Y0484451D01*
X0432722Y0484494D01*
X0432612Y0484534D01*
X0432500Y0484570D01*
X0432388Y0484602D01*
X0432274Y0484631D01*
X0432160Y0484657D01*
X0432045Y0484678D01*
X0431930Y0484697D01*
X0431813Y0484711D01*
X0431697Y0484722D01*
X0431580Y0484729D01*
X0431463Y0484733D01*
X0431463Y0484734D02*
X0431406Y0484733D01*
X0431348Y0484728D01*
X0431291Y0484719D01*
X0431235Y0484706D01*
X0431180Y0484690D01*
X0431126Y0484670D01*
X0431074Y0484646D01*
X0431023Y0484619D01*
X0430975Y0484588D01*
X0430928Y0484554D01*
X0430884Y0484517D01*
X0430842Y0484477D01*
X0430804Y0484435D01*
X0430768Y0484390D01*
X0430735Y0484342D01*
X0430706Y0484293D01*
X0430680Y0484242D01*
X0430657Y0484189D01*
X0430639Y0484134D01*
X0430624Y0484079D01*
X0430612Y0484022D01*
X0430605Y0483965D01*
X0430601Y0483908D01*
X0430602Y0483850D01*
X0430606Y0483793D01*
X0430614Y0483736D01*
X0430626Y0483680D01*
X0430642Y0483624D01*
X0430661Y0483570D01*
X0430684Y0483518D01*
X0430711Y0483467D01*
X0430741Y0483417D01*
X0430774Y0483370D01*
X0430810Y0483326D01*
X0430849Y0483284D01*
X0430891Y0483244D01*
X0430936Y0483208D01*
X0430983Y0483175D01*
X0431032Y0483145D01*
X0431083Y0483118D01*
X0431135Y0483095D01*
X0430644Y0481128D02*
X0430778Y0481082D01*
X0430913Y0481039D01*
X0431049Y0481000D01*
X0431186Y0480964D01*
X0431323Y0480932D01*
X0431462Y0480903D01*
X0431601Y0480877D01*
X0431741Y0480856D01*
X0431882Y0480837D01*
X0432022Y0480823D01*
X0432164Y0480812D01*
X0432305Y0480804D01*
X0432447Y0480801D01*
X0435988Y0481783D02*
X0435988Y0483750D01*
X0435990Y0483812D01*
X0435996Y0483873D01*
X0436005Y0483934D01*
X0436019Y0483994D01*
X0436036Y0484054D01*
X0436057Y0484112D01*
X0436082Y0484169D01*
X0436110Y0484224D01*
X0436141Y0484277D01*
X0436176Y0484328D01*
X0436214Y0484377D01*
X0436254Y0484423D01*
X0436298Y0484467D01*
X0436344Y0484507D01*
X0436393Y0484545D01*
X0436444Y0484580D01*
X0436497Y0484611D01*
X0436552Y0484639D01*
X0436609Y0484664D01*
X0436667Y0484685D01*
X0436727Y0484702D01*
X0436787Y0484716D01*
X0436848Y0484725D01*
X0436909Y0484731D01*
X0436971Y0484733D01*
X0438282Y0484733D01*
X0440695Y0483422D02*
X0440695Y0482111D01*
X0440696Y0482111D02*
X0440698Y0482040D01*
X0440704Y0481969D01*
X0440713Y0481899D01*
X0440727Y0481829D01*
X0440744Y0481760D01*
X0440765Y0481692D01*
X0440789Y0481626D01*
X0440817Y0481561D01*
X0440849Y0481497D01*
X0440884Y0481435D01*
X0440922Y0481375D01*
X0440963Y0481318D01*
X0441008Y0481262D01*
X0441055Y0481209D01*
X0441105Y0481159D01*
X0441158Y0481112D01*
X0441214Y0481067D01*
X0441271Y0481026D01*
X0441331Y0480988D01*
X0441393Y0480953D01*
X0441457Y0480921D01*
X0441522Y0480893D01*
X0441588Y0480869D01*
X0441656Y0480848D01*
X0441725Y0480831D01*
X0441795Y0480817D01*
X0441865Y0480808D01*
X0441936Y0480802D01*
X0442007Y0480800D01*
X0442078Y0480802D01*
X0442149Y0480808D01*
X0442219Y0480817D01*
X0442289Y0480831D01*
X0442358Y0480848D01*
X0442426Y0480869D01*
X0442492Y0480893D01*
X0442557Y0480921D01*
X0442621Y0480953D01*
X0442683Y0480988D01*
X0442743Y0481026D01*
X0442800Y0481067D01*
X0442856Y0481112D01*
X0442909Y0481159D01*
X0442959Y0481209D01*
X0443006Y0481262D01*
X0443051Y0481318D01*
X0443092Y0481375D01*
X0443130Y0481435D01*
X0443165Y0481497D01*
X0443197Y0481561D01*
X0443225Y0481626D01*
X0443249Y0481692D01*
X0443270Y0481760D01*
X0443287Y0481829D01*
X0443301Y0481899D01*
X0443310Y0481969D01*
X0443316Y0482040D01*
X0443318Y0482111D01*
X0443318Y0483422D01*
X0443316Y0483493D01*
X0443310Y0483564D01*
X0443301Y0483634D01*
X0443287Y0483704D01*
X0443270Y0483773D01*
X0443249Y0483841D01*
X0443225Y0483907D01*
X0443197Y0483972D01*
X0443165Y0484036D01*
X0443130Y0484098D01*
X0443092Y0484158D01*
X0443051Y0484215D01*
X0443006Y0484271D01*
X0442959Y0484324D01*
X0442909Y0484374D01*
X0442856Y0484421D01*
X0442800Y0484466D01*
X0442743Y0484507D01*
X0442683Y0484545D01*
X0442621Y0484580D01*
X0442557Y0484612D01*
X0442492Y0484640D01*
X0442426Y0484664D01*
X0442358Y0484685D01*
X0442289Y0484702D01*
X0442219Y0484716D01*
X0442149Y0484725D01*
X0442078Y0484731D01*
X0442007Y0484733D01*
X0441936Y0484731D01*
X0441865Y0484725D01*
X0441795Y0484716D01*
X0441725Y0484702D01*
X0441656Y0484685D01*
X0441588Y0484664D01*
X0441522Y0484640D01*
X0441457Y0484612D01*
X0441393Y0484580D01*
X0441331Y0484545D01*
X0441271Y0484507D01*
X0441214Y0484466D01*
X0441158Y0484421D01*
X0441105Y0484374D01*
X0441055Y0484324D01*
X0441008Y0484271D01*
X0440963Y0484215D01*
X0440922Y0484158D01*
X0440884Y0484098D01*
X0440849Y0484036D01*
X0440817Y0483972D01*
X0440789Y0483907D01*
X0440765Y0483841D01*
X0440744Y0483773D01*
X0440727Y0483704D01*
X0440713Y0483634D01*
X0440704Y0483564D01*
X0440698Y0483493D01*
X0440696Y0483422D01*
X0438282Y0480800D02*
X0436971Y0480800D01*
X0436909Y0480802D01*
X0436848Y0480808D01*
X0436787Y0480817D01*
X0436727Y0480831D01*
X0436667Y0480848D01*
X0436609Y0480869D01*
X0436552Y0480894D01*
X0436497Y0480922D01*
X0436444Y0480953D01*
X0436393Y0480988D01*
X0436344Y0481026D01*
X0436298Y0481066D01*
X0436254Y0481110D01*
X0436214Y0481156D01*
X0436176Y0481205D01*
X0436141Y0481256D01*
X0436110Y0481309D01*
X0436082Y0481364D01*
X0436057Y0481421D01*
X0436036Y0481479D01*
X0436019Y0481539D01*
X0436005Y0481599D01*
X0435996Y0481660D01*
X0435990Y0481721D01*
X0435988Y0481783D01*
X0446284Y0480800D02*
X0446284Y0484733D01*
X0448251Y0484733D01*
X0448251Y0484078D01*
X0450337Y0483422D02*
X0450337Y0481783D01*
X0450339Y0481721D01*
X0450345Y0481660D01*
X0450354Y0481599D01*
X0450368Y0481539D01*
X0450385Y0481479D01*
X0450406Y0481421D01*
X0450431Y0481364D01*
X0450459Y0481309D01*
X0450490Y0481256D01*
X0450525Y0481205D01*
X0450563Y0481156D01*
X0450603Y0481110D01*
X0450647Y0481066D01*
X0450693Y0481026D01*
X0450742Y0480988D01*
X0450793Y0480953D01*
X0450846Y0480922D01*
X0450901Y0480894D01*
X0450958Y0480869D01*
X0451016Y0480848D01*
X0451076Y0480831D01*
X0451136Y0480817D01*
X0451197Y0480808D01*
X0451258Y0480802D01*
X0451320Y0480800D01*
X0452959Y0480800D01*
X0452959Y0482767D02*
X0450337Y0482767D01*
X0450337Y0483422D02*
X0450339Y0483493D01*
X0450345Y0483564D01*
X0450354Y0483634D01*
X0450368Y0483704D01*
X0450385Y0483773D01*
X0450406Y0483841D01*
X0450430Y0483907D01*
X0450458Y0483972D01*
X0450490Y0484036D01*
X0450525Y0484098D01*
X0450563Y0484158D01*
X0450604Y0484215D01*
X0450649Y0484271D01*
X0450696Y0484324D01*
X0450746Y0484374D01*
X0450799Y0484421D01*
X0450855Y0484466D01*
X0450912Y0484507D01*
X0450972Y0484545D01*
X0451034Y0484580D01*
X0451098Y0484612D01*
X0451163Y0484640D01*
X0451229Y0484664D01*
X0451297Y0484685D01*
X0451366Y0484702D01*
X0451436Y0484716D01*
X0451506Y0484725D01*
X0451577Y0484731D01*
X0451648Y0484733D01*
X0451719Y0484731D01*
X0451790Y0484725D01*
X0451860Y0484716D01*
X0451930Y0484702D01*
X0451999Y0484685D01*
X0452067Y0484664D01*
X0452133Y0484640D01*
X0452198Y0484612D01*
X0452262Y0484580D01*
X0452324Y0484545D01*
X0452384Y0484507D01*
X0452441Y0484466D01*
X0452497Y0484421D01*
X0452550Y0484374D01*
X0452600Y0484324D01*
X0452647Y0484271D01*
X0452692Y0484215D01*
X0452733Y0484158D01*
X0452771Y0484098D01*
X0452806Y0484036D01*
X0452838Y0483972D01*
X0452866Y0483907D01*
X0452890Y0483841D01*
X0452911Y0483773D01*
X0452928Y0483704D01*
X0452942Y0483634D01*
X0452951Y0483564D01*
X0452957Y0483493D01*
X0452959Y0483422D01*
X0452959Y0482767D01*
X0520541Y0484733D02*
X0521852Y0480800D01*
X0523163Y0484733D01*
X0525834Y0483094D02*
X0529768Y0483094D01*
X0533136Y0483094D02*
X0534774Y0482439D01*
X0534775Y0482439D02*
X0534827Y0482416D01*
X0534878Y0482389D01*
X0534927Y0482359D01*
X0534974Y0482326D01*
X0535019Y0482290D01*
X0535061Y0482250D01*
X0535100Y0482208D01*
X0535136Y0482164D01*
X0535169Y0482117D01*
X0535199Y0482067D01*
X0535226Y0482016D01*
X0535249Y0481964D01*
X0535268Y0481910D01*
X0535284Y0481854D01*
X0535296Y0481798D01*
X0535304Y0481741D01*
X0535308Y0481684D01*
X0535309Y0481626D01*
X0535305Y0481569D01*
X0535298Y0481512D01*
X0535286Y0481455D01*
X0535271Y0481400D01*
X0535253Y0481345D01*
X0535230Y0481292D01*
X0535204Y0481241D01*
X0535175Y0481192D01*
X0535142Y0481144D01*
X0535106Y0481099D01*
X0535068Y0481057D01*
X0535026Y0481017D01*
X0534982Y0480980D01*
X0534935Y0480946D01*
X0534887Y0480915D01*
X0534836Y0480888D01*
X0534784Y0480864D01*
X0534730Y0480844D01*
X0534675Y0480828D01*
X0534619Y0480815D01*
X0534562Y0480806D01*
X0534504Y0480801D01*
X0534447Y0480800D01*
X0534938Y0484405D02*
X0534831Y0484451D01*
X0534722Y0484494D01*
X0534612Y0484534D01*
X0534500Y0484570D01*
X0534388Y0484602D01*
X0534274Y0484631D01*
X0534160Y0484657D01*
X0534045Y0484678D01*
X0533930Y0484697D01*
X0533813Y0484711D01*
X0533697Y0484722D01*
X0533580Y0484729D01*
X0533463Y0484733D01*
X0533463Y0484734D02*
X0533406Y0484733D01*
X0533348Y0484728D01*
X0533291Y0484719D01*
X0533235Y0484706D01*
X0533180Y0484690D01*
X0533126Y0484670D01*
X0533074Y0484646D01*
X0533023Y0484619D01*
X0532975Y0484588D01*
X0532928Y0484554D01*
X0532884Y0484517D01*
X0532842Y0484477D01*
X0532804Y0484435D01*
X0532768Y0484390D01*
X0532735Y0484342D01*
X0532706Y0484293D01*
X0532680Y0484242D01*
X0532657Y0484189D01*
X0532639Y0484134D01*
X0532624Y0484079D01*
X0532612Y0484022D01*
X0532605Y0483965D01*
X0532601Y0483908D01*
X0532602Y0483850D01*
X0532606Y0483793D01*
X0532614Y0483736D01*
X0532626Y0483680D01*
X0532642Y0483624D01*
X0532661Y0483570D01*
X0532684Y0483518D01*
X0532711Y0483467D01*
X0532741Y0483417D01*
X0532774Y0483370D01*
X0532810Y0483326D01*
X0532849Y0483284D01*
X0532891Y0483244D01*
X0532936Y0483208D01*
X0532983Y0483175D01*
X0533032Y0483145D01*
X0533083Y0483118D01*
X0533135Y0483095D01*
X0532644Y0481128D02*
X0532778Y0481082D01*
X0532913Y0481039D01*
X0533049Y0481000D01*
X0533186Y0480964D01*
X0533323Y0480932D01*
X0533462Y0480903D01*
X0533601Y0480877D01*
X0533741Y0480856D01*
X0533882Y0480837D01*
X0534022Y0480823D01*
X0534164Y0480812D01*
X0534305Y0480804D01*
X0534447Y0480801D01*
X0537988Y0481783D02*
X0537988Y0483750D01*
X0537990Y0483812D01*
X0537996Y0483873D01*
X0538005Y0483934D01*
X0538019Y0483994D01*
X0538036Y0484054D01*
X0538057Y0484112D01*
X0538082Y0484169D01*
X0538110Y0484224D01*
X0538141Y0484277D01*
X0538176Y0484328D01*
X0538214Y0484377D01*
X0538254Y0484423D01*
X0538298Y0484467D01*
X0538344Y0484507D01*
X0538393Y0484545D01*
X0538444Y0484580D01*
X0538497Y0484611D01*
X0538552Y0484639D01*
X0538609Y0484664D01*
X0538667Y0484685D01*
X0538727Y0484702D01*
X0538787Y0484716D01*
X0538848Y0484725D01*
X0538909Y0484731D01*
X0538971Y0484733D01*
X0540282Y0484733D01*
X0542695Y0483422D02*
X0542695Y0482111D01*
X0542696Y0482111D02*
X0542698Y0482040D01*
X0542704Y0481969D01*
X0542713Y0481899D01*
X0542727Y0481829D01*
X0542744Y0481760D01*
X0542765Y0481692D01*
X0542789Y0481626D01*
X0542817Y0481561D01*
X0542849Y0481497D01*
X0542884Y0481435D01*
X0542922Y0481375D01*
X0542963Y0481318D01*
X0543008Y0481262D01*
X0543055Y0481209D01*
X0543105Y0481159D01*
X0543158Y0481112D01*
X0543214Y0481067D01*
X0543271Y0481026D01*
X0543331Y0480988D01*
X0543393Y0480953D01*
X0543457Y0480921D01*
X0543522Y0480893D01*
X0543588Y0480869D01*
X0543656Y0480848D01*
X0543725Y0480831D01*
X0543795Y0480817D01*
X0543865Y0480808D01*
X0543936Y0480802D01*
X0544007Y0480800D01*
X0544078Y0480802D01*
X0544149Y0480808D01*
X0544219Y0480817D01*
X0544289Y0480831D01*
X0544358Y0480848D01*
X0544426Y0480869D01*
X0544492Y0480893D01*
X0544557Y0480921D01*
X0544621Y0480953D01*
X0544683Y0480988D01*
X0544743Y0481026D01*
X0544800Y0481067D01*
X0544856Y0481112D01*
X0544909Y0481159D01*
X0544959Y0481209D01*
X0545006Y0481262D01*
X0545051Y0481318D01*
X0545092Y0481375D01*
X0545130Y0481435D01*
X0545165Y0481497D01*
X0545197Y0481561D01*
X0545225Y0481626D01*
X0545249Y0481692D01*
X0545270Y0481760D01*
X0545287Y0481829D01*
X0545301Y0481899D01*
X0545310Y0481969D01*
X0545316Y0482040D01*
X0545318Y0482111D01*
X0545318Y0483422D01*
X0545316Y0483493D01*
X0545310Y0483564D01*
X0545301Y0483634D01*
X0545287Y0483704D01*
X0545270Y0483773D01*
X0545249Y0483841D01*
X0545225Y0483907D01*
X0545197Y0483972D01*
X0545165Y0484036D01*
X0545130Y0484098D01*
X0545092Y0484158D01*
X0545051Y0484215D01*
X0545006Y0484271D01*
X0544959Y0484324D01*
X0544909Y0484374D01*
X0544856Y0484421D01*
X0544800Y0484466D01*
X0544743Y0484507D01*
X0544683Y0484545D01*
X0544621Y0484580D01*
X0544557Y0484612D01*
X0544492Y0484640D01*
X0544426Y0484664D01*
X0544358Y0484685D01*
X0544289Y0484702D01*
X0544219Y0484716D01*
X0544149Y0484725D01*
X0544078Y0484731D01*
X0544007Y0484733D01*
X0543936Y0484731D01*
X0543865Y0484725D01*
X0543795Y0484716D01*
X0543725Y0484702D01*
X0543656Y0484685D01*
X0543588Y0484664D01*
X0543522Y0484640D01*
X0543457Y0484612D01*
X0543393Y0484580D01*
X0543331Y0484545D01*
X0543271Y0484507D01*
X0543214Y0484466D01*
X0543158Y0484421D01*
X0543105Y0484374D01*
X0543055Y0484324D01*
X0543008Y0484271D01*
X0542963Y0484215D01*
X0542922Y0484158D01*
X0542884Y0484098D01*
X0542849Y0484036D01*
X0542817Y0483972D01*
X0542789Y0483907D01*
X0542765Y0483841D01*
X0542744Y0483773D01*
X0542727Y0483704D01*
X0542713Y0483634D01*
X0542704Y0483564D01*
X0542698Y0483493D01*
X0542696Y0483422D01*
X0540282Y0480800D02*
X0538971Y0480800D01*
X0538909Y0480802D01*
X0538848Y0480808D01*
X0538787Y0480817D01*
X0538727Y0480831D01*
X0538667Y0480848D01*
X0538609Y0480869D01*
X0538552Y0480894D01*
X0538497Y0480922D01*
X0538444Y0480953D01*
X0538393Y0480988D01*
X0538344Y0481026D01*
X0538298Y0481066D01*
X0538254Y0481110D01*
X0538214Y0481156D01*
X0538176Y0481205D01*
X0538141Y0481256D01*
X0538110Y0481309D01*
X0538082Y0481364D01*
X0538057Y0481421D01*
X0538036Y0481479D01*
X0538019Y0481539D01*
X0538005Y0481599D01*
X0537996Y0481660D01*
X0537990Y0481721D01*
X0537988Y0481783D01*
X0548284Y0480800D02*
X0548284Y0484733D01*
X0550251Y0484733D01*
X0550251Y0484078D01*
X0552337Y0483422D02*
X0552337Y0481783D01*
X0552339Y0481721D01*
X0552345Y0481660D01*
X0552354Y0481599D01*
X0552368Y0481539D01*
X0552385Y0481479D01*
X0552406Y0481421D01*
X0552431Y0481364D01*
X0552459Y0481309D01*
X0552490Y0481256D01*
X0552525Y0481205D01*
X0552563Y0481156D01*
X0552603Y0481110D01*
X0552647Y0481066D01*
X0552693Y0481026D01*
X0552742Y0480988D01*
X0552793Y0480953D01*
X0552846Y0480922D01*
X0552901Y0480894D01*
X0552958Y0480869D01*
X0553016Y0480848D01*
X0553076Y0480831D01*
X0553136Y0480817D01*
X0553197Y0480808D01*
X0553258Y0480802D01*
X0553320Y0480800D01*
X0554959Y0480800D01*
X0554959Y0482767D02*
X0552337Y0482767D01*
X0552337Y0483422D02*
X0552339Y0483493D01*
X0552345Y0483564D01*
X0552354Y0483634D01*
X0552368Y0483704D01*
X0552385Y0483773D01*
X0552406Y0483841D01*
X0552430Y0483907D01*
X0552458Y0483972D01*
X0552490Y0484036D01*
X0552525Y0484098D01*
X0552563Y0484158D01*
X0552604Y0484215D01*
X0552649Y0484271D01*
X0552696Y0484324D01*
X0552746Y0484374D01*
X0552799Y0484421D01*
X0552855Y0484466D01*
X0552912Y0484507D01*
X0552972Y0484545D01*
X0553034Y0484580D01*
X0553098Y0484612D01*
X0553163Y0484640D01*
X0553229Y0484664D01*
X0553297Y0484685D01*
X0553366Y0484702D01*
X0553436Y0484716D01*
X0553506Y0484725D01*
X0553577Y0484731D01*
X0553648Y0484733D01*
X0553719Y0484731D01*
X0553790Y0484725D01*
X0553860Y0484716D01*
X0553930Y0484702D01*
X0553999Y0484685D01*
X0554067Y0484664D01*
X0554133Y0484640D01*
X0554198Y0484612D01*
X0554262Y0484580D01*
X0554324Y0484545D01*
X0554384Y0484507D01*
X0554441Y0484466D01*
X0554497Y0484421D01*
X0554550Y0484374D01*
X0554600Y0484324D01*
X0554647Y0484271D01*
X0554692Y0484215D01*
X0554733Y0484158D01*
X0554771Y0484098D01*
X0554806Y0484036D01*
X0554838Y0483972D01*
X0554866Y0483907D01*
X0554890Y0483841D01*
X0554911Y0483773D01*
X0554928Y0483704D01*
X0554942Y0483634D01*
X0554951Y0483564D01*
X0554957Y0483493D01*
X0554959Y0483422D01*
X0554959Y0482767D01*
X0622541Y0484733D02*
X0623852Y0480800D01*
X0625163Y0484733D01*
X0627834Y0483094D02*
X0631768Y0483094D01*
X0635136Y0483094D02*
X0636774Y0482439D01*
X0636775Y0482439D02*
X0636827Y0482416D01*
X0636878Y0482389D01*
X0636927Y0482359D01*
X0636974Y0482326D01*
X0637019Y0482290D01*
X0637061Y0482250D01*
X0637100Y0482208D01*
X0637136Y0482164D01*
X0637169Y0482117D01*
X0637199Y0482067D01*
X0637226Y0482016D01*
X0637249Y0481964D01*
X0637268Y0481910D01*
X0637284Y0481854D01*
X0637296Y0481798D01*
X0637304Y0481741D01*
X0637308Y0481684D01*
X0637309Y0481626D01*
X0637305Y0481569D01*
X0637298Y0481512D01*
X0637286Y0481455D01*
X0637271Y0481400D01*
X0637253Y0481345D01*
X0637230Y0481292D01*
X0637204Y0481241D01*
X0637175Y0481192D01*
X0637142Y0481144D01*
X0637106Y0481099D01*
X0637068Y0481057D01*
X0637026Y0481017D01*
X0636982Y0480980D01*
X0636935Y0480946D01*
X0636887Y0480915D01*
X0636836Y0480888D01*
X0636784Y0480864D01*
X0636730Y0480844D01*
X0636675Y0480828D01*
X0636619Y0480815D01*
X0636562Y0480806D01*
X0636504Y0480801D01*
X0636447Y0480800D01*
X0636938Y0484405D02*
X0636831Y0484451D01*
X0636722Y0484494D01*
X0636612Y0484534D01*
X0636500Y0484570D01*
X0636388Y0484602D01*
X0636274Y0484631D01*
X0636160Y0484657D01*
X0636045Y0484678D01*
X0635930Y0484697D01*
X0635813Y0484711D01*
X0635697Y0484722D01*
X0635580Y0484729D01*
X0635463Y0484733D01*
X0635463Y0484734D02*
X0635406Y0484733D01*
X0635348Y0484728D01*
X0635291Y0484719D01*
X0635235Y0484706D01*
X0635180Y0484690D01*
X0635126Y0484670D01*
X0635074Y0484646D01*
X0635023Y0484619D01*
X0634975Y0484588D01*
X0634928Y0484554D01*
X0634884Y0484517D01*
X0634842Y0484477D01*
X0634804Y0484435D01*
X0634768Y0484390D01*
X0634735Y0484342D01*
X0634706Y0484293D01*
X0634680Y0484242D01*
X0634657Y0484189D01*
X0634639Y0484134D01*
X0634624Y0484079D01*
X0634612Y0484022D01*
X0634605Y0483965D01*
X0634601Y0483908D01*
X0634602Y0483850D01*
X0634606Y0483793D01*
X0634614Y0483736D01*
X0634626Y0483680D01*
X0634642Y0483624D01*
X0634661Y0483570D01*
X0634684Y0483518D01*
X0634711Y0483467D01*
X0634741Y0483417D01*
X0634774Y0483370D01*
X0634810Y0483326D01*
X0634849Y0483284D01*
X0634891Y0483244D01*
X0634936Y0483208D01*
X0634983Y0483175D01*
X0635032Y0483145D01*
X0635083Y0483118D01*
X0635135Y0483095D01*
X0634644Y0481128D02*
X0634778Y0481082D01*
X0634913Y0481039D01*
X0635049Y0481000D01*
X0635186Y0480964D01*
X0635323Y0480932D01*
X0635462Y0480903D01*
X0635601Y0480877D01*
X0635741Y0480856D01*
X0635882Y0480837D01*
X0636022Y0480823D01*
X0636164Y0480812D01*
X0636305Y0480804D01*
X0636447Y0480801D01*
X0639988Y0481783D02*
X0639988Y0483750D01*
X0639990Y0483812D01*
X0639996Y0483873D01*
X0640005Y0483934D01*
X0640019Y0483994D01*
X0640036Y0484054D01*
X0640057Y0484112D01*
X0640082Y0484169D01*
X0640110Y0484224D01*
X0640141Y0484277D01*
X0640176Y0484328D01*
X0640214Y0484377D01*
X0640254Y0484423D01*
X0640298Y0484467D01*
X0640344Y0484507D01*
X0640393Y0484545D01*
X0640444Y0484580D01*
X0640497Y0484611D01*
X0640552Y0484639D01*
X0640609Y0484664D01*
X0640667Y0484685D01*
X0640727Y0484702D01*
X0640787Y0484716D01*
X0640848Y0484725D01*
X0640909Y0484731D01*
X0640971Y0484733D01*
X0642282Y0484733D01*
X0644695Y0483422D02*
X0644695Y0482111D01*
X0644696Y0482111D02*
X0644698Y0482040D01*
X0644704Y0481969D01*
X0644713Y0481899D01*
X0644727Y0481829D01*
X0644744Y0481760D01*
X0644765Y0481692D01*
X0644789Y0481626D01*
X0644817Y0481561D01*
X0644849Y0481497D01*
X0644884Y0481435D01*
X0644922Y0481375D01*
X0644963Y0481318D01*
X0645008Y0481262D01*
X0645055Y0481209D01*
X0645105Y0481159D01*
X0645158Y0481112D01*
X0645214Y0481067D01*
X0645271Y0481026D01*
X0645331Y0480988D01*
X0645393Y0480953D01*
X0645457Y0480921D01*
X0645522Y0480893D01*
X0645588Y0480869D01*
X0645656Y0480848D01*
X0645725Y0480831D01*
X0645795Y0480817D01*
X0645865Y0480808D01*
X0645936Y0480802D01*
X0646007Y0480800D01*
X0646078Y0480802D01*
X0646149Y0480808D01*
X0646219Y0480817D01*
X0646289Y0480831D01*
X0646358Y0480848D01*
X0646426Y0480869D01*
X0646492Y0480893D01*
X0646557Y0480921D01*
X0646621Y0480953D01*
X0646683Y0480988D01*
X0646743Y0481026D01*
X0646800Y0481067D01*
X0646856Y0481112D01*
X0646909Y0481159D01*
X0646959Y0481209D01*
X0647006Y0481262D01*
X0647051Y0481318D01*
X0647092Y0481375D01*
X0647130Y0481435D01*
X0647165Y0481497D01*
X0647197Y0481561D01*
X0647225Y0481626D01*
X0647249Y0481692D01*
X0647270Y0481760D01*
X0647287Y0481829D01*
X0647301Y0481899D01*
X0647310Y0481969D01*
X0647316Y0482040D01*
X0647318Y0482111D01*
X0647318Y0483422D01*
X0647316Y0483493D01*
X0647310Y0483564D01*
X0647301Y0483634D01*
X0647287Y0483704D01*
X0647270Y0483773D01*
X0647249Y0483841D01*
X0647225Y0483907D01*
X0647197Y0483972D01*
X0647165Y0484036D01*
X0647130Y0484098D01*
X0647092Y0484158D01*
X0647051Y0484215D01*
X0647006Y0484271D01*
X0646959Y0484324D01*
X0646909Y0484374D01*
X0646856Y0484421D01*
X0646800Y0484466D01*
X0646743Y0484507D01*
X0646683Y0484545D01*
X0646621Y0484580D01*
X0646557Y0484612D01*
X0646492Y0484640D01*
X0646426Y0484664D01*
X0646358Y0484685D01*
X0646289Y0484702D01*
X0646219Y0484716D01*
X0646149Y0484725D01*
X0646078Y0484731D01*
X0646007Y0484733D01*
X0645936Y0484731D01*
X0645865Y0484725D01*
X0645795Y0484716D01*
X0645725Y0484702D01*
X0645656Y0484685D01*
X0645588Y0484664D01*
X0645522Y0484640D01*
X0645457Y0484612D01*
X0645393Y0484580D01*
X0645331Y0484545D01*
X0645271Y0484507D01*
X0645214Y0484466D01*
X0645158Y0484421D01*
X0645105Y0484374D01*
X0645055Y0484324D01*
X0645008Y0484271D01*
X0644963Y0484215D01*
X0644922Y0484158D01*
X0644884Y0484098D01*
X0644849Y0484036D01*
X0644817Y0483972D01*
X0644789Y0483907D01*
X0644765Y0483841D01*
X0644744Y0483773D01*
X0644727Y0483704D01*
X0644713Y0483634D01*
X0644704Y0483564D01*
X0644698Y0483493D01*
X0644696Y0483422D01*
X0642282Y0480800D02*
X0640971Y0480800D01*
X0640909Y0480802D01*
X0640848Y0480808D01*
X0640787Y0480817D01*
X0640727Y0480831D01*
X0640667Y0480848D01*
X0640609Y0480869D01*
X0640552Y0480894D01*
X0640497Y0480922D01*
X0640444Y0480953D01*
X0640393Y0480988D01*
X0640344Y0481026D01*
X0640298Y0481066D01*
X0640254Y0481110D01*
X0640214Y0481156D01*
X0640176Y0481205D01*
X0640141Y0481256D01*
X0640110Y0481309D01*
X0640082Y0481364D01*
X0640057Y0481421D01*
X0640036Y0481479D01*
X0640019Y0481539D01*
X0640005Y0481599D01*
X0639996Y0481660D01*
X0639990Y0481721D01*
X0639988Y0481783D01*
X0650284Y0480800D02*
X0650284Y0484733D01*
X0652251Y0484733D01*
X0652251Y0484078D01*
X0654337Y0483422D02*
X0654337Y0481783D01*
X0654339Y0481721D01*
X0654345Y0481660D01*
X0654354Y0481599D01*
X0654368Y0481539D01*
X0654385Y0481479D01*
X0654406Y0481421D01*
X0654431Y0481364D01*
X0654459Y0481309D01*
X0654490Y0481256D01*
X0654525Y0481205D01*
X0654563Y0481156D01*
X0654603Y0481110D01*
X0654647Y0481066D01*
X0654693Y0481026D01*
X0654742Y0480988D01*
X0654793Y0480953D01*
X0654846Y0480922D01*
X0654901Y0480894D01*
X0654958Y0480869D01*
X0655016Y0480848D01*
X0655076Y0480831D01*
X0655136Y0480817D01*
X0655197Y0480808D01*
X0655258Y0480802D01*
X0655320Y0480800D01*
X0656959Y0480800D01*
X0656959Y0482767D02*
X0654337Y0482767D01*
X0654337Y0483422D02*
X0654339Y0483493D01*
X0654345Y0483564D01*
X0654354Y0483634D01*
X0654368Y0483704D01*
X0654385Y0483773D01*
X0654406Y0483841D01*
X0654430Y0483907D01*
X0654458Y0483972D01*
X0654490Y0484036D01*
X0654525Y0484098D01*
X0654563Y0484158D01*
X0654604Y0484215D01*
X0654649Y0484271D01*
X0654696Y0484324D01*
X0654746Y0484374D01*
X0654799Y0484421D01*
X0654855Y0484466D01*
X0654912Y0484507D01*
X0654972Y0484545D01*
X0655034Y0484580D01*
X0655098Y0484612D01*
X0655163Y0484640D01*
X0655229Y0484664D01*
X0655297Y0484685D01*
X0655366Y0484702D01*
X0655436Y0484716D01*
X0655506Y0484725D01*
X0655577Y0484731D01*
X0655648Y0484733D01*
X0655719Y0484731D01*
X0655790Y0484725D01*
X0655860Y0484716D01*
X0655930Y0484702D01*
X0655999Y0484685D01*
X0656067Y0484664D01*
X0656133Y0484640D01*
X0656198Y0484612D01*
X0656262Y0484580D01*
X0656324Y0484545D01*
X0656384Y0484507D01*
X0656441Y0484466D01*
X0656497Y0484421D01*
X0656550Y0484374D01*
X0656600Y0484324D01*
X0656647Y0484271D01*
X0656692Y0484215D01*
X0656733Y0484158D01*
X0656771Y0484098D01*
X0656806Y0484036D01*
X0656838Y0483972D01*
X0656866Y0483907D01*
X0656890Y0483841D01*
X0656911Y0483773D01*
X0656928Y0483704D01*
X0656942Y0483634D01*
X0656951Y0483564D01*
X0656957Y0483493D01*
X0656959Y0483422D01*
X0656959Y0482767D01*
X0703541Y0424733D02*
X0704852Y0420800D01*
X0706163Y0424733D01*
X0708834Y0423094D02*
X0712768Y0423094D01*
X0716136Y0423094D02*
X0717774Y0422439D01*
X0717775Y0422439D02*
X0717827Y0422416D01*
X0717878Y0422389D01*
X0717927Y0422359D01*
X0717974Y0422326D01*
X0718019Y0422290D01*
X0718061Y0422250D01*
X0718100Y0422208D01*
X0718136Y0422164D01*
X0718169Y0422117D01*
X0718199Y0422067D01*
X0718226Y0422016D01*
X0718249Y0421964D01*
X0718268Y0421910D01*
X0718284Y0421854D01*
X0718296Y0421798D01*
X0718304Y0421741D01*
X0718308Y0421684D01*
X0718309Y0421626D01*
X0718305Y0421569D01*
X0718298Y0421512D01*
X0718286Y0421455D01*
X0718271Y0421400D01*
X0718253Y0421345D01*
X0718230Y0421292D01*
X0718204Y0421241D01*
X0718175Y0421192D01*
X0718142Y0421144D01*
X0718106Y0421099D01*
X0718068Y0421057D01*
X0718026Y0421017D01*
X0717982Y0420980D01*
X0717935Y0420946D01*
X0717887Y0420915D01*
X0717836Y0420888D01*
X0717784Y0420864D01*
X0717730Y0420844D01*
X0717675Y0420828D01*
X0717619Y0420815D01*
X0717562Y0420806D01*
X0717504Y0420801D01*
X0717447Y0420800D01*
X0717938Y0424405D02*
X0717831Y0424451D01*
X0717722Y0424494D01*
X0717612Y0424534D01*
X0717500Y0424570D01*
X0717388Y0424602D01*
X0717274Y0424631D01*
X0717160Y0424657D01*
X0717045Y0424678D01*
X0716930Y0424697D01*
X0716813Y0424711D01*
X0716697Y0424722D01*
X0716580Y0424729D01*
X0716463Y0424733D01*
X0716463Y0424734D02*
X0716406Y0424733D01*
X0716348Y0424728D01*
X0716291Y0424719D01*
X0716235Y0424706D01*
X0716180Y0424690D01*
X0716126Y0424670D01*
X0716074Y0424646D01*
X0716023Y0424619D01*
X0715975Y0424588D01*
X0715928Y0424554D01*
X0715884Y0424517D01*
X0715842Y0424477D01*
X0715804Y0424435D01*
X0715768Y0424390D01*
X0715735Y0424342D01*
X0715706Y0424293D01*
X0715680Y0424242D01*
X0715657Y0424189D01*
X0715639Y0424134D01*
X0715624Y0424079D01*
X0715612Y0424022D01*
X0715605Y0423965D01*
X0715601Y0423908D01*
X0715602Y0423850D01*
X0715606Y0423793D01*
X0715614Y0423736D01*
X0715626Y0423680D01*
X0715642Y0423624D01*
X0715661Y0423570D01*
X0715684Y0423518D01*
X0715711Y0423467D01*
X0715741Y0423417D01*
X0715774Y0423370D01*
X0715810Y0423326D01*
X0715849Y0423284D01*
X0715891Y0423244D01*
X0715936Y0423208D01*
X0715983Y0423175D01*
X0716032Y0423145D01*
X0716083Y0423118D01*
X0716135Y0423095D01*
X0715644Y0421128D02*
X0715778Y0421082D01*
X0715913Y0421039D01*
X0716049Y0421000D01*
X0716186Y0420964D01*
X0716323Y0420932D01*
X0716462Y0420903D01*
X0716601Y0420877D01*
X0716741Y0420856D01*
X0716882Y0420837D01*
X0717022Y0420823D01*
X0717164Y0420812D01*
X0717305Y0420804D01*
X0717447Y0420801D01*
X0720988Y0421783D02*
X0720988Y0423750D01*
X0720990Y0423812D01*
X0720996Y0423873D01*
X0721005Y0423934D01*
X0721019Y0423994D01*
X0721036Y0424054D01*
X0721057Y0424112D01*
X0721082Y0424169D01*
X0721110Y0424224D01*
X0721141Y0424277D01*
X0721176Y0424328D01*
X0721214Y0424377D01*
X0721254Y0424423D01*
X0721298Y0424467D01*
X0721344Y0424507D01*
X0721393Y0424545D01*
X0721444Y0424580D01*
X0721497Y0424611D01*
X0721552Y0424639D01*
X0721609Y0424664D01*
X0721667Y0424685D01*
X0721727Y0424702D01*
X0721787Y0424716D01*
X0721848Y0424725D01*
X0721909Y0424731D01*
X0721971Y0424733D01*
X0723282Y0424733D01*
X0725695Y0423422D02*
X0725695Y0422111D01*
X0725696Y0422111D02*
X0725698Y0422040D01*
X0725704Y0421969D01*
X0725713Y0421899D01*
X0725727Y0421829D01*
X0725744Y0421760D01*
X0725765Y0421692D01*
X0725789Y0421626D01*
X0725817Y0421561D01*
X0725849Y0421497D01*
X0725884Y0421435D01*
X0725922Y0421375D01*
X0725963Y0421318D01*
X0726008Y0421262D01*
X0726055Y0421209D01*
X0726105Y0421159D01*
X0726158Y0421112D01*
X0726214Y0421067D01*
X0726271Y0421026D01*
X0726331Y0420988D01*
X0726393Y0420953D01*
X0726457Y0420921D01*
X0726522Y0420893D01*
X0726588Y0420869D01*
X0726656Y0420848D01*
X0726725Y0420831D01*
X0726795Y0420817D01*
X0726865Y0420808D01*
X0726936Y0420802D01*
X0727007Y0420800D01*
X0727078Y0420802D01*
X0727149Y0420808D01*
X0727219Y0420817D01*
X0727289Y0420831D01*
X0727358Y0420848D01*
X0727426Y0420869D01*
X0727492Y0420893D01*
X0727557Y0420921D01*
X0727621Y0420953D01*
X0727683Y0420988D01*
X0727743Y0421026D01*
X0727800Y0421067D01*
X0727856Y0421112D01*
X0727909Y0421159D01*
X0727959Y0421209D01*
X0728006Y0421262D01*
X0728051Y0421318D01*
X0728092Y0421375D01*
X0728130Y0421435D01*
X0728165Y0421497D01*
X0728197Y0421561D01*
X0728225Y0421626D01*
X0728249Y0421692D01*
X0728270Y0421760D01*
X0728287Y0421829D01*
X0728301Y0421899D01*
X0728310Y0421969D01*
X0728316Y0422040D01*
X0728318Y0422111D01*
X0728318Y0423422D01*
X0728316Y0423493D01*
X0728310Y0423564D01*
X0728301Y0423634D01*
X0728287Y0423704D01*
X0728270Y0423773D01*
X0728249Y0423841D01*
X0728225Y0423907D01*
X0728197Y0423972D01*
X0728165Y0424036D01*
X0728130Y0424098D01*
X0728092Y0424158D01*
X0728051Y0424215D01*
X0728006Y0424271D01*
X0727959Y0424324D01*
X0727909Y0424374D01*
X0727856Y0424421D01*
X0727800Y0424466D01*
X0727743Y0424507D01*
X0727683Y0424545D01*
X0727621Y0424580D01*
X0727557Y0424612D01*
X0727492Y0424640D01*
X0727426Y0424664D01*
X0727358Y0424685D01*
X0727289Y0424702D01*
X0727219Y0424716D01*
X0727149Y0424725D01*
X0727078Y0424731D01*
X0727007Y0424733D01*
X0726936Y0424731D01*
X0726865Y0424725D01*
X0726795Y0424716D01*
X0726725Y0424702D01*
X0726656Y0424685D01*
X0726588Y0424664D01*
X0726522Y0424640D01*
X0726457Y0424612D01*
X0726393Y0424580D01*
X0726331Y0424545D01*
X0726271Y0424507D01*
X0726214Y0424466D01*
X0726158Y0424421D01*
X0726105Y0424374D01*
X0726055Y0424324D01*
X0726008Y0424271D01*
X0725963Y0424215D01*
X0725922Y0424158D01*
X0725884Y0424098D01*
X0725849Y0424036D01*
X0725817Y0423972D01*
X0725789Y0423907D01*
X0725765Y0423841D01*
X0725744Y0423773D01*
X0725727Y0423704D01*
X0725713Y0423634D01*
X0725704Y0423564D01*
X0725698Y0423493D01*
X0725696Y0423422D01*
X0723282Y0420800D02*
X0721971Y0420800D01*
X0721909Y0420802D01*
X0721848Y0420808D01*
X0721787Y0420817D01*
X0721727Y0420831D01*
X0721667Y0420848D01*
X0721609Y0420869D01*
X0721552Y0420894D01*
X0721497Y0420922D01*
X0721444Y0420953D01*
X0721393Y0420988D01*
X0721344Y0421026D01*
X0721298Y0421066D01*
X0721254Y0421110D01*
X0721214Y0421156D01*
X0721176Y0421205D01*
X0721141Y0421256D01*
X0721110Y0421309D01*
X0721082Y0421364D01*
X0721057Y0421421D01*
X0721036Y0421479D01*
X0721019Y0421539D01*
X0721005Y0421599D01*
X0720996Y0421660D01*
X0720990Y0421721D01*
X0720988Y0421783D01*
X0731284Y0420800D02*
X0731284Y0424733D01*
X0733251Y0424733D01*
X0733251Y0424078D01*
X0735337Y0423422D02*
X0735337Y0421783D01*
X0735339Y0421721D01*
X0735345Y0421660D01*
X0735354Y0421599D01*
X0735368Y0421539D01*
X0735385Y0421479D01*
X0735406Y0421421D01*
X0735431Y0421364D01*
X0735459Y0421309D01*
X0735490Y0421256D01*
X0735525Y0421205D01*
X0735563Y0421156D01*
X0735603Y0421110D01*
X0735647Y0421066D01*
X0735693Y0421026D01*
X0735742Y0420988D01*
X0735793Y0420953D01*
X0735846Y0420922D01*
X0735901Y0420894D01*
X0735958Y0420869D01*
X0736016Y0420848D01*
X0736076Y0420831D01*
X0736136Y0420817D01*
X0736197Y0420808D01*
X0736258Y0420802D01*
X0736320Y0420800D01*
X0737959Y0420800D01*
X0737959Y0422767D02*
X0735337Y0422767D01*
X0735337Y0423422D02*
X0735339Y0423493D01*
X0735345Y0423564D01*
X0735354Y0423634D01*
X0735368Y0423704D01*
X0735385Y0423773D01*
X0735406Y0423841D01*
X0735430Y0423907D01*
X0735458Y0423972D01*
X0735490Y0424036D01*
X0735525Y0424098D01*
X0735563Y0424158D01*
X0735604Y0424215D01*
X0735649Y0424271D01*
X0735696Y0424324D01*
X0735746Y0424374D01*
X0735799Y0424421D01*
X0735855Y0424466D01*
X0735912Y0424507D01*
X0735972Y0424545D01*
X0736034Y0424580D01*
X0736098Y0424612D01*
X0736163Y0424640D01*
X0736229Y0424664D01*
X0736297Y0424685D01*
X0736366Y0424702D01*
X0736436Y0424716D01*
X0736506Y0424725D01*
X0736577Y0424731D01*
X0736648Y0424733D01*
X0736719Y0424731D01*
X0736790Y0424725D01*
X0736860Y0424716D01*
X0736930Y0424702D01*
X0736999Y0424685D01*
X0737067Y0424664D01*
X0737133Y0424640D01*
X0737198Y0424612D01*
X0737262Y0424580D01*
X0737324Y0424545D01*
X0737384Y0424507D01*
X0737441Y0424466D01*
X0737497Y0424421D01*
X0737550Y0424374D01*
X0737600Y0424324D01*
X0737647Y0424271D01*
X0737692Y0424215D01*
X0737733Y0424158D01*
X0737771Y0424098D01*
X0737806Y0424036D01*
X0737838Y0423972D01*
X0737866Y0423907D01*
X0737890Y0423841D01*
X0737911Y0423773D01*
X0737928Y0423704D01*
X0737942Y0423634D01*
X0737951Y0423564D01*
X0737957Y0423493D01*
X0737959Y0423422D01*
X0737959Y0422767D01*
X0715644Y0289128D02*
X0715778Y0289082D01*
X0715913Y0289039D01*
X0716049Y0289000D01*
X0716186Y0288964D01*
X0716323Y0288932D01*
X0716462Y0288903D01*
X0716601Y0288877D01*
X0716741Y0288856D01*
X0716882Y0288837D01*
X0717022Y0288823D01*
X0717164Y0288812D01*
X0717305Y0288804D01*
X0717447Y0288801D01*
X0717447Y0288800D02*
X0717504Y0288801D01*
X0717562Y0288806D01*
X0717619Y0288815D01*
X0717675Y0288828D01*
X0717730Y0288844D01*
X0717784Y0288864D01*
X0717836Y0288888D01*
X0717887Y0288915D01*
X0717935Y0288946D01*
X0717982Y0288980D01*
X0718026Y0289017D01*
X0718068Y0289057D01*
X0718106Y0289099D01*
X0718142Y0289144D01*
X0718175Y0289192D01*
X0718204Y0289241D01*
X0718230Y0289292D01*
X0718253Y0289345D01*
X0718271Y0289400D01*
X0718286Y0289455D01*
X0718298Y0289512D01*
X0718305Y0289569D01*
X0718309Y0289626D01*
X0718308Y0289684D01*
X0718304Y0289741D01*
X0718296Y0289798D01*
X0718284Y0289854D01*
X0718268Y0289910D01*
X0718249Y0289964D01*
X0718226Y0290016D01*
X0718199Y0290067D01*
X0718169Y0290117D01*
X0718136Y0290164D01*
X0718100Y0290208D01*
X0718061Y0290250D01*
X0718019Y0290290D01*
X0717974Y0290326D01*
X0717927Y0290359D01*
X0717878Y0290389D01*
X0717827Y0290416D01*
X0717775Y0290439D01*
X0717774Y0290439D02*
X0716136Y0291094D01*
X0716135Y0291095D02*
X0716083Y0291118D01*
X0716032Y0291145D01*
X0715983Y0291175D01*
X0715936Y0291208D01*
X0715891Y0291244D01*
X0715849Y0291284D01*
X0715810Y0291326D01*
X0715774Y0291370D01*
X0715741Y0291417D01*
X0715711Y0291467D01*
X0715684Y0291518D01*
X0715661Y0291570D01*
X0715642Y0291624D01*
X0715626Y0291680D01*
X0715614Y0291736D01*
X0715606Y0291793D01*
X0715602Y0291850D01*
X0715601Y0291908D01*
X0715605Y0291965D01*
X0715612Y0292022D01*
X0715624Y0292079D01*
X0715639Y0292134D01*
X0715657Y0292189D01*
X0715680Y0292242D01*
X0715706Y0292293D01*
X0715735Y0292342D01*
X0715768Y0292390D01*
X0715804Y0292435D01*
X0715842Y0292477D01*
X0715884Y0292517D01*
X0715928Y0292554D01*
X0715975Y0292588D01*
X0716023Y0292619D01*
X0716074Y0292646D01*
X0716126Y0292670D01*
X0716180Y0292690D01*
X0716235Y0292706D01*
X0716291Y0292719D01*
X0716348Y0292728D01*
X0716406Y0292733D01*
X0716463Y0292734D01*
X0716463Y0292733D02*
X0716580Y0292729D01*
X0716697Y0292722D01*
X0716813Y0292711D01*
X0716930Y0292697D01*
X0717045Y0292678D01*
X0717160Y0292657D01*
X0717274Y0292631D01*
X0717388Y0292602D01*
X0717500Y0292570D01*
X0717612Y0292534D01*
X0717722Y0292494D01*
X0717831Y0292451D01*
X0717938Y0292405D01*
X0720988Y0291750D02*
X0720988Y0289783D01*
X0720990Y0289721D01*
X0720996Y0289660D01*
X0721005Y0289599D01*
X0721019Y0289539D01*
X0721036Y0289479D01*
X0721057Y0289421D01*
X0721082Y0289364D01*
X0721110Y0289309D01*
X0721141Y0289256D01*
X0721176Y0289205D01*
X0721214Y0289156D01*
X0721254Y0289110D01*
X0721298Y0289066D01*
X0721344Y0289026D01*
X0721393Y0288988D01*
X0721444Y0288953D01*
X0721497Y0288922D01*
X0721552Y0288894D01*
X0721609Y0288869D01*
X0721667Y0288848D01*
X0721727Y0288831D01*
X0721787Y0288817D01*
X0721848Y0288808D01*
X0721909Y0288802D01*
X0721971Y0288800D01*
X0723282Y0288800D01*
X0725695Y0290111D02*
X0725695Y0291422D01*
X0725696Y0291422D02*
X0725698Y0291493D01*
X0725704Y0291564D01*
X0725713Y0291634D01*
X0725727Y0291704D01*
X0725744Y0291773D01*
X0725765Y0291841D01*
X0725789Y0291907D01*
X0725817Y0291972D01*
X0725849Y0292036D01*
X0725884Y0292098D01*
X0725922Y0292158D01*
X0725963Y0292215D01*
X0726008Y0292271D01*
X0726055Y0292324D01*
X0726105Y0292374D01*
X0726158Y0292421D01*
X0726214Y0292466D01*
X0726271Y0292507D01*
X0726331Y0292545D01*
X0726393Y0292580D01*
X0726457Y0292612D01*
X0726522Y0292640D01*
X0726588Y0292664D01*
X0726656Y0292685D01*
X0726725Y0292702D01*
X0726795Y0292716D01*
X0726865Y0292725D01*
X0726936Y0292731D01*
X0727007Y0292733D01*
X0727078Y0292731D01*
X0727149Y0292725D01*
X0727219Y0292716D01*
X0727289Y0292702D01*
X0727358Y0292685D01*
X0727426Y0292664D01*
X0727492Y0292640D01*
X0727557Y0292612D01*
X0727621Y0292580D01*
X0727683Y0292545D01*
X0727743Y0292507D01*
X0727800Y0292466D01*
X0727856Y0292421D01*
X0727909Y0292374D01*
X0727959Y0292324D01*
X0728006Y0292271D01*
X0728051Y0292215D01*
X0728092Y0292158D01*
X0728130Y0292098D01*
X0728165Y0292036D01*
X0728197Y0291972D01*
X0728225Y0291907D01*
X0728249Y0291841D01*
X0728270Y0291773D01*
X0728287Y0291704D01*
X0728301Y0291634D01*
X0728310Y0291564D01*
X0728316Y0291493D01*
X0728318Y0291422D01*
X0728318Y0290111D01*
X0728316Y0290040D01*
X0728310Y0289969D01*
X0728301Y0289899D01*
X0728287Y0289829D01*
X0728270Y0289760D01*
X0728249Y0289692D01*
X0728225Y0289626D01*
X0728197Y0289561D01*
X0728165Y0289497D01*
X0728130Y0289435D01*
X0728092Y0289375D01*
X0728051Y0289318D01*
X0728006Y0289262D01*
X0727959Y0289209D01*
X0727909Y0289159D01*
X0727856Y0289112D01*
X0727800Y0289067D01*
X0727743Y0289026D01*
X0727683Y0288988D01*
X0727621Y0288953D01*
X0727557Y0288921D01*
X0727492Y0288893D01*
X0727426Y0288869D01*
X0727358Y0288848D01*
X0727289Y0288831D01*
X0727219Y0288817D01*
X0727149Y0288808D01*
X0727078Y0288802D01*
X0727007Y0288800D01*
X0726936Y0288802D01*
X0726865Y0288808D01*
X0726795Y0288817D01*
X0726725Y0288831D01*
X0726656Y0288848D01*
X0726588Y0288869D01*
X0726522Y0288893D01*
X0726457Y0288921D01*
X0726393Y0288953D01*
X0726331Y0288988D01*
X0726271Y0289026D01*
X0726214Y0289067D01*
X0726158Y0289112D01*
X0726105Y0289159D01*
X0726055Y0289209D01*
X0726008Y0289262D01*
X0725963Y0289318D01*
X0725922Y0289375D01*
X0725884Y0289435D01*
X0725849Y0289497D01*
X0725817Y0289561D01*
X0725789Y0289626D01*
X0725765Y0289692D01*
X0725744Y0289760D01*
X0725727Y0289829D01*
X0725713Y0289899D01*
X0725704Y0289969D01*
X0725698Y0290040D01*
X0725696Y0290111D01*
X0723282Y0292733D02*
X0721971Y0292733D01*
X0721909Y0292731D01*
X0721848Y0292725D01*
X0721787Y0292716D01*
X0721727Y0292702D01*
X0721667Y0292685D01*
X0721609Y0292664D01*
X0721552Y0292639D01*
X0721497Y0292611D01*
X0721444Y0292580D01*
X0721393Y0292545D01*
X0721344Y0292507D01*
X0721298Y0292467D01*
X0721254Y0292423D01*
X0721214Y0292377D01*
X0721176Y0292328D01*
X0721141Y0292277D01*
X0721110Y0292224D01*
X0721082Y0292169D01*
X0721057Y0292112D01*
X0721036Y0292054D01*
X0721019Y0291994D01*
X0721005Y0291934D01*
X0720996Y0291873D01*
X0720990Y0291812D01*
X0720988Y0291750D01*
X0712768Y0291094D02*
X0708834Y0291094D01*
X0706163Y0292733D02*
X0704852Y0288800D01*
X0703541Y0292733D01*
X0731284Y0292733D02*
X0731284Y0288800D01*
X0733251Y0292078D02*
X0733251Y0292733D01*
X0731284Y0292733D01*
X0735337Y0291422D02*
X0735337Y0289783D01*
X0735339Y0289721D01*
X0735345Y0289660D01*
X0735354Y0289599D01*
X0735368Y0289539D01*
X0735385Y0289479D01*
X0735406Y0289421D01*
X0735431Y0289364D01*
X0735459Y0289309D01*
X0735490Y0289256D01*
X0735525Y0289205D01*
X0735563Y0289156D01*
X0735603Y0289110D01*
X0735647Y0289066D01*
X0735693Y0289026D01*
X0735742Y0288988D01*
X0735793Y0288953D01*
X0735846Y0288922D01*
X0735901Y0288894D01*
X0735958Y0288869D01*
X0736016Y0288848D01*
X0736076Y0288831D01*
X0736136Y0288817D01*
X0736197Y0288808D01*
X0736258Y0288802D01*
X0736320Y0288800D01*
X0737959Y0288800D01*
X0737959Y0290767D02*
X0735337Y0290767D01*
X0735337Y0291422D02*
X0735339Y0291493D01*
X0735345Y0291564D01*
X0735354Y0291634D01*
X0735368Y0291704D01*
X0735385Y0291773D01*
X0735406Y0291841D01*
X0735430Y0291907D01*
X0735458Y0291972D01*
X0735490Y0292036D01*
X0735525Y0292098D01*
X0735563Y0292158D01*
X0735604Y0292215D01*
X0735649Y0292271D01*
X0735696Y0292324D01*
X0735746Y0292374D01*
X0735799Y0292421D01*
X0735855Y0292466D01*
X0735912Y0292507D01*
X0735972Y0292545D01*
X0736034Y0292580D01*
X0736098Y0292612D01*
X0736163Y0292640D01*
X0736229Y0292664D01*
X0736297Y0292685D01*
X0736366Y0292702D01*
X0736436Y0292716D01*
X0736506Y0292725D01*
X0736577Y0292731D01*
X0736648Y0292733D01*
X0736719Y0292731D01*
X0736790Y0292725D01*
X0736860Y0292716D01*
X0736930Y0292702D01*
X0736999Y0292685D01*
X0737067Y0292664D01*
X0737133Y0292640D01*
X0737198Y0292612D01*
X0737262Y0292580D01*
X0737324Y0292545D01*
X0737384Y0292507D01*
X0737441Y0292466D01*
X0737497Y0292421D01*
X0737550Y0292374D01*
X0737600Y0292324D01*
X0737647Y0292271D01*
X0737692Y0292215D01*
X0737733Y0292158D01*
X0737771Y0292098D01*
X0737806Y0292036D01*
X0737838Y0291972D01*
X0737866Y0291907D01*
X0737890Y0291841D01*
X0737911Y0291773D01*
X0737928Y0291704D01*
X0737942Y0291634D01*
X0737951Y0291564D01*
X0737957Y0291493D01*
X0737959Y0291422D01*
X0737959Y0290767D01*
X0715644Y0157128D02*
X0715778Y0157082D01*
X0715913Y0157039D01*
X0716049Y0157000D01*
X0716186Y0156964D01*
X0716323Y0156932D01*
X0716462Y0156903D01*
X0716601Y0156877D01*
X0716741Y0156856D01*
X0716882Y0156837D01*
X0717022Y0156823D01*
X0717164Y0156812D01*
X0717305Y0156804D01*
X0717447Y0156801D01*
X0717447Y0156800D02*
X0717504Y0156801D01*
X0717562Y0156806D01*
X0717619Y0156815D01*
X0717675Y0156828D01*
X0717730Y0156844D01*
X0717784Y0156864D01*
X0717836Y0156888D01*
X0717887Y0156915D01*
X0717935Y0156946D01*
X0717982Y0156980D01*
X0718026Y0157017D01*
X0718068Y0157057D01*
X0718106Y0157099D01*
X0718142Y0157144D01*
X0718175Y0157192D01*
X0718204Y0157241D01*
X0718230Y0157292D01*
X0718253Y0157345D01*
X0718271Y0157400D01*
X0718286Y0157455D01*
X0718298Y0157512D01*
X0718305Y0157569D01*
X0718309Y0157626D01*
X0718308Y0157684D01*
X0718304Y0157741D01*
X0718296Y0157798D01*
X0718284Y0157854D01*
X0718268Y0157910D01*
X0718249Y0157964D01*
X0718226Y0158016D01*
X0718199Y0158067D01*
X0718169Y0158117D01*
X0718136Y0158164D01*
X0718100Y0158208D01*
X0718061Y0158250D01*
X0718019Y0158290D01*
X0717974Y0158326D01*
X0717927Y0158359D01*
X0717878Y0158389D01*
X0717827Y0158416D01*
X0717775Y0158439D01*
X0717774Y0158439D02*
X0716136Y0159094D01*
X0716135Y0159095D02*
X0716083Y0159118D01*
X0716032Y0159145D01*
X0715983Y0159175D01*
X0715936Y0159208D01*
X0715891Y0159244D01*
X0715849Y0159284D01*
X0715810Y0159326D01*
X0715774Y0159370D01*
X0715741Y0159417D01*
X0715711Y0159467D01*
X0715684Y0159518D01*
X0715661Y0159570D01*
X0715642Y0159624D01*
X0715626Y0159680D01*
X0715614Y0159736D01*
X0715606Y0159793D01*
X0715602Y0159850D01*
X0715601Y0159908D01*
X0715605Y0159965D01*
X0715612Y0160022D01*
X0715624Y0160079D01*
X0715639Y0160134D01*
X0715657Y0160189D01*
X0715680Y0160242D01*
X0715706Y0160293D01*
X0715735Y0160342D01*
X0715768Y0160390D01*
X0715804Y0160435D01*
X0715842Y0160477D01*
X0715884Y0160517D01*
X0715928Y0160554D01*
X0715975Y0160588D01*
X0716023Y0160619D01*
X0716074Y0160646D01*
X0716126Y0160670D01*
X0716180Y0160690D01*
X0716235Y0160706D01*
X0716291Y0160719D01*
X0716348Y0160728D01*
X0716406Y0160733D01*
X0716463Y0160734D01*
X0716463Y0160733D02*
X0716580Y0160729D01*
X0716697Y0160722D01*
X0716813Y0160711D01*
X0716930Y0160697D01*
X0717045Y0160678D01*
X0717160Y0160657D01*
X0717274Y0160631D01*
X0717388Y0160602D01*
X0717500Y0160570D01*
X0717612Y0160534D01*
X0717722Y0160494D01*
X0717831Y0160451D01*
X0717938Y0160405D01*
X0720988Y0159750D02*
X0720988Y0157783D01*
X0720990Y0157721D01*
X0720996Y0157660D01*
X0721005Y0157599D01*
X0721019Y0157539D01*
X0721036Y0157479D01*
X0721057Y0157421D01*
X0721082Y0157364D01*
X0721110Y0157309D01*
X0721141Y0157256D01*
X0721176Y0157205D01*
X0721214Y0157156D01*
X0721254Y0157110D01*
X0721298Y0157066D01*
X0721344Y0157026D01*
X0721393Y0156988D01*
X0721444Y0156953D01*
X0721497Y0156922D01*
X0721552Y0156894D01*
X0721609Y0156869D01*
X0721667Y0156848D01*
X0721727Y0156831D01*
X0721787Y0156817D01*
X0721848Y0156808D01*
X0721909Y0156802D01*
X0721971Y0156800D01*
X0723282Y0156800D01*
X0725695Y0158111D02*
X0725695Y0159422D01*
X0725696Y0159422D02*
X0725698Y0159493D01*
X0725704Y0159564D01*
X0725713Y0159634D01*
X0725727Y0159704D01*
X0725744Y0159773D01*
X0725765Y0159841D01*
X0725789Y0159907D01*
X0725817Y0159972D01*
X0725849Y0160036D01*
X0725884Y0160098D01*
X0725922Y0160158D01*
X0725963Y0160215D01*
X0726008Y0160271D01*
X0726055Y0160324D01*
X0726105Y0160374D01*
X0726158Y0160421D01*
X0726214Y0160466D01*
X0726271Y0160507D01*
X0726331Y0160545D01*
X0726393Y0160580D01*
X0726457Y0160612D01*
X0726522Y0160640D01*
X0726588Y0160664D01*
X0726656Y0160685D01*
X0726725Y0160702D01*
X0726795Y0160716D01*
X0726865Y0160725D01*
X0726936Y0160731D01*
X0727007Y0160733D01*
X0727078Y0160731D01*
X0727149Y0160725D01*
X0727219Y0160716D01*
X0727289Y0160702D01*
X0727358Y0160685D01*
X0727426Y0160664D01*
X0727492Y0160640D01*
X0727557Y0160612D01*
X0727621Y0160580D01*
X0727683Y0160545D01*
X0727743Y0160507D01*
X0727800Y0160466D01*
X0727856Y0160421D01*
X0727909Y0160374D01*
X0727959Y0160324D01*
X0728006Y0160271D01*
X0728051Y0160215D01*
X0728092Y0160158D01*
X0728130Y0160098D01*
X0728165Y0160036D01*
X0728197Y0159972D01*
X0728225Y0159907D01*
X0728249Y0159841D01*
X0728270Y0159773D01*
X0728287Y0159704D01*
X0728301Y0159634D01*
X0728310Y0159564D01*
X0728316Y0159493D01*
X0728318Y0159422D01*
X0728318Y0158111D01*
X0728316Y0158040D01*
X0728310Y0157969D01*
X0728301Y0157899D01*
X0728287Y0157829D01*
X0728270Y0157760D01*
X0728249Y0157692D01*
X0728225Y0157626D01*
X0728197Y0157561D01*
X0728165Y0157497D01*
X0728130Y0157435D01*
X0728092Y0157375D01*
X0728051Y0157318D01*
X0728006Y0157262D01*
X0727959Y0157209D01*
X0727909Y0157159D01*
X0727856Y0157112D01*
X0727800Y0157067D01*
X0727743Y0157026D01*
X0727683Y0156988D01*
X0727621Y0156953D01*
X0727557Y0156921D01*
X0727492Y0156893D01*
X0727426Y0156869D01*
X0727358Y0156848D01*
X0727289Y0156831D01*
X0727219Y0156817D01*
X0727149Y0156808D01*
X0727078Y0156802D01*
X0727007Y0156800D01*
X0726936Y0156802D01*
X0726865Y0156808D01*
X0726795Y0156817D01*
X0726725Y0156831D01*
X0726656Y0156848D01*
X0726588Y0156869D01*
X0726522Y0156893D01*
X0726457Y0156921D01*
X0726393Y0156953D01*
X0726331Y0156988D01*
X0726271Y0157026D01*
X0726214Y0157067D01*
X0726158Y0157112D01*
X0726105Y0157159D01*
X0726055Y0157209D01*
X0726008Y0157262D01*
X0725963Y0157318D01*
X0725922Y0157375D01*
X0725884Y0157435D01*
X0725849Y0157497D01*
X0725817Y0157561D01*
X0725789Y0157626D01*
X0725765Y0157692D01*
X0725744Y0157760D01*
X0725727Y0157829D01*
X0725713Y0157899D01*
X0725704Y0157969D01*
X0725698Y0158040D01*
X0725696Y0158111D01*
X0723282Y0160733D02*
X0721971Y0160733D01*
X0721909Y0160731D01*
X0721848Y0160725D01*
X0721787Y0160716D01*
X0721727Y0160702D01*
X0721667Y0160685D01*
X0721609Y0160664D01*
X0721552Y0160639D01*
X0721497Y0160611D01*
X0721444Y0160580D01*
X0721393Y0160545D01*
X0721344Y0160507D01*
X0721298Y0160467D01*
X0721254Y0160423D01*
X0721214Y0160377D01*
X0721176Y0160328D01*
X0721141Y0160277D01*
X0721110Y0160224D01*
X0721082Y0160169D01*
X0721057Y0160112D01*
X0721036Y0160054D01*
X0721019Y0159994D01*
X0721005Y0159934D01*
X0720996Y0159873D01*
X0720990Y0159812D01*
X0720988Y0159750D01*
X0712768Y0159094D02*
X0708834Y0159094D01*
X0706163Y0160733D02*
X0704852Y0156800D01*
X0703541Y0160733D01*
X0731284Y0160733D02*
X0731284Y0156800D01*
X0733251Y0160078D02*
X0733251Y0160733D01*
X0731284Y0160733D01*
X0735337Y0159422D02*
X0735337Y0157783D01*
X0735339Y0157721D01*
X0735345Y0157660D01*
X0735354Y0157599D01*
X0735368Y0157539D01*
X0735385Y0157479D01*
X0735406Y0157421D01*
X0735431Y0157364D01*
X0735459Y0157309D01*
X0735490Y0157256D01*
X0735525Y0157205D01*
X0735563Y0157156D01*
X0735603Y0157110D01*
X0735647Y0157066D01*
X0735693Y0157026D01*
X0735742Y0156988D01*
X0735793Y0156953D01*
X0735846Y0156922D01*
X0735901Y0156894D01*
X0735958Y0156869D01*
X0736016Y0156848D01*
X0736076Y0156831D01*
X0736136Y0156817D01*
X0736197Y0156808D01*
X0736258Y0156802D01*
X0736320Y0156800D01*
X0737959Y0156800D01*
X0737959Y0158767D02*
X0735337Y0158767D01*
X0735337Y0159422D02*
X0735339Y0159493D01*
X0735345Y0159564D01*
X0735354Y0159634D01*
X0735368Y0159704D01*
X0735385Y0159773D01*
X0735406Y0159841D01*
X0735430Y0159907D01*
X0735458Y0159972D01*
X0735490Y0160036D01*
X0735525Y0160098D01*
X0735563Y0160158D01*
X0735604Y0160215D01*
X0735649Y0160271D01*
X0735696Y0160324D01*
X0735746Y0160374D01*
X0735799Y0160421D01*
X0735855Y0160466D01*
X0735912Y0160507D01*
X0735972Y0160545D01*
X0736034Y0160580D01*
X0736098Y0160612D01*
X0736163Y0160640D01*
X0736229Y0160664D01*
X0736297Y0160685D01*
X0736366Y0160702D01*
X0736436Y0160716D01*
X0736506Y0160725D01*
X0736577Y0160731D01*
X0736648Y0160733D01*
X0736719Y0160731D01*
X0736790Y0160725D01*
X0736860Y0160716D01*
X0736930Y0160702D01*
X0736999Y0160685D01*
X0737067Y0160664D01*
X0737133Y0160640D01*
X0737198Y0160612D01*
X0737262Y0160580D01*
X0737324Y0160545D01*
X0737384Y0160507D01*
X0737441Y0160466D01*
X0737497Y0160421D01*
X0737550Y0160374D01*
X0737600Y0160324D01*
X0737647Y0160271D01*
X0737692Y0160215D01*
X0737733Y0160158D01*
X0737771Y0160098D01*
X0737806Y0160036D01*
X0737838Y0159972D01*
X0737866Y0159907D01*
X0737890Y0159841D01*
X0737911Y0159773D01*
X0737928Y0159704D01*
X0737942Y0159634D01*
X0737951Y0159564D01*
X0737957Y0159493D01*
X0737959Y0159422D01*
X0737959Y0158767D01*
X0715644Y0025128D02*
X0715778Y0025082D01*
X0715913Y0025039D01*
X0716049Y0025000D01*
X0716186Y0024964D01*
X0716323Y0024932D01*
X0716462Y0024903D01*
X0716601Y0024877D01*
X0716741Y0024856D01*
X0716882Y0024837D01*
X0717022Y0024823D01*
X0717164Y0024812D01*
X0717305Y0024804D01*
X0717447Y0024801D01*
X0717447Y0024800D02*
X0717504Y0024801D01*
X0717562Y0024806D01*
X0717619Y0024815D01*
X0717675Y0024828D01*
X0717730Y0024844D01*
X0717784Y0024864D01*
X0717836Y0024888D01*
X0717887Y0024915D01*
X0717935Y0024946D01*
X0717982Y0024980D01*
X0718026Y0025017D01*
X0718068Y0025057D01*
X0718106Y0025099D01*
X0718142Y0025144D01*
X0718175Y0025192D01*
X0718204Y0025241D01*
X0718230Y0025292D01*
X0718253Y0025345D01*
X0718271Y0025400D01*
X0718286Y0025455D01*
X0718298Y0025512D01*
X0718305Y0025569D01*
X0718309Y0025626D01*
X0718308Y0025684D01*
X0718304Y0025741D01*
X0718296Y0025798D01*
X0718284Y0025854D01*
X0718268Y0025910D01*
X0718249Y0025964D01*
X0718226Y0026016D01*
X0718199Y0026067D01*
X0718169Y0026117D01*
X0718136Y0026164D01*
X0718100Y0026208D01*
X0718061Y0026250D01*
X0718019Y0026290D01*
X0717974Y0026326D01*
X0717927Y0026359D01*
X0717878Y0026389D01*
X0717827Y0026416D01*
X0717775Y0026439D01*
X0717774Y0026439D02*
X0716136Y0027094D01*
X0716135Y0027095D02*
X0716083Y0027118D01*
X0716032Y0027145D01*
X0715983Y0027175D01*
X0715936Y0027208D01*
X0715891Y0027244D01*
X0715849Y0027284D01*
X0715810Y0027326D01*
X0715774Y0027370D01*
X0715741Y0027417D01*
X0715711Y0027467D01*
X0715684Y0027518D01*
X0715661Y0027570D01*
X0715642Y0027624D01*
X0715626Y0027680D01*
X0715614Y0027736D01*
X0715606Y0027793D01*
X0715602Y0027850D01*
X0715601Y0027908D01*
X0715605Y0027965D01*
X0715612Y0028022D01*
X0715624Y0028079D01*
X0715639Y0028134D01*
X0715657Y0028189D01*
X0715680Y0028242D01*
X0715706Y0028293D01*
X0715735Y0028342D01*
X0715768Y0028390D01*
X0715804Y0028435D01*
X0715842Y0028477D01*
X0715884Y0028517D01*
X0715928Y0028554D01*
X0715975Y0028588D01*
X0716023Y0028619D01*
X0716074Y0028646D01*
X0716126Y0028670D01*
X0716180Y0028690D01*
X0716235Y0028706D01*
X0716291Y0028719D01*
X0716348Y0028728D01*
X0716406Y0028733D01*
X0716463Y0028734D01*
X0716463Y0028733D02*
X0716580Y0028729D01*
X0716697Y0028722D01*
X0716813Y0028711D01*
X0716930Y0028697D01*
X0717045Y0028678D01*
X0717160Y0028657D01*
X0717274Y0028631D01*
X0717388Y0028602D01*
X0717500Y0028570D01*
X0717612Y0028534D01*
X0717722Y0028494D01*
X0717831Y0028451D01*
X0717938Y0028405D01*
X0720988Y0027750D02*
X0720988Y0025783D01*
X0720990Y0025721D01*
X0720996Y0025660D01*
X0721005Y0025599D01*
X0721019Y0025539D01*
X0721036Y0025479D01*
X0721057Y0025421D01*
X0721082Y0025364D01*
X0721110Y0025309D01*
X0721141Y0025256D01*
X0721176Y0025205D01*
X0721214Y0025156D01*
X0721254Y0025110D01*
X0721298Y0025066D01*
X0721344Y0025026D01*
X0721393Y0024988D01*
X0721444Y0024953D01*
X0721497Y0024922D01*
X0721552Y0024894D01*
X0721609Y0024869D01*
X0721667Y0024848D01*
X0721727Y0024831D01*
X0721787Y0024817D01*
X0721848Y0024808D01*
X0721909Y0024802D01*
X0721971Y0024800D01*
X0723282Y0024800D01*
X0725695Y0026111D02*
X0725695Y0027422D01*
X0725696Y0027422D02*
X0725698Y0027493D01*
X0725704Y0027564D01*
X0725713Y0027634D01*
X0725727Y0027704D01*
X0725744Y0027773D01*
X0725765Y0027841D01*
X0725789Y0027907D01*
X0725817Y0027972D01*
X0725849Y0028036D01*
X0725884Y0028098D01*
X0725922Y0028158D01*
X0725963Y0028215D01*
X0726008Y0028271D01*
X0726055Y0028324D01*
X0726105Y0028374D01*
X0726158Y0028421D01*
X0726214Y0028466D01*
X0726271Y0028507D01*
X0726331Y0028545D01*
X0726393Y0028580D01*
X0726457Y0028612D01*
X0726522Y0028640D01*
X0726588Y0028664D01*
X0726656Y0028685D01*
X0726725Y0028702D01*
X0726795Y0028716D01*
X0726865Y0028725D01*
X0726936Y0028731D01*
X0727007Y0028733D01*
X0727078Y0028731D01*
X0727149Y0028725D01*
X0727219Y0028716D01*
X0727289Y0028702D01*
X0727358Y0028685D01*
X0727426Y0028664D01*
X0727492Y0028640D01*
X0727557Y0028612D01*
X0727621Y0028580D01*
X0727683Y0028545D01*
X0727743Y0028507D01*
X0727800Y0028466D01*
X0727856Y0028421D01*
X0727909Y0028374D01*
X0727959Y0028324D01*
X0728006Y0028271D01*
X0728051Y0028215D01*
X0728092Y0028158D01*
X0728130Y0028098D01*
X0728165Y0028036D01*
X0728197Y0027972D01*
X0728225Y0027907D01*
X0728249Y0027841D01*
X0728270Y0027773D01*
X0728287Y0027704D01*
X0728301Y0027634D01*
X0728310Y0027564D01*
X0728316Y0027493D01*
X0728318Y0027422D01*
X0728318Y0026111D01*
X0728316Y0026040D01*
X0728310Y0025969D01*
X0728301Y0025899D01*
X0728287Y0025829D01*
X0728270Y0025760D01*
X0728249Y0025692D01*
X0728225Y0025626D01*
X0728197Y0025561D01*
X0728165Y0025497D01*
X0728130Y0025435D01*
X0728092Y0025375D01*
X0728051Y0025318D01*
X0728006Y0025262D01*
X0727959Y0025209D01*
X0727909Y0025159D01*
X0727856Y0025112D01*
X0727800Y0025067D01*
X0727743Y0025026D01*
X0727683Y0024988D01*
X0727621Y0024953D01*
X0727557Y0024921D01*
X0727492Y0024893D01*
X0727426Y0024869D01*
X0727358Y0024848D01*
X0727289Y0024831D01*
X0727219Y0024817D01*
X0727149Y0024808D01*
X0727078Y0024802D01*
X0727007Y0024800D01*
X0726936Y0024802D01*
X0726865Y0024808D01*
X0726795Y0024817D01*
X0726725Y0024831D01*
X0726656Y0024848D01*
X0726588Y0024869D01*
X0726522Y0024893D01*
X0726457Y0024921D01*
X0726393Y0024953D01*
X0726331Y0024988D01*
X0726271Y0025026D01*
X0726214Y0025067D01*
X0726158Y0025112D01*
X0726105Y0025159D01*
X0726055Y0025209D01*
X0726008Y0025262D01*
X0725963Y0025318D01*
X0725922Y0025375D01*
X0725884Y0025435D01*
X0725849Y0025497D01*
X0725817Y0025561D01*
X0725789Y0025626D01*
X0725765Y0025692D01*
X0725744Y0025760D01*
X0725727Y0025829D01*
X0725713Y0025899D01*
X0725704Y0025969D01*
X0725698Y0026040D01*
X0725696Y0026111D01*
X0723282Y0028733D02*
X0721971Y0028733D01*
X0721909Y0028731D01*
X0721848Y0028725D01*
X0721787Y0028716D01*
X0721727Y0028702D01*
X0721667Y0028685D01*
X0721609Y0028664D01*
X0721552Y0028639D01*
X0721497Y0028611D01*
X0721444Y0028580D01*
X0721393Y0028545D01*
X0721344Y0028507D01*
X0721298Y0028467D01*
X0721254Y0028423D01*
X0721214Y0028377D01*
X0721176Y0028328D01*
X0721141Y0028277D01*
X0721110Y0028224D01*
X0721082Y0028169D01*
X0721057Y0028112D01*
X0721036Y0028054D01*
X0721019Y0027994D01*
X0721005Y0027934D01*
X0720996Y0027873D01*
X0720990Y0027812D01*
X0720988Y0027750D01*
X0712768Y0027094D02*
X0708834Y0027094D01*
X0706163Y0028733D02*
X0704852Y0024800D01*
X0703541Y0028733D01*
X0731284Y0028733D02*
X0733251Y0028733D01*
X0733251Y0028078D01*
X0731284Y0028733D02*
X0731284Y0024800D01*
X0735337Y0025783D02*
X0735337Y0027422D01*
X0735337Y0026767D02*
X0737959Y0026767D01*
X0737959Y0027422D01*
X0737957Y0027493D01*
X0737951Y0027564D01*
X0737942Y0027634D01*
X0737928Y0027704D01*
X0737911Y0027773D01*
X0737890Y0027841D01*
X0737866Y0027907D01*
X0737838Y0027972D01*
X0737806Y0028036D01*
X0737771Y0028098D01*
X0737733Y0028158D01*
X0737692Y0028215D01*
X0737647Y0028271D01*
X0737600Y0028324D01*
X0737550Y0028374D01*
X0737497Y0028421D01*
X0737441Y0028466D01*
X0737384Y0028507D01*
X0737324Y0028545D01*
X0737262Y0028580D01*
X0737198Y0028612D01*
X0737133Y0028640D01*
X0737067Y0028664D01*
X0736999Y0028685D01*
X0736930Y0028702D01*
X0736860Y0028716D01*
X0736790Y0028725D01*
X0736719Y0028731D01*
X0736648Y0028733D01*
X0736577Y0028731D01*
X0736506Y0028725D01*
X0736436Y0028716D01*
X0736366Y0028702D01*
X0736297Y0028685D01*
X0736229Y0028664D01*
X0736163Y0028640D01*
X0736098Y0028612D01*
X0736034Y0028580D01*
X0735972Y0028545D01*
X0735912Y0028507D01*
X0735855Y0028466D01*
X0735799Y0028421D01*
X0735746Y0028374D01*
X0735696Y0028324D01*
X0735649Y0028271D01*
X0735604Y0028215D01*
X0735563Y0028158D01*
X0735525Y0028098D01*
X0735490Y0028036D01*
X0735458Y0027972D01*
X0735430Y0027907D01*
X0735406Y0027841D01*
X0735385Y0027773D01*
X0735368Y0027704D01*
X0735354Y0027634D01*
X0735345Y0027564D01*
X0735339Y0027493D01*
X0735337Y0027422D01*
X0735337Y0025783D02*
X0735339Y0025721D01*
X0735345Y0025660D01*
X0735354Y0025599D01*
X0735368Y0025539D01*
X0735385Y0025479D01*
X0735406Y0025421D01*
X0735431Y0025364D01*
X0735459Y0025309D01*
X0735490Y0025256D01*
X0735525Y0025205D01*
X0735563Y0025156D01*
X0735603Y0025110D01*
X0735647Y0025066D01*
X0735693Y0025026D01*
X0735742Y0024988D01*
X0735793Y0024953D01*
X0735846Y0024922D01*
X0735901Y0024894D01*
X0735958Y0024869D01*
X0736016Y0024848D01*
X0736076Y0024831D01*
X0736136Y0024817D01*
X0736197Y0024808D01*
X0736258Y0024802D01*
X0736320Y0024800D01*
X0737959Y0024800D01*
M02*
