G75*
%MOIN*%
%OFA0B0*%
%FSLAX25Y25*%
%IPPOS*%
%LPD*%
%AMOC8*
5,1,8,0,0,1.08239X$1,22.5*
%
%ADD10R,0.11036X0.05131*%
%ADD11R,0.13398X0.13398*%
%ADD12C,0.08200*%
%ADD13C,0.07550*%
%ADD14C,0.06800*%
%ADD15R,0.03300X0.05800*%
%ADD16C,0.03300*%
%ADD17C,0.13800*%
%ADD18C,0.04737*%
%ADD19C,0.05000*%
%ADD20C,0.06706*%
D10*
X0047254Y0067411D03*
X0047254Y0075285D03*
X0047254Y0083159D03*
X0047254Y0091033D03*
X0047254Y0098907D03*
X0047254Y0106781D03*
X0047254Y0114656D03*
X0047254Y0122530D03*
X0110246Y0122530D03*
X0110246Y0114656D03*
X0110246Y0106781D03*
X0110246Y0098907D03*
X0110246Y0091033D03*
X0110246Y0083159D03*
X0110246Y0075285D03*
X0110246Y0067411D03*
X0149254Y0067411D03*
X0149254Y0075285D03*
X0149254Y0083159D03*
X0149254Y0091033D03*
X0149254Y0098907D03*
X0149254Y0106781D03*
X0149254Y0114656D03*
X0149254Y0122530D03*
X0212246Y0122530D03*
X0212246Y0114656D03*
X0212246Y0106781D03*
X0212246Y0098907D03*
X0212246Y0091033D03*
X0212246Y0083159D03*
X0212246Y0075285D03*
X0212246Y0067411D03*
X0251254Y0067411D03*
X0251254Y0075285D03*
X0251254Y0083159D03*
X0251254Y0091033D03*
X0251254Y0098907D03*
X0251254Y0106781D03*
X0251254Y0114656D03*
X0251254Y0122530D03*
X0314246Y0122530D03*
X0314246Y0114656D03*
X0314246Y0106781D03*
X0314246Y0098907D03*
X0314246Y0091033D03*
X0314246Y0083159D03*
X0314246Y0075285D03*
X0314246Y0067411D03*
X0353254Y0067411D03*
X0353254Y0075285D03*
X0353254Y0083159D03*
X0353254Y0091033D03*
X0353254Y0098907D03*
X0353254Y0106781D03*
X0353254Y0114656D03*
X0353254Y0122530D03*
X0416246Y0122530D03*
X0416246Y0114656D03*
X0416246Y0106781D03*
X0416246Y0098907D03*
X0416246Y0091033D03*
X0416246Y0083159D03*
X0416246Y0075285D03*
X0416246Y0067411D03*
X0455254Y0067411D03*
X0455254Y0075285D03*
X0455254Y0083159D03*
X0455254Y0091033D03*
X0455254Y0098907D03*
X0455254Y0106781D03*
X0455254Y0114656D03*
X0455254Y0122530D03*
X0518246Y0122530D03*
X0518246Y0114656D03*
X0518246Y0106781D03*
X0518246Y0098907D03*
X0518246Y0091033D03*
X0518246Y0083159D03*
X0518246Y0075285D03*
X0518246Y0067411D03*
X0557254Y0067411D03*
X0557254Y0075285D03*
X0557254Y0083159D03*
X0557254Y0091033D03*
X0557254Y0098907D03*
X0557254Y0106781D03*
X0557254Y0114656D03*
X0557254Y0122530D03*
X0620246Y0122530D03*
X0620246Y0114656D03*
X0620246Y0106781D03*
X0620246Y0098907D03*
X0620246Y0091033D03*
X0620246Y0083159D03*
X0620246Y0075285D03*
X0620246Y0067411D03*
X0620246Y0199411D03*
X0620246Y0207285D03*
X0620246Y0215159D03*
X0620246Y0223033D03*
X0620246Y0230907D03*
X0620246Y0238781D03*
X0620246Y0246656D03*
X0620246Y0254530D03*
X0557254Y0254530D03*
X0557254Y0246656D03*
X0557254Y0238781D03*
X0557254Y0230907D03*
X0557254Y0223033D03*
X0557254Y0215159D03*
X0557254Y0207285D03*
X0557254Y0199411D03*
X0518246Y0199411D03*
X0518246Y0207285D03*
X0518246Y0215159D03*
X0518246Y0223033D03*
X0518246Y0230907D03*
X0518246Y0238781D03*
X0518246Y0246656D03*
X0518246Y0254530D03*
X0455254Y0254530D03*
X0455254Y0246656D03*
X0455254Y0238781D03*
X0455254Y0230907D03*
X0455254Y0223033D03*
X0455254Y0215159D03*
X0455254Y0207285D03*
X0455254Y0199411D03*
X0416246Y0199411D03*
X0416246Y0207285D03*
X0416246Y0215159D03*
X0416246Y0223033D03*
X0416246Y0230907D03*
X0416246Y0238781D03*
X0416246Y0246656D03*
X0416246Y0254530D03*
X0353254Y0254530D03*
X0353254Y0246656D03*
X0353254Y0238781D03*
X0353254Y0230907D03*
X0353254Y0223033D03*
X0353254Y0215159D03*
X0353254Y0207285D03*
X0353254Y0199411D03*
X0314246Y0199411D03*
X0314246Y0207285D03*
X0314246Y0215159D03*
X0314246Y0223033D03*
X0314246Y0230907D03*
X0314246Y0238781D03*
X0314246Y0246656D03*
X0314246Y0254530D03*
X0251254Y0254530D03*
X0251254Y0246656D03*
X0251254Y0238781D03*
X0251254Y0230907D03*
X0251254Y0223033D03*
X0251254Y0215159D03*
X0251254Y0207285D03*
X0251254Y0199411D03*
X0212246Y0199411D03*
X0212246Y0207285D03*
X0212246Y0215159D03*
X0212246Y0223033D03*
X0212246Y0230907D03*
X0212246Y0238781D03*
X0212246Y0246656D03*
X0212246Y0254530D03*
X0149254Y0254530D03*
X0149254Y0246656D03*
X0149254Y0238781D03*
X0149254Y0230907D03*
X0149254Y0223033D03*
X0149254Y0215159D03*
X0149254Y0207285D03*
X0149254Y0199411D03*
X0110246Y0199411D03*
X0110246Y0207285D03*
X0110246Y0215159D03*
X0110246Y0223033D03*
X0110246Y0230907D03*
X0110246Y0238781D03*
X0110246Y0246656D03*
X0110246Y0254530D03*
X0047254Y0254530D03*
X0047254Y0246656D03*
X0047254Y0238781D03*
X0047254Y0230907D03*
X0047254Y0223033D03*
X0047254Y0215159D03*
X0047254Y0207285D03*
X0047254Y0199411D03*
X0047254Y0331411D03*
X0047254Y0339285D03*
X0047254Y0347159D03*
X0047254Y0355033D03*
X0047254Y0362907D03*
X0047254Y0370781D03*
X0047254Y0378656D03*
X0047254Y0386530D03*
X0110246Y0386530D03*
X0110246Y0378656D03*
X0110246Y0370781D03*
X0110246Y0362907D03*
X0110246Y0355033D03*
X0110246Y0347159D03*
X0110246Y0339285D03*
X0110246Y0331411D03*
X0149254Y0331411D03*
X0149254Y0339285D03*
X0149254Y0347159D03*
X0149254Y0355033D03*
X0149254Y0362907D03*
X0149254Y0370781D03*
X0149254Y0378656D03*
X0149254Y0386530D03*
X0212246Y0386530D03*
X0212246Y0378656D03*
X0212246Y0370781D03*
X0212246Y0362907D03*
X0212246Y0355033D03*
X0212246Y0347159D03*
X0212246Y0339285D03*
X0212246Y0331411D03*
X0251254Y0331411D03*
X0251254Y0339285D03*
X0251254Y0347159D03*
X0251254Y0355033D03*
X0251254Y0362907D03*
X0251254Y0370781D03*
X0251254Y0378656D03*
X0251254Y0386530D03*
X0314246Y0386530D03*
X0314246Y0378656D03*
X0314246Y0370781D03*
X0314246Y0362907D03*
X0314246Y0355033D03*
X0314246Y0347159D03*
X0314246Y0339285D03*
X0314246Y0331411D03*
X0353254Y0331411D03*
X0353254Y0339285D03*
X0353254Y0347159D03*
X0353254Y0355033D03*
X0353254Y0362907D03*
X0353254Y0370781D03*
X0353254Y0378656D03*
X0353254Y0386530D03*
X0416246Y0386530D03*
X0416246Y0378656D03*
X0416246Y0370781D03*
X0416246Y0362907D03*
X0416246Y0355033D03*
X0416246Y0347159D03*
X0416246Y0339285D03*
X0416246Y0331411D03*
X0455254Y0331411D03*
X0455254Y0339285D03*
X0455254Y0347159D03*
X0455254Y0355033D03*
X0455254Y0362907D03*
X0455254Y0370781D03*
X0455254Y0378656D03*
X0455254Y0386530D03*
X0518246Y0386530D03*
X0518246Y0378656D03*
X0518246Y0370781D03*
X0518246Y0362907D03*
X0518246Y0355033D03*
X0518246Y0347159D03*
X0518246Y0339285D03*
X0518246Y0331411D03*
X0557254Y0331411D03*
X0557254Y0339285D03*
X0557254Y0347159D03*
X0557254Y0355033D03*
X0557254Y0362907D03*
X0557254Y0370781D03*
X0557254Y0378656D03*
X0557254Y0386530D03*
X0620246Y0386530D03*
X0620246Y0378656D03*
X0620246Y0370781D03*
X0620246Y0362907D03*
X0620246Y0355033D03*
X0620246Y0347159D03*
X0620246Y0339285D03*
X0620246Y0331411D03*
D11*
X0588750Y0368026D03*
X0486750Y0368026D03*
X0384750Y0368026D03*
X0282750Y0368026D03*
X0180750Y0368026D03*
X0078750Y0368026D03*
X0078750Y0236026D03*
X0180750Y0236026D03*
X0282750Y0236026D03*
X0384750Y0236026D03*
X0486750Y0236026D03*
X0588750Y0236026D03*
X0588750Y0104026D03*
X0486750Y0104026D03*
X0384750Y0104026D03*
X0282750Y0104026D03*
X0180750Y0104026D03*
X0078750Y0104026D03*
D12*
X0033750Y0103750D03*
X0033750Y0093750D03*
X0033750Y0083750D03*
X0033750Y0073750D03*
X0033750Y0063750D03*
X0033750Y0053750D03*
X0123750Y0053750D03*
X0123750Y0063750D03*
X0135750Y0063750D03*
X0135750Y0053750D03*
X0135750Y0073750D03*
X0135750Y0083750D03*
X0135750Y0093750D03*
X0135750Y0103750D03*
X0123750Y0103750D03*
X0123750Y0093750D03*
X0123750Y0083750D03*
X0123750Y0073750D03*
X0123750Y0113750D03*
X0123750Y0123750D03*
X0123750Y0185750D03*
X0123750Y0195750D03*
X0123750Y0205750D03*
X0123750Y0215750D03*
X0123750Y0225750D03*
X0123750Y0235750D03*
X0135750Y0235750D03*
X0135750Y0225750D03*
X0135750Y0215750D03*
X0135750Y0205750D03*
X0135750Y0195750D03*
X0135750Y0185750D03*
X0225750Y0185750D03*
X0225750Y0195750D03*
X0225750Y0205750D03*
X0225750Y0215750D03*
X0225750Y0225750D03*
X0225750Y0235750D03*
X0237750Y0235750D03*
X0237750Y0225750D03*
X0237750Y0215750D03*
X0237750Y0205750D03*
X0237750Y0195750D03*
X0237750Y0185750D03*
X0225750Y0123750D03*
X0225750Y0113750D03*
X0225750Y0103750D03*
X0225750Y0093750D03*
X0225750Y0083750D03*
X0225750Y0073750D03*
X0237750Y0073750D03*
X0237750Y0083750D03*
X0237750Y0093750D03*
X0237750Y0103750D03*
X0237750Y0063750D03*
X0237750Y0053750D03*
X0225750Y0053750D03*
X0225750Y0063750D03*
X0327750Y0063750D03*
X0339750Y0063750D03*
X0339750Y0053750D03*
X0327750Y0053750D03*
X0327750Y0073750D03*
X0339750Y0073750D03*
X0339750Y0083750D03*
X0327750Y0083750D03*
X0327750Y0093750D03*
X0339750Y0093750D03*
X0339750Y0103750D03*
X0327750Y0103750D03*
X0327750Y0113750D03*
X0327750Y0123750D03*
X0327750Y0185750D03*
X0339750Y0185750D03*
X0339750Y0195750D03*
X0327750Y0195750D03*
X0327750Y0205750D03*
X0339750Y0205750D03*
X0339750Y0215750D03*
X0327750Y0215750D03*
X0327750Y0225750D03*
X0339750Y0225750D03*
X0339750Y0235750D03*
X0327750Y0235750D03*
X0327750Y0245750D03*
X0327750Y0255750D03*
X0327750Y0317750D03*
X0339750Y0317750D03*
X0339750Y0327750D03*
X0327750Y0327750D03*
X0327750Y0337750D03*
X0339750Y0337750D03*
X0339750Y0347750D03*
X0327750Y0347750D03*
X0327750Y0357750D03*
X0339750Y0357750D03*
X0339750Y0367750D03*
X0327750Y0367750D03*
X0327750Y0377750D03*
X0327750Y0387750D03*
X0237750Y0367750D03*
X0237750Y0357750D03*
X0237750Y0347750D03*
X0237750Y0337750D03*
X0237750Y0327750D03*
X0237750Y0317750D03*
X0225750Y0317750D03*
X0225750Y0327750D03*
X0225750Y0337750D03*
X0225750Y0347750D03*
X0225750Y0357750D03*
X0225750Y0367750D03*
X0225750Y0377750D03*
X0225750Y0387750D03*
X0135750Y0367750D03*
X0135750Y0357750D03*
X0135750Y0347750D03*
X0135750Y0337750D03*
X0135750Y0327750D03*
X0135750Y0317750D03*
X0123750Y0317750D03*
X0123750Y0327750D03*
X0123750Y0337750D03*
X0123750Y0347750D03*
X0123750Y0357750D03*
X0123750Y0367750D03*
X0123750Y0377750D03*
X0123750Y0387750D03*
X0033750Y0367750D03*
X0033750Y0357750D03*
X0033750Y0347750D03*
X0033750Y0337750D03*
X0033750Y0327750D03*
X0033750Y0317750D03*
X0123750Y0255750D03*
X0123750Y0245750D03*
X0033750Y0235750D03*
X0033750Y0225750D03*
X0033750Y0215750D03*
X0033750Y0205750D03*
X0033750Y0195750D03*
X0033750Y0185750D03*
X0225750Y0245750D03*
X0225750Y0255750D03*
X0429750Y0255750D03*
X0429750Y0245750D03*
X0429750Y0235750D03*
X0429750Y0225750D03*
X0429750Y0215750D03*
X0429750Y0205750D03*
X0429750Y0195750D03*
X0429750Y0185750D03*
X0441750Y0185750D03*
X0441750Y0195750D03*
X0441750Y0205750D03*
X0441750Y0215750D03*
X0441750Y0225750D03*
X0441750Y0235750D03*
X0531750Y0235750D03*
X0531750Y0225750D03*
X0531750Y0215750D03*
X0531750Y0205750D03*
X0531750Y0195750D03*
X0531750Y0185750D03*
X0543750Y0185750D03*
X0543750Y0195750D03*
X0543750Y0205750D03*
X0543750Y0215750D03*
X0543750Y0225750D03*
X0543750Y0235750D03*
X0531750Y0245750D03*
X0531750Y0255750D03*
X0531750Y0317750D03*
X0531750Y0327750D03*
X0531750Y0337750D03*
X0531750Y0347750D03*
X0531750Y0357750D03*
X0531750Y0367750D03*
X0531750Y0377750D03*
X0531750Y0387750D03*
X0543750Y0367750D03*
X0543750Y0357750D03*
X0543750Y0347750D03*
X0543750Y0337750D03*
X0543750Y0327750D03*
X0543750Y0317750D03*
X0633750Y0317750D03*
X0633750Y0327750D03*
X0633750Y0337750D03*
X0633750Y0347750D03*
X0633750Y0357750D03*
X0633750Y0367750D03*
X0633750Y0377750D03*
X0633750Y0387750D03*
X0633750Y0255750D03*
X0633750Y0245750D03*
X0633750Y0235750D03*
X0633750Y0225750D03*
X0633750Y0215750D03*
X0633750Y0205750D03*
X0633750Y0195750D03*
X0633750Y0185750D03*
X0633750Y0123750D03*
X0633750Y0113750D03*
X0633750Y0103750D03*
X0633750Y0093750D03*
X0633750Y0083750D03*
X0633750Y0073750D03*
X0633750Y0063750D03*
X0633750Y0053750D03*
X0543750Y0053750D03*
X0543750Y0063750D03*
X0531750Y0063750D03*
X0531750Y0053750D03*
X0531750Y0073750D03*
X0531750Y0083750D03*
X0531750Y0093750D03*
X0531750Y0103750D03*
X0531750Y0113750D03*
X0531750Y0123750D03*
X0543750Y0103750D03*
X0543750Y0093750D03*
X0543750Y0083750D03*
X0543750Y0073750D03*
X0441750Y0073750D03*
X0441750Y0083750D03*
X0441750Y0093750D03*
X0441750Y0103750D03*
X0429750Y0103750D03*
X0429750Y0093750D03*
X0429750Y0083750D03*
X0429750Y0073750D03*
X0429750Y0063750D03*
X0429750Y0053750D03*
X0441750Y0053750D03*
X0441750Y0063750D03*
X0429750Y0113750D03*
X0429750Y0123750D03*
X0429750Y0317750D03*
X0429750Y0327750D03*
X0429750Y0337750D03*
X0429750Y0347750D03*
X0429750Y0357750D03*
X0429750Y0367750D03*
X0429750Y0377750D03*
X0429750Y0387750D03*
X0441750Y0367750D03*
X0441750Y0357750D03*
X0441750Y0347750D03*
X0441750Y0337750D03*
X0441750Y0327750D03*
X0441750Y0317750D03*
D13*
X0407250Y0318750D03*
X0397250Y0318750D03*
X0305250Y0318750D03*
X0295250Y0318750D03*
X0203250Y0318750D03*
X0193250Y0318750D03*
X0101250Y0318750D03*
X0091250Y0318750D03*
X0091250Y0186750D03*
X0101250Y0186750D03*
X0193250Y0186750D03*
X0203250Y0186750D03*
X0295250Y0186750D03*
X0305250Y0186750D03*
X0397250Y0186750D03*
X0407250Y0186750D03*
X0499250Y0186750D03*
X0509250Y0186750D03*
X0601250Y0186750D03*
X0611250Y0186750D03*
X0611250Y0318750D03*
X0601250Y0318750D03*
X0509250Y0318750D03*
X0499250Y0318750D03*
X0499250Y0054750D03*
X0509250Y0054750D03*
X0601250Y0054750D03*
X0611250Y0054750D03*
X0407250Y0054750D03*
X0397250Y0054750D03*
X0305250Y0054750D03*
X0295250Y0054750D03*
X0203250Y0054750D03*
X0193250Y0054750D03*
X0101250Y0054750D03*
X0091250Y0054750D03*
D14*
X0076250Y0054750D03*
X0066250Y0054750D03*
X0056250Y0054750D03*
X0158250Y0054750D03*
X0168250Y0054750D03*
X0178250Y0054750D03*
X0260250Y0054750D03*
X0270250Y0054750D03*
X0280250Y0054750D03*
X0362250Y0054750D03*
X0372250Y0054750D03*
X0382250Y0054750D03*
X0464250Y0054750D03*
X0474250Y0054750D03*
X0484250Y0054750D03*
X0566250Y0054750D03*
X0576250Y0054750D03*
X0586250Y0054750D03*
X0586250Y0186750D03*
X0576250Y0186750D03*
X0566250Y0186750D03*
X0484250Y0186750D03*
X0474250Y0186750D03*
X0464250Y0186750D03*
X0382250Y0186750D03*
X0372250Y0186750D03*
X0362250Y0186750D03*
X0280250Y0186750D03*
X0270250Y0186750D03*
X0260250Y0186750D03*
X0178250Y0186750D03*
X0168250Y0186750D03*
X0158250Y0186750D03*
X0076250Y0186750D03*
X0066250Y0186750D03*
X0056250Y0186750D03*
X0056250Y0318750D03*
X0066250Y0318750D03*
X0076250Y0318750D03*
X0158250Y0318750D03*
X0168250Y0318750D03*
X0178250Y0318750D03*
X0260250Y0318750D03*
X0270250Y0318750D03*
X0280250Y0318750D03*
X0362250Y0318750D03*
X0372250Y0318750D03*
X0382250Y0318750D03*
X0464250Y0318750D03*
X0474250Y0318750D03*
X0484250Y0318750D03*
X0566250Y0318750D03*
X0576250Y0318750D03*
X0586250Y0318750D03*
D15*
X0628650Y0265750D03*
X0631850Y0265750D03*
X0529850Y0265750D03*
X0526650Y0265750D03*
X0427850Y0265750D03*
X0424650Y0265750D03*
X0325850Y0265750D03*
X0322650Y0265750D03*
X0223850Y0265750D03*
X0220650Y0265750D03*
X0121850Y0265750D03*
X0118650Y0265750D03*
X0118650Y0397750D03*
X0121850Y0397750D03*
X0220650Y0397750D03*
X0223850Y0397750D03*
X0322650Y0397750D03*
X0325850Y0397750D03*
X0424650Y0397750D03*
X0427850Y0397750D03*
X0526650Y0397750D03*
X0529850Y0397750D03*
X0628650Y0397750D03*
X0631850Y0397750D03*
X0631850Y0133750D03*
X0628650Y0133750D03*
X0529850Y0133750D03*
X0526650Y0133750D03*
X0427850Y0133750D03*
X0424650Y0133750D03*
X0325850Y0133750D03*
X0322650Y0133750D03*
X0223850Y0133750D03*
X0220650Y0133750D03*
X0121850Y0133750D03*
X0118650Y0133750D03*
D16*
X0126250Y0154750D03*
X0143250Y0185750D03*
X0228250Y0154750D03*
X0245250Y0185750D03*
X0330250Y0154750D03*
X0347250Y0185750D03*
X0432250Y0154750D03*
X0449250Y0185750D03*
X0534250Y0154750D03*
X0551250Y0185750D03*
X0636250Y0154750D03*
X0551250Y0053750D03*
X0449250Y0053750D03*
X0347250Y0053750D03*
X0245250Y0053750D03*
X0143250Y0053750D03*
X0041250Y0053750D03*
X0041250Y0185750D03*
X0126250Y0286750D03*
X0143250Y0317750D03*
X0228250Y0286750D03*
X0245250Y0317750D03*
X0330250Y0286750D03*
X0347250Y0317750D03*
X0432250Y0286750D03*
X0449250Y0317750D03*
X0534250Y0286750D03*
X0551250Y0317750D03*
X0636250Y0286750D03*
X0636250Y0418750D03*
X0534250Y0418750D03*
X0432250Y0418750D03*
X0330250Y0418750D03*
X0228250Y0418750D03*
X0126250Y0418750D03*
X0041250Y0317750D03*
D17*
X0038750Y0038750D03*
X0118750Y0038750D03*
X0140750Y0038750D03*
X0220750Y0038750D03*
X0242750Y0038750D03*
X0322750Y0038750D03*
X0344750Y0038750D03*
X0424750Y0038750D03*
X0446750Y0038750D03*
X0526750Y0038750D03*
X0548750Y0038750D03*
X0628750Y0038750D03*
X0628750Y0170750D03*
X0548750Y0170750D03*
X0526750Y0170750D03*
X0446750Y0170750D03*
X0424750Y0170750D03*
X0344750Y0170750D03*
X0322750Y0170750D03*
X0242750Y0170750D03*
X0220750Y0170750D03*
X0140750Y0170750D03*
X0118750Y0170750D03*
X0038750Y0170750D03*
X0038750Y0302750D03*
X0118750Y0302750D03*
X0140750Y0302750D03*
X0220750Y0302750D03*
X0242750Y0302750D03*
X0322750Y0302750D03*
X0344750Y0302750D03*
X0424750Y0302750D03*
X0446750Y0302750D03*
X0526750Y0302750D03*
X0548750Y0302750D03*
X0628750Y0302750D03*
D18*
X0611750Y0431000D03*
X0055750Y0431000D03*
D19*
X0052185Y0020500D02*
X0052187Y0020619D01*
X0052193Y0020738D01*
X0052203Y0020857D01*
X0052217Y0020975D01*
X0052235Y0021093D01*
X0052256Y0021210D01*
X0052282Y0021326D01*
X0052312Y0021442D01*
X0052345Y0021556D01*
X0052382Y0021669D01*
X0052423Y0021781D01*
X0052468Y0021892D01*
X0052516Y0022001D01*
X0052568Y0022108D01*
X0052624Y0022213D01*
X0052683Y0022317D01*
X0052745Y0022418D01*
X0052811Y0022518D01*
X0052880Y0022615D01*
X0052952Y0022709D01*
X0053028Y0022802D01*
X0053106Y0022891D01*
X0053187Y0022978D01*
X0053272Y0023063D01*
X0053359Y0023144D01*
X0053448Y0023222D01*
X0053541Y0023298D01*
X0053635Y0023370D01*
X0053732Y0023439D01*
X0053832Y0023505D01*
X0053933Y0023567D01*
X0054037Y0023626D01*
X0054142Y0023682D01*
X0054249Y0023734D01*
X0054358Y0023782D01*
X0054469Y0023827D01*
X0054581Y0023868D01*
X0054694Y0023905D01*
X0054808Y0023938D01*
X0054924Y0023968D01*
X0055040Y0023994D01*
X0055157Y0024015D01*
X0055275Y0024033D01*
X0055393Y0024047D01*
X0055512Y0024057D01*
X0055631Y0024063D01*
X0055750Y0024065D01*
X0055869Y0024063D01*
X0055988Y0024057D01*
X0056107Y0024047D01*
X0056225Y0024033D01*
X0056343Y0024015D01*
X0056460Y0023994D01*
X0056576Y0023968D01*
X0056692Y0023938D01*
X0056806Y0023905D01*
X0056919Y0023868D01*
X0057031Y0023827D01*
X0057142Y0023782D01*
X0057251Y0023734D01*
X0057358Y0023682D01*
X0057463Y0023626D01*
X0057567Y0023567D01*
X0057668Y0023505D01*
X0057768Y0023439D01*
X0057865Y0023370D01*
X0057959Y0023298D01*
X0058052Y0023222D01*
X0058141Y0023144D01*
X0058228Y0023063D01*
X0058313Y0022978D01*
X0058394Y0022891D01*
X0058472Y0022802D01*
X0058548Y0022709D01*
X0058620Y0022615D01*
X0058689Y0022518D01*
X0058755Y0022418D01*
X0058817Y0022317D01*
X0058876Y0022213D01*
X0058932Y0022108D01*
X0058984Y0022001D01*
X0059032Y0021892D01*
X0059077Y0021781D01*
X0059118Y0021669D01*
X0059155Y0021556D01*
X0059188Y0021442D01*
X0059218Y0021326D01*
X0059244Y0021210D01*
X0059265Y0021093D01*
X0059283Y0020975D01*
X0059297Y0020857D01*
X0059307Y0020738D01*
X0059313Y0020619D01*
X0059315Y0020500D01*
X0059313Y0020381D01*
X0059307Y0020262D01*
X0059297Y0020143D01*
X0059283Y0020025D01*
X0059265Y0019907D01*
X0059244Y0019790D01*
X0059218Y0019674D01*
X0059188Y0019558D01*
X0059155Y0019444D01*
X0059118Y0019331D01*
X0059077Y0019219D01*
X0059032Y0019108D01*
X0058984Y0018999D01*
X0058932Y0018892D01*
X0058876Y0018787D01*
X0058817Y0018683D01*
X0058755Y0018582D01*
X0058689Y0018482D01*
X0058620Y0018385D01*
X0058548Y0018291D01*
X0058472Y0018198D01*
X0058394Y0018109D01*
X0058313Y0018022D01*
X0058228Y0017937D01*
X0058141Y0017856D01*
X0058052Y0017778D01*
X0057959Y0017702D01*
X0057865Y0017630D01*
X0057768Y0017561D01*
X0057668Y0017495D01*
X0057567Y0017433D01*
X0057463Y0017374D01*
X0057358Y0017318D01*
X0057251Y0017266D01*
X0057142Y0017218D01*
X0057031Y0017173D01*
X0056919Y0017132D01*
X0056806Y0017095D01*
X0056692Y0017062D01*
X0056576Y0017032D01*
X0056460Y0017006D01*
X0056343Y0016985D01*
X0056225Y0016967D01*
X0056107Y0016953D01*
X0055988Y0016943D01*
X0055869Y0016937D01*
X0055750Y0016935D01*
X0055631Y0016937D01*
X0055512Y0016943D01*
X0055393Y0016953D01*
X0055275Y0016967D01*
X0055157Y0016985D01*
X0055040Y0017006D01*
X0054924Y0017032D01*
X0054808Y0017062D01*
X0054694Y0017095D01*
X0054581Y0017132D01*
X0054469Y0017173D01*
X0054358Y0017218D01*
X0054249Y0017266D01*
X0054142Y0017318D01*
X0054037Y0017374D01*
X0053933Y0017433D01*
X0053832Y0017495D01*
X0053732Y0017561D01*
X0053635Y0017630D01*
X0053541Y0017702D01*
X0053448Y0017778D01*
X0053359Y0017856D01*
X0053272Y0017937D01*
X0053187Y0018022D01*
X0053106Y0018109D01*
X0053028Y0018198D01*
X0052952Y0018291D01*
X0052880Y0018385D01*
X0052811Y0018482D01*
X0052745Y0018582D01*
X0052683Y0018683D01*
X0052624Y0018787D01*
X0052568Y0018892D01*
X0052516Y0018999D01*
X0052468Y0019108D01*
X0052423Y0019219D01*
X0052382Y0019331D01*
X0052345Y0019444D01*
X0052312Y0019558D01*
X0052282Y0019674D01*
X0052256Y0019790D01*
X0052235Y0019907D01*
X0052217Y0020025D01*
X0052203Y0020143D01*
X0052193Y0020262D01*
X0052187Y0020381D01*
X0052185Y0020500D01*
D20*
X0055750Y0020500D03*
M02*
