G75*
%MOIN*%
%OFA0B0*%
%FSLAX25Y25*%
%IPPOS*%
%LPD*%
%AMOC8*
5,1,8,0,0,1.08239X$1,22.5*
%
%ADD10C,0.08200*%
%ADD11C,0.07550*%
%ADD12R,0.05131X0.04737*%
%ADD13R,0.04737X0.05131*%
%ADD14C,0.01990*%
%ADD15R,0.03950X0.04343*%
%ADD16R,0.04343X0.04737*%
%ADD17C,0.06800*%
%ADD18R,0.04068X0.03280*%
%ADD19C,0.03300*%
%ADD20R,0.05524X0.02965*%
%ADD21C,0.13800*%
%ADD22C,0.04737*%
%ADD23C,0.05000*%
%ADD24C,0.06706*%
D10*
X0033750Y0053750D03*
X0033750Y0063750D03*
X0033750Y0073750D03*
X0033750Y0083750D03*
X0033750Y0093750D03*
X0033750Y0103750D03*
X0123750Y0103750D03*
X0123750Y0093750D03*
X0123750Y0083750D03*
X0123750Y0073750D03*
X0135750Y0073750D03*
X0135750Y0083750D03*
X0135750Y0093750D03*
X0135750Y0103750D03*
X0123750Y0113750D03*
X0123750Y0123750D03*
X0123750Y0185750D03*
X0123750Y0195750D03*
X0123750Y0205750D03*
X0123750Y0215750D03*
X0123750Y0225750D03*
X0123750Y0235750D03*
X0135750Y0235750D03*
X0135750Y0225750D03*
X0135750Y0215750D03*
X0135750Y0205750D03*
X0135750Y0195750D03*
X0135750Y0185750D03*
X0225750Y0185750D03*
X0225750Y0195750D03*
X0225750Y0205750D03*
X0225750Y0215750D03*
X0225750Y0225750D03*
X0225750Y0235750D03*
X0237750Y0235750D03*
X0237750Y0225750D03*
X0237750Y0215750D03*
X0237750Y0205750D03*
X0237750Y0195750D03*
X0237750Y0185750D03*
X0225750Y0123750D03*
X0225750Y0113750D03*
X0225750Y0103750D03*
X0225750Y0093750D03*
X0225750Y0083750D03*
X0225750Y0073750D03*
X0237750Y0073750D03*
X0237750Y0083750D03*
X0237750Y0093750D03*
X0237750Y0103750D03*
X0237750Y0063750D03*
X0237750Y0053750D03*
X0225750Y0053750D03*
X0225750Y0063750D03*
X0135750Y0063750D03*
X0135750Y0053750D03*
X0123750Y0053750D03*
X0123750Y0063750D03*
X0033750Y0185750D03*
X0033750Y0195750D03*
X0033750Y0205750D03*
X0033750Y0215750D03*
X0033750Y0225750D03*
X0033750Y0235750D03*
X0123750Y0245750D03*
X0123750Y0255750D03*
X0123750Y0317750D03*
X0123750Y0327750D03*
X0123750Y0337750D03*
X0123750Y0347750D03*
X0123750Y0357750D03*
X0123750Y0367750D03*
X0123750Y0377750D03*
X0123750Y0387750D03*
X0135750Y0367750D03*
X0135750Y0357750D03*
X0135750Y0347750D03*
X0135750Y0337750D03*
X0135750Y0327750D03*
X0135750Y0317750D03*
X0225750Y0317750D03*
X0225750Y0327750D03*
X0225750Y0337750D03*
X0225750Y0347750D03*
X0225750Y0357750D03*
X0225750Y0367750D03*
X0225750Y0377750D03*
X0225750Y0387750D03*
X0237750Y0367750D03*
X0237750Y0357750D03*
X0237750Y0347750D03*
X0237750Y0337750D03*
X0237750Y0327750D03*
X0237750Y0317750D03*
X0225750Y0255750D03*
X0225750Y0245750D03*
X0327750Y0245750D03*
X0327750Y0255750D03*
X0327750Y0235750D03*
X0339750Y0235750D03*
X0339750Y0225750D03*
X0327750Y0225750D03*
X0327750Y0215750D03*
X0339750Y0215750D03*
X0339750Y0205750D03*
X0327750Y0205750D03*
X0327750Y0195750D03*
X0339750Y0195750D03*
X0339750Y0185750D03*
X0327750Y0185750D03*
X0327750Y0123750D03*
X0327750Y0113750D03*
X0327750Y0103750D03*
X0339750Y0103750D03*
X0339750Y0093750D03*
X0327750Y0093750D03*
X0327750Y0083750D03*
X0339750Y0083750D03*
X0339750Y0073750D03*
X0327750Y0073750D03*
X0327750Y0063750D03*
X0339750Y0063750D03*
X0339750Y0053750D03*
X0327750Y0053750D03*
X0429750Y0053750D03*
X0429750Y0063750D03*
X0441750Y0063750D03*
X0441750Y0053750D03*
X0441750Y0073750D03*
X0441750Y0083750D03*
X0441750Y0093750D03*
X0441750Y0103750D03*
X0429750Y0103750D03*
X0429750Y0093750D03*
X0429750Y0083750D03*
X0429750Y0073750D03*
X0429750Y0113750D03*
X0429750Y0123750D03*
X0429750Y0185750D03*
X0429750Y0195750D03*
X0429750Y0205750D03*
X0429750Y0215750D03*
X0429750Y0225750D03*
X0429750Y0235750D03*
X0441750Y0235750D03*
X0441750Y0225750D03*
X0441750Y0215750D03*
X0441750Y0205750D03*
X0441750Y0195750D03*
X0441750Y0185750D03*
X0531750Y0185750D03*
X0531750Y0195750D03*
X0531750Y0205750D03*
X0531750Y0215750D03*
X0531750Y0225750D03*
X0531750Y0235750D03*
X0543750Y0235750D03*
X0543750Y0225750D03*
X0543750Y0215750D03*
X0543750Y0205750D03*
X0543750Y0195750D03*
X0543750Y0185750D03*
X0531750Y0123750D03*
X0531750Y0113750D03*
X0531750Y0103750D03*
X0531750Y0093750D03*
X0531750Y0083750D03*
X0531750Y0073750D03*
X0543750Y0073750D03*
X0543750Y0083750D03*
X0543750Y0093750D03*
X0543750Y0103750D03*
X0543750Y0063750D03*
X0543750Y0053750D03*
X0531750Y0053750D03*
X0531750Y0063750D03*
X0633750Y0063750D03*
X0633750Y0053750D03*
X0633750Y0073750D03*
X0633750Y0083750D03*
X0633750Y0093750D03*
X0633750Y0103750D03*
X0633750Y0113750D03*
X0633750Y0123750D03*
X0633750Y0185750D03*
X0633750Y0195750D03*
X0633750Y0205750D03*
X0633750Y0215750D03*
X0633750Y0225750D03*
X0633750Y0235750D03*
X0633750Y0245750D03*
X0633750Y0255750D03*
X0633750Y0317750D03*
X0633750Y0327750D03*
X0633750Y0337750D03*
X0633750Y0347750D03*
X0633750Y0357750D03*
X0633750Y0367750D03*
X0633750Y0377750D03*
X0633750Y0387750D03*
X0543750Y0367750D03*
X0543750Y0357750D03*
X0543750Y0347750D03*
X0543750Y0337750D03*
X0543750Y0327750D03*
X0543750Y0317750D03*
X0531750Y0317750D03*
X0531750Y0327750D03*
X0531750Y0337750D03*
X0531750Y0347750D03*
X0531750Y0357750D03*
X0531750Y0367750D03*
X0531750Y0377750D03*
X0531750Y0387750D03*
X0441750Y0367750D03*
X0441750Y0357750D03*
X0441750Y0347750D03*
X0441750Y0337750D03*
X0441750Y0327750D03*
X0441750Y0317750D03*
X0429750Y0317750D03*
X0429750Y0327750D03*
X0429750Y0337750D03*
X0429750Y0347750D03*
X0429750Y0357750D03*
X0429750Y0367750D03*
X0429750Y0377750D03*
X0429750Y0387750D03*
X0339750Y0367750D03*
X0327750Y0367750D03*
X0327750Y0357750D03*
X0339750Y0357750D03*
X0339750Y0347750D03*
X0327750Y0347750D03*
X0327750Y0337750D03*
X0339750Y0337750D03*
X0339750Y0327750D03*
X0327750Y0327750D03*
X0327750Y0317750D03*
X0339750Y0317750D03*
X0327750Y0377750D03*
X0327750Y0387750D03*
X0429750Y0255750D03*
X0429750Y0245750D03*
X0531750Y0245750D03*
X0531750Y0255750D03*
X0033750Y0317750D03*
X0033750Y0327750D03*
X0033750Y0337750D03*
X0033750Y0347750D03*
X0033750Y0357750D03*
X0033750Y0367750D03*
D11*
X0091250Y0318750D03*
X0101250Y0318750D03*
X0193250Y0318750D03*
X0203250Y0318750D03*
X0295250Y0318750D03*
X0305250Y0318750D03*
X0397250Y0318750D03*
X0407250Y0318750D03*
X0499250Y0318750D03*
X0509250Y0318750D03*
X0601250Y0318750D03*
X0611250Y0318750D03*
X0611250Y0186750D03*
X0601250Y0186750D03*
X0509250Y0186750D03*
X0499250Y0186750D03*
X0407250Y0186750D03*
X0397250Y0186750D03*
X0305250Y0186750D03*
X0295250Y0186750D03*
X0203250Y0186750D03*
X0193250Y0186750D03*
X0101250Y0186750D03*
X0091250Y0186750D03*
X0091250Y0054750D03*
X0101250Y0054750D03*
X0193250Y0054750D03*
X0203250Y0054750D03*
X0295250Y0054750D03*
X0305250Y0054750D03*
X0397250Y0054750D03*
X0407250Y0054750D03*
X0499250Y0054750D03*
X0509250Y0054750D03*
X0601250Y0054750D03*
X0611250Y0054750D03*
D12*
X0610596Y0063250D03*
X0603904Y0063250D03*
X0602904Y0083750D03*
X0609596Y0083750D03*
X0572096Y0083750D03*
X0565404Y0083750D03*
X0507596Y0083750D03*
X0500904Y0083750D03*
X0470096Y0083750D03*
X0463404Y0083750D03*
X0501904Y0063250D03*
X0508596Y0063250D03*
X0406596Y0063250D03*
X0399904Y0063250D03*
X0398904Y0083750D03*
X0405596Y0083750D03*
X0368096Y0083750D03*
X0361404Y0083750D03*
X0304596Y0063250D03*
X0297904Y0063250D03*
X0296904Y0083750D03*
X0303596Y0083750D03*
X0266096Y0083750D03*
X0259404Y0083750D03*
X0201596Y0083750D03*
X0194904Y0083750D03*
X0164096Y0083750D03*
X0157404Y0083750D03*
X0195904Y0063250D03*
X0202596Y0063250D03*
X0100596Y0063250D03*
X0093904Y0063250D03*
X0092904Y0083750D03*
X0099596Y0083750D03*
X0062096Y0083750D03*
X0055404Y0083750D03*
X0093904Y0195250D03*
X0100596Y0195250D03*
X0099596Y0215750D03*
X0092904Y0215750D03*
X0062096Y0215750D03*
X0055404Y0215750D03*
X0157404Y0215750D03*
X0164096Y0215750D03*
X0194904Y0215750D03*
X0201596Y0215750D03*
X0202596Y0195250D03*
X0195904Y0195250D03*
X0259404Y0215750D03*
X0266096Y0215750D03*
X0296904Y0215750D03*
X0303596Y0215750D03*
X0304596Y0195250D03*
X0297904Y0195250D03*
X0361404Y0215750D03*
X0368096Y0215750D03*
X0398904Y0215750D03*
X0405596Y0215750D03*
X0406596Y0195250D03*
X0399904Y0195250D03*
X0463404Y0215750D03*
X0470096Y0215750D03*
X0500904Y0215750D03*
X0507596Y0215750D03*
X0508596Y0195250D03*
X0501904Y0195250D03*
X0565404Y0215750D03*
X0572096Y0215750D03*
X0602904Y0215750D03*
X0609596Y0215750D03*
X0610596Y0195250D03*
X0603904Y0195250D03*
X0603904Y0327250D03*
X0610596Y0327250D03*
X0609596Y0347750D03*
X0602904Y0347750D03*
X0572096Y0347750D03*
X0565404Y0347750D03*
X0507596Y0347750D03*
X0500904Y0347750D03*
X0501904Y0327250D03*
X0508596Y0327250D03*
X0470096Y0347750D03*
X0463404Y0347750D03*
X0405596Y0347750D03*
X0398904Y0347750D03*
X0399904Y0327250D03*
X0406596Y0327250D03*
X0368096Y0347750D03*
X0361404Y0347750D03*
X0304596Y0327250D03*
X0297904Y0327250D03*
X0296904Y0347750D03*
X0303596Y0347750D03*
X0266096Y0347750D03*
X0259404Y0347750D03*
X0201596Y0347750D03*
X0194904Y0347750D03*
X0195904Y0327250D03*
X0202596Y0327250D03*
X0164096Y0347750D03*
X0157404Y0347750D03*
X0099596Y0347750D03*
X0092904Y0347750D03*
X0093904Y0327250D03*
X0100596Y0327250D03*
X0062096Y0347750D03*
X0055404Y0347750D03*
D13*
X0055750Y0341096D03*
X0055750Y0334404D03*
X0079250Y0334404D03*
X0079250Y0341096D03*
X0087250Y0341096D03*
X0087250Y0334404D03*
X0084750Y0379404D03*
X0091250Y0379404D03*
X0097750Y0379404D03*
X0097750Y0386096D03*
X0091250Y0386096D03*
X0084750Y0386096D03*
X0072750Y0386096D03*
X0066250Y0386096D03*
X0059750Y0386096D03*
X0059750Y0379404D03*
X0066250Y0379404D03*
X0072750Y0379404D03*
X0161750Y0379404D03*
X0168250Y0379404D03*
X0174750Y0379404D03*
X0174750Y0386096D03*
X0168250Y0386096D03*
X0161750Y0386096D03*
X0186750Y0386096D03*
X0193250Y0386096D03*
X0199750Y0386096D03*
X0199750Y0379404D03*
X0193250Y0379404D03*
X0186750Y0379404D03*
X0189250Y0341096D03*
X0189250Y0334404D03*
X0181250Y0334404D03*
X0181250Y0341096D03*
X0157750Y0341096D03*
X0157750Y0334404D03*
X0259750Y0334404D03*
X0259750Y0341096D03*
X0283250Y0341096D03*
X0283250Y0334404D03*
X0291250Y0334404D03*
X0291250Y0341096D03*
X0288750Y0379404D03*
X0295250Y0379404D03*
X0301750Y0379404D03*
X0301750Y0386096D03*
X0295250Y0386096D03*
X0288750Y0386096D03*
X0276750Y0386096D03*
X0270250Y0386096D03*
X0263750Y0386096D03*
X0263750Y0379404D03*
X0270250Y0379404D03*
X0276750Y0379404D03*
X0361750Y0341096D03*
X0361750Y0334404D03*
X0385250Y0334404D03*
X0385250Y0341096D03*
X0393250Y0341096D03*
X0393250Y0334404D03*
X0390750Y0379404D03*
X0397250Y0379404D03*
X0403750Y0379404D03*
X0403750Y0386096D03*
X0397250Y0386096D03*
X0390750Y0386096D03*
X0378750Y0386096D03*
X0372250Y0386096D03*
X0365750Y0386096D03*
X0365750Y0379404D03*
X0372250Y0379404D03*
X0378750Y0379404D03*
X0463750Y0341096D03*
X0463750Y0334404D03*
X0487250Y0334404D03*
X0487250Y0341096D03*
X0495250Y0341096D03*
X0495250Y0334404D03*
X0492750Y0379404D03*
X0499250Y0379404D03*
X0505750Y0379404D03*
X0505750Y0386096D03*
X0499250Y0386096D03*
X0492750Y0386096D03*
X0480750Y0386096D03*
X0474250Y0386096D03*
X0467750Y0386096D03*
X0467750Y0379404D03*
X0474250Y0379404D03*
X0480750Y0379404D03*
X0569750Y0379404D03*
X0576250Y0379404D03*
X0582750Y0379404D03*
X0582750Y0386096D03*
X0576250Y0386096D03*
X0569750Y0386096D03*
X0594750Y0386096D03*
X0601250Y0386096D03*
X0607750Y0386096D03*
X0607750Y0379404D03*
X0601250Y0379404D03*
X0594750Y0379404D03*
X0597250Y0341096D03*
X0597250Y0334404D03*
X0589250Y0334404D03*
X0589250Y0341096D03*
X0565750Y0341096D03*
X0565750Y0334404D03*
X0569750Y0254096D03*
X0576250Y0254096D03*
X0582750Y0254096D03*
X0582750Y0247404D03*
X0576250Y0247404D03*
X0569750Y0247404D03*
X0594750Y0247404D03*
X0601250Y0247404D03*
X0607750Y0247404D03*
X0607750Y0254096D03*
X0601250Y0254096D03*
X0594750Y0254096D03*
X0597250Y0209096D03*
X0597250Y0202404D03*
X0589250Y0202404D03*
X0589250Y0209096D03*
X0565750Y0209096D03*
X0565750Y0202404D03*
X0505750Y0247404D03*
X0499250Y0247404D03*
X0492750Y0247404D03*
X0492750Y0254096D03*
X0499250Y0254096D03*
X0505750Y0254096D03*
X0480750Y0254096D03*
X0474250Y0254096D03*
X0467750Y0254096D03*
X0467750Y0247404D03*
X0474250Y0247404D03*
X0480750Y0247404D03*
X0487250Y0209096D03*
X0487250Y0202404D03*
X0495250Y0202404D03*
X0495250Y0209096D03*
X0463750Y0209096D03*
X0463750Y0202404D03*
X0393250Y0202404D03*
X0393250Y0209096D03*
X0385250Y0209096D03*
X0385250Y0202404D03*
X0361750Y0202404D03*
X0361750Y0209096D03*
X0365750Y0247404D03*
X0372250Y0247404D03*
X0378750Y0247404D03*
X0378750Y0254096D03*
X0372250Y0254096D03*
X0365750Y0254096D03*
X0390750Y0254096D03*
X0397250Y0254096D03*
X0403750Y0254096D03*
X0403750Y0247404D03*
X0397250Y0247404D03*
X0390750Y0247404D03*
X0301750Y0247404D03*
X0295250Y0247404D03*
X0288750Y0247404D03*
X0288750Y0254096D03*
X0295250Y0254096D03*
X0301750Y0254096D03*
X0276750Y0254096D03*
X0270250Y0254096D03*
X0263750Y0254096D03*
X0263750Y0247404D03*
X0270250Y0247404D03*
X0276750Y0247404D03*
X0283250Y0209096D03*
X0283250Y0202404D03*
X0291250Y0202404D03*
X0291250Y0209096D03*
X0259750Y0209096D03*
X0259750Y0202404D03*
X0199750Y0247404D03*
X0193250Y0247404D03*
X0186750Y0247404D03*
X0186750Y0254096D03*
X0193250Y0254096D03*
X0199750Y0254096D03*
X0174750Y0254096D03*
X0168250Y0254096D03*
X0161750Y0254096D03*
X0161750Y0247404D03*
X0168250Y0247404D03*
X0174750Y0247404D03*
X0181250Y0209096D03*
X0181250Y0202404D03*
X0189250Y0202404D03*
X0189250Y0209096D03*
X0157750Y0209096D03*
X0157750Y0202404D03*
X0097750Y0247404D03*
X0091250Y0247404D03*
X0084750Y0247404D03*
X0084750Y0254096D03*
X0091250Y0254096D03*
X0097750Y0254096D03*
X0072750Y0254096D03*
X0066250Y0254096D03*
X0059750Y0254096D03*
X0059750Y0247404D03*
X0066250Y0247404D03*
X0072750Y0247404D03*
X0079250Y0209096D03*
X0079250Y0202404D03*
X0087250Y0202404D03*
X0087250Y0209096D03*
X0055750Y0209096D03*
X0055750Y0202404D03*
X0059750Y0122096D03*
X0066250Y0122096D03*
X0072750Y0122096D03*
X0072750Y0115404D03*
X0066250Y0115404D03*
X0059750Y0115404D03*
X0084750Y0115404D03*
X0091250Y0115404D03*
X0097750Y0115404D03*
X0097750Y0122096D03*
X0091250Y0122096D03*
X0084750Y0122096D03*
X0087250Y0077096D03*
X0087250Y0070404D03*
X0079250Y0070404D03*
X0079250Y0077096D03*
X0055750Y0077096D03*
X0055750Y0070404D03*
X0157750Y0070404D03*
X0157750Y0077096D03*
X0181250Y0077096D03*
X0181250Y0070404D03*
X0189250Y0070404D03*
X0189250Y0077096D03*
X0186750Y0115404D03*
X0193250Y0115404D03*
X0199750Y0115404D03*
X0199750Y0122096D03*
X0193250Y0122096D03*
X0186750Y0122096D03*
X0174750Y0122096D03*
X0168250Y0122096D03*
X0161750Y0122096D03*
X0161750Y0115404D03*
X0168250Y0115404D03*
X0174750Y0115404D03*
X0263750Y0115404D03*
X0270250Y0115404D03*
X0276750Y0115404D03*
X0276750Y0122096D03*
X0270250Y0122096D03*
X0263750Y0122096D03*
X0288750Y0122096D03*
X0295250Y0122096D03*
X0301750Y0122096D03*
X0301750Y0115404D03*
X0295250Y0115404D03*
X0288750Y0115404D03*
X0291250Y0077096D03*
X0291250Y0070404D03*
X0283250Y0070404D03*
X0283250Y0077096D03*
X0259750Y0077096D03*
X0259750Y0070404D03*
X0361750Y0070404D03*
X0361750Y0077096D03*
X0385250Y0077096D03*
X0385250Y0070404D03*
X0393250Y0070404D03*
X0393250Y0077096D03*
X0390750Y0115404D03*
X0397250Y0115404D03*
X0403750Y0115404D03*
X0403750Y0122096D03*
X0397250Y0122096D03*
X0390750Y0122096D03*
X0378750Y0122096D03*
X0372250Y0122096D03*
X0365750Y0122096D03*
X0365750Y0115404D03*
X0372250Y0115404D03*
X0378750Y0115404D03*
X0463750Y0077096D03*
X0463750Y0070404D03*
X0487250Y0070404D03*
X0487250Y0077096D03*
X0495250Y0077096D03*
X0495250Y0070404D03*
X0492750Y0115404D03*
X0499250Y0115404D03*
X0505750Y0115404D03*
X0505750Y0122096D03*
X0499250Y0122096D03*
X0492750Y0122096D03*
X0480750Y0122096D03*
X0474250Y0122096D03*
X0467750Y0122096D03*
X0467750Y0115404D03*
X0474250Y0115404D03*
X0480750Y0115404D03*
X0569750Y0115404D03*
X0576250Y0115404D03*
X0582750Y0115404D03*
X0582750Y0122096D03*
X0576250Y0122096D03*
X0569750Y0122096D03*
X0594750Y0122096D03*
X0601250Y0122096D03*
X0607750Y0122096D03*
X0607750Y0115404D03*
X0601250Y0115404D03*
X0594750Y0115404D03*
X0597250Y0077096D03*
X0597250Y0070404D03*
X0589250Y0070404D03*
X0589250Y0077096D03*
X0565750Y0077096D03*
X0565750Y0070404D03*
D14*
X0587377Y0116670D02*
X0590123Y0116670D01*
X0590123Y0113924D01*
X0587377Y0113924D01*
X0587377Y0116670D01*
X0587377Y0115814D02*
X0590123Y0115814D01*
X0590123Y0123576D02*
X0587377Y0123576D01*
X0590123Y0123576D02*
X0590123Y0120830D01*
X0587377Y0120830D01*
X0587377Y0123576D01*
X0587377Y0122720D02*
X0590123Y0122720D01*
X0488123Y0123576D02*
X0485377Y0123576D01*
X0488123Y0123576D02*
X0488123Y0120830D01*
X0485377Y0120830D01*
X0485377Y0123576D01*
X0485377Y0122720D02*
X0488123Y0122720D01*
X0488123Y0116670D02*
X0485377Y0116670D01*
X0488123Y0116670D02*
X0488123Y0113924D01*
X0485377Y0113924D01*
X0485377Y0116670D01*
X0485377Y0115814D02*
X0488123Y0115814D01*
X0386123Y0116670D02*
X0383377Y0116670D01*
X0386123Y0116670D02*
X0386123Y0113924D01*
X0383377Y0113924D01*
X0383377Y0116670D01*
X0383377Y0115814D02*
X0386123Y0115814D01*
X0386123Y0123576D02*
X0383377Y0123576D01*
X0386123Y0123576D02*
X0386123Y0120830D01*
X0383377Y0120830D01*
X0383377Y0123576D01*
X0383377Y0122720D02*
X0386123Y0122720D01*
X0284123Y0123576D02*
X0281377Y0123576D01*
X0284123Y0123576D02*
X0284123Y0120830D01*
X0281377Y0120830D01*
X0281377Y0123576D01*
X0281377Y0122720D02*
X0284123Y0122720D01*
X0284123Y0116670D02*
X0281377Y0116670D01*
X0284123Y0116670D02*
X0284123Y0113924D01*
X0281377Y0113924D01*
X0281377Y0116670D01*
X0281377Y0115814D02*
X0284123Y0115814D01*
X0182123Y0116670D02*
X0179377Y0116670D01*
X0182123Y0116670D02*
X0182123Y0113924D01*
X0179377Y0113924D01*
X0179377Y0116670D01*
X0179377Y0115814D02*
X0182123Y0115814D01*
X0182123Y0123576D02*
X0179377Y0123576D01*
X0182123Y0123576D02*
X0182123Y0120830D01*
X0179377Y0120830D01*
X0179377Y0123576D01*
X0179377Y0122720D02*
X0182123Y0122720D01*
X0080123Y0123576D02*
X0077377Y0123576D01*
X0080123Y0123576D02*
X0080123Y0120830D01*
X0077377Y0120830D01*
X0077377Y0123576D01*
X0077377Y0122720D02*
X0080123Y0122720D01*
X0080123Y0116670D02*
X0077377Y0116670D01*
X0080123Y0116670D02*
X0080123Y0113924D01*
X0077377Y0113924D01*
X0077377Y0116670D01*
X0077377Y0115814D02*
X0080123Y0115814D01*
X0080123Y0248670D02*
X0077377Y0248670D01*
X0080123Y0248670D02*
X0080123Y0245924D01*
X0077377Y0245924D01*
X0077377Y0248670D01*
X0077377Y0247814D02*
X0080123Y0247814D01*
X0080123Y0255576D02*
X0077377Y0255576D01*
X0080123Y0255576D02*
X0080123Y0252830D01*
X0077377Y0252830D01*
X0077377Y0255576D01*
X0077377Y0254720D02*
X0080123Y0254720D01*
X0179377Y0255576D02*
X0182123Y0255576D01*
X0182123Y0252830D01*
X0179377Y0252830D01*
X0179377Y0255576D01*
X0179377Y0254720D02*
X0182123Y0254720D01*
X0182123Y0248670D02*
X0179377Y0248670D01*
X0182123Y0248670D02*
X0182123Y0245924D01*
X0179377Y0245924D01*
X0179377Y0248670D01*
X0179377Y0247814D02*
X0182123Y0247814D01*
X0281377Y0248670D02*
X0284123Y0248670D01*
X0284123Y0245924D01*
X0281377Y0245924D01*
X0281377Y0248670D01*
X0281377Y0247814D02*
X0284123Y0247814D01*
X0284123Y0255576D02*
X0281377Y0255576D01*
X0284123Y0255576D02*
X0284123Y0252830D01*
X0281377Y0252830D01*
X0281377Y0255576D01*
X0281377Y0254720D02*
X0284123Y0254720D01*
X0383377Y0255576D02*
X0386123Y0255576D01*
X0386123Y0252830D01*
X0383377Y0252830D01*
X0383377Y0255576D01*
X0383377Y0254720D02*
X0386123Y0254720D01*
X0386123Y0248670D02*
X0383377Y0248670D01*
X0386123Y0248670D02*
X0386123Y0245924D01*
X0383377Y0245924D01*
X0383377Y0248670D01*
X0383377Y0247814D02*
X0386123Y0247814D01*
X0485377Y0248670D02*
X0488123Y0248670D01*
X0488123Y0245924D01*
X0485377Y0245924D01*
X0485377Y0248670D01*
X0485377Y0247814D02*
X0488123Y0247814D01*
X0488123Y0255576D02*
X0485377Y0255576D01*
X0488123Y0255576D02*
X0488123Y0252830D01*
X0485377Y0252830D01*
X0485377Y0255576D01*
X0485377Y0254720D02*
X0488123Y0254720D01*
X0587377Y0255576D02*
X0590123Y0255576D01*
X0590123Y0252830D01*
X0587377Y0252830D01*
X0587377Y0255576D01*
X0587377Y0254720D02*
X0590123Y0254720D01*
X0590123Y0248670D02*
X0587377Y0248670D01*
X0590123Y0248670D02*
X0590123Y0245924D01*
X0587377Y0245924D01*
X0587377Y0248670D01*
X0587377Y0247814D02*
X0590123Y0247814D01*
X0590123Y0380670D02*
X0587377Y0380670D01*
X0590123Y0380670D02*
X0590123Y0377924D01*
X0587377Y0377924D01*
X0587377Y0380670D01*
X0587377Y0379814D02*
X0590123Y0379814D01*
X0590123Y0387576D02*
X0587377Y0387576D01*
X0590123Y0387576D02*
X0590123Y0384830D01*
X0587377Y0384830D01*
X0587377Y0387576D01*
X0587377Y0386720D02*
X0590123Y0386720D01*
X0488123Y0387576D02*
X0485377Y0387576D01*
X0488123Y0387576D02*
X0488123Y0384830D01*
X0485377Y0384830D01*
X0485377Y0387576D01*
X0485377Y0386720D02*
X0488123Y0386720D01*
X0488123Y0380670D02*
X0485377Y0380670D01*
X0488123Y0380670D02*
X0488123Y0377924D01*
X0485377Y0377924D01*
X0485377Y0380670D01*
X0485377Y0379814D02*
X0488123Y0379814D01*
X0386123Y0380670D02*
X0383377Y0380670D01*
X0386123Y0380670D02*
X0386123Y0377924D01*
X0383377Y0377924D01*
X0383377Y0380670D01*
X0383377Y0379814D02*
X0386123Y0379814D01*
X0386123Y0387576D02*
X0383377Y0387576D01*
X0386123Y0387576D02*
X0386123Y0384830D01*
X0383377Y0384830D01*
X0383377Y0387576D01*
X0383377Y0386720D02*
X0386123Y0386720D01*
X0284123Y0387576D02*
X0281377Y0387576D01*
X0284123Y0387576D02*
X0284123Y0384830D01*
X0281377Y0384830D01*
X0281377Y0387576D01*
X0281377Y0386720D02*
X0284123Y0386720D01*
X0284123Y0380670D02*
X0281377Y0380670D01*
X0284123Y0380670D02*
X0284123Y0377924D01*
X0281377Y0377924D01*
X0281377Y0380670D01*
X0281377Y0379814D02*
X0284123Y0379814D01*
X0182123Y0380670D02*
X0179377Y0380670D01*
X0182123Y0380670D02*
X0182123Y0377924D01*
X0179377Y0377924D01*
X0179377Y0380670D01*
X0179377Y0379814D02*
X0182123Y0379814D01*
X0182123Y0387576D02*
X0179377Y0387576D01*
X0182123Y0387576D02*
X0182123Y0384830D01*
X0179377Y0384830D01*
X0179377Y0387576D01*
X0179377Y0386720D02*
X0182123Y0386720D01*
X0080123Y0387576D02*
X0077377Y0387576D01*
X0080123Y0387576D02*
X0080123Y0384830D01*
X0077377Y0384830D01*
X0077377Y0387576D01*
X0077377Y0386720D02*
X0080123Y0386720D01*
X0080123Y0380670D02*
X0077377Y0380670D01*
X0080123Y0380670D02*
X0080123Y0377924D01*
X0077377Y0377924D01*
X0077377Y0380670D01*
X0077377Y0379814D02*
X0080123Y0379814D01*
D15*
X0093510Y0341687D03*
X0100990Y0341687D03*
X0097250Y0333419D03*
X0195510Y0341687D03*
X0202990Y0341687D03*
X0199250Y0333419D03*
X0297510Y0341687D03*
X0304990Y0341687D03*
X0301250Y0333419D03*
X0399510Y0341687D03*
X0406990Y0341687D03*
X0403250Y0333419D03*
X0501510Y0341687D03*
X0508990Y0341687D03*
X0505250Y0333419D03*
X0603510Y0341687D03*
X0610990Y0341687D03*
X0607250Y0333419D03*
X0603510Y0209687D03*
X0610990Y0209687D03*
X0607250Y0201419D03*
X0508990Y0209687D03*
X0501510Y0209687D03*
X0505250Y0201419D03*
X0406990Y0209687D03*
X0399510Y0209687D03*
X0403250Y0201419D03*
X0304990Y0209687D03*
X0297510Y0209687D03*
X0301250Y0201419D03*
X0202990Y0209687D03*
X0195510Y0209687D03*
X0199250Y0201419D03*
X0100990Y0209687D03*
X0093510Y0209687D03*
X0097250Y0201419D03*
X0093510Y0077687D03*
X0100990Y0077687D03*
X0097250Y0069419D03*
X0195510Y0077687D03*
X0202990Y0077687D03*
X0199250Y0069419D03*
X0297510Y0077687D03*
X0304990Y0077687D03*
X0301250Y0069419D03*
X0399510Y0077687D03*
X0406990Y0077687D03*
X0403250Y0069419D03*
X0501510Y0077687D03*
X0508990Y0077687D03*
X0505250Y0069419D03*
X0603510Y0077687D03*
X0610990Y0077687D03*
X0607250Y0069419D03*
D16*
X0614321Y0090100D03*
X0614321Y0096400D03*
X0598179Y0096400D03*
X0598179Y0090100D03*
X0579321Y0090100D03*
X0579321Y0096400D03*
X0563179Y0096400D03*
X0563179Y0090100D03*
X0512321Y0090100D03*
X0512321Y0096400D03*
X0496179Y0096400D03*
X0496179Y0090100D03*
X0477321Y0090100D03*
X0477321Y0096400D03*
X0461179Y0096400D03*
X0461179Y0090100D03*
X0410321Y0090100D03*
X0410321Y0096400D03*
X0394179Y0096400D03*
X0394179Y0090100D03*
X0375321Y0090100D03*
X0375321Y0096400D03*
X0359179Y0096400D03*
X0359179Y0090100D03*
X0308321Y0090100D03*
X0308321Y0096400D03*
X0292179Y0096400D03*
X0292179Y0090100D03*
X0273321Y0090100D03*
X0273321Y0096400D03*
X0257179Y0096400D03*
X0257179Y0090100D03*
X0206321Y0090100D03*
X0206321Y0096400D03*
X0190179Y0096400D03*
X0190179Y0090100D03*
X0171321Y0090100D03*
X0171321Y0096400D03*
X0155179Y0096400D03*
X0155179Y0090100D03*
X0104321Y0090100D03*
X0104321Y0096400D03*
X0088179Y0096400D03*
X0088179Y0090100D03*
X0069321Y0090100D03*
X0069321Y0096400D03*
X0053179Y0096400D03*
X0053179Y0090100D03*
X0053179Y0222100D03*
X0053179Y0228400D03*
X0069321Y0228400D03*
X0069321Y0222100D03*
X0088179Y0222100D03*
X0088179Y0228400D03*
X0104321Y0228400D03*
X0104321Y0222100D03*
X0155179Y0222100D03*
X0155179Y0228400D03*
X0171321Y0228400D03*
X0171321Y0222100D03*
X0190179Y0222100D03*
X0190179Y0228400D03*
X0206321Y0228400D03*
X0206321Y0222100D03*
X0257179Y0222100D03*
X0257179Y0228400D03*
X0273321Y0228400D03*
X0273321Y0222100D03*
X0292179Y0222100D03*
X0292179Y0228400D03*
X0308321Y0228400D03*
X0308321Y0222100D03*
X0359179Y0222100D03*
X0359179Y0228400D03*
X0375321Y0228400D03*
X0375321Y0222100D03*
X0394179Y0222100D03*
X0394179Y0228400D03*
X0410321Y0228400D03*
X0410321Y0222100D03*
X0461179Y0222100D03*
X0461179Y0228400D03*
X0477321Y0228400D03*
X0477321Y0222100D03*
X0496179Y0222100D03*
X0496179Y0228400D03*
X0512321Y0228400D03*
X0512321Y0222100D03*
X0563179Y0222100D03*
X0563179Y0228400D03*
X0579321Y0228400D03*
X0579321Y0222100D03*
X0598179Y0222100D03*
X0598179Y0228400D03*
X0614321Y0228400D03*
X0614321Y0222100D03*
X0614321Y0354100D03*
X0614321Y0360400D03*
X0598179Y0360400D03*
X0598179Y0354100D03*
X0579321Y0354100D03*
X0579321Y0360400D03*
X0563179Y0360400D03*
X0563179Y0354100D03*
X0512321Y0354100D03*
X0512321Y0360400D03*
X0496179Y0360400D03*
X0496179Y0354100D03*
X0477321Y0354100D03*
X0477321Y0360400D03*
X0461179Y0360400D03*
X0461179Y0354100D03*
X0410321Y0354100D03*
X0410321Y0360400D03*
X0394179Y0360400D03*
X0394179Y0354100D03*
X0375321Y0354100D03*
X0375321Y0360400D03*
X0359179Y0360400D03*
X0359179Y0354100D03*
X0308321Y0354100D03*
X0308321Y0360400D03*
X0292179Y0360400D03*
X0292179Y0354100D03*
X0273321Y0354100D03*
X0273321Y0360400D03*
X0257179Y0360400D03*
X0257179Y0354100D03*
X0206321Y0354100D03*
X0206321Y0360400D03*
X0190179Y0360400D03*
X0190179Y0354100D03*
X0171321Y0354100D03*
X0171321Y0360400D03*
X0155179Y0360400D03*
X0155179Y0354100D03*
X0104321Y0354100D03*
X0104321Y0360400D03*
X0088179Y0360400D03*
X0088179Y0354100D03*
X0069321Y0354100D03*
X0069321Y0360400D03*
X0053179Y0360400D03*
X0053179Y0354100D03*
D17*
X0056250Y0318750D03*
X0066250Y0318750D03*
X0076250Y0318750D03*
X0158250Y0318750D03*
X0168250Y0318750D03*
X0178250Y0318750D03*
X0260250Y0318750D03*
X0270250Y0318750D03*
X0280250Y0318750D03*
X0362250Y0318750D03*
X0372250Y0318750D03*
X0382250Y0318750D03*
X0464250Y0318750D03*
X0474250Y0318750D03*
X0484250Y0318750D03*
X0566250Y0318750D03*
X0576250Y0318750D03*
X0586250Y0318750D03*
X0586250Y0186750D03*
X0576250Y0186750D03*
X0566250Y0186750D03*
X0484250Y0186750D03*
X0474250Y0186750D03*
X0464250Y0186750D03*
X0382250Y0186750D03*
X0372250Y0186750D03*
X0362250Y0186750D03*
X0280250Y0186750D03*
X0270250Y0186750D03*
X0260250Y0186750D03*
X0178250Y0186750D03*
X0168250Y0186750D03*
X0158250Y0186750D03*
X0076250Y0186750D03*
X0066250Y0186750D03*
X0056250Y0186750D03*
X0056250Y0054750D03*
X0066250Y0054750D03*
X0076250Y0054750D03*
X0158250Y0054750D03*
X0168250Y0054750D03*
X0178250Y0054750D03*
X0260250Y0054750D03*
X0270250Y0054750D03*
X0280250Y0054750D03*
X0362250Y0054750D03*
X0372250Y0054750D03*
X0382250Y0054750D03*
X0464250Y0054750D03*
X0474250Y0054750D03*
X0484250Y0054750D03*
X0566250Y0054750D03*
X0576250Y0054750D03*
X0586250Y0054750D03*
D18*
X0588750Y0084222D03*
X0588750Y0093278D03*
X0486750Y0093278D03*
X0486750Y0084222D03*
X0384750Y0084222D03*
X0384750Y0093278D03*
X0282750Y0093278D03*
X0282750Y0084222D03*
X0180750Y0084222D03*
X0180750Y0093278D03*
X0078750Y0093278D03*
X0078750Y0084222D03*
X0078750Y0216222D03*
X0078750Y0225278D03*
X0180750Y0225278D03*
X0180750Y0216222D03*
X0282750Y0216222D03*
X0282750Y0225278D03*
X0384750Y0225278D03*
X0384750Y0216222D03*
X0486750Y0216222D03*
X0486750Y0225278D03*
X0588750Y0225278D03*
X0588750Y0216222D03*
X0588750Y0348222D03*
X0588750Y0357278D03*
X0486750Y0357278D03*
X0486750Y0348222D03*
X0384750Y0348222D03*
X0384750Y0357278D03*
X0282750Y0357278D03*
X0282750Y0348222D03*
X0180750Y0348222D03*
X0180750Y0357278D03*
X0078750Y0357278D03*
X0078750Y0348222D03*
D19*
X0039250Y0322750D03*
X0126250Y0286750D03*
X0141250Y0322750D03*
X0228250Y0286750D03*
X0243250Y0322750D03*
X0330250Y0286750D03*
X0345250Y0322750D03*
X0432250Y0286750D03*
X0447250Y0322750D03*
X0534250Y0286750D03*
X0549250Y0322750D03*
X0636250Y0286750D03*
X0549250Y0190750D03*
X0534250Y0154750D03*
X0447250Y0190750D03*
X0432250Y0154750D03*
X0345250Y0190750D03*
X0330250Y0154750D03*
X0243250Y0190750D03*
X0228250Y0154750D03*
X0141250Y0190750D03*
X0126250Y0154750D03*
X0039250Y0190750D03*
X0039250Y0058750D03*
X0141250Y0058750D03*
X0243250Y0058750D03*
X0345250Y0058750D03*
X0447250Y0058750D03*
X0549250Y0058750D03*
X0636250Y0154750D03*
X0636250Y0418750D03*
X0534250Y0418750D03*
X0432250Y0418750D03*
X0330250Y0418750D03*
X0228250Y0418750D03*
X0126250Y0418750D03*
D20*
X0164131Y0341490D03*
X0174369Y0341490D03*
X0174369Y0337750D03*
X0174369Y0334010D03*
X0164131Y0334010D03*
X0072369Y0334010D03*
X0072369Y0337750D03*
X0072369Y0341490D03*
X0062131Y0341490D03*
X0062131Y0334010D03*
X0062131Y0209490D03*
X0062131Y0202010D03*
X0072369Y0202010D03*
X0072369Y0205750D03*
X0072369Y0209490D03*
X0164131Y0209490D03*
X0164131Y0202010D03*
X0174369Y0202010D03*
X0174369Y0205750D03*
X0174369Y0209490D03*
X0266131Y0209490D03*
X0266131Y0202010D03*
X0276369Y0202010D03*
X0276369Y0205750D03*
X0276369Y0209490D03*
X0368131Y0209490D03*
X0368131Y0202010D03*
X0378369Y0202010D03*
X0378369Y0205750D03*
X0378369Y0209490D03*
X0470131Y0209490D03*
X0470131Y0202010D03*
X0480369Y0202010D03*
X0480369Y0205750D03*
X0480369Y0209490D03*
X0572131Y0209490D03*
X0572131Y0202010D03*
X0582369Y0202010D03*
X0582369Y0205750D03*
X0582369Y0209490D03*
X0582369Y0334010D03*
X0582369Y0337750D03*
X0582369Y0341490D03*
X0572131Y0341490D03*
X0572131Y0334010D03*
X0480369Y0334010D03*
X0480369Y0337750D03*
X0480369Y0341490D03*
X0470131Y0341490D03*
X0470131Y0334010D03*
X0378369Y0334010D03*
X0378369Y0337750D03*
X0378369Y0341490D03*
X0368131Y0341490D03*
X0368131Y0334010D03*
X0276369Y0334010D03*
X0276369Y0337750D03*
X0276369Y0341490D03*
X0266131Y0341490D03*
X0266131Y0334010D03*
X0266131Y0077490D03*
X0266131Y0070010D03*
X0276369Y0070010D03*
X0276369Y0073750D03*
X0276369Y0077490D03*
X0368131Y0077490D03*
X0368131Y0070010D03*
X0378369Y0070010D03*
X0378369Y0073750D03*
X0378369Y0077490D03*
X0470131Y0077490D03*
X0470131Y0070010D03*
X0480369Y0070010D03*
X0480369Y0073750D03*
X0480369Y0077490D03*
X0572131Y0077490D03*
X0572131Y0070010D03*
X0582369Y0070010D03*
X0582369Y0073750D03*
X0582369Y0077490D03*
X0174369Y0077490D03*
X0174369Y0073750D03*
X0174369Y0070010D03*
X0164131Y0070010D03*
X0164131Y0077490D03*
X0072369Y0077490D03*
X0072369Y0073750D03*
X0072369Y0070010D03*
X0062131Y0070010D03*
X0062131Y0077490D03*
D21*
X0038750Y0038750D03*
X0118750Y0038750D03*
X0140750Y0038750D03*
X0220750Y0038750D03*
X0242750Y0038750D03*
X0322750Y0038750D03*
X0344750Y0038750D03*
X0424750Y0038750D03*
X0446750Y0038750D03*
X0526750Y0038750D03*
X0548750Y0038750D03*
X0628750Y0038750D03*
X0628750Y0170750D03*
X0548750Y0170750D03*
X0526750Y0170750D03*
X0446750Y0170750D03*
X0424750Y0170750D03*
X0344750Y0170750D03*
X0322750Y0170750D03*
X0242750Y0170750D03*
X0220750Y0170750D03*
X0140750Y0170750D03*
X0118750Y0170750D03*
X0038750Y0170750D03*
X0038750Y0302750D03*
X0118750Y0302750D03*
X0140750Y0302750D03*
X0220750Y0302750D03*
X0242750Y0302750D03*
X0322750Y0302750D03*
X0344750Y0302750D03*
X0424750Y0302750D03*
X0446750Y0302750D03*
X0526750Y0302750D03*
X0548750Y0302750D03*
X0628750Y0302750D03*
D22*
X0611750Y0431000D03*
X0055750Y0431000D03*
D23*
X0052185Y0020500D02*
X0052187Y0020619D01*
X0052193Y0020738D01*
X0052203Y0020857D01*
X0052217Y0020975D01*
X0052235Y0021093D01*
X0052256Y0021210D01*
X0052282Y0021326D01*
X0052312Y0021442D01*
X0052345Y0021556D01*
X0052382Y0021669D01*
X0052423Y0021781D01*
X0052468Y0021892D01*
X0052516Y0022001D01*
X0052568Y0022108D01*
X0052624Y0022213D01*
X0052683Y0022317D01*
X0052745Y0022418D01*
X0052811Y0022518D01*
X0052880Y0022615D01*
X0052952Y0022709D01*
X0053028Y0022802D01*
X0053106Y0022891D01*
X0053187Y0022978D01*
X0053272Y0023063D01*
X0053359Y0023144D01*
X0053448Y0023222D01*
X0053541Y0023298D01*
X0053635Y0023370D01*
X0053732Y0023439D01*
X0053832Y0023505D01*
X0053933Y0023567D01*
X0054037Y0023626D01*
X0054142Y0023682D01*
X0054249Y0023734D01*
X0054358Y0023782D01*
X0054469Y0023827D01*
X0054581Y0023868D01*
X0054694Y0023905D01*
X0054808Y0023938D01*
X0054924Y0023968D01*
X0055040Y0023994D01*
X0055157Y0024015D01*
X0055275Y0024033D01*
X0055393Y0024047D01*
X0055512Y0024057D01*
X0055631Y0024063D01*
X0055750Y0024065D01*
X0055869Y0024063D01*
X0055988Y0024057D01*
X0056107Y0024047D01*
X0056225Y0024033D01*
X0056343Y0024015D01*
X0056460Y0023994D01*
X0056576Y0023968D01*
X0056692Y0023938D01*
X0056806Y0023905D01*
X0056919Y0023868D01*
X0057031Y0023827D01*
X0057142Y0023782D01*
X0057251Y0023734D01*
X0057358Y0023682D01*
X0057463Y0023626D01*
X0057567Y0023567D01*
X0057668Y0023505D01*
X0057768Y0023439D01*
X0057865Y0023370D01*
X0057959Y0023298D01*
X0058052Y0023222D01*
X0058141Y0023144D01*
X0058228Y0023063D01*
X0058313Y0022978D01*
X0058394Y0022891D01*
X0058472Y0022802D01*
X0058548Y0022709D01*
X0058620Y0022615D01*
X0058689Y0022518D01*
X0058755Y0022418D01*
X0058817Y0022317D01*
X0058876Y0022213D01*
X0058932Y0022108D01*
X0058984Y0022001D01*
X0059032Y0021892D01*
X0059077Y0021781D01*
X0059118Y0021669D01*
X0059155Y0021556D01*
X0059188Y0021442D01*
X0059218Y0021326D01*
X0059244Y0021210D01*
X0059265Y0021093D01*
X0059283Y0020975D01*
X0059297Y0020857D01*
X0059307Y0020738D01*
X0059313Y0020619D01*
X0059315Y0020500D01*
X0059313Y0020381D01*
X0059307Y0020262D01*
X0059297Y0020143D01*
X0059283Y0020025D01*
X0059265Y0019907D01*
X0059244Y0019790D01*
X0059218Y0019674D01*
X0059188Y0019558D01*
X0059155Y0019444D01*
X0059118Y0019331D01*
X0059077Y0019219D01*
X0059032Y0019108D01*
X0058984Y0018999D01*
X0058932Y0018892D01*
X0058876Y0018787D01*
X0058817Y0018683D01*
X0058755Y0018582D01*
X0058689Y0018482D01*
X0058620Y0018385D01*
X0058548Y0018291D01*
X0058472Y0018198D01*
X0058394Y0018109D01*
X0058313Y0018022D01*
X0058228Y0017937D01*
X0058141Y0017856D01*
X0058052Y0017778D01*
X0057959Y0017702D01*
X0057865Y0017630D01*
X0057768Y0017561D01*
X0057668Y0017495D01*
X0057567Y0017433D01*
X0057463Y0017374D01*
X0057358Y0017318D01*
X0057251Y0017266D01*
X0057142Y0017218D01*
X0057031Y0017173D01*
X0056919Y0017132D01*
X0056806Y0017095D01*
X0056692Y0017062D01*
X0056576Y0017032D01*
X0056460Y0017006D01*
X0056343Y0016985D01*
X0056225Y0016967D01*
X0056107Y0016953D01*
X0055988Y0016943D01*
X0055869Y0016937D01*
X0055750Y0016935D01*
X0055631Y0016937D01*
X0055512Y0016943D01*
X0055393Y0016953D01*
X0055275Y0016967D01*
X0055157Y0016985D01*
X0055040Y0017006D01*
X0054924Y0017032D01*
X0054808Y0017062D01*
X0054694Y0017095D01*
X0054581Y0017132D01*
X0054469Y0017173D01*
X0054358Y0017218D01*
X0054249Y0017266D01*
X0054142Y0017318D01*
X0054037Y0017374D01*
X0053933Y0017433D01*
X0053832Y0017495D01*
X0053732Y0017561D01*
X0053635Y0017630D01*
X0053541Y0017702D01*
X0053448Y0017778D01*
X0053359Y0017856D01*
X0053272Y0017937D01*
X0053187Y0018022D01*
X0053106Y0018109D01*
X0053028Y0018198D01*
X0052952Y0018291D01*
X0052880Y0018385D01*
X0052811Y0018482D01*
X0052745Y0018582D01*
X0052683Y0018683D01*
X0052624Y0018787D01*
X0052568Y0018892D01*
X0052516Y0018999D01*
X0052468Y0019108D01*
X0052423Y0019219D01*
X0052382Y0019331D01*
X0052345Y0019444D01*
X0052312Y0019558D01*
X0052282Y0019674D01*
X0052256Y0019790D01*
X0052235Y0019907D01*
X0052217Y0020025D01*
X0052203Y0020143D01*
X0052193Y0020262D01*
X0052187Y0020381D01*
X0052185Y0020500D01*
D24*
X0055750Y0020500D03*
M02*
