%
M48
M72
T01C0.0150
T02C0.0300
T03C0.0315
T04C0.0400
T05C0.1300
%
T01
X8575Y6375
X8035Y6415
X8335Y7365
X8328Y8005
X8485Y8615
X9615Y8935
X10235Y10065
X10275Y10678
X10060Y11015
X9620Y10661
X9125Y11075
X8735Y10465
X8275Y10375
X8275Y10775
X7875Y10775
X7475Y10775
X7475Y10375
X7875Y10375
X7875Y9975
X7475Y9975
X7502Y9542
X7350Y9200
X7325Y8825
X6763Y8390
X6610Y8040
X6485Y7330
X3985Y6765
X6058Y9313
X6535Y9365
X6735Y10180
X6275Y10672
X5660Y10765
X6950Y11150
X5595Y11875
X3975Y11461
X3720Y11120
X3135Y11315
X7875Y12650
X10308Y12647
X10283Y12265
X11685Y11865
X11660Y11070
X13335Y11315
X13920Y11120
X14175Y11461
X15795Y11875
X17150Y11150
X17675Y10775
X17675Y10375
X17675Y9975
X18075Y9975
X18475Y9975
X18475Y10375
X18475Y10775
X18075Y10775
X18075Y10375
X18935Y10465
X19325Y11075
X19820Y10661
X20260Y11015
X20475Y10678
X20435Y10065
X19815Y8935
X18685Y8615
X18528Y8005
X17525Y8825
X17550Y9200
X17702Y9542
X16735Y9365
X16258Y9313
X16963Y8390
X16810Y8040
X16685Y7330
X18235Y6415
X18775Y6375
X18535Y7365
X21975Y6775
X24385Y6765
X26885Y7330
X27010Y8040
X27163Y8390
X27725Y8825
X27750Y9200
X27902Y9542
X27875Y9975
X27875Y10375
X27875Y10775
X28275Y10775
X28675Y10775
X28675Y10375
X28275Y10375
X28275Y9975
X28675Y9975
X29135Y10465
X29525Y11075
X30020Y10661
X30460Y11015
X30675Y10678
X30635Y10065
X30015Y8935
X28885Y8615
X28728Y8005
X28735Y7365
X28435Y6415
X28975Y6375
X32175Y6775
X34585Y6765
X37085Y7330
X37210Y8040
X37363Y8390
X37925Y8825
X37950Y9200
X38102Y9542
X38075Y9975
X38475Y9975
X38475Y10375
X38075Y10375
X38075Y10775
X38475Y10775
X38875Y10775
X38875Y10375
X38875Y9975
X39335Y10465
X39725Y11075
X40220Y10661
X40660Y11015
X40875Y10678
X40835Y10065
X40215Y8935
X39085Y8615
X38928Y8005
X38935Y7365
X38635Y6415
X39175Y6375
X42375Y6775
X44785Y6765
X47285Y7330
X47410Y8040
X47563Y8390
X48125Y8825
X48150Y9200
X48302Y9542
X48275Y9975
X48675Y9975
X48675Y10375
X48275Y10375
X48275Y10775
X48675Y10775
X49075Y10775
X49075Y10375
X49075Y9975
X49535Y10465
X49925Y11075
X50420Y10661
X50860Y11015
X51075Y10678
X51035Y10065
X50415Y8935
X49285Y8615
X49128Y8005
X49135Y7365
X48835Y6415
X49375Y6375
X52575Y6775
X54985Y6765
X57485Y7330
X57610Y8040
X57763Y8390
X58325Y8825
X58350Y9200
X58502Y9542
X58475Y9975
X58475Y10375
X58475Y10775
X58875Y10775
X59275Y10775
X59275Y10375
X58875Y10375
X58875Y9975
X59275Y9975
X59735Y10465
X60125Y11075
X60620Y10661
X61060Y11015
X61275Y10678
X61235Y10065
X60615Y8935
X59485Y8615
X59328Y8005
X59335Y7365
X59035Y6415
X59575Y6375
X62775Y6775
X57535Y9365
X57058Y9313
X57735Y10180
X57275Y10672
X56660Y10765
X57950Y11150
X56595Y11875
X54975Y11461
X54720Y11120
X54135Y11315
X52460Y11070
X52485Y11865
X51083Y12265
X51108Y12647
X48675Y12650
X47750Y11150
X47075Y10672
X46460Y10765
X47535Y10180
X47335Y9365
X46858Y9313
X44520Y11120
X44775Y11461
X43935Y11315
X42285Y11865
X42260Y11070
X40883Y12265
X40908Y12647
X38475Y12650
X37550Y11150
X36875Y10672
X36260Y10765
X37335Y10180
X37135Y9365
X36658Y9313
X34320Y11120
X34575Y11461
X33735Y11315
X32060Y11070
X32085Y11865
X30683Y12265
X30708Y12647
X28275Y12650
X27350Y11150
X26675Y10672
X26060Y10765
X27135Y10180
X26935Y9365
X26458Y9313
X24120Y11120
X24375Y11461
X23535Y11315
X21860Y11070
X21885Y11865
X20483Y12265
X20508Y12647
X18075Y12650
X16475Y10672
X15860Y10765
X16935Y10180
X14185Y6765
X11775Y6775
X8275Y9975
X8575Y19575
X8035Y19615
X8335Y20565
X8328Y21205
X8485Y21815
X9615Y22135
X10235Y23265
X10275Y23878
X10060Y24215
X9620Y23861
X9125Y24275
X8735Y23665
X8275Y23575
X8275Y23175
X7875Y23175
X7475Y23175
X7475Y23575
X7875Y23575
X7875Y23975
X7475Y23975
X6950Y24350
X6275Y23872
X5660Y23965
X6735Y23380
X7502Y22742
X7350Y22400
X7325Y22025
X6763Y21590
X6610Y21240
X6485Y20530
X3985Y19965
X6058Y22513
X6535Y22565
X8275Y23975
X10283Y25465
X10308Y25847
X11685Y25065
X11660Y24270
X13335Y24515
X13920Y24320
X14175Y24661
X15795Y25075
X17150Y24350
X17675Y23975
X17675Y23575
X17675Y23175
X18075Y23175
X18475Y23175
X18475Y23575
X18075Y23575
X18075Y23975
X18475Y23975
X18935Y23665
X19325Y24275
X19820Y23861
X20260Y24215
X20475Y23878
X20435Y23265
X19815Y22135
X18685Y21815
X18528Y21205
X17525Y22025
X17550Y22400
X17702Y22742
X16735Y22565
X16258Y22513
X16935Y23380
X16475Y23872
X15860Y23965
X18075Y25850
X20508Y25847
X20483Y25465
X21885Y25065
X21860Y24270
X23535Y24515
X24120Y24320
X24375Y24661
X25995Y25075
X27350Y24350
X27875Y23975
X27875Y23575
X27875Y23175
X28275Y23175
X28675Y23175
X28675Y23575
X28275Y23575
X28275Y23975
X28675Y23975
X29135Y23665
X29525Y24275
X30020Y23861
X30460Y24215
X30675Y23878
X30635Y23265
X30015Y22135
X28885Y21815
X28728Y21205
X27725Y22025
X27750Y22400
X27902Y22742
X26935Y22565
X26458Y22513
X27135Y23380
X26675Y23872
X26060Y23965
X28275Y25850
X30708Y25847
X30683Y25465
X32085Y25065
X32060Y24270
X33735Y24515
X34320Y24320
X34575Y24661
X36195Y25075
X37550Y24350
X38075Y23975
X38475Y23975
X38475Y23575
X38075Y23575
X38075Y23175
X38475Y23175
X38875Y23175
X38875Y23575
X38875Y23975
X39335Y23665
X39725Y24275
X40220Y23861
X40660Y24215
X40875Y23878
X40835Y23265
X40215Y22135
X39085Y21815
X38928Y21205
X37925Y22025
X37950Y22400
X38102Y22742
X37135Y22565
X36658Y22513
X37335Y23380
X36875Y23872
X36260Y23965
X38475Y25850
X40908Y25847
X40883Y25465
X42285Y25065
X42260Y24270
X43935Y24515
X44520Y24320
X44775Y24661
X46395Y25075
X47750Y24350
X48275Y23975
X48675Y23975
X48675Y23575
X48275Y23575
X48275Y23175
X48675Y23175
X49075Y23175
X49075Y23575
X49075Y23975
X49535Y23665
X49925Y24275
X50420Y23861
X50860Y24215
X51075Y23878
X51035Y23265
X50415Y22135
X49285Y21815
X49128Y21205
X49135Y20565
X48835Y19615
X49375Y19575
X47285Y20530
X47410Y21240
X47563Y21590
X48125Y22025
X48150Y22400
X48302Y22742
X47535Y23380
X47075Y23872
X46460Y23965
X46858Y22513
X47335Y22565
X44785Y19965
X42375Y19975
X39175Y19575
X38635Y19615
X38935Y20565
X37210Y21240
X37363Y21590
X37085Y20530
X34585Y19965
X32175Y19975
X28975Y19575
X28435Y19615
X28735Y20565
X26885Y20530
X27010Y21240
X27163Y21590
X24385Y19965
X21975Y19975
X18775Y19575
X18235Y19615
X18535Y20565
X16685Y20530
X16810Y21240
X16963Y21590
X14185Y19965
X11775Y19975
X3975Y24661
X3720Y24320
X3135Y24515
X5595Y25075
X7875Y25850
X8575Y32775
X8035Y32815
X8335Y33765
X8328Y34405
X8485Y35015
X9615Y35335
X7502Y35942
X7350Y35600
X7325Y35225
X6763Y34790
X6610Y34440
X6485Y33730
X3985Y33165
X6058Y35713
X6535Y35765
X6735Y36580
X6275Y37072
X5660Y37165
X5595Y38275
X6950Y37550
X7475Y37175
X7875Y37175
X7875Y36775
X7475Y36775
X7475Y36375
X7875Y36375
X8275Y36375
X8275Y36775
X8275Y37175
X8735Y36865
X9125Y37475
X9620Y37061
X10060Y37415
X10275Y37078
X10235Y36465
X11660Y37470
X11685Y38265
X10283Y38665
X10308Y39047
X7875Y39050
X3975Y37861
X3720Y37520
X3135Y37715
X11775Y33175
X14185Y33165
X16685Y33730
X16810Y34440
X16963Y34790
X17525Y35225
X17550Y35600
X17702Y35942
X17675Y36375
X17675Y36775
X17675Y37175
X18075Y37175
X18475Y37175
X18475Y36775
X18475Y36375
X18075Y36375
X18075Y36775
X18935Y36865
X19325Y37475
X19820Y37061
X20260Y37415
X20475Y37078
X20435Y36465
X21860Y37470
X21885Y38265
X20483Y38665
X20508Y39047
X18075Y39050
X17150Y37550
X16475Y37072
X15860Y37165
X16935Y36580
X16735Y35765
X16258Y35713
X18528Y34405
X18685Y35015
X19815Y35335
X18535Y33765
X18235Y32815
X18775Y32775
X21975Y33175
X24385Y33165
X26885Y33730
X27010Y34440
X27163Y34790
X27725Y35225
X27750Y35600
X27902Y35942
X27875Y36375
X27875Y36775
X27875Y37175
X28275Y37175
X28675Y37175
X28675Y36775
X28675Y36375
X28275Y36375
X28275Y36775
X29135Y36865
X29525Y37475
X30020Y37061
X30460Y37415
X30675Y37078
X30635Y36465
X32060Y37470
X32085Y38265
X30683Y38665
X30708Y39047
X28275Y39050
X27350Y37550
X26675Y37072
X26060Y37165
X27135Y36580
X26935Y35765
X26458Y35713
X28885Y35015
X28728Y34405
X28735Y33765
X28435Y32815
X28975Y32775
X32175Y33175
X34585Y33165
X37085Y33730
X37210Y34440
X37363Y34790
X37925Y35225
X37950Y35600
X38102Y35942
X38075Y36375
X38075Y36775
X38475Y36775
X38475Y36375
X38875Y36375
X38875Y36775
X38875Y37175
X38475Y37175
X38075Y37175
X37550Y37550
X36875Y37072
X36260Y37165
X36195Y38275
X34575Y37861
X34320Y37520
X33735Y37715
X36658Y35713
X37135Y35765
X37335Y36580
X39335Y36865
X39725Y37475
X40220Y37061
X40660Y37415
X40875Y37078
X40835Y36465
X42260Y37470
X42285Y38265
X40883Y38665
X40908Y39047
X38475Y39050
X39085Y35015
X38928Y34405
X38935Y33765
X38635Y32815
X39175Y32775
X40215Y35335
X42375Y33175
X44785Y33165
X47285Y33730
X47410Y34440
X47563Y34790
X48125Y35225
X48150Y35600
X48302Y35942
X48275Y36375
X48275Y36775
X48675Y36775
X48675Y36375
X49075Y36375
X49075Y36775
X49075Y37175
X48675Y37175
X48275Y37175
X47750Y37550
X47075Y37072
X46460Y37165
X46395Y38275
X44775Y37861
X44520Y37520
X43935Y37715
X46858Y35713
X47335Y35765
X47535Y36580
X49535Y36865
X49925Y37475
X50420Y37061
X50860Y37415
X51075Y37078
X51035Y36465
X52460Y37470
X52485Y38265
X51083Y38665
X51108Y39047
X48675Y39050
X54135Y37715
X54720Y37520
X54975Y37861
X56595Y38275
X56660Y37165
X57275Y37072
X57735Y36580
X58475Y36775
X58475Y36375
X58875Y36375
X59275Y36375
X59275Y36775
X58875Y36775
X58875Y37175
X59275Y37175
X59735Y36865
X60125Y37475
X60620Y37061
X61060Y37415
X61275Y37078
X61235Y36465
X62660Y37470
X62685Y38265
X61283Y38665
X61308Y39047
X58875Y39050
X57950Y37550
X58475Y37175
X58502Y35942
X58350Y35600
X58325Y35225
X57763Y34790
X57610Y34440
X57485Y33730
X59035Y32815
X59575Y32775
X59335Y33765
X59328Y34405
X59485Y35015
X60615Y35335
X62775Y33175
X57535Y35765
X57058Y35713
X54985Y33165
X52575Y33175
X50415Y35335
X49285Y35015
X49128Y34405
X49135Y33765
X48835Y32815
X49375Y32775
X48675Y25850
X51108Y25847
X51083Y25465
X52485Y25065
X52460Y24270
X54135Y24515
X54720Y24320
X54975Y24661
X56595Y25075
X57950Y24350
X58475Y23975
X58475Y23575
X58475Y23175
X58875Y23175
X59275Y23175
X59275Y23575
X58875Y23575
X58875Y23975
X59275Y23975
X59735Y23665
X60125Y24275
X60620Y23861
X61060Y24215
X61275Y23878
X61235Y23265
X60615Y22135
X59485Y21815
X59328Y21205
X58325Y22025
X58350Y22400
X58502Y22742
X57535Y22565
X57058Y22513
X57735Y23380
X57275Y23872
X56660Y23965
X58875Y25850
X61308Y25847
X61283Y25465
X62685Y25065
X62660Y24270
X57763Y21590
X57610Y21240
X57485Y20530
X59035Y19615
X59575Y19575
X59335Y20565
X62775Y19975
X54985Y19965
X52575Y19975
X58875Y12650
X61308Y12647
X61283Y12265
X62685Y11865
X62660Y11070
X46395Y11875
X36195Y11875
X25995Y11875
X30015Y35335
X25995Y38275
X24375Y37861
X24120Y37520
X23535Y37715
X15795Y38275
X14175Y37861
X13920Y37520
X13335Y37715
T02
X15825Y31875
X16825Y31875
X17825Y31875
X26025Y31875
X27025Y31875
X28025Y31875
X36225Y31875
X37225Y31875
X38225Y31875
X46425Y31875
X47425Y31875
X48425Y31875
X56625Y31875
X57625Y31875
X58625Y31875
X58625Y18675
X57625Y18675
X56625Y18675
X48425Y18675
X47425Y18675
X46425Y18675
X38225Y18675
X37225Y18675
X36225Y18675
X28025Y18675
X27025Y18675
X26025Y18675
X17825Y18675
X16825Y18675
X15825Y18675
X7625Y18675
X6625Y18675
X5625Y18675
X5625Y31875
X6625Y31875
X7625Y31875
X7625Y5475
X6625Y5475
X5625Y5475
X15825Y5475
X16825Y5475
X17825Y5475
X26025Y5475
X27025Y5475
X28025Y5475
X36225Y5475
X37225Y5475
X38225Y5475
X46425Y5475
X47425Y5475
X48425Y5475
X56625Y5475
X57625Y5475
X58625Y5475
T03
X60125Y5475
X61125Y5475
X50925Y5475
X49925Y5475
X40725Y5475
X39725Y5475
X30525Y5475
X29525Y5475
X20325Y5475
X19325Y5475
X10125Y5475
X9125Y5475
X9125Y18675
X10125Y18675
X19325Y18675
X20325Y18675
X29525Y18675
X30525Y18675
X39725Y18675
X40725Y18675
X49925Y18675
X50925Y18675
X60125Y18675
X61125Y18675
X61125Y31875
X60125Y31875
X50925Y31875
X49925Y31875
X40725Y31875
X39725Y31875
X30525Y31875
X29525Y31875
X20325Y31875
X19325Y31875
X10125Y31875
X9125Y31875
T04
X12375Y31775
X12375Y32775
X12375Y33775
X12375Y34775
X12375Y35775
X12375Y36775
X12375Y37775
X12375Y38775
X13575Y36775
X13575Y35775
X13575Y34775
X13575Y33775
X13575Y32775
X13575Y31775
X12375Y25575
X12375Y24575
X12375Y23575
X12375Y22575
X12375Y21575
X12375Y20575
X12375Y19575
X12375Y18575
X13575Y18575
X13575Y19575
X13575Y20575
X13575Y21575
X13575Y22575
X13575Y23575
X22575Y23575
X22575Y22575
X22575Y21575
X22575Y20575
X22575Y19575
X22575Y18575
X23775Y18575
X23775Y19575
X23775Y20575
X23775Y21575
X23775Y22575
X23775Y23575
X22575Y24575
X22575Y25575
X22575Y31775
X22575Y32775
X22575Y33775
X22575Y34775
X22575Y35775
X22575Y36775
X22575Y37775
X22575Y38775
X23775Y36775
X23775Y35775
X23775Y34775
X23775Y33775
X23775Y32775
X23775Y31775
X32775Y31775
X33975Y31775
X33975Y32775
X32775Y32775
X32775Y33775
X33975Y33775
X33975Y34775
X32775Y34775
X32775Y35775
X33975Y35775
X33975Y36775
X32775Y36775
X32775Y37775
X32775Y38775
X42975Y38775
X42975Y37775
X42975Y36775
X42975Y35775
X42975Y34775
X42975Y33775
X42975Y32775
X42975Y31775
X44175Y31775
X44175Y32775
X44175Y33775
X44175Y34775
X44175Y35775
X44175Y36775
X53175Y36775
X53175Y35775
X53175Y34775
X53175Y33775
X53175Y32775
X53175Y31775
X54375Y31775
X54375Y32775
X54375Y33775
X54375Y34775
X54375Y35775
X54375Y36775
X53175Y37775
X53175Y38775
X63375Y38775
X63375Y37775
X63375Y36775
X63375Y35775
X63375Y34775
X63375Y33775
X63375Y32775
X63375Y31775
X63375Y25575
X63375Y24575
X63375Y23575
X63375Y22575
X63375Y21575
X63375Y20575
X63375Y19575
X63375Y18575
X63375Y12375
X63375Y11375
X63375Y10375
X63375Y9375
X63375Y8375
X63375Y7375
X63375Y6375
X63375Y5375
X54375Y5375
X54375Y6375
X53175Y6375
X53175Y5375
X53175Y7375
X53175Y8375
X53175Y9375
X53175Y10375
X53175Y11375
X53175Y12375
X54375Y10375
X54375Y9375
X54375Y8375
X54375Y7375
X44175Y7375
X44175Y8375
X44175Y9375
X44175Y10375
X42975Y10375
X42975Y9375
X42975Y8375
X42975Y7375
X42975Y6375
X42975Y5375
X44175Y5375
X44175Y6375
X42975Y11375
X42975Y12375
X42975Y18575
X42975Y19575
X42975Y20575
X42975Y21575
X42975Y22575
X42975Y23575
X44175Y23575
X44175Y22575
X44175Y21575
X44175Y20575
X44175Y19575
X44175Y18575
X53175Y18575
X53175Y19575
X53175Y20575
X53175Y21575
X53175Y22575
X53175Y23575
X54375Y23575
X54375Y22575
X54375Y21575
X54375Y20575
X54375Y19575
X54375Y18575
X53175Y24575
X53175Y25575
X42975Y25575
X42975Y24575
X33975Y23575
X32775Y23575
X32775Y22575
X33975Y22575
X33975Y21575
X32775Y21575
X32775Y20575
X33975Y20575
X33975Y19575
X32775Y19575
X32775Y18575
X33975Y18575
X32775Y12375
X32775Y11375
X32775Y10375
X33975Y10375
X33975Y9375
X32775Y9375
X32775Y8375
X33975Y8375
X33975Y7375
X32775Y7375
X32775Y6375
X33975Y6375
X33975Y5375
X32775Y5375
X23775Y5375
X23775Y6375
X22575Y6375
X22575Y5375
X22575Y7375
X22575Y8375
X22575Y9375
X22575Y10375
X22575Y11375
X22575Y12375
X23775Y10375
X23775Y9375
X23775Y8375
X23775Y7375
X13575Y7375
X13575Y8375
X13575Y9375
X13575Y10375
X12375Y10375
X12375Y9375
X12375Y8375
X12375Y7375
X12375Y6375
X12375Y5375
X13575Y5375
X13575Y6375
X12375Y11375
X12375Y12375
X3375Y10375
X3375Y9375
X3375Y8375
X3375Y7375
X3375Y6375
X3375Y5375
X3375Y18575
X3375Y19575
X3375Y20575
X3375Y21575
X3375Y22575
X3375Y23575
X3375Y31775
X3375Y32775
X3375Y33775
X3375Y34775
X3375Y35775
X3375Y36775
X32775Y25575
X32775Y24575
T05
X3875Y3875
X11875Y3875
X14075Y3875
X22075Y3875
X24275Y3875
X32275Y3875
X34475Y3875
X42475Y3875
X44675Y3875
X52675Y3875
X54875Y3875
X62875Y3875
X62875Y17075
X54875Y17075
X52675Y17075
X44675Y17075
X42475Y17075
X34475Y17075
X32275Y17075
X24275Y17075
X22075Y17075
X14075Y17075
X11875Y17075
X3875Y17075
X3875Y30275
X11875Y30275
X14075Y30275
X22075Y30275
X24275Y30275
X32275Y30275
X34475Y30275
X42475Y30275
X44675Y30275
X52675Y30275
X54875Y30275
X62875Y30275
M30
