G75*
%MOIN*%
%OFA0B0*%
%FSLAX25Y25*%
%IPPOS*%
%LPD*%
%AMOC8*
5,1,8,0,0,1.08239X$1,22.5*
%
%ADD10R,0.10236X0.04331*%
%ADD11R,0.07874X0.07874*%
D10*
X0047254Y0067411D03*
X0047254Y0075285D03*
X0047254Y0083159D03*
X0047254Y0091033D03*
X0047254Y0098907D03*
X0047254Y0106781D03*
X0047254Y0114656D03*
X0047254Y0122530D03*
X0110246Y0122530D03*
X0110246Y0114656D03*
X0110246Y0106781D03*
X0110246Y0098907D03*
X0110246Y0091033D03*
X0110246Y0083159D03*
X0110246Y0075285D03*
X0110246Y0067411D03*
X0149254Y0067411D03*
X0149254Y0075285D03*
X0149254Y0083159D03*
X0149254Y0091033D03*
X0149254Y0098907D03*
X0149254Y0106781D03*
X0149254Y0114656D03*
X0149254Y0122530D03*
X0212246Y0122530D03*
X0212246Y0114656D03*
X0212246Y0106781D03*
X0212246Y0098907D03*
X0212246Y0091033D03*
X0212246Y0083159D03*
X0212246Y0075285D03*
X0212246Y0067411D03*
X0251254Y0067411D03*
X0251254Y0075285D03*
X0251254Y0083159D03*
X0251254Y0091033D03*
X0251254Y0098907D03*
X0251254Y0106781D03*
X0251254Y0114656D03*
X0251254Y0122530D03*
X0314246Y0122530D03*
X0314246Y0114656D03*
X0314246Y0106781D03*
X0314246Y0098907D03*
X0314246Y0091033D03*
X0314246Y0083159D03*
X0314246Y0075285D03*
X0314246Y0067411D03*
X0353254Y0067411D03*
X0353254Y0075285D03*
X0353254Y0083159D03*
X0353254Y0091033D03*
X0353254Y0098907D03*
X0353254Y0106781D03*
X0353254Y0114656D03*
X0353254Y0122530D03*
X0416246Y0122530D03*
X0416246Y0114656D03*
X0416246Y0106781D03*
X0416246Y0098907D03*
X0416246Y0091033D03*
X0416246Y0083159D03*
X0416246Y0075285D03*
X0416246Y0067411D03*
X0455254Y0067411D03*
X0455254Y0075285D03*
X0455254Y0083159D03*
X0455254Y0091033D03*
X0455254Y0098907D03*
X0455254Y0106781D03*
X0455254Y0114656D03*
X0455254Y0122530D03*
X0518246Y0122530D03*
X0518246Y0114656D03*
X0518246Y0106781D03*
X0518246Y0098907D03*
X0518246Y0091033D03*
X0518246Y0083159D03*
X0518246Y0075285D03*
X0518246Y0067411D03*
X0557254Y0067411D03*
X0557254Y0075285D03*
X0557254Y0083159D03*
X0557254Y0091033D03*
X0557254Y0098907D03*
X0557254Y0106781D03*
X0557254Y0114656D03*
X0557254Y0122530D03*
X0620246Y0122530D03*
X0620246Y0114656D03*
X0620246Y0106781D03*
X0620246Y0098907D03*
X0620246Y0091033D03*
X0620246Y0083159D03*
X0620246Y0075285D03*
X0620246Y0067411D03*
X0620246Y0199411D03*
X0620246Y0207285D03*
X0620246Y0215159D03*
X0620246Y0223033D03*
X0620246Y0230907D03*
X0620246Y0238781D03*
X0620246Y0246656D03*
X0620246Y0254530D03*
X0557254Y0254530D03*
X0557254Y0246656D03*
X0557254Y0238781D03*
X0557254Y0230907D03*
X0557254Y0223033D03*
X0557254Y0215159D03*
X0557254Y0207285D03*
X0557254Y0199411D03*
X0518246Y0199411D03*
X0518246Y0207285D03*
X0518246Y0215159D03*
X0518246Y0223033D03*
X0518246Y0230907D03*
X0518246Y0238781D03*
X0518246Y0246656D03*
X0518246Y0254530D03*
X0455254Y0254530D03*
X0455254Y0246656D03*
X0455254Y0238781D03*
X0455254Y0230907D03*
X0455254Y0223033D03*
X0455254Y0215159D03*
X0455254Y0207285D03*
X0455254Y0199411D03*
X0416246Y0199411D03*
X0416246Y0207285D03*
X0416246Y0215159D03*
X0416246Y0223033D03*
X0416246Y0230907D03*
X0416246Y0238781D03*
X0416246Y0246656D03*
X0416246Y0254530D03*
X0353254Y0254530D03*
X0353254Y0246656D03*
X0353254Y0238781D03*
X0353254Y0230907D03*
X0353254Y0223033D03*
X0353254Y0215159D03*
X0353254Y0207285D03*
X0353254Y0199411D03*
X0314246Y0199411D03*
X0314246Y0207285D03*
X0314246Y0215159D03*
X0314246Y0223033D03*
X0314246Y0230907D03*
X0314246Y0238781D03*
X0314246Y0246656D03*
X0314246Y0254530D03*
X0251254Y0254530D03*
X0251254Y0246656D03*
X0251254Y0238781D03*
X0251254Y0230907D03*
X0251254Y0223033D03*
X0251254Y0215159D03*
X0251254Y0207285D03*
X0251254Y0199411D03*
X0212246Y0199411D03*
X0212246Y0207285D03*
X0212246Y0215159D03*
X0212246Y0223033D03*
X0212246Y0230907D03*
X0212246Y0238781D03*
X0212246Y0246656D03*
X0212246Y0254530D03*
X0149254Y0254530D03*
X0149254Y0246656D03*
X0149254Y0238781D03*
X0149254Y0230907D03*
X0149254Y0223033D03*
X0149254Y0215159D03*
X0149254Y0207285D03*
X0149254Y0199411D03*
X0110246Y0199411D03*
X0110246Y0207285D03*
X0110246Y0215159D03*
X0110246Y0223033D03*
X0110246Y0230907D03*
X0110246Y0238781D03*
X0110246Y0246656D03*
X0110246Y0254530D03*
X0047254Y0254530D03*
X0047254Y0246656D03*
X0047254Y0238781D03*
X0047254Y0230907D03*
X0047254Y0223033D03*
X0047254Y0215159D03*
X0047254Y0207285D03*
X0047254Y0199411D03*
X0047254Y0331411D03*
X0047254Y0339285D03*
X0047254Y0347159D03*
X0047254Y0355033D03*
X0047254Y0362907D03*
X0047254Y0370781D03*
X0047254Y0378656D03*
X0047254Y0386530D03*
X0110246Y0386530D03*
X0110246Y0378656D03*
X0110246Y0370781D03*
X0110246Y0362907D03*
X0110246Y0355033D03*
X0110246Y0347159D03*
X0110246Y0339285D03*
X0110246Y0331411D03*
X0149254Y0331411D03*
X0149254Y0339285D03*
X0149254Y0347159D03*
X0149254Y0355033D03*
X0149254Y0362907D03*
X0149254Y0370781D03*
X0149254Y0378656D03*
X0149254Y0386530D03*
X0212246Y0386530D03*
X0212246Y0378656D03*
X0212246Y0370781D03*
X0212246Y0362907D03*
X0212246Y0355033D03*
X0212246Y0347159D03*
X0212246Y0339285D03*
X0212246Y0331411D03*
X0251254Y0331411D03*
X0251254Y0339285D03*
X0251254Y0347159D03*
X0251254Y0355033D03*
X0251254Y0362907D03*
X0251254Y0370781D03*
X0251254Y0378656D03*
X0251254Y0386530D03*
X0314246Y0386530D03*
X0314246Y0378656D03*
X0314246Y0370781D03*
X0314246Y0362907D03*
X0314246Y0355033D03*
X0314246Y0347159D03*
X0314246Y0339285D03*
X0314246Y0331411D03*
X0353254Y0331411D03*
X0353254Y0339285D03*
X0353254Y0347159D03*
X0353254Y0355033D03*
X0353254Y0362907D03*
X0353254Y0370781D03*
X0353254Y0378656D03*
X0353254Y0386530D03*
X0416246Y0386530D03*
X0416246Y0378656D03*
X0416246Y0370781D03*
X0416246Y0362907D03*
X0416246Y0355033D03*
X0416246Y0347159D03*
X0416246Y0339285D03*
X0416246Y0331411D03*
X0455254Y0331411D03*
X0455254Y0339285D03*
X0455254Y0347159D03*
X0455254Y0355033D03*
X0455254Y0362907D03*
X0455254Y0370781D03*
X0455254Y0378656D03*
X0455254Y0386530D03*
X0518246Y0386530D03*
X0518246Y0378656D03*
X0518246Y0370781D03*
X0518246Y0362907D03*
X0518246Y0355033D03*
X0518246Y0347159D03*
X0518246Y0339285D03*
X0518246Y0331411D03*
X0557254Y0331411D03*
X0557254Y0339285D03*
X0557254Y0347159D03*
X0557254Y0355033D03*
X0557254Y0362907D03*
X0557254Y0370781D03*
X0557254Y0378656D03*
X0557254Y0386530D03*
X0620246Y0386530D03*
X0620246Y0378656D03*
X0620246Y0370781D03*
X0620246Y0362907D03*
X0620246Y0355033D03*
X0620246Y0347159D03*
X0620246Y0339285D03*
X0620246Y0331411D03*
D11*
X0588813Y0368187D03*
X0486813Y0368187D03*
X0384813Y0368187D03*
X0282813Y0368187D03*
X0180813Y0368187D03*
X0078813Y0368187D03*
X0078813Y0236187D03*
X0180813Y0236187D03*
X0282813Y0236187D03*
X0384813Y0236187D03*
X0486813Y0236187D03*
X0588813Y0236187D03*
X0588813Y0104187D03*
X0486813Y0104187D03*
X0384813Y0104187D03*
X0282813Y0104187D03*
X0180813Y0104187D03*
X0078813Y0104187D03*
M02*
