G75*
%MOIN*%
%OFA0B0*%
%FSLAX25Y25*%
%IPPOS*%
%LPD*%
%AMOC8*
5,1,8,0,0,1.08239X$1,22.5*
%
%ADD10C,0.08200*%
%ADD11C,0.07550*%
%ADD12R,0.05131X0.04737*%
%ADD13R,0.04737X0.05131*%
%ADD14C,0.01990*%
%ADD15R,0.03950X0.04343*%
%ADD16R,0.04343X0.04737*%
%ADD17C,0.06800*%
%ADD18R,0.04068X0.03280*%
%ADD19C,0.03300*%
%ADD20R,0.05524X0.02965*%
%ADD21C,0.13800*%
%ADD22C,0.04737*%
%ADD23C,0.05000*%
%ADD24C,0.06706*%
D10*
X0033750Y0053750D03*
X0033750Y0063750D03*
X0033750Y0073750D03*
X0033750Y0083750D03*
X0033750Y0093750D03*
X0033750Y0103750D03*
X0033750Y0184250D03*
X0033750Y0194250D03*
X0033750Y0204250D03*
X0033750Y0214250D03*
X0033750Y0224250D03*
X0033750Y0234250D03*
X0033750Y0314750D03*
X0033750Y0324750D03*
X0033750Y0334750D03*
X0033750Y0344750D03*
X0033750Y0354750D03*
X0033750Y0364750D03*
X0123750Y0364750D03*
X0123750Y0354750D03*
X0123750Y0344750D03*
X0123750Y0334750D03*
X0123750Y0324750D03*
X0123750Y0314750D03*
X0135750Y0314750D03*
X0135750Y0324750D03*
X0135750Y0334750D03*
X0135750Y0344750D03*
X0135750Y0354750D03*
X0135750Y0364750D03*
X0123750Y0374750D03*
X0123750Y0384750D03*
X0225750Y0384750D03*
X0225750Y0374750D03*
X0225750Y0364750D03*
X0225750Y0354750D03*
X0225750Y0344750D03*
X0225750Y0334750D03*
X0225750Y0324750D03*
X0225750Y0314750D03*
X0237750Y0314750D03*
X0237750Y0324750D03*
X0237750Y0334750D03*
X0237750Y0344750D03*
X0237750Y0354750D03*
X0237750Y0364750D03*
X0327750Y0364750D03*
X0327750Y0354750D03*
X0327750Y0344750D03*
X0327750Y0334750D03*
X0327750Y0324750D03*
X0327750Y0314750D03*
X0327750Y0374750D03*
X0327750Y0384750D03*
X0327750Y0254250D03*
X0327750Y0244250D03*
X0327750Y0234250D03*
X0327750Y0224250D03*
X0327750Y0214250D03*
X0327750Y0204250D03*
X0327750Y0194250D03*
X0327750Y0184250D03*
X0327750Y0123750D03*
X0327750Y0113750D03*
X0327750Y0103750D03*
X0327750Y0093750D03*
X0327750Y0083750D03*
X0327750Y0073750D03*
X0327750Y0063750D03*
X0327750Y0053750D03*
X0237750Y0053750D03*
X0237750Y0063750D03*
X0237750Y0073750D03*
X0237750Y0083750D03*
X0237750Y0093750D03*
X0237750Y0103750D03*
X0225750Y0103750D03*
X0225750Y0093750D03*
X0225750Y0083750D03*
X0225750Y0073750D03*
X0225750Y0063750D03*
X0225750Y0053750D03*
X0225750Y0113750D03*
X0225750Y0123750D03*
X0225750Y0184250D03*
X0225750Y0194250D03*
X0225750Y0204250D03*
X0225750Y0214250D03*
X0225750Y0224250D03*
X0225750Y0234250D03*
X0225750Y0244250D03*
X0225750Y0254250D03*
X0237750Y0234250D03*
X0237750Y0224250D03*
X0237750Y0214250D03*
X0237750Y0204250D03*
X0237750Y0194250D03*
X0237750Y0184250D03*
X0135750Y0184250D03*
X0135750Y0194250D03*
X0135750Y0204250D03*
X0135750Y0214250D03*
X0135750Y0224250D03*
X0135750Y0234250D03*
X0123750Y0234250D03*
X0123750Y0224250D03*
X0123750Y0214250D03*
X0123750Y0204250D03*
X0123750Y0194250D03*
X0123750Y0184250D03*
X0123750Y0123750D03*
X0123750Y0113750D03*
X0123750Y0103750D03*
X0123750Y0093750D03*
X0123750Y0083750D03*
X0123750Y0073750D03*
X0123750Y0063750D03*
X0123750Y0053750D03*
X0135750Y0053750D03*
X0135750Y0063750D03*
X0135750Y0073750D03*
X0135750Y0083750D03*
X0135750Y0093750D03*
X0135750Y0103750D03*
X0123750Y0244250D03*
X0123750Y0254250D03*
D11*
X0101250Y0315750D03*
X0091250Y0315750D03*
X0193250Y0315750D03*
X0203250Y0315750D03*
X0295250Y0315750D03*
X0305250Y0315750D03*
X0305250Y0185250D03*
X0295250Y0185250D03*
X0203250Y0185250D03*
X0193250Y0185250D03*
X0101250Y0185250D03*
X0091250Y0185250D03*
X0091250Y0054750D03*
X0101250Y0054750D03*
X0193250Y0054750D03*
X0203250Y0054750D03*
X0295250Y0054750D03*
X0305250Y0054750D03*
D12*
X0304596Y0063250D03*
X0297904Y0063250D03*
X0296904Y0083750D03*
X0303596Y0083750D03*
X0266096Y0083750D03*
X0259404Y0083750D03*
X0201596Y0083750D03*
X0194904Y0083750D03*
X0195904Y0063250D03*
X0202596Y0063250D03*
X0164096Y0083750D03*
X0157404Y0083750D03*
X0100596Y0063250D03*
X0093904Y0063250D03*
X0092904Y0083750D03*
X0099596Y0083750D03*
X0062096Y0083750D03*
X0055404Y0083750D03*
X0093904Y0193750D03*
X0100596Y0193750D03*
X0099596Y0214250D03*
X0092904Y0214250D03*
X0062096Y0214250D03*
X0055404Y0214250D03*
X0093904Y0324250D03*
X0100596Y0324250D03*
X0099596Y0344750D03*
X0092904Y0344750D03*
X0062096Y0344750D03*
X0055404Y0344750D03*
X0157404Y0344750D03*
X0164096Y0344750D03*
X0194904Y0344750D03*
X0201596Y0344750D03*
X0202596Y0324250D03*
X0195904Y0324250D03*
X0259404Y0344750D03*
X0266096Y0344750D03*
X0296904Y0344750D03*
X0303596Y0344750D03*
X0304596Y0324250D03*
X0297904Y0324250D03*
X0296904Y0214250D03*
X0303596Y0214250D03*
X0304596Y0193750D03*
X0297904Y0193750D03*
X0266096Y0214250D03*
X0259404Y0214250D03*
X0201596Y0214250D03*
X0194904Y0214250D03*
X0195904Y0193750D03*
X0202596Y0193750D03*
X0164096Y0214250D03*
X0157404Y0214250D03*
D13*
X0157750Y0207596D03*
X0157750Y0200904D03*
X0181250Y0200904D03*
X0181250Y0207596D03*
X0189250Y0207596D03*
X0189250Y0200904D03*
X0186750Y0240904D03*
X0186750Y0247596D03*
X0193250Y0247596D03*
X0199750Y0247596D03*
X0199750Y0240904D03*
X0193250Y0240904D03*
X0174750Y0240904D03*
X0174750Y0247596D03*
X0168250Y0247596D03*
X0161750Y0247596D03*
X0161750Y0240904D03*
X0168250Y0240904D03*
X0097750Y0240904D03*
X0097750Y0247596D03*
X0091250Y0247596D03*
X0084750Y0247596D03*
X0084750Y0240904D03*
X0091250Y0240904D03*
X0072750Y0240904D03*
X0066250Y0240904D03*
X0066250Y0247596D03*
X0072750Y0247596D03*
X0059750Y0247596D03*
X0059750Y0240904D03*
X0055750Y0207596D03*
X0055750Y0200904D03*
X0079250Y0200904D03*
X0079250Y0207596D03*
X0087250Y0207596D03*
X0087250Y0200904D03*
X0084750Y0117096D03*
X0091250Y0117096D03*
X0097750Y0117096D03*
X0097750Y0110404D03*
X0091250Y0110404D03*
X0084750Y0110404D03*
X0072750Y0110404D03*
X0066250Y0110404D03*
X0059750Y0110404D03*
X0059750Y0117096D03*
X0066250Y0117096D03*
X0072750Y0117096D03*
X0079250Y0077096D03*
X0079250Y0070404D03*
X0087250Y0070404D03*
X0087250Y0077096D03*
X0055750Y0077096D03*
X0055750Y0070404D03*
X0157750Y0070404D03*
X0157750Y0077096D03*
X0181250Y0077096D03*
X0181250Y0070404D03*
X0189250Y0070404D03*
X0189250Y0077096D03*
X0186750Y0110404D03*
X0193250Y0110404D03*
X0199750Y0110404D03*
X0199750Y0117096D03*
X0193250Y0117096D03*
X0186750Y0117096D03*
X0174750Y0117096D03*
X0168250Y0117096D03*
X0161750Y0117096D03*
X0161750Y0110404D03*
X0168250Y0110404D03*
X0174750Y0110404D03*
X0259750Y0077096D03*
X0259750Y0070404D03*
X0283250Y0070404D03*
X0283250Y0077096D03*
X0291250Y0077096D03*
X0291250Y0070404D03*
X0288750Y0110404D03*
X0295250Y0110404D03*
X0301750Y0110404D03*
X0301750Y0117096D03*
X0295250Y0117096D03*
X0288750Y0117096D03*
X0276750Y0117096D03*
X0270250Y0117096D03*
X0263750Y0117096D03*
X0263750Y0110404D03*
X0270250Y0110404D03*
X0276750Y0110404D03*
X0283250Y0200904D03*
X0283250Y0207596D03*
X0291250Y0207596D03*
X0291250Y0200904D03*
X0259750Y0200904D03*
X0259750Y0207596D03*
X0263750Y0240904D03*
X0263750Y0247596D03*
X0270250Y0247596D03*
X0276750Y0247596D03*
X0276750Y0240904D03*
X0270250Y0240904D03*
X0288750Y0240904D03*
X0295250Y0240904D03*
X0295250Y0247596D03*
X0288750Y0247596D03*
X0301750Y0247596D03*
X0301750Y0240904D03*
X0291250Y0331404D03*
X0291250Y0338096D03*
X0283250Y0338096D03*
X0283250Y0331404D03*
X0259750Y0331404D03*
X0259750Y0338096D03*
X0263750Y0371404D03*
X0263750Y0378096D03*
X0270250Y0378096D03*
X0276750Y0378096D03*
X0276750Y0371404D03*
X0270250Y0371404D03*
X0288750Y0371404D03*
X0295250Y0371404D03*
X0295250Y0378096D03*
X0288750Y0378096D03*
X0301750Y0378096D03*
X0301750Y0371404D03*
X0199750Y0371404D03*
X0193250Y0371404D03*
X0193250Y0378096D03*
X0199750Y0378096D03*
X0186750Y0378096D03*
X0186750Y0371404D03*
X0174750Y0371404D03*
X0174750Y0378096D03*
X0168250Y0378096D03*
X0161750Y0378096D03*
X0161750Y0371404D03*
X0168250Y0371404D03*
X0157750Y0338096D03*
X0157750Y0331404D03*
X0181250Y0331404D03*
X0181250Y0338096D03*
X0189250Y0338096D03*
X0189250Y0331404D03*
X0097750Y0371404D03*
X0097750Y0378096D03*
X0091250Y0378096D03*
X0084750Y0378096D03*
X0084750Y0371404D03*
X0091250Y0371404D03*
X0072750Y0371404D03*
X0066250Y0371404D03*
X0066250Y0378096D03*
X0072750Y0378096D03*
X0059750Y0378096D03*
X0059750Y0371404D03*
X0055750Y0338096D03*
X0055750Y0331404D03*
X0079250Y0331404D03*
X0079250Y0338096D03*
X0087250Y0338096D03*
X0087250Y0331404D03*
D14*
X0080123Y0372670D02*
X0077377Y0372670D01*
X0080123Y0372670D02*
X0080123Y0369924D01*
X0077377Y0369924D01*
X0077377Y0372670D01*
X0077377Y0371814D02*
X0080123Y0371814D01*
X0080123Y0379576D02*
X0077377Y0379576D01*
X0080123Y0379576D02*
X0080123Y0376830D01*
X0077377Y0376830D01*
X0077377Y0379576D01*
X0077377Y0378720D02*
X0080123Y0378720D01*
X0179377Y0379576D02*
X0182123Y0379576D01*
X0182123Y0376830D01*
X0179377Y0376830D01*
X0179377Y0379576D01*
X0179377Y0378720D02*
X0182123Y0378720D01*
X0182123Y0372670D02*
X0179377Y0372670D01*
X0182123Y0372670D02*
X0182123Y0369924D01*
X0179377Y0369924D01*
X0179377Y0372670D01*
X0179377Y0371814D02*
X0182123Y0371814D01*
X0281377Y0372670D02*
X0284123Y0372670D01*
X0284123Y0369924D01*
X0281377Y0369924D01*
X0281377Y0372670D01*
X0281377Y0371814D02*
X0284123Y0371814D01*
X0284123Y0379576D02*
X0281377Y0379576D01*
X0284123Y0379576D02*
X0284123Y0376830D01*
X0281377Y0376830D01*
X0281377Y0379576D01*
X0281377Y0378720D02*
X0284123Y0378720D01*
X0284123Y0249076D02*
X0281377Y0249076D01*
X0284123Y0249076D02*
X0284123Y0246330D01*
X0281377Y0246330D01*
X0281377Y0249076D01*
X0281377Y0248220D02*
X0284123Y0248220D01*
X0284123Y0242170D02*
X0281377Y0242170D01*
X0284123Y0242170D02*
X0284123Y0239424D01*
X0281377Y0239424D01*
X0281377Y0242170D01*
X0281377Y0241314D02*
X0284123Y0241314D01*
X0182123Y0242170D02*
X0179377Y0242170D01*
X0182123Y0242170D02*
X0182123Y0239424D01*
X0179377Y0239424D01*
X0179377Y0242170D01*
X0179377Y0241314D02*
X0182123Y0241314D01*
X0182123Y0249076D02*
X0179377Y0249076D01*
X0182123Y0249076D02*
X0182123Y0246330D01*
X0179377Y0246330D01*
X0179377Y0249076D01*
X0179377Y0248220D02*
X0182123Y0248220D01*
X0080123Y0249076D02*
X0077377Y0249076D01*
X0080123Y0249076D02*
X0080123Y0246330D01*
X0077377Y0246330D01*
X0077377Y0249076D01*
X0077377Y0248220D02*
X0080123Y0248220D01*
X0080123Y0242170D02*
X0077377Y0242170D01*
X0080123Y0242170D02*
X0080123Y0239424D01*
X0077377Y0239424D01*
X0077377Y0242170D01*
X0077377Y0241314D02*
X0080123Y0241314D01*
X0080123Y0118576D02*
X0077377Y0118576D01*
X0080123Y0118576D02*
X0080123Y0115830D01*
X0077377Y0115830D01*
X0077377Y0118576D01*
X0077377Y0117720D02*
X0080123Y0117720D01*
X0080123Y0111670D02*
X0077377Y0111670D01*
X0080123Y0111670D02*
X0080123Y0108924D01*
X0077377Y0108924D01*
X0077377Y0111670D01*
X0077377Y0110814D02*
X0080123Y0110814D01*
X0179377Y0111670D02*
X0182123Y0111670D01*
X0182123Y0108924D01*
X0179377Y0108924D01*
X0179377Y0111670D01*
X0179377Y0110814D02*
X0182123Y0110814D01*
X0182123Y0118576D02*
X0179377Y0118576D01*
X0182123Y0118576D02*
X0182123Y0115830D01*
X0179377Y0115830D01*
X0179377Y0118576D01*
X0179377Y0117720D02*
X0182123Y0117720D01*
X0281377Y0118576D02*
X0284123Y0118576D01*
X0284123Y0115830D01*
X0281377Y0115830D01*
X0281377Y0118576D01*
X0281377Y0117720D02*
X0284123Y0117720D01*
X0284123Y0111670D02*
X0281377Y0111670D01*
X0284123Y0111670D02*
X0284123Y0108924D01*
X0281377Y0108924D01*
X0281377Y0111670D01*
X0281377Y0110814D02*
X0284123Y0110814D01*
D15*
X0297510Y0077687D03*
X0304990Y0077687D03*
X0301250Y0069419D03*
X0202990Y0077687D03*
X0199250Y0069419D03*
X0195510Y0077687D03*
X0100990Y0077687D03*
X0097250Y0069419D03*
X0093510Y0077687D03*
X0097250Y0199919D03*
X0093510Y0208187D03*
X0100990Y0208187D03*
X0195510Y0208187D03*
X0199250Y0199919D03*
X0202990Y0208187D03*
X0297510Y0208187D03*
X0304990Y0208187D03*
X0301250Y0199919D03*
X0301250Y0330419D03*
X0297510Y0338687D03*
X0304990Y0338687D03*
X0202990Y0338687D03*
X0195510Y0338687D03*
X0199250Y0330419D03*
X0100990Y0338687D03*
X0093510Y0338687D03*
X0097250Y0330419D03*
D16*
X0104321Y0351100D03*
X0104321Y0357400D03*
X0088179Y0357400D03*
X0088179Y0351100D03*
X0069321Y0351100D03*
X0069321Y0357400D03*
X0053179Y0357400D03*
X0053179Y0351100D03*
X0155179Y0351100D03*
X0155179Y0357400D03*
X0171321Y0357400D03*
X0171321Y0351100D03*
X0190179Y0351100D03*
X0190179Y0357400D03*
X0206321Y0357400D03*
X0206321Y0351100D03*
X0257179Y0351100D03*
X0257179Y0357400D03*
X0273321Y0357400D03*
X0273321Y0351100D03*
X0292179Y0351100D03*
X0292179Y0357400D03*
X0308321Y0357400D03*
X0308321Y0351100D03*
X0308321Y0226900D03*
X0308321Y0220600D03*
X0292179Y0220600D03*
X0292179Y0226900D03*
X0273321Y0226900D03*
X0273321Y0220600D03*
X0257179Y0220600D03*
X0257179Y0226900D03*
X0206321Y0226900D03*
X0206321Y0220600D03*
X0190179Y0220600D03*
X0190179Y0226900D03*
X0171321Y0226900D03*
X0171321Y0220600D03*
X0155179Y0220600D03*
X0155179Y0226900D03*
X0104321Y0226900D03*
X0104321Y0220600D03*
X0088179Y0220600D03*
X0088179Y0226900D03*
X0069321Y0226900D03*
X0069321Y0220600D03*
X0053179Y0220600D03*
X0053179Y0226900D03*
X0053179Y0096400D03*
X0053179Y0090100D03*
X0069321Y0090100D03*
X0069321Y0096400D03*
X0088179Y0096400D03*
X0088179Y0090100D03*
X0104321Y0090100D03*
X0104321Y0096400D03*
X0155179Y0096400D03*
X0155179Y0090100D03*
X0171321Y0090100D03*
X0171321Y0096400D03*
X0190179Y0096400D03*
X0190179Y0090100D03*
X0206321Y0090100D03*
X0206321Y0096400D03*
X0257179Y0096400D03*
X0257179Y0090100D03*
X0273321Y0090100D03*
X0273321Y0096400D03*
X0292179Y0096400D03*
X0292179Y0090100D03*
X0308321Y0090100D03*
X0308321Y0096400D03*
D17*
X0280250Y0054750D03*
X0270250Y0054750D03*
X0260250Y0054750D03*
X0178250Y0054750D03*
X0168250Y0054750D03*
X0158250Y0054750D03*
X0076250Y0054750D03*
X0066250Y0054750D03*
X0056250Y0054750D03*
X0056250Y0185250D03*
X0066250Y0185250D03*
X0076250Y0185250D03*
X0158250Y0185250D03*
X0168250Y0185250D03*
X0178250Y0185250D03*
X0260250Y0185250D03*
X0270250Y0185250D03*
X0280250Y0185250D03*
X0280250Y0315750D03*
X0270250Y0315750D03*
X0260250Y0315750D03*
X0178250Y0315750D03*
X0168250Y0315750D03*
X0158250Y0315750D03*
X0076250Y0315750D03*
X0066250Y0315750D03*
X0056250Y0315750D03*
D18*
X0078750Y0345222D03*
X0078750Y0354278D03*
X0180750Y0354278D03*
X0180750Y0345222D03*
X0282750Y0345222D03*
X0282750Y0354278D03*
X0282750Y0223778D03*
X0282750Y0214722D03*
X0180750Y0214722D03*
X0180750Y0223778D03*
X0078750Y0223778D03*
X0078750Y0214722D03*
X0078750Y0093278D03*
X0078750Y0084222D03*
X0180750Y0084222D03*
X0180750Y0093278D03*
X0282750Y0093278D03*
X0282750Y0084222D03*
D19*
X0243250Y0058750D03*
X0228250Y0154750D03*
X0243250Y0189250D03*
X0330250Y0154750D03*
X0330250Y0285250D03*
X0243250Y0319750D03*
X0228250Y0285250D03*
X0141250Y0319750D03*
X0126250Y0285250D03*
X0039250Y0319750D03*
X0126250Y0415750D03*
X0228250Y0415750D03*
X0330250Y0415750D03*
X0141250Y0189250D03*
X0126250Y0154750D03*
X0039250Y0189250D03*
X0039250Y0058750D03*
X0141250Y0058750D03*
D20*
X0164131Y0070010D03*
X0164131Y0077490D03*
X0174369Y0077490D03*
X0174369Y0073750D03*
X0174369Y0070010D03*
X0266131Y0070010D03*
X0266131Y0077490D03*
X0276369Y0077490D03*
X0276369Y0073750D03*
X0276369Y0070010D03*
X0276369Y0200510D03*
X0276369Y0204250D03*
X0276369Y0207990D03*
X0266131Y0207990D03*
X0266131Y0200510D03*
X0174369Y0200510D03*
X0174369Y0204250D03*
X0174369Y0207990D03*
X0164131Y0207990D03*
X0164131Y0200510D03*
X0072369Y0200510D03*
X0072369Y0204250D03*
X0072369Y0207990D03*
X0062131Y0207990D03*
X0062131Y0200510D03*
X0062131Y0077490D03*
X0062131Y0070010D03*
X0072369Y0070010D03*
X0072369Y0073750D03*
X0072369Y0077490D03*
X0072369Y0331010D03*
X0072369Y0334750D03*
X0072369Y0338490D03*
X0062131Y0338490D03*
X0062131Y0331010D03*
X0164131Y0331010D03*
X0164131Y0338490D03*
X0174369Y0338490D03*
X0174369Y0334750D03*
X0174369Y0331010D03*
X0266131Y0331010D03*
X0266131Y0338490D03*
X0276369Y0338490D03*
X0276369Y0334750D03*
X0276369Y0331010D03*
D21*
X0038750Y0038750D03*
X0118750Y0038750D03*
X0140750Y0038750D03*
X0220750Y0038750D03*
X0242750Y0038750D03*
X0322750Y0038750D03*
X0322750Y0169250D03*
X0242750Y0169250D03*
X0220750Y0169250D03*
X0140750Y0169250D03*
X0118750Y0169250D03*
X0038750Y0169250D03*
X0038750Y0299750D03*
X0118750Y0299750D03*
X0140750Y0299750D03*
X0220750Y0299750D03*
X0242750Y0299750D03*
X0322750Y0299750D03*
D22*
X0305750Y0426500D03*
X0055750Y0426500D03*
D23*
X0052185Y0020500D02*
X0052187Y0020619D01*
X0052193Y0020738D01*
X0052203Y0020857D01*
X0052217Y0020975D01*
X0052235Y0021093D01*
X0052256Y0021210D01*
X0052282Y0021326D01*
X0052312Y0021442D01*
X0052345Y0021556D01*
X0052382Y0021669D01*
X0052423Y0021781D01*
X0052468Y0021892D01*
X0052516Y0022001D01*
X0052568Y0022108D01*
X0052624Y0022213D01*
X0052683Y0022317D01*
X0052745Y0022418D01*
X0052811Y0022518D01*
X0052880Y0022615D01*
X0052952Y0022709D01*
X0053028Y0022802D01*
X0053106Y0022891D01*
X0053187Y0022978D01*
X0053272Y0023063D01*
X0053359Y0023144D01*
X0053448Y0023222D01*
X0053541Y0023298D01*
X0053635Y0023370D01*
X0053732Y0023439D01*
X0053832Y0023505D01*
X0053933Y0023567D01*
X0054037Y0023626D01*
X0054142Y0023682D01*
X0054249Y0023734D01*
X0054358Y0023782D01*
X0054469Y0023827D01*
X0054581Y0023868D01*
X0054694Y0023905D01*
X0054808Y0023938D01*
X0054924Y0023968D01*
X0055040Y0023994D01*
X0055157Y0024015D01*
X0055275Y0024033D01*
X0055393Y0024047D01*
X0055512Y0024057D01*
X0055631Y0024063D01*
X0055750Y0024065D01*
X0055869Y0024063D01*
X0055988Y0024057D01*
X0056107Y0024047D01*
X0056225Y0024033D01*
X0056343Y0024015D01*
X0056460Y0023994D01*
X0056576Y0023968D01*
X0056692Y0023938D01*
X0056806Y0023905D01*
X0056919Y0023868D01*
X0057031Y0023827D01*
X0057142Y0023782D01*
X0057251Y0023734D01*
X0057358Y0023682D01*
X0057463Y0023626D01*
X0057567Y0023567D01*
X0057668Y0023505D01*
X0057768Y0023439D01*
X0057865Y0023370D01*
X0057959Y0023298D01*
X0058052Y0023222D01*
X0058141Y0023144D01*
X0058228Y0023063D01*
X0058313Y0022978D01*
X0058394Y0022891D01*
X0058472Y0022802D01*
X0058548Y0022709D01*
X0058620Y0022615D01*
X0058689Y0022518D01*
X0058755Y0022418D01*
X0058817Y0022317D01*
X0058876Y0022213D01*
X0058932Y0022108D01*
X0058984Y0022001D01*
X0059032Y0021892D01*
X0059077Y0021781D01*
X0059118Y0021669D01*
X0059155Y0021556D01*
X0059188Y0021442D01*
X0059218Y0021326D01*
X0059244Y0021210D01*
X0059265Y0021093D01*
X0059283Y0020975D01*
X0059297Y0020857D01*
X0059307Y0020738D01*
X0059313Y0020619D01*
X0059315Y0020500D01*
X0059313Y0020381D01*
X0059307Y0020262D01*
X0059297Y0020143D01*
X0059283Y0020025D01*
X0059265Y0019907D01*
X0059244Y0019790D01*
X0059218Y0019674D01*
X0059188Y0019558D01*
X0059155Y0019444D01*
X0059118Y0019331D01*
X0059077Y0019219D01*
X0059032Y0019108D01*
X0058984Y0018999D01*
X0058932Y0018892D01*
X0058876Y0018787D01*
X0058817Y0018683D01*
X0058755Y0018582D01*
X0058689Y0018482D01*
X0058620Y0018385D01*
X0058548Y0018291D01*
X0058472Y0018198D01*
X0058394Y0018109D01*
X0058313Y0018022D01*
X0058228Y0017937D01*
X0058141Y0017856D01*
X0058052Y0017778D01*
X0057959Y0017702D01*
X0057865Y0017630D01*
X0057768Y0017561D01*
X0057668Y0017495D01*
X0057567Y0017433D01*
X0057463Y0017374D01*
X0057358Y0017318D01*
X0057251Y0017266D01*
X0057142Y0017218D01*
X0057031Y0017173D01*
X0056919Y0017132D01*
X0056806Y0017095D01*
X0056692Y0017062D01*
X0056576Y0017032D01*
X0056460Y0017006D01*
X0056343Y0016985D01*
X0056225Y0016967D01*
X0056107Y0016953D01*
X0055988Y0016943D01*
X0055869Y0016937D01*
X0055750Y0016935D01*
X0055631Y0016937D01*
X0055512Y0016943D01*
X0055393Y0016953D01*
X0055275Y0016967D01*
X0055157Y0016985D01*
X0055040Y0017006D01*
X0054924Y0017032D01*
X0054808Y0017062D01*
X0054694Y0017095D01*
X0054581Y0017132D01*
X0054469Y0017173D01*
X0054358Y0017218D01*
X0054249Y0017266D01*
X0054142Y0017318D01*
X0054037Y0017374D01*
X0053933Y0017433D01*
X0053832Y0017495D01*
X0053732Y0017561D01*
X0053635Y0017630D01*
X0053541Y0017702D01*
X0053448Y0017778D01*
X0053359Y0017856D01*
X0053272Y0017937D01*
X0053187Y0018022D01*
X0053106Y0018109D01*
X0053028Y0018198D01*
X0052952Y0018291D01*
X0052880Y0018385D01*
X0052811Y0018482D01*
X0052745Y0018582D01*
X0052683Y0018683D01*
X0052624Y0018787D01*
X0052568Y0018892D01*
X0052516Y0018999D01*
X0052468Y0019108D01*
X0052423Y0019219D01*
X0052382Y0019331D01*
X0052345Y0019444D01*
X0052312Y0019558D01*
X0052282Y0019674D01*
X0052256Y0019790D01*
X0052235Y0019907D01*
X0052217Y0020025D01*
X0052203Y0020143D01*
X0052193Y0020262D01*
X0052187Y0020381D01*
X0052185Y0020500D01*
D24*
X0055750Y0020500D03*
M02*
