%
M48
M72
T01C0.0120
T02C0.0300
T03C0.0315
T04C0.0400
T05C0.1300
%
T01
X3985Y6765
X5985Y7315
X6585Y8065
X6738Y8415
X7325Y9025
X7325Y9325
X7852Y9892
X8085Y10615
X9175Y10275
X9506Y10025
X10235Y10065
X10325Y10678
X10235Y11665
X10033Y12415
X10333Y12447
X11685Y11865
X11700Y11050
X13335Y11315
X14075Y10925
X14225Y11466
X15785Y11315
X15835Y10615
X16525Y10572
X16735Y9365
X16293Y9263
X16938Y8415
X16785Y8065
X16185Y7315
X17525Y9025
X17525Y9325
X18052Y9892
X18285Y10615
X19375Y10275
X19706Y10025
X20435Y10065
X20525Y10678
X20435Y11665
X20233Y12415
X20533Y12447
X21885Y11865
X21900Y11050
X23535Y11315
X24275Y10925
X24425Y11466
X25985Y11315
X26035Y10615
X26725Y10572
X26935Y9365
X26493Y9263
X27138Y8415
X26985Y8065
X26385Y7315
X27725Y9025
X27725Y9325
X28252Y9892
X28485Y10615
X29575Y10275
X29906Y10025
X30635Y10065
X30725Y10678
X30635Y11665
X30433Y12415
X30733Y12447
X32085Y11865
X32100Y11050
X30015Y8935
X28885Y8615
X28738Y7965
X28735Y7215
X28435Y6415
X28975Y6375
X32175Y6775
X27725Y12125
X27725Y12425
X28275Y12625
X24385Y6765
X21975Y6775
X19815Y8935
X18685Y8615
X18538Y7965
X18535Y7215
X18235Y6415
X18775Y6375
X14185Y6765
X11775Y6775
X9615Y8935
X8485Y8615
X8338Y7965
X8335Y7215
X8035Y6415
X8575Y6375
X6535Y9365
X6093Y9263
X6325Y10572
X5635Y10615
X5585Y11315
X4025Y11466
X3875Y10925
X3135Y11315
X7325Y12125
X7325Y12425
X7875Y12625
X8575Y19425
X8035Y19465
X8335Y20265
X8338Y21015
X8485Y21665
X9615Y21985
X9506Y23075
X9175Y23325
X10235Y23115
X10325Y23728
X10235Y24715
X10033Y25465
X10333Y25497
X11685Y24915
X11700Y24100
X13335Y24365
X14075Y23975
X14225Y24516
X15785Y24365
X15835Y23665
X16525Y23622
X16735Y22415
X16293Y22313
X16938Y21465
X16785Y21115
X16185Y20365
X17525Y22075
X17525Y22375
X18052Y22942
X18285Y23665
X19375Y23325
X19706Y23075
X20435Y23115
X20525Y23728
X20435Y24715
X20233Y25465
X20533Y25497
X21885Y24915
X21900Y24100
X23535Y24365
X24275Y23975
X24425Y24516
X25985Y24365
X26035Y23665
X26725Y23622
X26935Y22415
X26493Y22313
X27138Y21465
X26985Y21115
X26385Y20365
X27725Y22075
X27725Y22375
X28252Y22942
X28485Y23665
X29575Y23325
X29906Y23075
X30635Y23115
X30725Y23728
X30635Y24715
X30433Y25465
X30733Y25497
X32085Y24915
X32100Y24100
X30015Y21985
X28885Y21665
X28738Y21015
X28735Y20265
X28435Y19465
X28975Y19425
X32175Y19825
X27725Y25175
X27725Y25475
X28275Y25675
X24385Y19815
X21975Y19825
X19815Y21985
X18685Y21665
X18538Y21015
X18535Y20265
X18235Y19465
X18775Y19425
X14185Y19815
X11775Y19825
X7852Y22942
X8085Y23665
X7325Y22375
X7325Y22075
X6738Y21465
X6585Y21115
X5985Y20365
X6093Y22313
X6535Y22415
X6325Y23622
X5635Y23665
X5585Y24365
X4025Y24516
X3875Y23975
X3135Y24365
X7325Y25175
X7325Y25475
X7875Y25675
X3985Y19815
X8035Y32515
X8575Y32475
X8335Y33315
X8338Y34065
X8485Y34715
X7852Y35992
X8085Y36715
X9175Y36375
X9506Y36125
X10235Y36165
X10325Y36778
X10235Y37765
X10033Y38515
X10333Y38547
X11685Y37965
X11700Y37150
X13335Y37415
X14075Y37025
X14225Y37566
X15785Y37415
X15835Y36715
X16525Y36672
X16735Y35465
X16293Y35363
X16938Y34515
X16785Y34165
X16185Y33415
X17525Y35125
X17525Y35425
X18052Y35992
X18285Y36715
X19375Y36375
X19706Y36125
X20435Y36165
X20525Y36778
X20435Y37765
X20233Y38515
X20533Y38547
X21885Y37965
X21900Y37150
X23535Y37415
X24275Y37025
X24425Y37566
X25985Y37415
X26035Y36715
X26725Y36672
X26935Y35465
X26493Y35363
X27138Y34515
X26985Y34165
X26385Y33415
X27725Y35125
X27725Y35425
X28252Y35992
X28485Y36715
X29575Y36375
X29906Y36125
X30635Y36165
X30725Y36778
X30635Y37765
X30433Y38515
X30733Y38547
X32085Y37965
X32100Y37150
X30015Y35035
X28885Y34715
X28738Y34065
X28735Y33315
X28435Y32515
X28975Y32475
X32175Y32875
X27725Y38225
X27725Y38525
X28275Y38725
X24385Y32865
X21975Y32875
X19815Y35035
X18685Y34715
X18538Y34065
X18535Y33315
X18235Y32515
X18775Y32475
X14185Y32865
X11775Y32875
X9615Y35035
X7325Y35125
X7325Y35425
X6535Y35465
X6093Y35363
X6738Y34515
X6585Y34165
X5985Y33415
X3985Y32865
X5635Y36715
X5585Y37415
X6325Y36672
X7325Y38225
X7325Y38525
X7875Y38725
X4025Y37566
X3875Y37025
X3135Y37415
X17525Y38225
X17525Y38525
X18075Y38725
X18075Y25675
X17525Y25475
X17525Y25175
X18075Y12625
X17525Y12425
X17525Y12125
T02
X17825Y5475
X16825Y5475
X15825Y5475
X7625Y5475
X6625Y5475
X5625Y5475
X5625Y18525
X6625Y18525
X7625Y18525
X15825Y18525
X16825Y18525
X17825Y18525
X26025Y18525
X27025Y18525
X28025Y18525
X28025Y31575
X27025Y31575
X26025Y31575
X17825Y31575
X16825Y31575
X15825Y31575
X7625Y31575
X6625Y31575
X5625Y31575
X26025Y5475
X27025Y5475
X28025Y5475
T03
X29525Y5475
X30525Y5475
X20325Y5475
X19325Y5475
X10125Y5475
X9125Y5475
X9125Y18525
X10125Y18525
X19325Y18525
X20325Y18525
X29525Y18525
X30525Y18525
X30525Y31575
X29525Y31575
X20325Y31575
X19325Y31575
X10125Y31575
X9125Y31575
T04
X12375Y31475
X12375Y32475
X12375Y33475
X12375Y34475
X12375Y35475
X12375Y36475
X12375Y37475
X12375Y38475
X13575Y36475
X13575Y35475
X13575Y34475
X13575Y33475
X13575Y32475
X13575Y31475
X12375Y25425
X12375Y24425
X12375Y23425
X12375Y22425
X12375Y21425
X12375Y20425
X12375Y19425
X12375Y18425
X13575Y18425
X13575Y19425
X13575Y20425
X13575Y21425
X13575Y22425
X13575Y23425
X22575Y23425
X22575Y22425
X22575Y21425
X22575Y20425
X22575Y19425
X22575Y18425
X23775Y18425
X23775Y19425
X23775Y20425
X23775Y21425
X23775Y22425
X23775Y23425
X22575Y24425
X22575Y25425
X22575Y31475
X22575Y32475
X22575Y33475
X22575Y34475
X22575Y35475
X22575Y36475
X22575Y37475
X22575Y38475
X23775Y36475
X23775Y35475
X23775Y34475
X23775Y33475
X23775Y32475
X23775Y31475
X32775Y31475
X32775Y32475
X32775Y33475
X32775Y34475
X32775Y35475
X32775Y36475
X32775Y37475
X32775Y38475
X32775Y25425
X32775Y24425
X32775Y23425
X32775Y22425
X32775Y21425
X32775Y20425
X32775Y19425
X32775Y18425
X32775Y12375
X32775Y11375
X32775Y10375
X32775Y9375
X32775Y8375
X32775Y7375
X32775Y6375
X32775Y5375
X23775Y5375
X23775Y6375
X23775Y7375
X23775Y8375
X23775Y9375
X23775Y10375
X22575Y10375
X22575Y9375
X22575Y8375
X22575Y7375
X22575Y6375
X22575Y5375
X22575Y11375
X22575Y12375
X13575Y10375
X13575Y9375
X13575Y8375
X13575Y7375
X13575Y6375
X13575Y5375
X12375Y5375
X12375Y6375
X12375Y7375
X12375Y8375
X12375Y9375
X12375Y10375
X12375Y11375
X12375Y12375
X3375Y10375
X3375Y9375
X3375Y8375
X3375Y7375
X3375Y6375
X3375Y5375
X3375Y18425
X3375Y19425
X3375Y20425
X3375Y21425
X3375Y22425
X3375Y23425
X3375Y31475
X3375Y32475
X3375Y33475
X3375Y34475
X3375Y35475
X3375Y36475
T05
X3875Y3875
X11875Y3875
X14075Y3875
X22075Y3875
X24275Y3875
X32275Y3875
X32275Y16925
X24275Y16925
X22075Y16925
X14075Y16925
X11875Y16925
X3875Y16925
X3875Y29975
X11875Y29975
X14075Y29975
X22075Y29975
X24275Y29975
X32275Y29975
M30
