G75*
%MOIN*%
%OFA0B0*%
%FSLAX25Y25*%
%IPPOS*%
%LPD*%
%AMOC8*
5,1,8,0,0,1.08239X$1,22.5*
%
%ADD10R,0.04331X0.03937*%
%ADD11R,0.03937X0.04331*%
%ADD12C,0.01181*%
%ADD13R,0.03150X0.03543*%
%ADD14R,0.03543X0.03937*%
%ADD15R,0.03268X0.02480*%
%ADD16R,0.04724X0.02165*%
D10*
X0055404Y0083750D03*
X0062096Y0083750D03*
X0092904Y0083750D03*
X0099596Y0083750D03*
X0100596Y0063250D03*
X0093904Y0063250D03*
X0157404Y0083750D03*
X0164096Y0083750D03*
X0194904Y0083750D03*
X0201596Y0083750D03*
X0202596Y0063250D03*
X0195904Y0063250D03*
X0259404Y0083750D03*
X0266096Y0083750D03*
X0296904Y0083750D03*
X0303596Y0083750D03*
X0304596Y0063250D03*
X0297904Y0063250D03*
X0297904Y0193750D03*
X0304596Y0193750D03*
X0303596Y0214250D03*
X0296904Y0214250D03*
X0266096Y0214250D03*
X0259404Y0214250D03*
X0201596Y0214250D03*
X0194904Y0214250D03*
X0195904Y0193750D03*
X0202596Y0193750D03*
X0164096Y0214250D03*
X0157404Y0214250D03*
X0100596Y0193750D03*
X0093904Y0193750D03*
X0092904Y0214250D03*
X0099596Y0214250D03*
X0062096Y0214250D03*
X0055404Y0214250D03*
X0093904Y0324250D03*
X0100596Y0324250D03*
X0099596Y0344750D03*
X0092904Y0344750D03*
X0062096Y0344750D03*
X0055404Y0344750D03*
X0157404Y0344750D03*
X0164096Y0344750D03*
X0194904Y0344750D03*
X0201596Y0344750D03*
X0202596Y0324250D03*
X0195904Y0324250D03*
X0259404Y0344750D03*
X0266096Y0344750D03*
X0296904Y0344750D03*
X0303596Y0344750D03*
X0304596Y0324250D03*
X0297904Y0324250D03*
D11*
X0055750Y0070404D03*
X0055750Y0077096D03*
X0079250Y0077096D03*
X0079250Y0070404D03*
X0087250Y0070404D03*
X0087250Y0077096D03*
X0084750Y0110404D03*
X0091250Y0110404D03*
X0097750Y0110404D03*
X0097750Y0117096D03*
X0091250Y0117096D03*
X0084750Y0117096D03*
X0072750Y0117096D03*
X0066250Y0117096D03*
X0059750Y0117096D03*
X0059750Y0110404D03*
X0066250Y0110404D03*
X0072750Y0110404D03*
X0079250Y0200904D03*
X0079250Y0207596D03*
X0087250Y0207596D03*
X0087250Y0200904D03*
X0055750Y0200904D03*
X0055750Y0207596D03*
X0059750Y0240904D03*
X0059750Y0247596D03*
X0066250Y0247596D03*
X0072750Y0247596D03*
X0072750Y0240904D03*
X0066250Y0240904D03*
X0084750Y0240904D03*
X0091250Y0240904D03*
X0091250Y0247596D03*
X0084750Y0247596D03*
X0097750Y0247596D03*
X0097750Y0240904D03*
X0157750Y0207596D03*
X0157750Y0200904D03*
X0181250Y0200904D03*
X0181250Y0207596D03*
X0189250Y0207596D03*
X0189250Y0200904D03*
X0186750Y0240904D03*
X0186750Y0247596D03*
X0193250Y0247596D03*
X0199750Y0247596D03*
X0199750Y0240904D03*
X0193250Y0240904D03*
X0174750Y0240904D03*
X0174750Y0247596D03*
X0168250Y0247596D03*
X0161750Y0247596D03*
X0161750Y0240904D03*
X0168250Y0240904D03*
X0157750Y0331404D03*
X0157750Y0338096D03*
X0181250Y0338096D03*
X0181250Y0331404D03*
X0189250Y0331404D03*
X0189250Y0338096D03*
X0186750Y0371404D03*
X0186750Y0378096D03*
X0193250Y0378096D03*
X0199750Y0378096D03*
X0199750Y0371404D03*
X0193250Y0371404D03*
X0174750Y0371404D03*
X0174750Y0378096D03*
X0168250Y0378096D03*
X0161750Y0378096D03*
X0161750Y0371404D03*
X0168250Y0371404D03*
X0097750Y0371404D03*
X0097750Y0378096D03*
X0091250Y0378096D03*
X0084750Y0378096D03*
X0084750Y0371404D03*
X0091250Y0371404D03*
X0072750Y0371404D03*
X0066250Y0371404D03*
X0066250Y0378096D03*
X0072750Y0378096D03*
X0059750Y0378096D03*
X0059750Y0371404D03*
X0055750Y0338096D03*
X0055750Y0331404D03*
X0079250Y0331404D03*
X0079250Y0338096D03*
X0087250Y0338096D03*
X0087250Y0331404D03*
X0259750Y0331404D03*
X0259750Y0338096D03*
X0283250Y0338096D03*
X0283250Y0331404D03*
X0291250Y0331404D03*
X0291250Y0338096D03*
X0288750Y0371404D03*
X0295250Y0371404D03*
X0295250Y0378096D03*
X0288750Y0378096D03*
X0276750Y0378096D03*
X0270250Y0378096D03*
X0270250Y0371404D03*
X0276750Y0371404D03*
X0263750Y0371404D03*
X0263750Y0378096D03*
X0301750Y0378096D03*
X0301750Y0371404D03*
X0301750Y0247596D03*
X0301750Y0240904D03*
X0295250Y0240904D03*
X0288750Y0240904D03*
X0288750Y0247596D03*
X0295250Y0247596D03*
X0276750Y0247596D03*
X0270250Y0247596D03*
X0270250Y0240904D03*
X0276750Y0240904D03*
X0263750Y0240904D03*
X0263750Y0247596D03*
X0259750Y0207596D03*
X0259750Y0200904D03*
X0283250Y0200904D03*
X0283250Y0207596D03*
X0291250Y0207596D03*
X0291250Y0200904D03*
X0288750Y0117096D03*
X0295250Y0117096D03*
X0301750Y0117096D03*
X0301750Y0110404D03*
X0295250Y0110404D03*
X0288750Y0110404D03*
X0276750Y0110404D03*
X0270250Y0110404D03*
X0263750Y0110404D03*
X0263750Y0117096D03*
X0270250Y0117096D03*
X0276750Y0117096D03*
X0283250Y0077096D03*
X0283250Y0070404D03*
X0291250Y0070404D03*
X0291250Y0077096D03*
X0259750Y0077096D03*
X0259750Y0070404D03*
X0199750Y0110404D03*
X0193250Y0110404D03*
X0186750Y0110404D03*
X0186750Y0117096D03*
X0193250Y0117096D03*
X0199750Y0117096D03*
X0174750Y0117096D03*
X0168250Y0117096D03*
X0161750Y0117096D03*
X0161750Y0110404D03*
X0168250Y0110404D03*
X0174750Y0110404D03*
X0181250Y0077096D03*
X0181250Y0070404D03*
X0189250Y0070404D03*
X0189250Y0077096D03*
X0157750Y0077096D03*
X0157750Y0070404D03*
D12*
X0179372Y0111675D02*
X0182128Y0111675D01*
X0182128Y0108919D01*
X0179372Y0108919D01*
X0179372Y0111675D01*
X0179372Y0110041D02*
X0182128Y0110041D01*
X0182128Y0111163D02*
X0179372Y0111163D01*
X0179372Y0118581D02*
X0182128Y0118581D01*
X0182128Y0115825D01*
X0179372Y0115825D01*
X0179372Y0118581D01*
X0179372Y0116947D02*
X0182128Y0116947D01*
X0182128Y0118069D02*
X0179372Y0118069D01*
X0080128Y0118581D02*
X0077372Y0118581D01*
X0080128Y0118581D02*
X0080128Y0115825D01*
X0077372Y0115825D01*
X0077372Y0118581D01*
X0077372Y0116947D02*
X0080128Y0116947D01*
X0080128Y0118069D02*
X0077372Y0118069D01*
X0077372Y0111675D02*
X0080128Y0111675D01*
X0080128Y0108919D01*
X0077372Y0108919D01*
X0077372Y0111675D01*
X0077372Y0110041D02*
X0080128Y0110041D01*
X0080128Y0111163D02*
X0077372Y0111163D01*
X0077372Y0242175D02*
X0080128Y0242175D01*
X0080128Y0239419D01*
X0077372Y0239419D01*
X0077372Y0242175D01*
X0077372Y0240541D02*
X0080128Y0240541D01*
X0080128Y0241663D02*
X0077372Y0241663D01*
X0077372Y0249081D02*
X0080128Y0249081D01*
X0080128Y0246325D01*
X0077372Y0246325D01*
X0077372Y0249081D01*
X0077372Y0247447D02*
X0080128Y0247447D01*
X0080128Y0248569D02*
X0077372Y0248569D01*
X0179372Y0249081D02*
X0182128Y0249081D01*
X0182128Y0246325D01*
X0179372Y0246325D01*
X0179372Y0249081D01*
X0179372Y0247447D02*
X0182128Y0247447D01*
X0182128Y0248569D02*
X0179372Y0248569D01*
X0179372Y0242175D02*
X0182128Y0242175D01*
X0182128Y0239419D01*
X0179372Y0239419D01*
X0179372Y0242175D01*
X0179372Y0240541D02*
X0182128Y0240541D01*
X0182128Y0241663D02*
X0179372Y0241663D01*
X0281372Y0242175D02*
X0284128Y0242175D01*
X0284128Y0239419D01*
X0281372Y0239419D01*
X0281372Y0242175D01*
X0281372Y0240541D02*
X0284128Y0240541D01*
X0284128Y0241663D02*
X0281372Y0241663D01*
X0281372Y0249081D02*
X0284128Y0249081D01*
X0284128Y0246325D01*
X0281372Y0246325D01*
X0281372Y0249081D01*
X0281372Y0247447D02*
X0284128Y0247447D01*
X0284128Y0248569D02*
X0281372Y0248569D01*
X0281372Y0372675D02*
X0284128Y0372675D01*
X0284128Y0369919D01*
X0281372Y0369919D01*
X0281372Y0372675D01*
X0281372Y0371041D02*
X0284128Y0371041D01*
X0284128Y0372163D02*
X0281372Y0372163D01*
X0281372Y0379581D02*
X0284128Y0379581D01*
X0284128Y0376825D01*
X0281372Y0376825D01*
X0281372Y0379581D01*
X0281372Y0377947D02*
X0284128Y0377947D01*
X0284128Y0379069D02*
X0281372Y0379069D01*
X0182128Y0379581D02*
X0179372Y0379581D01*
X0182128Y0379581D02*
X0182128Y0376825D01*
X0179372Y0376825D01*
X0179372Y0379581D01*
X0179372Y0377947D02*
X0182128Y0377947D01*
X0182128Y0379069D02*
X0179372Y0379069D01*
X0179372Y0372675D02*
X0182128Y0372675D01*
X0182128Y0369919D01*
X0179372Y0369919D01*
X0179372Y0372675D01*
X0179372Y0371041D02*
X0182128Y0371041D01*
X0182128Y0372163D02*
X0179372Y0372163D01*
X0080128Y0372675D02*
X0077372Y0372675D01*
X0080128Y0372675D02*
X0080128Y0369919D01*
X0077372Y0369919D01*
X0077372Y0372675D01*
X0077372Y0371041D02*
X0080128Y0371041D01*
X0080128Y0372163D02*
X0077372Y0372163D01*
X0077372Y0379581D02*
X0080128Y0379581D01*
X0080128Y0376825D01*
X0077372Y0376825D01*
X0077372Y0379581D01*
X0077372Y0377947D02*
X0080128Y0377947D01*
X0080128Y0379069D02*
X0077372Y0379069D01*
X0281372Y0118581D02*
X0284128Y0118581D01*
X0284128Y0115825D01*
X0281372Y0115825D01*
X0281372Y0118581D01*
X0281372Y0116947D02*
X0284128Y0116947D01*
X0284128Y0118069D02*
X0281372Y0118069D01*
X0281372Y0111675D02*
X0284128Y0111675D01*
X0284128Y0108919D01*
X0281372Y0108919D01*
X0281372Y0111675D01*
X0281372Y0110041D02*
X0284128Y0110041D01*
X0284128Y0111163D02*
X0281372Y0111163D01*
D13*
X0297510Y0077687D03*
X0304990Y0077687D03*
X0301250Y0069419D03*
X0202990Y0077687D03*
X0199250Y0069419D03*
X0195510Y0077687D03*
X0100990Y0077687D03*
X0097250Y0069419D03*
X0093510Y0077687D03*
X0097250Y0199919D03*
X0093510Y0208187D03*
X0100990Y0208187D03*
X0195510Y0208187D03*
X0199250Y0199919D03*
X0202990Y0208187D03*
X0297510Y0208187D03*
X0304990Y0208187D03*
X0301250Y0199919D03*
X0301250Y0330419D03*
X0297510Y0338687D03*
X0304990Y0338687D03*
X0202990Y0338687D03*
X0195510Y0338687D03*
X0199250Y0330419D03*
X0100990Y0338687D03*
X0093510Y0338687D03*
X0097250Y0330419D03*
D14*
X0104321Y0351100D03*
X0104321Y0357400D03*
X0088179Y0357400D03*
X0088179Y0351100D03*
X0069321Y0351100D03*
X0069321Y0357400D03*
X0053179Y0357400D03*
X0053179Y0351100D03*
X0155179Y0351100D03*
X0155179Y0357400D03*
X0171321Y0357400D03*
X0171321Y0351100D03*
X0190179Y0351100D03*
X0190179Y0357400D03*
X0206321Y0357400D03*
X0206321Y0351100D03*
X0257179Y0351100D03*
X0257179Y0357400D03*
X0273321Y0357400D03*
X0273321Y0351100D03*
X0292179Y0351100D03*
X0292179Y0357400D03*
X0308321Y0357400D03*
X0308321Y0351100D03*
X0308321Y0226900D03*
X0308321Y0220600D03*
X0292179Y0220600D03*
X0292179Y0226900D03*
X0273321Y0226900D03*
X0273321Y0220600D03*
X0257179Y0220600D03*
X0257179Y0226900D03*
X0206321Y0226900D03*
X0206321Y0220600D03*
X0190179Y0220600D03*
X0190179Y0226900D03*
X0171321Y0226900D03*
X0171321Y0220600D03*
X0155179Y0220600D03*
X0155179Y0226900D03*
X0104321Y0226900D03*
X0104321Y0220600D03*
X0088179Y0220600D03*
X0088179Y0226900D03*
X0069321Y0226900D03*
X0069321Y0220600D03*
X0053179Y0220600D03*
X0053179Y0226900D03*
X0053179Y0096400D03*
X0053179Y0090100D03*
X0069321Y0090100D03*
X0069321Y0096400D03*
X0088179Y0096400D03*
X0088179Y0090100D03*
X0104321Y0090100D03*
X0104321Y0096400D03*
X0155179Y0096400D03*
X0155179Y0090100D03*
X0171321Y0090100D03*
X0171321Y0096400D03*
X0190179Y0096400D03*
X0190179Y0090100D03*
X0206321Y0090100D03*
X0206321Y0096400D03*
X0257179Y0096400D03*
X0257179Y0090100D03*
X0273321Y0090100D03*
X0273321Y0096400D03*
X0292179Y0096400D03*
X0292179Y0090100D03*
X0308321Y0090100D03*
X0308321Y0096400D03*
D15*
X0282750Y0093278D03*
X0282750Y0084222D03*
X0180750Y0084222D03*
X0180750Y0093278D03*
X0078750Y0093278D03*
X0078750Y0084222D03*
X0078750Y0214722D03*
X0078750Y0223778D03*
X0180750Y0223778D03*
X0180750Y0214722D03*
X0282750Y0214722D03*
X0282750Y0223778D03*
X0282750Y0345222D03*
X0282750Y0354278D03*
X0180750Y0354278D03*
X0180750Y0345222D03*
X0078750Y0345222D03*
X0078750Y0354278D03*
D16*
X0072369Y0338490D03*
X0072369Y0334750D03*
X0072369Y0331010D03*
X0062131Y0331010D03*
X0062131Y0338490D03*
X0164131Y0338490D03*
X0164131Y0331010D03*
X0174369Y0331010D03*
X0174369Y0334750D03*
X0174369Y0338490D03*
X0266131Y0338490D03*
X0266131Y0331010D03*
X0276369Y0331010D03*
X0276369Y0334750D03*
X0276369Y0338490D03*
X0276369Y0207990D03*
X0276369Y0204250D03*
X0276369Y0200510D03*
X0266131Y0200510D03*
X0266131Y0207990D03*
X0174369Y0207990D03*
X0174369Y0204250D03*
X0174369Y0200510D03*
X0164131Y0200510D03*
X0164131Y0207990D03*
X0072369Y0207990D03*
X0072369Y0204250D03*
X0072369Y0200510D03*
X0062131Y0200510D03*
X0062131Y0207990D03*
X0062131Y0077490D03*
X0062131Y0070010D03*
X0072369Y0070010D03*
X0072369Y0073750D03*
X0072369Y0077490D03*
X0164131Y0077490D03*
X0164131Y0070010D03*
X0174369Y0070010D03*
X0174369Y0073750D03*
X0174369Y0077490D03*
X0266131Y0077490D03*
X0266131Y0070010D03*
X0276369Y0070010D03*
X0276369Y0073750D03*
X0276369Y0077490D03*
M02*
