G75*
%MOIN*%
%OFA0B0*%
%FSLAX25Y25*%
%IPPOS*%
%LPD*%
%AMOC8*
5,1,8,0,0,1.08239X$1,22.5*
%
%ADD10C,0.00800*%
%ADD11C,0.00700*%
%ADD12R,0.10315X0.00157*%
%ADD13R,0.11181X0.00118*%
%ADD14R,0.11732X0.00157*%
%ADD15R,0.12283X0.00118*%
%ADD16R,0.12520X0.00157*%
%ADD17R,0.12835X0.00118*%
%ADD18R,0.13071X0.00157*%
%ADD19R,0.03307X0.00118*%
%ADD20R,0.09370X0.00118*%
%ADD21R,0.03031X0.00157*%
%ADD22R,0.00984X0.00157*%
%ADD23R,0.02205X0.00157*%
%ADD24R,0.03307X0.00157*%
%ADD25R,0.02874X0.00118*%
%ADD26R,0.00827X0.00118*%
%ADD27R,0.02047X0.00118*%
%ADD28R,0.03031X0.00118*%
%ADD29R,0.02913X0.00157*%
%ADD30R,0.00709X0.00157*%
%ADD31R,0.02047X0.00157*%
%ADD32R,0.02756X0.00118*%
%ADD33R,0.00709X0.00118*%
%ADD34R,0.02913X0.00118*%
%ADD35R,0.02874X0.00157*%
%ADD36R,0.00394X0.00118*%
%ADD37R,0.02756X0.00157*%
%ADD38R,0.00827X0.00157*%
%ADD39R,0.02087X0.00118*%
%ADD40R,0.01102X0.00118*%
%ADD41R,0.02087X0.00157*%
%ADD42R,0.01102X0.00157*%
%ADD43R,0.01811X0.00118*%
%ADD44R,0.01260X0.00157*%
%ADD45R,0.03189X0.00118*%
%ADD46R,0.00984X0.00118*%
%ADD47R,0.03189X0.00157*%
%ADD48R,0.03465X0.00118*%
%ADD49R,0.00551X0.00118*%
%ADD50R,0.03740X0.00157*%
%ADD51R,0.00551X0.00157*%
%ADD52R,0.04291X0.00118*%
%ADD53R,0.00433X0.00118*%
%ADD54R,0.04567X0.00157*%
%ADD55R,0.00433X0.00157*%
%ADD56R,0.03583X0.00118*%
%ADD57R,0.00945X0.00157*%
%ADD58R,0.03858X0.00157*%
%ADD59R,0.04685X0.00118*%
%ADD60R,0.04685X0.00157*%
%ADD61R,0.02638X0.00118*%
%ADD62R,0.04567X0.00118*%
%ADD63R,0.00394X0.00157*%
%ADD64R,0.04409X0.00118*%
%ADD65R,0.04409X0.00157*%
%ADD66R,0.00945X0.00236*%
%ADD67R,0.01181X0.00236*%
%ADD68R,0.00472X0.00236*%
%ADD69R,0.00236X0.00236*%
%ADD70R,0.01417X0.00236*%
%ADD71R,0.03780X0.00236*%
%ADD72R,0.01654X0.00236*%
%ADD73R,0.02362X0.00236*%
%ADD74R,0.02598X0.00236*%
%ADD75R,0.04724X0.00236*%
%ADD76R,0.03543X0.00236*%
%ADD77R,0.04961X0.00236*%
%ADD78R,0.04016X0.00236*%
%ADD79R,0.04252X0.00236*%
%ADD80R,0.01890X0.00236*%
%ADD81R,0.04488X0.00236*%
%ADD82R,0.00709X0.00236*%
%ADD83R,0.02126X0.00236*%
%ADD84R,0.03307X0.00236*%
%ADD85R,0.03071X0.00236*%
%ADD86R,0.02835X0.00236*%
%ADD87R,0.06614X0.00236*%
%ADD88R,0.00157X0.00472*%
%ADD89R,0.00157X0.00315*%
%ADD90R,0.00157X0.00157*%
%ADD91R,0.00157X0.01417*%
%ADD92R,0.00157X0.03465*%
%ADD93R,0.00157X0.00787*%
%ADD94R,0.00157X0.00945*%
%ADD95R,0.00157X0.02205*%
%ADD96R,0.00157X0.03937*%
%ADD97R,0.00157X0.01102*%
%ADD98R,0.00157X0.02677*%
%ADD99R,0.00157X0.04094*%
%ADD100R,0.00157X0.02835*%
%ADD101R,0.00157X0.01260*%
%ADD102R,0.00157X0.02992*%
%ADD103R,0.00157X0.03150*%
%ADD104R,0.00157X0.03780*%
%ADD105R,0.00157X0.01575*%
%ADD106R,0.00157X0.01732*%
%ADD107R,0.00157X0.01890*%
%ADD108R,0.00157X0.02047*%
%ADD109R,0.00157X0.02362*%
%ADD110R,0.00157X0.03307*%
%ADD111R,0.00157X0.03622*%
%ADD112R,0.00157X0.02520*%
%ADD113R,0.00157X0.00630*%
D10*
X0028750Y0048750D02*
X0038750Y0048750D01*
X0038750Y0108750D01*
X0028750Y0108750D01*
X0032250Y0111250D02*
X0035250Y0111250D01*
X0033750Y0109750D01*
X0032250Y0111250D01*
X0033250Y0110750D02*
X0034250Y0110750D01*
X0033750Y0109750D02*
X0033750Y0113750D01*
X0038750Y0179250D02*
X0028750Y0179250D01*
X0038750Y0179250D02*
X0038750Y0239250D01*
X0028750Y0239250D01*
X0032250Y0241750D02*
X0035250Y0241750D01*
X0033750Y0240250D01*
X0032250Y0241750D01*
X0033250Y0241250D02*
X0034250Y0241250D01*
X0033750Y0240250D02*
X0033750Y0244250D01*
X0038750Y0309750D02*
X0028750Y0309750D01*
X0038750Y0309750D02*
X0038750Y0369750D01*
X0028750Y0369750D01*
X0032250Y0372250D02*
X0035250Y0372250D01*
X0033750Y0370750D01*
X0032250Y0372250D01*
X0033250Y0371750D02*
X0034250Y0371750D01*
X0033750Y0370750D02*
X0033750Y0374750D01*
X0130750Y0369750D02*
X0140750Y0369750D01*
X0140750Y0309750D01*
X0130750Y0309750D01*
X0135750Y0370750D02*
X0134250Y0372250D01*
X0137250Y0372250D01*
X0135750Y0370750D01*
X0135750Y0374750D01*
X0136250Y0371750D02*
X0135250Y0371750D01*
X0232750Y0369750D02*
X0242750Y0369750D01*
X0242750Y0309750D01*
X0232750Y0309750D01*
X0237750Y0370750D02*
X0239250Y0372250D01*
X0236250Y0372250D01*
X0237750Y0370750D01*
X0237750Y0374750D01*
X0238250Y0371750D02*
X0237250Y0371750D01*
X0237750Y0244250D02*
X0237750Y0240250D01*
X0239250Y0241750D01*
X0236250Y0241750D01*
X0237750Y0240250D01*
X0238250Y0241250D02*
X0237250Y0241250D01*
X0232750Y0239250D02*
X0242750Y0239250D01*
X0242750Y0179250D01*
X0232750Y0179250D01*
X0237750Y0113750D02*
X0237750Y0109750D01*
X0239250Y0111250D01*
X0236250Y0111250D01*
X0237750Y0109750D01*
X0238250Y0110750D02*
X0237250Y0110750D01*
X0232750Y0108750D02*
X0242750Y0108750D01*
X0242750Y0048750D01*
X0232750Y0048750D01*
X0140750Y0048750D02*
X0130750Y0048750D01*
X0140750Y0048750D02*
X0140750Y0108750D01*
X0130750Y0108750D01*
X0134250Y0111250D02*
X0137250Y0111250D01*
X0135750Y0109750D01*
X0134250Y0111250D01*
X0135250Y0110750D02*
X0136250Y0110750D01*
X0135750Y0109750D02*
X0135750Y0113750D01*
X0140750Y0179250D02*
X0130750Y0179250D01*
X0140750Y0179250D02*
X0140750Y0239250D01*
X0130750Y0239250D01*
X0134250Y0241750D02*
X0137250Y0241750D01*
X0135750Y0240250D01*
X0134250Y0241750D01*
X0135250Y0241250D02*
X0136250Y0241250D01*
X0135750Y0240250D02*
X0135750Y0244250D01*
D11*
X0148754Y0256006D02*
X0148754Y0286994D01*
X0212746Y0286994D01*
X0212746Y0256006D01*
X0250754Y0256006D02*
X0250754Y0286994D01*
X0314746Y0286994D01*
X0314746Y0256006D01*
X0314746Y0194994D02*
X0314746Y0191506D01*
X0250754Y0191506D01*
X0250754Y0194994D01*
X0250754Y0156494D02*
X0250754Y0125506D01*
X0250754Y0156494D02*
X0314746Y0156494D01*
X0314746Y0125506D01*
X0314746Y0064494D02*
X0314746Y0061006D01*
X0250754Y0061006D01*
X0250754Y0064494D01*
X0212746Y0064494D02*
X0212746Y0061006D01*
X0148754Y0061006D01*
X0148754Y0064494D01*
X0110746Y0064494D02*
X0110746Y0061006D01*
X0046754Y0061006D01*
X0046754Y0064494D01*
X0046754Y0125506D02*
X0046754Y0156494D01*
X0110746Y0156494D01*
X0110746Y0125506D01*
X0148754Y0125506D02*
X0148754Y0156494D01*
X0212746Y0156494D01*
X0212746Y0125506D01*
X0212746Y0191506D02*
X0148754Y0191506D01*
X0148754Y0194994D01*
X0110746Y0194994D02*
X0110746Y0191506D01*
X0046754Y0191506D01*
X0046754Y0194994D01*
X0046754Y0256006D02*
X0046754Y0286994D01*
X0110746Y0286994D01*
X0110746Y0256006D01*
X0110746Y0322006D02*
X0110746Y0325494D01*
X0110746Y0322006D02*
X0046754Y0322006D01*
X0046754Y0325494D01*
X0046754Y0386506D02*
X0046754Y0417494D01*
X0110746Y0417494D01*
X0110746Y0386506D01*
X0148754Y0386506D02*
X0148754Y0417494D01*
X0212746Y0417494D01*
X0212746Y0386506D01*
X0250754Y0386506D02*
X0250754Y0417494D01*
X0314746Y0417494D01*
X0314746Y0386506D01*
X0314746Y0325494D02*
X0314746Y0322006D01*
X0250754Y0322006D01*
X0250754Y0325494D01*
X0212746Y0325494D02*
X0212746Y0322006D01*
X0148754Y0322006D01*
X0148754Y0325494D01*
X0212746Y0194994D02*
X0212746Y0191506D01*
D12*
X0222230Y0142506D03*
X0222230Y0136994D03*
X0120230Y0136994D03*
X0120230Y0142506D03*
X0120230Y0267494D03*
X0120230Y0273006D03*
X0222230Y0273006D03*
X0222230Y0267494D03*
X0324230Y0267494D03*
X0324230Y0273006D03*
X0324230Y0397994D03*
X0324230Y0403506D03*
X0222230Y0403506D03*
X0222230Y0397994D03*
X0120230Y0397994D03*
X0120230Y0403506D03*
X0324230Y0142506D03*
X0324230Y0136994D03*
D13*
X0324230Y0137132D03*
X0324230Y0142368D03*
X0222230Y0142368D03*
X0222230Y0137132D03*
X0120230Y0137132D03*
X0120230Y0142368D03*
X0120230Y0267632D03*
X0120230Y0272868D03*
X0222230Y0272868D03*
X0222230Y0267632D03*
X0324230Y0267632D03*
X0324230Y0272868D03*
X0324230Y0398132D03*
X0324230Y0403368D03*
X0222230Y0403368D03*
X0222230Y0398132D03*
X0120230Y0398132D03*
X0120230Y0403368D03*
D14*
X0120230Y0403230D03*
X0120230Y0398270D03*
X0222230Y0398270D03*
X0222230Y0403230D03*
X0324230Y0403230D03*
X0324230Y0398270D03*
X0324230Y0272730D03*
X0324230Y0267770D03*
X0222230Y0267770D03*
X0222230Y0272730D03*
X0120230Y0272730D03*
X0120230Y0267770D03*
X0120230Y0142230D03*
X0120230Y0137270D03*
X0222230Y0137270D03*
X0222230Y0142230D03*
X0324230Y0142230D03*
X0324230Y0137270D03*
D15*
X0324230Y0137407D03*
X0324230Y0142093D03*
X0222230Y0142093D03*
X0222230Y0137407D03*
X0120230Y0137407D03*
X0120230Y0142093D03*
X0120230Y0267907D03*
X0120230Y0272593D03*
X0222230Y0272593D03*
X0222230Y0267907D03*
X0324230Y0267907D03*
X0324230Y0272593D03*
X0324230Y0398407D03*
X0324230Y0403093D03*
X0222230Y0403093D03*
X0222230Y0398407D03*
X0120230Y0398407D03*
X0120230Y0403093D03*
D16*
X0120230Y0402955D03*
X0120230Y0398545D03*
X0222230Y0398545D03*
X0222230Y0402955D03*
X0324230Y0402955D03*
X0324230Y0398545D03*
X0324230Y0272455D03*
X0324230Y0268045D03*
X0222230Y0268045D03*
X0222230Y0272455D03*
X0120230Y0272455D03*
X0120230Y0268045D03*
X0120230Y0141955D03*
X0120230Y0137545D03*
X0222230Y0137545D03*
X0222230Y0141955D03*
X0324230Y0141955D03*
X0324230Y0137545D03*
D17*
X0324230Y0137683D03*
X0324230Y0141817D03*
X0222230Y0141817D03*
X0222230Y0137683D03*
X0120230Y0137683D03*
X0120230Y0141817D03*
X0120230Y0268183D03*
X0120230Y0272317D03*
X0222230Y0272317D03*
X0222230Y0268183D03*
X0324230Y0268183D03*
X0324230Y0272317D03*
X0324230Y0398683D03*
X0324230Y0402817D03*
X0222230Y0402817D03*
X0222230Y0398683D03*
X0120230Y0398683D03*
X0120230Y0402817D03*
D18*
X0120230Y0402679D03*
X0120230Y0398821D03*
X0222230Y0398821D03*
X0222230Y0402679D03*
X0324230Y0402679D03*
X0324230Y0398821D03*
X0324230Y0272179D03*
X0324230Y0268321D03*
X0222230Y0268321D03*
X0222230Y0272179D03*
X0120230Y0272179D03*
X0120230Y0268321D03*
X0120230Y0141679D03*
X0120230Y0137821D03*
X0222230Y0137821D03*
X0222230Y0141679D03*
X0324230Y0141679D03*
X0324230Y0137821D03*
D19*
X0329270Y0141541D03*
X0227270Y0141541D03*
X0125270Y0141541D03*
X0125270Y0272041D03*
X0227270Y0272041D03*
X0329270Y0272041D03*
X0329270Y0402541D03*
X0227270Y0402541D03*
X0125270Y0402541D03*
D20*
X0118222Y0402541D03*
X0220222Y0402541D03*
X0322222Y0402541D03*
X0322222Y0272041D03*
X0220222Y0272041D03*
X0118222Y0272041D03*
X0118222Y0141541D03*
X0220222Y0141541D03*
X0322222Y0141541D03*
D21*
X0318778Y0141128D03*
X0318502Y0139474D03*
X0329526Y0141404D03*
X0329959Y0140301D03*
X0329959Y0140026D03*
X0227959Y0140026D03*
X0227959Y0140301D03*
X0227526Y0141404D03*
X0216778Y0141128D03*
X0216502Y0139474D03*
X0125959Y0140026D03*
X0125959Y0140301D03*
X0125526Y0141404D03*
X0114778Y0141128D03*
X0114502Y0139474D03*
X0114502Y0269974D03*
X0114778Y0271628D03*
X0125526Y0271904D03*
X0125959Y0270801D03*
X0125959Y0270526D03*
X0216502Y0269974D03*
X0216778Y0271628D03*
X0227526Y0271904D03*
X0227959Y0270801D03*
X0227959Y0270526D03*
X0318502Y0269974D03*
X0318778Y0271628D03*
X0329526Y0271904D03*
X0329959Y0270801D03*
X0329959Y0270526D03*
X0318502Y0400474D03*
X0318778Y0402128D03*
X0329526Y0402404D03*
X0329959Y0401301D03*
X0329959Y0401026D03*
X0227959Y0401026D03*
X0227959Y0401301D03*
X0227526Y0402404D03*
X0216778Y0402128D03*
X0216502Y0400474D03*
X0125959Y0401026D03*
X0125959Y0401301D03*
X0125526Y0402404D03*
X0114778Y0402128D03*
X0114502Y0400474D03*
D22*
X0122022Y0402404D03*
X0224022Y0402404D03*
X0326022Y0402404D03*
X0326022Y0271904D03*
X0224022Y0271904D03*
X0122022Y0271904D03*
X0122022Y0141404D03*
X0224022Y0141404D03*
X0326022Y0141404D03*
D23*
X0323758Y0141404D03*
X0221758Y0141404D03*
X0119758Y0141404D03*
X0119758Y0271904D03*
X0221758Y0271904D03*
X0323758Y0271904D03*
X0323758Y0402404D03*
X0221758Y0402404D03*
X0119758Y0402404D03*
D24*
X0115073Y0402404D03*
X0114640Y0400199D03*
X0216640Y0400199D03*
X0217073Y0402404D03*
X0318640Y0400199D03*
X0319073Y0402404D03*
X0319073Y0271904D03*
X0318640Y0269699D03*
X0217073Y0271904D03*
X0216640Y0269699D03*
X0115073Y0271904D03*
X0114640Y0269699D03*
X0115073Y0141404D03*
X0114640Y0139199D03*
X0216640Y0139199D03*
X0217073Y0141404D03*
X0318640Y0139199D03*
X0319073Y0141404D03*
D25*
X0318581Y0140715D03*
X0329604Y0141266D03*
X0329880Y0140715D03*
X0227880Y0140715D03*
X0227604Y0141266D03*
X0216581Y0140715D03*
X0125880Y0140715D03*
X0125604Y0141266D03*
X0114581Y0140715D03*
X0114581Y0271215D03*
X0125604Y0271766D03*
X0125880Y0271215D03*
X0216581Y0271215D03*
X0227604Y0271766D03*
X0227880Y0271215D03*
X0318581Y0271215D03*
X0329604Y0271766D03*
X0329880Y0271215D03*
X0329880Y0401715D03*
X0329604Y0402266D03*
X0318581Y0401715D03*
X0227880Y0401715D03*
X0227604Y0402266D03*
X0216581Y0401715D03*
X0125880Y0401715D03*
X0125604Y0402266D03*
X0114581Y0401715D03*
D26*
X0121943Y0401715D03*
X0121943Y0402266D03*
X0121943Y0400888D03*
X0223943Y0400888D03*
X0223943Y0401715D03*
X0223943Y0402266D03*
X0325943Y0402266D03*
X0325943Y0401715D03*
X0325943Y0400888D03*
X0325943Y0271766D03*
X0325943Y0271215D03*
X0325943Y0270388D03*
X0223943Y0270388D03*
X0223943Y0271215D03*
X0223943Y0271766D03*
X0121943Y0271766D03*
X0121943Y0271215D03*
X0121943Y0270388D03*
X0121943Y0141266D03*
X0121943Y0140715D03*
X0121943Y0139888D03*
X0223943Y0139888D03*
X0223943Y0140715D03*
X0223943Y0141266D03*
X0325943Y0141266D03*
X0325943Y0140715D03*
X0325943Y0139888D03*
D27*
X0323679Y0139888D03*
X0323679Y0140163D03*
X0323679Y0140439D03*
X0323679Y0140715D03*
X0323679Y0140990D03*
X0323679Y0141266D03*
X0323679Y0139612D03*
X0323679Y0139337D03*
X0323679Y0139061D03*
X0323679Y0138785D03*
X0221679Y0138785D03*
X0221679Y0139061D03*
X0221679Y0139337D03*
X0221679Y0139612D03*
X0221679Y0139888D03*
X0221679Y0140163D03*
X0221679Y0140439D03*
X0221679Y0140715D03*
X0221679Y0140990D03*
X0221679Y0141266D03*
X0119679Y0141266D03*
X0119679Y0140990D03*
X0119679Y0140715D03*
X0119679Y0140439D03*
X0119679Y0140163D03*
X0119679Y0139888D03*
X0119679Y0139612D03*
X0119679Y0139337D03*
X0119679Y0139061D03*
X0119679Y0138785D03*
X0119679Y0269285D03*
X0119679Y0269561D03*
X0119679Y0269837D03*
X0119679Y0270112D03*
X0119679Y0270388D03*
X0119679Y0270663D03*
X0119679Y0270939D03*
X0119679Y0271215D03*
X0119679Y0271490D03*
X0119679Y0271766D03*
X0221679Y0271766D03*
X0221679Y0271490D03*
X0221679Y0271215D03*
X0221679Y0270939D03*
X0221679Y0270663D03*
X0221679Y0270388D03*
X0221679Y0270112D03*
X0221679Y0269837D03*
X0221679Y0269561D03*
X0221679Y0269285D03*
X0323679Y0269285D03*
X0323679Y0269561D03*
X0323679Y0269837D03*
X0323679Y0270112D03*
X0323679Y0270388D03*
X0323679Y0270663D03*
X0323679Y0270939D03*
X0323679Y0271215D03*
X0323679Y0271490D03*
X0323679Y0271766D03*
X0323679Y0399785D03*
X0323679Y0400061D03*
X0323679Y0400337D03*
X0323679Y0400612D03*
X0323679Y0400888D03*
X0323679Y0401163D03*
X0323679Y0401439D03*
X0323679Y0401715D03*
X0323679Y0401990D03*
X0323679Y0402266D03*
X0221679Y0402266D03*
X0221679Y0401990D03*
X0221679Y0401715D03*
X0221679Y0401439D03*
X0221679Y0401163D03*
X0221679Y0400888D03*
X0221679Y0400612D03*
X0221679Y0400337D03*
X0221679Y0400061D03*
X0221679Y0399785D03*
X0119679Y0399785D03*
X0119679Y0400061D03*
X0119679Y0400337D03*
X0119679Y0400612D03*
X0119679Y0400888D03*
X0119679Y0401163D03*
X0119679Y0401439D03*
X0119679Y0401715D03*
X0119679Y0401990D03*
X0119679Y0402266D03*
D28*
X0114935Y0402266D03*
X0114502Y0400612D03*
X0125407Y0398959D03*
X0125959Y0401163D03*
X0216502Y0400612D03*
X0216935Y0402266D03*
X0227407Y0398959D03*
X0227959Y0401163D03*
X0318502Y0400612D03*
X0318935Y0402266D03*
X0329407Y0398959D03*
X0329959Y0401163D03*
X0318935Y0271766D03*
X0318502Y0270112D03*
X0329407Y0268459D03*
X0329959Y0270663D03*
X0227959Y0270663D03*
X0227407Y0268459D03*
X0216935Y0271766D03*
X0216502Y0270112D03*
X0125959Y0270663D03*
X0125407Y0268459D03*
X0114935Y0271766D03*
X0114502Y0270112D03*
X0114935Y0141266D03*
X0114502Y0139612D03*
X0125407Y0137959D03*
X0125959Y0140163D03*
X0216502Y0139612D03*
X0216935Y0141266D03*
X0227407Y0137959D03*
X0227959Y0140163D03*
X0318502Y0139612D03*
X0318935Y0141266D03*
X0329407Y0137959D03*
X0329959Y0140163D03*
D29*
X0329742Y0141128D03*
X0318443Y0140301D03*
X0318443Y0140026D03*
X0318443Y0139750D03*
X0227742Y0141128D03*
X0216443Y0140301D03*
X0216443Y0140026D03*
X0216443Y0139750D03*
X0125742Y0141128D03*
X0114443Y0140301D03*
X0114443Y0140026D03*
X0114443Y0139750D03*
X0114443Y0270250D03*
X0114443Y0270526D03*
X0114443Y0270801D03*
X0125742Y0271628D03*
X0216443Y0270801D03*
X0216443Y0270526D03*
X0216443Y0270250D03*
X0227742Y0271628D03*
X0318443Y0270801D03*
X0318443Y0270526D03*
X0318443Y0270250D03*
X0329742Y0271628D03*
X0318443Y0400750D03*
X0318443Y0401026D03*
X0318443Y0401301D03*
X0329742Y0402128D03*
X0227742Y0402128D03*
X0216443Y0401301D03*
X0216443Y0401026D03*
X0216443Y0400750D03*
X0125742Y0402128D03*
X0114443Y0401301D03*
X0114443Y0401026D03*
X0114443Y0400750D03*
D30*
X0121884Y0400750D03*
X0121884Y0401852D03*
X0121884Y0402128D03*
X0223884Y0402128D03*
X0223884Y0401852D03*
X0223884Y0400750D03*
X0325884Y0400750D03*
X0325884Y0401852D03*
X0325884Y0402128D03*
X0325884Y0271628D03*
X0325884Y0271352D03*
X0325884Y0270250D03*
X0223884Y0270250D03*
X0223884Y0271352D03*
X0223884Y0271628D03*
X0121884Y0271628D03*
X0121884Y0271352D03*
X0121884Y0270250D03*
X0121884Y0141128D03*
X0121884Y0140852D03*
X0121884Y0139750D03*
X0223884Y0139750D03*
X0223884Y0140852D03*
X0223884Y0141128D03*
X0325884Y0141128D03*
X0325884Y0140852D03*
X0325884Y0139750D03*
D31*
X0323679Y0139750D03*
X0323679Y0139474D03*
X0323679Y0139199D03*
X0323679Y0138923D03*
X0323679Y0138648D03*
X0323679Y0140026D03*
X0323679Y0140301D03*
X0323679Y0140577D03*
X0323679Y0140852D03*
X0323679Y0141128D03*
X0221679Y0141128D03*
X0221679Y0140852D03*
X0221679Y0140577D03*
X0221679Y0140301D03*
X0221679Y0140026D03*
X0221679Y0139750D03*
X0221679Y0139474D03*
X0221679Y0139199D03*
X0221679Y0138923D03*
X0221679Y0138648D03*
X0119679Y0138648D03*
X0119679Y0138923D03*
X0119679Y0139199D03*
X0119679Y0139474D03*
X0119679Y0139750D03*
X0119679Y0140026D03*
X0119679Y0140301D03*
X0119679Y0140577D03*
X0119679Y0140852D03*
X0119679Y0141128D03*
X0119679Y0269148D03*
X0119679Y0269423D03*
X0119679Y0269699D03*
X0119679Y0269974D03*
X0119679Y0270250D03*
X0119679Y0270526D03*
X0119679Y0270801D03*
X0119679Y0271077D03*
X0119679Y0271352D03*
X0119679Y0271628D03*
X0221679Y0271628D03*
X0221679Y0271352D03*
X0221679Y0271077D03*
X0221679Y0270801D03*
X0221679Y0270526D03*
X0221679Y0270250D03*
X0221679Y0269974D03*
X0221679Y0269699D03*
X0221679Y0269423D03*
X0221679Y0269148D03*
X0323679Y0269148D03*
X0323679Y0269423D03*
X0323679Y0269699D03*
X0323679Y0269974D03*
X0323679Y0270250D03*
X0323679Y0270526D03*
X0323679Y0270801D03*
X0323679Y0271077D03*
X0323679Y0271352D03*
X0323679Y0271628D03*
X0323679Y0399648D03*
X0323679Y0399923D03*
X0323679Y0400199D03*
X0323679Y0400474D03*
X0323679Y0400750D03*
X0323679Y0401026D03*
X0323679Y0401301D03*
X0323679Y0401577D03*
X0323679Y0401852D03*
X0323679Y0402128D03*
X0221679Y0402128D03*
X0221679Y0401852D03*
X0221679Y0401577D03*
X0221679Y0401301D03*
X0221679Y0401026D03*
X0221679Y0400750D03*
X0221679Y0400474D03*
X0221679Y0400199D03*
X0221679Y0399923D03*
X0221679Y0399648D03*
X0119679Y0399648D03*
X0119679Y0399923D03*
X0119679Y0400199D03*
X0119679Y0400474D03*
X0119679Y0400750D03*
X0119679Y0401026D03*
X0119679Y0401301D03*
X0119679Y0401577D03*
X0119679Y0401852D03*
X0119679Y0402128D03*
D32*
X0125821Y0401990D03*
X0125939Y0399785D03*
X0125663Y0399234D03*
X0227663Y0399234D03*
X0227939Y0399785D03*
X0227821Y0401990D03*
X0329663Y0399234D03*
X0329939Y0399785D03*
X0329821Y0401990D03*
X0329821Y0271490D03*
X0329939Y0269285D03*
X0329663Y0268734D03*
X0227939Y0269285D03*
X0227663Y0268734D03*
X0227821Y0271490D03*
X0125939Y0269285D03*
X0125663Y0268734D03*
X0125821Y0271490D03*
X0125821Y0140990D03*
X0125939Y0138785D03*
X0125663Y0138234D03*
X0227663Y0138234D03*
X0227939Y0138785D03*
X0227821Y0140990D03*
X0329663Y0138234D03*
X0329939Y0138785D03*
X0329821Y0140990D03*
D33*
X0327262Y0138785D03*
X0325884Y0138234D03*
X0325884Y0140990D03*
X0322852Y0137959D03*
X0225262Y0138785D03*
X0223884Y0138234D03*
X0223884Y0140990D03*
X0220852Y0137959D03*
X0123262Y0138785D03*
X0121884Y0138234D03*
X0121884Y0140990D03*
X0118852Y0137959D03*
X0118852Y0268459D03*
X0121884Y0268734D03*
X0123262Y0269285D03*
X0121884Y0271490D03*
X0220852Y0268459D03*
X0223884Y0268734D03*
X0225262Y0269285D03*
X0223884Y0271490D03*
X0322852Y0268459D03*
X0325884Y0268734D03*
X0327262Y0269285D03*
X0325884Y0271490D03*
X0322852Y0398959D03*
X0325884Y0399234D03*
X0327262Y0399785D03*
X0325884Y0401990D03*
X0225262Y0399785D03*
X0223884Y0399234D03*
X0223884Y0401990D03*
X0220852Y0398959D03*
X0123262Y0399785D03*
X0121884Y0399234D03*
X0121884Y0401990D03*
X0118852Y0398959D03*
D34*
X0114443Y0400888D03*
X0114443Y0401163D03*
X0114443Y0401439D03*
X0114719Y0401990D03*
X0126018Y0401439D03*
X0216443Y0401439D03*
X0216443Y0401163D03*
X0216443Y0400888D03*
X0216719Y0401990D03*
X0228018Y0401439D03*
X0318443Y0401439D03*
X0318443Y0401163D03*
X0318443Y0400888D03*
X0318719Y0401990D03*
X0330018Y0401439D03*
X0318719Y0271490D03*
X0318443Y0270939D03*
X0318443Y0270663D03*
X0318443Y0270388D03*
X0330018Y0270939D03*
X0228018Y0270939D03*
X0216719Y0271490D03*
X0216443Y0270939D03*
X0216443Y0270663D03*
X0216443Y0270388D03*
X0126018Y0270939D03*
X0114719Y0271490D03*
X0114443Y0270939D03*
X0114443Y0270663D03*
X0114443Y0270388D03*
X0114719Y0140990D03*
X0114443Y0140439D03*
X0114443Y0140163D03*
X0114443Y0139888D03*
X0126018Y0140439D03*
X0216443Y0140439D03*
X0216443Y0140163D03*
X0216443Y0139888D03*
X0216719Y0140990D03*
X0228018Y0140439D03*
X0318443Y0140439D03*
X0318443Y0140163D03*
X0318443Y0139888D03*
X0318719Y0140990D03*
X0330018Y0140439D03*
D35*
X0329880Y0140852D03*
X0329880Y0138923D03*
X0329604Y0138096D03*
X0318581Y0140852D03*
X0227880Y0140852D03*
X0227880Y0138923D03*
X0227604Y0138096D03*
X0216581Y0140852D03*
X0125880Y0140852D03*
X0125880Y0138923D03*
X0125604Y0138096D03*
X0114581Y0140852D03*
X0125604Y0268596D03*
X0125880Y0269423D03*
X0125880Y0271352D03*
X0114581Y0271352D03*
X0216581Y0271352D03*
X0227880Y0271352D03*
X0227880Y0269423D03*
X0227604Y0268596D03*
X0318581Y0271352D03*
X0329880Y0271352D03*
X0329880Y0269423D03*
X0329604Y0268596D03*
X0329604Y0399096D03*
X0329880Y0399923D03*
X0329880Y0401852D03*
X0318581Y0401852D03*
X0227880Y0401852D03*
X0227880Y0399923D03*
X0227604Y0399096D03*
X0216581Y0401852D03*
X0125880Y0401852D03*
X0125880Y0399923D03*
X0125604Y0399096D03*
X0114581Y0401852D03*
D36*
X0118852Y0399510D03*
X0118852Y0399234D03*
X0123262Y0401715D03*
X0220852Y0399510D03*
X0220852Y0399234D03*
X0225262Y0401715D03*
X0322852Y0399510D03*
X0322852Y0399234D03*
X0327262Y0401715D03*
X0327262Y0271215D03*
X0322852Y0269010D03*
X0322852Y0268734D03*
X0225262Y0271215D03*
X0220852Y0269010D03*
X0220852Y0268734D03*
X0123262Y0271215D03*
X0118852Y0269010D03*
X0118852Y0268734D03*
X0123262Y0140715D03*
X0118852Y0138510D03*
X0118852Y0138234D03*
X0220852Y0138234D03*
X0220852Y0138510D03*
X0225262Y0140715D03*
X0322852Y0138510D03*
X0322852Y0138234D03*
X0327262Y0140715D03*
D37*
X0329939Y0140577D03*
X0329939Y0138648D03*
X0329821Y0138372D03*
X0318522Y0140577D03*
X0227939Y0140577D03*
X0227939Y0138648D03*
X0227821Y0138372D03*
X0216522Y0140577D03*
X0125939Y0140577D03*
X0125939Y0138648D03*
X0125821Y0138372D03*
X0114522Y0140577D03*
X0125821Y0268872D03*
X0125939Y0269148D03*
X0125939Y0271077D03*
X0114522Y0271077D03*
X0216522Y0271077D03*
X0227939Y0271077D03*
X0227939Y0269148D03*
X0227821Y0268872D03*
X0318522Y0271077D03*
X0329939Y0271077D03*
X0329939Y0269148D03*
X0329821Y0268872D03*
X0329821Y0399372D03*
X0329939Y0399648D03*
X0329939Y0401577D03*
X0318522Y0401577D03*
X0227939Y0401577D03*
X0227939Y0399648D03*
X0227821Y0399372D03*
X0216522Y0401577D03*
X0125939Y0401577D03*
X0125939Y0399648D03*
X0125821Y0399372D03*
X0114522Y0401577D03*
D38*
X0117415Y0401577D03*
X0121943Y0401577D03*
X0123203Y0401577D03*
X0121943Y0399096D03*
X0219415Y0401577D03*
X0223943Y0401577D03*
X0225203Y0401577D03*
X0223943Y0399096D03*
X0321415Y0401577D03*
X0325943Y0401577D03*
X0327203Y0401577D03*
X0325943Y0399096D03*
X0325943Y0271077D03*
X0327203Y0271077D03*
X0325943Y0268596D03*
X0321415Y0271077D03*
X0225203Y0271077D03*
X0223943Y0271077D03*
X0223943Y0268596D03*
X0219415Y0271077D03*
X0123203Y0271077D03*
X0121943Y0271077D03*
X0121943Y0268596D03*
X0117415Y0271077D03*
X0117415Y0140577D03*
X0121943Y0140577D03*
X0123203Y0140577D03*
X0121943Y0138096D03*
X0219415Y0140577D03*
X0223943Y0140577D03*
X0225203Y0140577D03*
X0223943Y0138096D03*
X0321415Y0140577D03*
X0325943Y0140577D03*
X0327203Y0140577D03*
X0325943Y0138096D03*
D39*
X0326573Y0140439D03*
X0224573Y0140439D03*
X0122573Y0140439D03*
X0122573Y0270939D03*
X0224573Y0270939D03*
X0326573Y0270939D03*
X0326573Y0401439D03*
X0224573Y0401439D03*
X0122573Y0401439D03*
D40*
X0123341Y0400061D03*
X0122081Y0398959D03*
X0117278Y0401163D03*
X0117278Y0401439D03*
X0219278Y0401439D03*
X0219278Y0401163D03*
X0224081Y0398959D03*
X0225341Y0400061D03*
X0321278Y0401163D03*
X0321278Y0401439D03*
X0326081Y0398959D03*
X0327341Y0400061D03*
X0321278Y0270939D03*
X0321278Y0270663D03*
X0326081Y0268459D03*
X0327341Y0269561D03*
X0225341Y0269561D03*
X0224081Y0268459D03*
X0219278Y0270663D03*
X0219278Y0270939D03*
X0123341Y0269561D03*
X0122081Y0268459D03*
X0117278Y0270663D03*
X0117278Y0270939D03*
X0117278Y0140439D03*
X0117278Y0140163D03*
X0122081Y0137959D03*
X0123341Y0139061D03*
X0219278Y0140163D03*
X0219278Y0140439D03*
X0224081Y0137959D03*
X0225341Y0139061D03*
X0321278Y0140163D03*
X0321278Y0140439D03*
X0326081Y0137959D03*
X0327341Y0139061D03*
D41*
X0326573Y0140301D03*
X0224573Y0140301D03*
X0122573Y0140301D03*
X0122573Y0270801D03*
X0224573Y0270801D03*
X0326573Y0270801D03*
X0326573Y0401301D03*
X0224573Y0401301D03*
X0122573Y0401301D03*
D42*
X0117278Y0401301D03*
X0117278Y0401026D03*
X0219278Y0401026D03*
X0219278Y0401301D03*
X0321278Y0401301D03*
X0321278Y0401026D03*
X0321278Y0270801D03*
X0321278Y0270526D03*
X0219278Y0270526D03*
X0219278Y0270801D03*
X0117278Y0270801D03*
X0117278Y0270526D03*
X0117278Y0140301D03*
X0117278Y0140026D03*
X0219278Y0140026D03*
X0219278Y0140301D03*
X0321278Y0140301D03*
X0321278Y0140026D03*
D43*
X0326435Y0140163D03*
X0224435Y0140163D03*
X0122435Y0140163D03*
X0122435Y0270663D03*
X0224435Y0270663D03*
X0326435Y0270663D03*
X0326435Y0401163D03*
X0224435Y0401163D03*
X0122435Y0401163D03*
D44*
X0122159Y0401026D03*
X0224159Y0401026D03*
X0326159Y0401026D03*
X0326159Y0270526D03*
X0224159Y0270526D03*
X0122159Y0270526D03*
X0122159Y0140026D03*
X0224159Y0140026D03*
X0326159Y0140026D03*
D45*
X0329880Y0139888D03*
X0329880Y0139061D03*
X0318581Y0139337D03*
X0227880Y0139061D03*
X0227880Y0139888D03*
X0216581Y0139337D03*
X0125880Y0139061D03*
X0125880Y0139888D03*
X0114581Y0139337D03*
X0114581Y0269837D03*
X0125880Y0269561D03*
X0125880Y0270388D03*
X0216581Y0269837D03*
X0227880Y0269561D03*
X0227880Y0270388D03*
X0318581Y0269837D03*
X0329880Y0269561D03*
X0329880Y0270388D03*
X0329880Y0400061D03*
X0329880Y0400888D03*
X0318581Y0400337D03*
X0227880Y0400061D03*
X0227880Y0400888D03*
X0216581Y0400337D03*
X0125880Y0400061D03*
X0125880Y0400888D03*
X0114581Y0400337D03*
D46*
X0117337Y0400888D03*
X0219337Y0400888D03*
X0321337Y0400888D03*
X0321337Y0270388D03*
X0219337Y0270388D03*
X0117337Y0270388D03*
X0117337Y0139888D03*
X0219337Y0139888D03*
X0321337Y0139888D03*
D47*
X0329880Y0139750D03*
X0227880Y0139750D03*
X0125880Y0139750D03*
X0125880Y0270250D03*
X0227880Y0270250D03*
X0329880Y0270250D03*
X0329880Y0400750D03*
X0227880Y0400750D03*
X0125880Y0400750D03*
D48*
X0125742Y0400612D03*
X0227742Y0400612D03*
X0329742Y0400612D03*
X0329742Y0270112D03*
X0227742Y0270112D03*
X0125742Y0270112D03*
X0125742Y0139612D03*
X0227742Y0139612D03*
X0329742Y0139612D03*
D49*
X0325805Y0139612D03*
X0325805Y0138510D03*
X0223805Y0138510D03*
X0223805Y0139612D03*
X0121805Y0139612D03*
X0121805Y0138510D03*
X0121805Y0269010D03*
X0121805Y0270112D03*
X0223805Y0270112D03*
X0223805Y0269010D03*
X0325805Y0269010D03*
X0325805Y0270112D03*
X0325805Y0399510D03*
X0325805Y0400612D03*
X0223805Y0400612D03*
X0223805Y0399510D03*
X0121805Y0399510D03*
X0121805Y0400612D03*
D50*
X0125604Y0400474D03*
X0227604Y0400474D03*
X0329604Y0400474D03*
X0329604Y0269974D03*
X0227604Y0269974D03*
X0125604Y0269974D03*
X0125604Y0139474D03*
X0227604Y0139474D03*
X0329604Y0139474D03*
D51*
X0325805Y0139474D03*
X0325805Y0138372D03*
X0223805Y0138372D03*
X0223805Y0139474D03*
X0121805Y0139474D03*
X0121805Y0138372D03*
X0121805Y0268872D03*
X0121805Y0269974D03*
X0223805Y0269974D03*
X0223805Y0268872D03*
X0325805Y0268872D03*
X0325805Y0269974D03*
X0325805Y0399372D03*
X0325805Y0400474D03*
X0223805Y0400474D03*
X0223805Y0399372D03*
X0121805Y0399372D03*
X0121805Y0400474D03*
D52*
X0125329Y0400337D03*
X0227329Y0400337D03*
X0329329Y0400337D03*
X0329329Y0269837D03*
X0227329Y0269837D03*
X0125329Y0269837D03*
X0125329Y0139337D03*
X0227329Y0139337D03*
X0329329Y0139337D03*
D53*
X0325746Y0139337D03*
X0325746Y0139061D03*
X0325746Y0138785D03*
X0223746Y0138785D03*
X0223746Y0139061D03*
X0223746Y0139337D03*
X0121746Y0139337D03*
X0121746Y0139061D03*
X0121746Y0138785D03*
X0121746Y0269285D03*
X0121746Y0269561D03*
X0121746Y0269837D03*
X0223746Y0269837D03*
X0223746Y0269561D03*
X0223746Y0269285D03*
X0325746Y0269285D03*
X0325746Y0269561D03*
X0325746Y0269837D03*
X0325746Y0399785D03*
X0325746Y0400061D03*
X0325746Y0400337D03*
X0223746Y0400337D03*
X0223746Y0400061D03*
X0223746Y0399785D03*
X0121746Y0399785D03*
X0121746Y0400061D03*
X0121746Y0400337D03*
D54*
X0125191Y0400199D03*
X0115545Y0399372D03*
X0217545Y0399372D03*
X0227191Y0400199D03*
X0319545Y0399372D03*
X0329191Y0400199D03*
X0329191Y0269699D03*
X0319545Y0268872D03*
X0227191Y0269699D03*
X0217545Y0268872D03*
X0125191Y0269699D03*
X0115545Y0268872D03*
X0125191Y0139199D03*
X0115545Y0138372D03*
X0217545Y0138372D03*
X0227191Y0139199D03*
X0319545Y0138372D03*
X0329191Y0139199D03*
D55*
X0325746Y0139199D03*
X0325746Y0138923D03*
X0325746Y0138648D03*
X0223746Y0138648D03*
X0223746Y0138923D03*
X0223746Y0139199D03*
X0121746Y0139199D03*
X0121746Y0138923D03*
X0121746Y0138648D03*
X0121746Y0269148D03*
X0121746Y0269423D03*
X0121746Y0269699D03*
X0223746Y0269699D03*
X0223746Y0269423D03*
X0223746Y0269148D03*
X0325746Y0269148D03*
X0325746Y0269423D03*
X0325746Y0269699D03*
X0325746Y0399648D03*
X0325746Y0399923D03*
X0325746Y0400199D03*
X0223746Y0400199D03*
X0223746Y0399923D03*
X0223746Y0399648D03*
X0121746Y0399648D03*
X0121746Y0399923D03*
X0121746Y0400199D03*
D56*
X0114778Y0400061D03*
X0216778Y0400061D03*
X0318778Y0400061D03*
X0318778Y0269561D03*
X0216778Y0269561D03*
X0114778Y0269561D03*
X0114778Y0139061D03*
X0216778Y0139061D03*
X0318778Y0139061D03*
D57*
X0327262Y0138923D03*
X0225262Y0138923D03*
X0123262Y0138923D03*
X0123262Y0269423D03*
X0225262Y0269423D03*
X0327262Y0269423D03*
X0327262Y0399923D03*
X0225262Y0399923D03*
X0123262Y0399923D03*
D58*
X0115073Y0399923D03*
X0217073Y0399923D03*
X0319073Y0399923D03*
X0319073Y0269423D03*
X0217073Y0269423D03*
X0115073Y0269423D03*
X0115073Y0138923D03*
X0217073Y0138923D03*
X0319073Y0138923D03*
D59*
X0319486Y0138785D03*
X0217486Y0138785D03*
X0115486Y0138785D03*
X0115486Y0269285D03*
X0217486Y0269285D03*
X0319486Y0269285D03*
X0319486Y0399785D03*
X0217486Y0399785D03*
X0115486Y0399785D03*
D60*
X0115486Y0399648D03*
X0217486Y0399648D03*
X0319486Y0399648D03*
X0319486Y0269148D03*
X0217486Y0269148D03*
X0115486Y0269148D03*
X0115486Y0138648D03*
X0217486Y0138648D03*
X0319486Y0138648D03*
D61*
X0329880Y0138510D03*
X0227880Y0138510D03*
X0125880Y0138510D03*
X0125880Y0269010D03*
X0227880Y0269010D03*
X0329880Y0269010D03*
X0329880Y0399510D03*
X0227880Y0399510D03*
X0125880Y0399510D03*
D62*
X0115545Y0399510D03*
X0217545Y0399510D03*
X0319545Y0399510D03*
X0319545Y0269010D03*
X0217545Y0269010D03*
X0115545Y0269010D03*
X0115545Y0138510D03*
X0217545Y0138510D03*
X0319545Y0138510D03*
D63*
X0322852Y0138372D03*
X0322852Y0138096D03*
X0220852Y0138096D03*
X0220852Y0138372D03*
X0118852Y0138372D03*
X0118852Y0138096D03*
X0118852Y0268596D03*
X0118852Y0268872D03*
X0220852Y0268872D03*
X0220852Y0268596D03*
X0322852Y0268596D03*
X0322852Y0268872D03*
X0322852Y0399096D03*
X0322852Y0399372D03*
X0220852Y0399372D03*
X0220852Y0399096D03*
X0118852Y0399096D03*
X0118852Y0399372D03*
D64*
X0115742Y0398959D03*
X0115624Y0399234D03*
X0217624Y0399234D03*
X0217742Y0398959D03*
X0319624Y0399234D03*
X0319742Y0398959D03*
X0319624Y0268734D03*
X0319742Y0268459D03*
X0217742Y0268459D03*
X0217624Y0268734D03*
X0115742Y0268459D03*
X0115624Y0268734D03*
X0115624Y0138234D03*
X0115742Y0137959D03*
X0217624Y0138234D03*
X0217742Y0137959D03*
X0319624Y0138234D03*
X0319742Y0137959D03*
D65*
X0319624Y0138096D03*
X0217624Y0138096D03*
X0115624Y0138096D03*
X0115624Y0268596D03*
X0217624Y0268596D03*
X0319624Y0268596D03*
X0319624Y0399096D03*
X0217624Y0399096D03*
X0115624Y0399096D03*
D66*
X0099204Y0302757D03*
X0102511Y0296379D03*
X0105819Y0296379D03*
X0081960Y0296379D03*
X0072275Y0302757D03*
X0064480Y0297560D03*
X0055031Y0296143D03*
X0157031Y0296143D03*
X0166480Y0297560D03*
X0174275Y0302757D03*
X0183960Y0296379D03*
X0201204Y0302757D03*
X0204511Y0296379D03*
X0207819Y0296379D03*
X0259031Y0296143D03*
X0268480Y0297560D03*
X0276275Y0302757D03*
X0285960Y0296379D03*
X0303204Y0302757D03*
X0306511Y0296379D03*
X0309819Y0296379D03*
X0303204Y0172257D03*
X0306511Y0165879D03*
X0309819Y0165879D03*
X0285960Y0165879D03*
X0276275Y0172257D03*
X0268480Y0167060D03*
X0259031Y0165643D03*
X0207819Y0165879D03*
X0204511Y0165879D03*
X0201204Y0172257D03*
X0183960Y0165879D03*
X0174275Y0172257D03*
X0166480Y0167060D03*
X0157031Y0165643D03*
X0105819Y0165879D03*
X0102511Y0165879D03*
X0099204Y0172257D03*
X0081960Y0165879D03*
X0072275Y0172257D03*
X0064480Y0167060D03*
X0055031Y0165643D03*
X0072275Y0041757D03*
X0064480Y0036560D03*
X0055031Y0035143D03*
X0081960Y0035379D03*
X0099204Y0041757D03*
X0102511Y0035379D03*
X0105819Y0035379D03*
X0157031Y0035143D03*
X0166480Y0036560D03*
X0174275Y0041757D03*
X0183960Y0035379D03*
X0201204Y0041757D03*
X0204511Y0035379D03*
X0207819Y0035379D03*
X0259031Y0035143D03*
X0268480Y0036560D03*
X0276275Y0041757D03*
X0285960Y0035379D03*
X0303204Y0041757D03*
X0306511Y0035379D03*
X0309819Y0035379D03*
D67*
X0308283Y0041285D03*
X0311590Y0041285D03*
X0303086Y0039631D03*
X0303086Y0035379D03*
X0300960Y0035379D03*
X0295763Y0035379D03*
X0291511Y0035379D03*
X0289149Y0035379D03*
X0295763Y0039631D03*
X0295763Y0041757D03*
X0272378Y0039631D03*
X0270488Y0039631D03*
X0270488Y0035379D03*
X0272378Y0035379D03*
X0255842Y0035379D03*
X0255842Y0039631D03*
X0209590Y0041285D03*
X0206283Y0041285D03*
X0201086Y0039631D03*
X0201086Y0035379D03*
X0198960Y0035379D03*
X0193763Y0035379D03*
X0189511Y0035379D03*
X0187149Y0035379D03*
X0193763Y0039631D03*
X0193763Y0041757D03*
X0170378Y0039631D03*
X0168488Y0039631D03*
X0168488Y0035379D03*
X0170378Y0035379D03*
X0153842Y0035379D03*
X0153842Y0039631D03*
X0107590Y0041285D03*
X0104283Y0041285D03*
X0099086Y0039631D03*
X0099086Y0035379D03*
X0096960Y0035379D03*
X0091763Y0035379D03*
X0087511Y0035379D03*
X0085149Y0035379D03*
X0091763Y0039631D03*
X0091763Y0041757D03*
X0068378Y0039631D03*
X0066488Y0039631D03*
X0066488Y0035379D03*
X0068378Y0035379D03*
X0051842Y0035379D03*
X0051842Y0039631D03*
X0051842Y0165879D03*
X0051842Y0170131D03*
X0066488Y0170131D03*
X0068378Y0170131D03*
X0068378Y0165879D03*
X0066488Y0165879D03*
X0085149Y0165879D03*
X0087511Y0165879D03*
X0091763Y0165879D03*
X0091763Y0170131D03*
X0091763Y0172257D03*
X0099086Y0170131D03*
X0099086Y0165879D03*
X0096960Y0165879D03*
X0104283Y0171785D03*
X0107590Y0171785D03*
X0153842Y0170131D03*
X0153842Y0165879D03*
X0168488Y0165879D03*
X0170378Y0165879D03*
X0170378Y0170131D03*
X0168488Y0170131D03*
X0187149Y0165879D03*
X0189511Y0165879D03*
X0193763Y0165879D03*
X0193763Y0170131D03*
X0193763Y0172257D03*
X0198960Y0165879D03*
X0201086Y0165879D03*
X0201086Y0170131D03*
X0206283Y0171785D03*
X0209590Y0171785D03*
X0255842Y0170131D03*
X0255842Y0165879D03*
X0270488Y0165879D03*
X0272378Y0165879D03*
X0272378Y0170131D03*
X0270488Y0170131D03*
X0289149Y0165879D03*
X0291511Y0165879D03*
X0295763Y0165879D03*
X0295763Y0170131D03*
X0295763Y0172257D03*
X0303086Y0170131D03*
X0303086Y0165879D03*
X0300960Y0165879D03*
X0308283Y0171785D03*
X0311590Y0171785D03*
X0303086Y0296379D03*
X0300960Y0296379D03*
X0303086Y0300631D03*
X0308283Y0302285D03*
X0311590Y0302285D03*
X0295763Y0302757D03*
X0295763Y0300631D03*
X0295763Y0296379D03*
X0291511Y0296379D03*
X0289149Y0296379D03*
X0272378Y0296379D03*
X0270488Y0296379D03*
X0270488Y0300631D03*
X0272378Y0300631D03*
X0255842Y0300631D03*
X0255842Y0296379D03*
X0209590Y0302285D03*
X0206283Y0302285D03*
X0201086Y0300631D03*
X0201086Y0296379D03*
X0198960Y0296379D03*
X0193763Y0296379D03*
X0189511Y0296379D03*
X0187149Y0296379D03*
X0193763Y0300631D03*
X0193763Y0302757D03*
X0170378Y0300631D03*
X0168488Y0300631D03*
X0168488Y0296379D03*
X0170378Y0296379D03*
X0153842Y0296379D03*
X0153842Y0300631D03*
X0107590Y0302285D03*
X0104283Y0302285D03*
X0099086Y0300631D03*
X0099086Y0296379D03*
X0096960Y0296379D03*
X0091763Y0296379D03*
X0087511Y0296379D03*
X0085149Y0296379D03*
X0091763Y0300631D03*
X0091763Y0302757D03*
X0068378Y0300631D03*
X0066488Y0300631D03*
X0066488Y0296379D03*
X0068378Y0296379D03*
X0051842Y0296379D03*
X0051842Y0300631D03*
D68*
X0049834Y0299214D03*
X0055267Y0300867D03*
X0058574Y0299214D03*
X0059756Y0302285D03*
X0063299Y0300867D03*
X0062354Y0299450D03*
X0087393Y0302521D03*
X0099204Y0301340D03*
X0101094Y0302521D03*
X0107472Y0302521D03*
X0151834Y0299214D03*
X0157267Y0300867D03*
X0160574Y0299214D03*
X0161756Y0302285D03*
X0165299Y0300867D03*
X0164354Y0299450D03*
X0189393Y0302521D03*
X0201204Y0301340D03*
X0203094Y0302521D03*
X0209472Y0302521D03*
X0253834Y0299214D03*
X0259267Y0300867D03*
X0262574Y0299214D03*
X0263756Y0302285D03*
X0267299Y0300867D03*
X0266354Y0299450D03*
X0291393Y0302521D03*
X0303204Y0301340D03*
X0305094Y0302521D03*
X0311472Y0302521D03*
X0311472Y0172021D03*
X0305094Y0172021D03*
X0303204Y0170840D03*
X0291393Y0172021D03*
X0267299Y0170367D03*
X0266354Y0168950D03*
X0262574Y0168714D03*
X0263756Y0171785D03*
X0259267Y0170367D03*
X0253834Y0168714D03*
X0209472Y0172021D03*
X0203094Y0172021D03*
X0201204Y0170840D03*
X0189393Y0172021D03*
X0165299Y0170367D03*
X0164354Y0168950D03*
X0160574Y0168714D03*
X0161756Y0171785D03*
X0157267Y0170367D03*
X0151834Y0168714D03*
X0107472Y0172021D03*
X0101094Y0172021D03*
X0099204Y0170840D03*
X0087393Y0172021D03*
X0063299Y0170367D03*
X0062354Y0168950D03*
X0058574Y0168714D03*
X0059756Y0171785D03*
X0055267Y0170367D03*
X0049834Y0168714D03*
X0059756Y0041285D03*
X0058574Y0038214D03*
X0055267Y0039867D03*
X0049834Y0038214D03*
X0062354Y0038450D03*
X0063299Y0039867D03*
X0087393Y0041521D03*
X0099204Y0040340D03*
X0101094Y0041521D03*
X0107472Y0041521D03*
X0151834Y0038214D03*
X0157267Y0039867D03*
X0160574Y0038214D03*
X0161756Y0041285D03*
X0165299Y0039867D03*
X0164354Y0038450D03*
X0189393Y0041521D03*
X0201204Y0040340D03*
X0203094Y0041521D03*
X0209472Y0041521D03*
X0253834Y0038214D03*
X0259267Y0039867D03*
X0262574Y0038214D03*
X0263756Y0041285D03*
X0267299Y0039867D03*
X0266354Y0038450D03*
X0291393Y0041521D03*
X0303204Y0040340D03*
X0305094Y0041521D03*
X0311472Y0041521D03*
D69*
X0308283Y0041521D03*
X0268598Y0036796D03*
X0267417Y0035143D03*
X0206283Y0041521D03*
X0166598Y0036796D03*
X0165417Y0035143D03*
X0104283Y0041521D03*
X0064598Y0036796D03*
X0063417Y0035143D03*
X0063417Y0165643D03*
X0064598Y0167296D03*
X0104283Y0172021D03*
X0165417Y0165643D03*
X0166598Y0167296D03*
X0206283Y0172021D03*
X0267417Y0165643D03*
X0268598Y0167296D03*
X0308283Y0172021D03*
X0267417Y0296143D03*
X0268598Y0297796D03*
X0308283Y0302521D03*
X0206283Y0302521D03*
X0166598Y0297796D03*
X0165417Y0296143D03*
X0104283Y0302521D03*
X0064598Y0297796D03*
X0063417Y0296143D03*
D70*
X0064480Y0299450D03*
X0059756Y0297796D03*
X0059756Y0301812D03*
X0059756Y0302048D03*
X0053850Y0299214D03*
X0053850Y0298978D03*
X0050070Y0300631D03*
X0071567Y0296379D03*
X0072275Y0298033D03*
X0072275Y0298269D03*
X0072275Y0298505D03*
X0072275Y0298741D03*
X0072275Y0298978D03*
X0072275Y0299214D03*
X0072275Y0299450D03*
X0072275Y0299686D03*
X0072275Y0299922D03*
X0072275Y0300159D03*
X0072275Y0300395D03*
X0072275Y0300631D03*
X0072275Y0300867D03*
X0072275Y0301104D03*
X0072275Y0301340D03*
X0072275Y0301576D03*
X0072275Y0301812D03*
X0072275Y0302048D03*
X0072275Y0302285D03*
X0072275Y0302521D03*
X0077708Y0300867D03*
X0077708Y0300631D03*
X0077708Y0300395D03*
X0077708Y0300159D03*
X0077708Y0299922D03*
X0077708Y0299686D03*
X0077708Y0299450D03*
X0077708Y0299214D03*
X0077708Y0298978D03*
X0077708Y0298741D03*
X0077708Y0298505D03*
X0077708Y0298269D03*
X0077708Y0298033D03*
X0081960Y0296615D03*
X0085267Y0296615D03*
X0087393Y0296615D03*
X0087393Y0296852D03*
X0087393Y0297088D03*
X0087393Y0297324D03*
X0087393Y0297560D03*
X0087393Y0297796D03*
X0087393Y0298033D03*
X0087393Y0298269D03*
X0087393Y0298505D03*
X0087393Y0298741D03*
X0087393Y0298978D03*
X0087393Y0299214D03*
X0087393Y0299450D03*
X0087393Y0299686D03*
X0087393Y0299922D03*
X0087393Y0300159D03*
X0087393Y0300395D03*
X0087393Y0300631D03*
X0087393Y0300867D03*
X0087393Y0301104D03*
X0087393Y0301340D03*
X0087393Y0301576D03*
X0087393Y0301812D03*
X0087393Y0302048D03*
X0087393Y0302285D03*
X0091645Y0301576D03*
X0099204Y0301576D03*
X0099204Y0301812D03*
X0099204Y0302048D03*
X0099204Y0302285D03*
X0099204Y0302521D03*
X0100858Y0302285D03*
X0100858Y0302048D03*
X0099204Y0300395D03*
X0099204Y0300159D03*
X0099204Y0299922D03*
X0099204Y0299686D03*
X0099204Y0299450D03*
X0099204Y0299214D03*
X0099204Y0298978D03*
X0099204Y0298741D03*
X0099204Y0298505D03*
X0099204Y0298269D03*
X0099204Y0298033D03*
X0099204Y0297796D03*
X0099204Y0297560D03*
X0099204Y0297324D03*
X0099204Y0297088D03*
X0099204Y0296852D03*
X0099204Y0296615D03*
X0102511Y0296615D03*
X0102511Y0296852D03*
X0105819Y0296615D03*
X0104165Y0302048D03*
X0152070Y0300631D03*
X0155850Y0299214D03*
X0155850Y0298978D03*
X0161756Y0297796D03*
X0161756Y0301812D03*
X0161756Y0302048D03*
X0166480Y0299450D03*
X0173567Y0296379D03*
X0174275Y0298033D03*
X0174275Y0298269D03*
X0174275Y0298505D03*
X0174275Y0298741D03*
X0174275Y0298978D03*
X0174275Y0299214D03*
X0174275Y0299450D03*
X0174275Y0299686D03*
X0174275Y0299922D03*
X0174275Y0300159D03*
X0174275Y0300395D03*
X0174275Y0300631D03*
X0174275Y0300867D03*
X0174275Y0301104D03*
X0174275Y0301340D03*
X0174275Y0301576D03*
X0174275Y0301812D03*
X0174275Y0302048D03*
X0174275Y0302285D03*
X0174275Y0302521D03*
X0179708Y0300867D03*
X0179708Y0300631D03*
X0179708Y0300395D03*
X0179708Y0300159D03*
X0179708Y0299922D03*
X0179708Y0299686D03*
X0179708Y0299450D03*
X0179708Y0299214D03*
X0179708Y0298978D03*
X0179708Y0298741D03*
X0179708Y0298505D03*
X0179708Y0298269D03*
X0179708Y0298033D03*
X0183960Y0296615D03*
X0187267Y0296615D03*
X0189393Y0296615D03*
X0189393Y0296852D03*
X0189393Y0297088D03*
X0189393Y0297324D03*
X0189393Y0297560D03*
X0189393Y0297796D03*
X0189393Y0298033D03*
X0189393Y0298269D03*
X0189393Y0298505D03*
X0189393Y0298741D03*
X0189393Y0298978D03*
X0189393Y0299214D03*
X0189393Y0299450D03*
X0189393Y0299686D03*
X0189393Y0299922D03*
X0189393Y0300159D03*
X0189393Y0300395D03*
X0189393Y0300631D03*
X0189393Y0300867D03*
X0189393Y0301104D03*
X0189393Y0301340D03*
X0189393Y0301576D03*
X0189393Y0301812D03*
X0189393Y0302048D03*
X0189393Y0302285D03*
X0193645Y0301576D03*
X0201204Y0301576D03*
X0201204Y0301812D03*
X0201204Y0302048D03*
X0201204Y0302285D03*
X0201204Y0302521D03*
X0202858Y0302285D03*
X0202858Y0302048D03*
X0201204Y0300395D03*
X0201204Y0300159D03*
X0201204Y0299922D03*
X0201204Y0299686D03*
X0201204Y0299450D03*
X0201204Y0299214D03*
X0201204Y0298978D03*
X0201204Y0298741D03*
X0201204Y0298505D03*
X0201204Y0298269D03*
X0201204Y0298033D03*
X0201204Y0297796D03*
X0201204Y0297560D03*
X0201204Y0297324D03*
X0201204Y0297088D03*
X0201204Y0296852D03*
X0201204Y0296615D03*
X0204511Y0296615D03*
X0204511Y0296852D03*
X0207819Y0296615D03*
X0206165Y0302048D03*
X0254070Y0300631D03*
X0257850Y0299214D03*
X0257850Y0298978D03*
X0263756Y0297796D03*
X0263756Y0301812D03*
X0263756Y0302048D03*
X0268480Y0299450D03*
X0275567Y0296379D03*
X0276275Y0298033D03*
X0276275Y0298269D03*
X0276275Y0298505D03*
X0276275Y0298741D03*
X0276275Y0298978D03*
X0276275Y0299214D03*
X0276275Y0299450D03*
X0276275Y0299686D03*
X0276275Y0299922D03*
X0276275Y0300159D03*
X0276275Y0300395D03*
X0276275Y0300631D03*
X0276275Y0300867D03*
X0276275Y0301104D03*
X0276275Y0301340D03*
X0276275Y0301576D03*
X0276275Y0301812D03*
X0276275Y0302048D03*
X0276275Y0302285D03*
X0276275Y0302521D03*
X0281708Y0300867D03*
X0281708Y0300631D03*
X0281708Y0300395D03*
X0281708Y0300159D03*
X0281708Y0299922D03*
X0281708Y0299686D03*
X0281708Y0299450D03*
X0281708Y0299214D03*
X0281708Y0298978D03*
X0281708Y0298741D03*
X0281708Y0298505D03*
X0281708Y0298269D03*
X0281708Y0298033D03*
X0285960Y0296615D03*
X0289267Y0296615D03*
X0291393Y0296615D03*
X0291393Y0296852D03*
X0291393Y0297088D03*
X0291393Y0297324D03*
X0291393Y0297560D03*
X0291393Y0297796D03*
X0291393Y0298033D03*
X0291393Y0298269D03*
X0291393Y0298505D03*
X0291393Y0298741D03*
X0291393Y0298978D03*
X0291393Y0299214D03*
X0291393Y0299450D03*
X0291393Y0299686D03*
X0291393Y0299922D03*
X0291393Y0300159D03*
X0291393Y0300395D03*
X0291393Y0300631D03*
X0291393Y0300867D03*
X0291393Y0301104D03*
X0291393Y0301340D03*
X0291393Y0301576D03*
X0291393Y0301812D03*
X0291393Y0302048D03*
X0291393Y0302285D03*
X0295645Y0301576D03*
X0303204Y0301576D03*
X0303204Y0301812D03*
X0303204Y0302048D03*
X0303204Y0302285D03*
X0303204Y0302521D03*
X0304858Y0302285D03*
X0304858Y0302048D03*
X0303204Y0300395D03*
X0303204Y0300159D03*
X0303204Y0299922D03*
X0303204Y0299686D03*
X0303204Y0299450D03*
X0303204Y0299214D03*
X0303204Y0298978D03*
X0303204Y0298741D03*
X0303204Y0298505D03*
X0303204Y0298269D03*
X0303204Y0298033D03*
X0303204Y0297796D03*
X0303204Y0297560D03*
X0303204Y0297324D03*
X0303204Y0297088D03*
X0303204Y0296852D03*
X0303204Y0296615D03*
X0306511Y0296615D03*
X0306511Y0296852D03*
X0309819Y0296615D03*
X0308165Y0302048D03*
X0303204Y0172021D03*
X0303204Y0171785D03*
X0303204Y0171548D03*
X0303204Y0171312D03*
X0303204Y0171076D03*
X0303204Y0169895D03*
X0303204Y0169659D03*
X0303204Y0169422D03*
X0303204Y0169186D03*
X0303204Y0168950D03*
X0303204Y0168714D03*
X0303204Y0168478D03*
X0303204Y0168241D03*
X0303204Y0168005D03*
X0303204Y0167769D03*
X0303204Y0167533D03*
X0303204Y0167296D03*
X0303204Y0167060D03*
X0303204Y0166824D03*
X0303204Y0166588D03*
X0303204Y0166352D03*
X0303204Y0166115D03*
X0306511Y0166115D03*
X0306511Y0166352D03*
X0309819Y0166115D03*
X0308165Y0171548D03*
X0304858Y0171548D03*
X0304858Y0171785D03*
X0295645Y0171076D03*
X0291393Y0171076D03*
X0291393Y0171312D03*
X0291393Y0171548D03*
X0291393Y0171785D03*
X0291393Y0170840D03*
X0291393Y0170604D03*
X0291393Y0170367D03*
X0291393Y0170131D03*
X0291393Y0169895D03*
X0291393Y0169659D03*
X0291393Y0169422D03*
X0291393Y0169186D03*
X0291393Y0168950D03*
X0291393Y0168714D03*
X0291393Y0168478D03*
X0291393Y0168241D03*
X0291393Y0168005D03*
X0291393Y0167769D03*
X0291393Y0167533D03*
X0291393Y0167296D03*
X0291393Y0167060D03*
X0291393Y0166824D03*
X0291393Y0166588D03*
X0291393Y0166352D03*
X0291393Y0166115D03*
X0289267Y0166115D03*
X0285960Y0166115D03*
X0281708Y0167533D03*
X0281708Y0167769D03*
X0281708Y0168005D03*
X0281708Y0168241D03*
X0281708Y0168478D03*
X0281708Y0168714D03*
X0281708Y0168950D03*
X0281708Y0169186D03*
X0281708Y0169422D03*
X0281708Y0169659D03*
X0281708Y0169895D03*
X0281708Y0170131D03*
X0281708Y0170367D03*
X0276275Y0170367D03*
X0276275Y0170131D03*
X0276275Y0169895D03*
X0276275Y0169659D03*
X0276275Y0169422D03*
X0276275Y0169186D03*
X0276275Y0168950D03*
X0276275Y0168714D03*
X0276275Y0168478D03*
X0276275Y0168241D03*
X0276275Y0168005D03*
X0276275Y0167769D03*
X0276275Y0167533D03*
X0275567Y0165879D03*
X0276275Y0170604D03*
X0276275Y0170840D03*
X0276275Y0171076D03*
X0276275Y0171312D03*
X0276275Y0171548D03*
X0276275Y0171785D03*
X0276275Y0172021D03*
X0268480Y0168950D03*
X0263756Y0167296D03*
X0263756Y0171312D03*
X0263756Y0171548D03*
X0257850Y0168714D03*
X0257850Y0168478D03*
X0254070Y0170131D03*
X0207819Y0166115D03*
X0204511Y0166115D03*
X0204511Y0166352D03*
X0201204Y0166352D03*
X0201204Y0166588D03*
X0201204Y0166824D03*
X0201204Y0167060D03*
X0201204Y0167296D03*
X0201204Y0167533D03*
X0201204Y0167769D03*
X0201204Y0168005D03*
X0201204Y0168241D03*
X0201204Y0168478D03*
X0201204Y0168714D03*
X0201204Y0168950D03*
X0201204Y0169186D03*
X0201204Y0169422D03*
X0201204Y0169659D03*
X0201204Y0169895D03*
X0201204Y0171076D03*
X0201204Y0171312D03*
X0201204Y0171548D03*
X0201204Y0171785D03*
X0201204Y0172021D03*
X0202858Y0171785D03*
X0202858Y0171548D03*
X0206165Y0171548D03*
X0201204Y0166115D03*
X0193645Y0171076D03*
X0189393Y0171076D03*
X0189393Y0171312D03*
X0189393Y0171548D03*
X0189393Y0171785D03*
X0189393Y0170840D03*
X0189393Y0170604D03*
X0189393Y0170367D03*
X0189393Y0170131D03*
X0189393Y0169895D03*
X0189393Y0169659D03*
X0189393Y0169422D03*
X0189393Y0169186D03*
X0189393Y0168950D03*
X0189393Y0168714D03*
X0189393Y0168478D03*
X0189393Y0168241D03*
X0189393Y0168005D03*
X0189393Y0167769D03*
X0189393Y0167533D03*
X0189393Y0167296D03*
X0189393Y0167060D03*
X0189393Y0166824D03*
X0189393Y0166588D03*
X0189393Y0166352D03*
X0189393Y0166115D03*
X0187267Y0166115D03*
X0183960Y0166115D03*
X0179708Y0167533D03*
X0179708Y0167769D03*
X0179708Y0168005D03*
X0179708Y0168241D03*
X0179708Y0168478D03*
X0179708Y0168714D03*
X0179708Y0168950D03*
X0179708Y0169186D03*
X0179708Y0169422D03*
X0179708Y0169659D03*
X0179708Y0169895D03*
X0179708Y0170131D03*
X0179708Y0170367D03*
X0174275Y0170367D03*
X0174275Y0170131D03*
X0174275Y0169895D03*
X0174275Y0169659D03*
X0174275Y0169422D03*
X0174275Y0169186D03*
X0174275Y0168950D03*
X0174275Y0168714D03*
X0174275Y0168478D03*
X0174275Y0168241D03*
X0174275Y0168005D03*
X0174275Y0167769D03*
X0174275Y0167533D03*
X0173567Y0165879D03*
X0174275Y0170604D03*
X0174275Y0170840D03*
X0174275Y0171076D03*
X0174275Y0171312D03*
X0174275Y0171548D03*
X0174275Y0171785D03*
X0174275Y0172021D03*
X0166480Y0168950D03*
X0161756Y0167296D03*
X0161756Y0171312D03*
X0161756Y0171548D03*
X0155850Y0168714D03*
X0155850Y0168478D03*
X0152070Y0170131D03*
X0105819Y0166115D03*
X0102511Y0166115D03*
X0102511Y0166352D03*
X0099204Y0166352D03*
X0099204Y0166588D03*
X0099204Y0166824D03*
X0099204Y0167060D03*
X0099204Y0167296D03*
X0099204Y0167533D03*
X0099204Y0167769D03*
X0099204Y0168005D03*
X0099204Y0168241D03*
X0099204Y0168478D03*
X0099204Y0168714D03*
X0099204Y0168950D03*
X0099204Y0169186D03*
X0099204Y0169422D03*
X0099204Y0169659D03*
X0099204Y0169895D03*
X0099204Y0171076D03*
X0099204Y0171312D03*
X0099204Y0171548D03*
X0099204Y0171785D03*
X0099204Y0172021D03*
X0100858Y0171785D03*
X0100858Y0171548D03*
X0104165Y0171548D03*
X0099204Y0166115D03*
X0091645Y0171076D03*
X0087393Y0171076D03*
X0087393Y0171312D03*
X0087393Y0171548D03*
X0087393Y0171785D03*
X0087393Y0170840D03*
X0087393Y0170604D03*
X0087393Y0170367D03*
X0087393Y0170131D03*
X0087393Y0169895D03*
X0087393Y0169659D03*
X0087393Y0169422D03*
X0087393Y0169186D03*
X0087393Y0168950D03*
X0087393Y0168714D03*
X0087393Y0168478D03*
X0087393Y0168241D03*
X0087393Y0168005D03*
X0087393Y0167769D03*
X0087393Y0167533D03*
X0087393Y0167296D03*
X0087393Y0167060D03*
X0087393Y0166824D03*
X0087393Y0166588D03*
X0087393Y0166352D03*
X0087393Y0166115D03*
X0085267Y0166115D03*
X0081960Y0166115D03*
X0077708Y0167533D03*
X0077708Y0167769D03*
X0077708Y0168005D03*
X0077708Y0168241D03*
X0077708Y0168478D03*
X0077708Y0168714D03*
X0077708Y0168950D03*
X0077708Y0169186D03*
X0077708Y0169422D03*
X0077708Y0169659D03*
X0077708Y0169895D03*
X0077708Y0170131D03*
X0077708Y0170367D03*
X0072275Y0170367D03*
X0072275Y0170131D03*
X0072275Y0169895D03*
X0072275Y0169659D03*
X0072275Y0169422D03*
X0072275Y0169186D03*
X0072275Y0168950D03*
X0072275Y0168714D03*
X0072275Y0168478D03*
X0072275Y0168241D03*
X0072275Y0168005D03*
X0072275Y0167769D03*
X0072275Y0167533D03*
X0071567Y0165879D03*
X0072275Y0170604D03*
X0072275Y0170840D03*
X0072275Y0171076D03*
X0072275Y0171312D03*
X0072275Y0171548D03*
X0072275Y0171785D03*
X0072275Y0172021D03*
X0064480Y0168950D03*
X0059756Y0167296D03*
X0059756Y0171312D03*
X0059756Y0171548D03*
X0053850Y0168714D03*
X0053850Y0168478D03*
X0050070Y0170131D03*
X0059756Y0041048D03*
X0059756Y0040812D03*
X0059756Y0036796D03*
X0064480Y0038450D03*
X0071567Y0035379D03*
X0072275Y0037033D03*
X0072275Y0037269D03*
X0072275Y0037505D03*
X0072275Y0037741D03*
X0072275Y0037978D03*
X0072275Y0038214D03*
X0072275Y0038450D03*
X0072275Y0038686D03*
X0072275Y0038922D03*
X0072275Y0039159D03*
X0072275Y0039395D03*
X0072275Y0039631D03*
X0072275Y0039867D03*
X0072275Y0040104D03*
X0072275Y0040340D03*
X0072275Y0040576D03*
X0072275Y0040812D03*
X0072275Y0041048D03*
X0072275Y0041285D03*
X0072275Y0041521D03*
X0077708Y0039867D03*
X0077708Y0039631D03*
X0077708Y0039395D03*
X0077708Y0039159D03*
X0077708Y0038922D03*
X0077708Y0038686D03*
X0077708Y0038450D03*
X0077708Y0038214D03*
X0077708Y0037978D03*
X0077708Y0037741D03*
X0077708Y0037505D03*
X0077708Y0037269D03*
X0077708Y0037033D03*
X0081960Y0035615D03*
X0085267Y0035615D03*
X0087393Y0035615D03*
X0087393Y0035852D03*
X0087393Y0036088D03*
X0087393Y0036324D03*
X0087393Y0036560D03*
X0087393Y0036796D03*
X0087393Y0037033D03*
X0087393Y0037269D03*
X0087393Y0037505D03*
X0087393Y0037741D03*
X0087393Y0037978D03*
X0087393Y0038214D03*
X0087393Y0038450D03*
X0087393Y0038686D03*
X0087393Y0038922D03*
X0087393Y0039159D03*
X0087393Y0039395D03*
X0087393Y0039631D03*
X0087393Y0039867D03*
X0087393Y0040104D03*
X0087393Y0040340D03*
X0087393Y0040576D03*
X0087393Y0040812D03*
X0087393Y0041048D03*
X0087393Y0041285D03*
X0091645Y0040576D03*
X0099204Y0040576D03*
X0099204Y0040812D03*
X0099204Y0041048D03*
X0099204Y0041285D03*
X0099204Y0041521D03*
X0100858Y0041285D03*
X0100858Y0041048D03*
X0099204Y0039395D03*
X0099204Y0039159D03*
X0099204Y0038922D03*
X0099204Y0038686D03*
X0099204Y0038450D03*
X0099204Y0038214D03*
X0099204Y0037978D03*
X0099204Y0037741D03*
X0099204Y0037505D03*
X0099204Y0037269D03*
X0099204Y0037033D03*
X0099204Y0036796D03*
X0099204Y0036560D03*
X0099204Y0036324D03*
X0099204Y0036088D03*
X0099204Y0035852D03*
X0099204Y0035615D03*
X0102511Y0035615D03*
X0102511Y0035852D03*
X0105819Y0035615D03*
X0104165Y0041048D03*
X0152070Y0039631D03*
X0155850Y0038214D03*
X0155850Y0037978D03*
X0161756Y0036796D03*
X0161756Y0040812D03*
X0161756Y0041048D03*
X0166480Y0038450D03*
X0173567Y0035379D03*
X0174275Y0037033D03*
X0174275Y0037269D03*
X0174275Y0037505D03*
X0174275Y0037741D03*
X0174275Y0037978D03*
X0174275Y0038214D03*
X0174275Y0038450D03*
X0174275Y0038686D03*
X0174275Y0038922D03*
X0174275Y0039159D03*
X0174275Y0039395D03*
X0174275Y0039631D03*
X0174275Y0039867D03*
X0174275Y0040104D03*
X0174275Y0040340D03*
X0174275Y0040576D03*
X0174275Y0040812D03*
X0174275Y0041048D03*
X0174275Y0041285D03*
X0174275Y0041521D03*
X0179708Y0039867D03*
X0179708Y0039631D03*
X0179708Y0039395D03*
X0179708Y0039159D03*
X0179708Y0038922D03*
X0179708Y0038686D03*
X0179708Y0038450D03*
X0179708Y0038214D03*
X0179708Y0037978D03*
X0179708Y0037741D03*
X0179708Y0037505D03*
X0179708Y0037269D03*
X0179708Y0037033D03*
X0183960Y0035615D03*
X0187267Y0035615D03*
X0189393Y0035615D03*
X0189393Y0035852D03*
X0189393Y0036088D03*
X0189393Y0036324D03*
X0189393Y0036560D03*
X0189393Y0036796D03*
X0189393Y0037033D03*
X0189393Y0037269D03*
X0189393Y0037505D03*
X0189393Y0037741D03*
X0189393Y0037978D03*
X0189393Y0038214D03*
X0189393Y0038450D03*
X0189393Y0038686D03*
X0189393Y0038922D03*
X0189393Y0039159D03*
X0189393Y0039395D03*
X0189393Y0039631D03*
X0189393Y0039867D03*
X0189393Y0040104D03*
X0189393Y0040340D03*
X0189393Y0040576D03*
X0189393Y0040812D03*
X0189393Y0041048D03*
X0189393Y0041285D03*
X0193645Y0040576D03*
X0201204Y0040576D03*
X0201204Y0040812D03*
X0201204Y0041048D03*
X0201204Y0041285D03*
X0201204Y0041521D03*
X0202858Y0041285D03*
X0202858Y0041048D03*
X0201204Y0039395D03*
X0201204Y0039159D03*
X0201204Y0038922D03*
X0201204Y0038686D03*
X0201204Y0038450D03*
X0201204Y0038214D03*
X0201204Y0037978D03*
X0201204Y0037741D03*
X0201204Y0037505D03*
X0201204Y0037269D03*
X0201204Y0037033D03*
X0201204Y0036796D03*
X0201204Y0036560D03*
X0201204Y0036324D03*
X0201204Y0036088D03*
X0201204Y0035852D03*
X0201204Y0035615D03*
X0204511Y0035615D03*
X0204511Y0035852D03*
X0207819Y0035615D03*
X0206165Y0041048D03*
X0254070Y0039631D03*
X0257850Y0038214D03*
X0257850Y0037978D03*
X0263756Y0036796D03*
X0263756Y0040812D03*
X0263756Y0041048D03*
X0268480Y0038450D03*
X0275567Y0035379D03*
X0276275Y0037033D03*
X0276275Y0037269D03*
X0276275Y0037505D03*
X0276275Y0037741D03*
X0276275Y0037978D03*
X0276275Y0038214D03*
X0276275Y0038450D03*
X0276275Y0038686D03*
X0276275Y0038922D03*
X0276275Y0039159D03*
X0276275Y0039395D03*
X0276275Y0039631D03*
X0276275Y0039867D03*
X0276275Y0040104D03*
X0276275Y0040340D03*
X0276275Y0040576D03*
X0276275Y0040812D03*
X0276275Y0041048D03*
X0276275Y0041285D03*
X0276275Y0041521D03*
X0281708Y0039867D03*
X0281708Y0039631D03*
X0281708Y0039395D03*
X0281708Y0039159D03*
X0281708Y0038922D03*
X0281708Y0038686D03*
X0281708Y0038450D03*
X0281708Y0038214D03*
X0281708Y0037978D03*
X0281708Y0037741D03*
X0281708Y0037505D03*
X0281708Y0037269D03*
X0281708Y0037033D03*
X0285960Y0035615D03*
X0289267Y0035615D03*
X0291393Y0035615D03*
X0291393Y0035852D03*
X0291393Y0036088D03*
X0291393Y0036324D03*
X0291393Y0036560D03*
X0291393Y0036796D03*
X0291393Y0037033D03*
X0291393Y0037269D03*
X0291393Y0037505D03*
X0291393Y0037741D03*
X0291393Y0037978D03*
X0291393Y0038214D03*
X0291393Y0038450D03*
X0291393Y0038686D03*
X0291393Y0038922D03*
X0291393Y0039159D03*
X0291393Y0039395D03*
X0291393Y0039631D03*
X0291393Y0039867D03*
X0291393Y0040104D03*
X0291393Y0040340D03*
X0291393Y0040576D03*
X0291393Y0040812D03*
X0291393Y0041048D03*
X0291393Y0041285D03*
X0295645Y0040576D03*
X0303204Y0040576D03*
X0303204Y0040812D03*
X0303204Y0041048D03*
X0303204Y0041285D03*
X0303204Y0041521D03*
X0304858Y0041285D03*
X0304858Y0041048D03*
X0303204Y0039395D03*
X0303204Y0039159D03*
X0303204Y0038922D03*
X0303204Y0038686D03*
X0303204Y0038450D03*
X0303204Y0038214D03*
X0303204Y0037978D03*
X0303204Y0037741D03*
X0303204Y0037505D03*
X0303204Y0037269D03*
X0303204Y0037033D03*
X0303204Y0036796D03*
X0303204Y0036560D03*
X0303204Y0036324D03*
X0303204Y0036088D03*
X0303204Y0035852D03*
X0303204Y0035615D03*
X0306511Y0035615D03*
X0306511Y0035852D03*
X0309819Y0035615D03*
X0308165Y0041048D03*
X0053850Y0038214D03*
X0053850Y0037978D03*
X0050070Y0039631D03*
D71*
X0055267Y0038922D03*
X0055267Y0036088D03*
X0059519Y0038686D03*
X0059519Y0038922D03*
X0059519Y0039159D03*
X0063299Y0036324D03*
X0076527Y0041285D03*
X0095189Y0041521D03*
X0095897Y0037741D03*
X0157267Y0038922D03*
X0157267Y0036088D03*
X0161519Y0038686D03*
X0161519Y0038922D03*
X0161519Y0039159D03*
X0165299Y0036324D03*
X0178527Y0041285D03*
X0197189Y0041521D03*
X0197897Y0037741D03*
X0259267Y0038922D03*
X0259267Y0036088D03*
X0263519Y0038686D03*
X0263519Y0038922D03*
X0263519Y0039159D03*
X0267299Y0036324D03*
X0280527Y0041285D03*
X0299189Y0041521D03*
X0299897Y0037741D03*
X0299897Y0168241D03*
X0299189Y0172021D03*
X0280527Y0171785D03*
X0267299Y0166824D03*
X0263519Y0169186D03*
X0263519Y0169422D03*
X0263519Y0169659D03*
X0259267Y0169422D03*
X0259267Y0166588D03*
X0197897Y0168241D03*
X0197189Y0172021D03*
X0178527Y0171785D03*
X0165299Y0166824D03*
X0161519Y0169186D03*
X0161519Y0169422D03*
X0161519Y0169659D03*
X0157267Y0169422D03*
X0157267Y0166588D03*
X0095897Y0168241D03*
X0095189Y0172021D03*
X0076527Y0171785D03*
X0063299Y0166824D03*
X0059519Y0169186D03*
X0059519Y0169422D03*
X0059519Y0169659D03*
X0055267Y0169422D03*
X0055267Y0166588D03*
X0055267Y0297088D03*
X0055267Y0299922D03*
X0059519Y0299922D03*
X0059519Y0299686D03*
X0059519Y0300159D03*
X0063299Y0297324D03*
X0076527Y0302285D03*
X0095189Y0302521D03*
X0095897Y0298741D03*
X0157267Y0299922D03*
X0157267Y0297088D03*
X0161519Y0299686D03*
X0161519Y0299922D03*
X0161519Y0300159D03*
X0165299Y0297324D03*
X0178527Y0302285D03*
X0197189Y0302521D03*
X0197897Y0298741D03*
X0259267Y0299922D03*
X0259267Y0297088D03*
X0263519Y0299686D03*
X0263519Y0299922D03*
X0263519Y0300159D03*
X0267299Y0297324D03*
X0280527Y0302285D03*
X0299189Y0302521D03*
X0299897Y0298741D03*
D72*
X0300960Y0298505D03*
X0300960Y0298269D03*
X0300960Y0298033D03*
X0300960Y0297796D03*
X0300960Y0297560D03*
X0300960Y0297324D03*
X0300960Y0297088D03*
X0300960Y0296852D03*
X0300960Y0296615D03*
X0300960Y0300395D03*
X0300960Y0300631D03*
X0300960Y0300867D03*
X0304976Y0301340D03*
X0304976Y0301576D03*
X0304976Y0301812D03*
X0305212Y0301104D03*
X0305212Y0300867D03*
X0305212Y0300631D03*
X0305448Y0300395D03*
X0305448Y0300159D03*
X0305448Y0299922D03*
X0305685Y0299686D03*
X0308283Y0301812D03*
X0311118Y0300867D03*
X0311118Y0300631D03*
X0311118Y0300395D03*
X0310881Y0300159D03*
X0310881Y0299922D03*
X0310881Y0299686D03*
X0311354Y0301104D03*
X0311354Y0301340D03*
X0311590Y0301812D03*
X0311590Y0302048D03*
X0309937Y0297088D03*
X0309937Y0296852D03*
X0295763Y0296852D03*
X0295763Y0297088D03*
X0295763Y0297324D03*
X0295763Y0297560D03*
X0295763Y0297796D03*
X0295763Y0298033D03*
X0295763Y0298269D03*
X0295763Y0298505D03*
X0295763Y0298741D03*
X0295763Y0298978D03*
X0295763Y0299214D03*
X0295763Y0299450D03*
X0295763Y0299686D03*
X0295763Y0299922D03*
X0295763Y0300159D03*
X0295763Y0300395D03*
X0295763Y0301812D03*
X0295763Y0302048D03*
X0295763Y0302285D03*
X0295763Y0302521D03*
X0289149Y0300867D03*
X0289149Y0300631D03*
X0289149Y0300395D03*
X0289149Y0300159D03*
X0289149Y0299922D03*
X0289149Y0299686D03*
X0289149Y0297796D03*
X0289149Y0297560D03*
X0289149Y0297324D03*
X0289149Y0297088D03*
X0289149Y0296852D03*
X0286315Y0297796D03*
X0286078Y0297560D03*
X0286078Y0297324D03*
X0285842Y0296852D03*
X0286078Y0299686D03*
X0285842Y0299922D03*
X0285842Y0300159D03*
X0285842Y0300395D03*
X0286078Y0300631D03*
X0278519Y0300631D03*
X0278519Y0300395D03*
X0278519Y0300867D03*
X0278283Y0298741D03*
X0278283Y0298505D03*
X0278283Y0298269D03*
X0278283Y0298033D03*
X0276157Y0297796D03*
X0273559Y0298269D03*
X0273559Y0298505D03*
X0273559Y0298741D03*
X0270488Y0298505D03*
X0268362Y0299214D03*
X0266236Y0297560D03*
X0263874Y0298033D03*
X0263874Y0298269D03*
X0263874Y0298505D03*
X0263874Y0298741D03*
X0263874Y0298978D03*
X0263874Y0300867D03*
X0263874Y0301104D03*
X0263874Y0301340D03*
X0263874Y0301576D03*
X0260803Y0298978D03*
X0262929Y0296379D03*
X0255842Y0296615D03*
X0255842Y0296852D03*
X0255842Y0297088D03*
X0255842Y0297324D03*
X0255842Y0297560D03*
X0255842Y0297796D03*
X0255842Y0298033D03*
X0255842Y0298269D03*
X0255842Y0298505D03*
X0255842Y0298741D03*
X0255842Y0298978D03*
X0295763Y0296615D03*
X0209590Y0301812D03*
X0209590Y0302048D03*
X0209354Y0301340D03*
X0209354Y0301104D03*
X0209118Y0300867D03*
X0209118Y0300631D03*
X0209118Y0300395D03*
X0208881Y0300159D03*
X0208881Y0299922D03*
X0208881Y0299686D03*
X0207937Y0297088D03*
X0207937Y0296852D03*
X0203685Y0299686D03*
X0203448Y0299922D03*
X0203448Y0300159D03*
X0203448Y0300395D03*
X0203212Y0300631D03*
X0203212Y0300867D03*
X0203212Y0301104D03*
X0202976Y0301340D03*
X0202976Y0301576D03*
X0202976Y0301812D03*
X0206283Y0301812D03*
X0198960Y0300867D03*
X0198960Y0300631D03*
X0198960Y0300395D03*
X0198960Y0298505D03*
X0198960Y0298269D03*
X0198960Y0298033D03*
X0198960Y0297796D03*
X0198960Y0297560D03*
X0198960Y0297324D03*
X0198960Y0297088D03*
X0198960Y0296852D03*
X0198960Y0296615D03*
X0193763Y0296615D03*
X0193763Y0296852D03*
X0193763Y0297088D03*
X0193763Y0297324D03*
X0193763Y0297560D03*
X0193763Y0297796D03*
X0193763Y0298033D03*
X0193763Y0298269D03*
X0193763Y0298505D03*
X0193763Y0298741D03*
X0193763Y0298978D03*
X0193763Y0299214D03*
X0193763Y0299450D03*
X0193763Y0299686D03*
X0193763Y0299922D03*
X0193763Y0300159D03*
X0193763Y0300395D03*
X0193763Y0301812D03*
X0193763Y0302048D03*
X0193763Y0302285D03*
X0193763Y0302521D03*
X0187149Y0300867D03*
X0187149Y0300631D03*
X0187149Y0300395D03*
X0187149Y0300159D03*
X0187149Y0299922D03*
X0187149Y0299686D03*
X0187149Y0297796D03*
X0187149Y0297560D03*
X0187149Y0297324D03*
X0187149Y0297088D03*
X0187149Y0296852D03*
X0184315Y0297796D03*
X0184078Y0297560D03*
X0184078Y0297324D03*
X0183842Y0296852D03*
X0184078Y0299686D03*
X0183842Y0299922D03*
X0183842Y0300159D03*
X0183842Y0300395D03*
X0184078Y0300631D03*
X0176519Y0300631D03*
X0176519Y0300395D03*
X0176519Y0300867D03*
X0176283Y0298741D03*
X0176283Y0298505D03*
X0176283Y0298269D03*
X0176283Y0298033D03*
X0174157Y0297796D03*
X0171559Y0298269D03*
X0171559Y0298505D03*
X0171559Y0298741D03*
X0168488Y0298505D03*
X0166362Y0299214D03*
X0164236Y0297560D03*
X0161874Y0298033D03*
X0161874Y0298269D03*
X0161874Y0298505D03*
X0161874Y0298741D03*
X0161874Y0298978D03*
X0161874Y0300867D03*
X0161874Y0301104D03*
X0161874Y0301340D03*
X0161874Y0301576D03*
X0158803Y0298978D03*
X0160929Y0296379D03*
X0153842Y0296615D03*
X0153842Y0296852D03*
X0153842Y0297088D03*
X0153842Y0297324D03*
X0153842Y0297560D03*
X0153842Y0297796D03*
X0153842Y0298033D03*
X0153842Y0298269D03*
X0153842Y0298505D03*
X0153842Y0298741D03*
X0153842Y0298978D03*
X0107590Y0301812D03*
X0107590Y0302048D03*
X0107354Y0301340D03*
X0107354Y0301104D03*
X0107118Y0300867D03*
X0107118Y0300631D03*
X0107118Y0300395D03*
X0106881Y0300159D03*
X0106881Y0299922D03*
X0106881Y0299686D03*
X0105937Y0297088D03*
X0105937Y0296852D03*
X0101685Y0299686D03*
X0101448Y0299922D03*
X0101448Y0300159D03*
X0101448Y0300395D03*
X0101212Y0300631D03*
X0101212Y0300867D03*
X0101212Y0301104D03*
X0100976Y0301340D03*
X0100976Y0301576D03*
X0100976Y0301812D03*
X0104283Y0301812D03*
X0096960Y0300867D03*
X0096960Y0300631D03*
X0096960Y0300395D03*
X0096960Y0298505D03*
X0096960Y0298269D03*
X0096960Y0298033D03*
X0096960Y0297796D03*
X0096960Y0297560D03*
X0096960Y0297324D03*
X0096960Y0297088D03*
X0096960Y0296852D03*
X0096960Y0296615D03*
X0091763Y0296615D03*
X0091763Y0296852D03*
X0091763Y0297088D03*
X0091763Y0297324D03*
X0091763Y0297560D03*
X0091763Y0297796D03*
X0091763Y0298033D03*
X0091763Y0298269D03*
X0091763Y0298505D03*
X0091763Y0298741D03*
X0091763Y0298978D03*
X0091763Y0299214D03*
X0091763Y0299450D03*
X0091763Y0299686D03*
X0091763Y0299922D03*
X0091763Y0300159D03*
X0091763Y0300395D03*
X0091763Y0301812D03*
X0091763Y0302048D03*
X0091763Y0302285D03*
X0091763Y0302521D03*
X0085149Y0300867D03*
X0085149Y0300631D03*
X0085149Y0300395D03*
X0085149Y0300159D03*
X0085149Y0299922D03*
X0085149Y0299686D03*
X0085149Y0297796D03*
X0085149Y0297560D03*
X0085149Y0297324D03*
X0085149Y0297088D03*
X0085149Y0296852D03*
X0082315Y0297796D03*
X0082078Y0297560D03*
X0082078Y0297324D03*
X0081842Y0296852D03*
X0082078Y0299686D03*
X0081842Y0299922D03*
X0081842Y0300159D03*
X0081842Y0300395D03*
X0082078Y0300631D03*
X0074519Y0300631D03*
X0074519Y0300395D03*
X0074519Y0300867D03*
X0074283Y0298741D03*
X0074283Y0298505D03*
X0074283Y0298269D03*
X0074283Y0298033D03*
X0072157Y0297796D03*
X0069559Y0298269D03*
X0069559Y0298505D03*
X0069559Y0298741D03*
X0066488Y0298505D03*
X0064362Y0299214D03*
X0062236Y0297560D03*
X0059874Y0298033D03*
X0059874Y0298269D03*
X0059874Y0298505D03*
X0059874Y0298741D03*
X0059874Y0298978D03*
X0059874Y0300867D03*
X0059874Y0301104D03*
X0059874Y0301340D03*
X0059874Y0301576D03*
X0056803Y0298978D03*
X0058929Y0296379D03*
X0051842Y0296615D03*
X0051842Y0296852D03*
X0051842Y0297088D03*
X0051842Y0297324D03*
X0051842Y0297560D03*
X0051842Y0297796D03*
X0051842Y0298033D03*
X0051842Y0298269D03*
X0051842Y0298505D03*
X0051842Y0298741D03*
X0051842Y0298978D03*
X0059874Y0171076D03*
X0059874Y0170840D03*
X0059874Y0170604D03*
X0059874Y0170367D03*
X0059874Y0168478D03*
X0059874Y0168241D03*
X0059874Y0168005D03*
X0059874Y0167769D03*
X0059874Y0167533D03*
X0058929Y0165879D03*
X0056803Y0168478D03*
X0062236Y0167060D03*
X0064362Y0168714D03*
X0066488Y0168005D03*
X0069559Y0168005D03*
X0069559Y0167769D03*
X0069559Y0168241D03*
X0072157Y0167296D03*
X0074283Y0167533D03*
X0074283Y0167769D03*
X0074283Y0168005D03*
X0074283Y0168241D03*
X0074519Y0169895D03*
X0074519Y0170131D03*
X0074519Y0170367D03*
X0081842Y0169895D03*
X0081842Y0169659D03*
X0081842Y0169422D03*
X0082078Y0169186D03*
X0082078Y0170131D03*
X0082315Y0167296D03*
X0082078Y0167060D03*
X0082078Y0166824D03*
X0081842Y0166352D03*
X0085149Y0166352D03*
X0085149Y0166588D03*
X0085149Y0166824D03*
X0085149Y0167060D03*
X0085149Y0167296D03*
X0085149Y0169186D03*
X0085149Y0169422D03*
X0085149Y0169659D03*
X0085149Y0169895D03*
X0085149Y0170131D03*
X0085149Y0170367D03*
X0091763Y0169895D03*
X0091763Y0169659D03*
X0091763Y0169422D03*
X0091763Y0169186D03*
X0091763Y0168950D03*
X0091763Y0168714D03*
X0091763Y0168478D03*
X0091763Y0168241D03*
X0091763Y0168005D03*
X0091763Y0167769D03*
X0091763Y0167533D03*
X0091763Y0167296D03*
X0091763Y0167060D03*
X0091763Y0166824D03*
X0091763Y0166588D03*
X0091763Y0166352D03*
X0091763Y0166115D03*
X0091763Y0171312D03*
X0091763Y0171548D03*
X0091763Y0171785D03*
X0091763Y0172021D03*
X0096960Y0170367D03*
X0096960Y0170131D03*
X0096960Y0169895D03*
X0096960Y0168005D03*
X0096960Y0167769D03*
X0096960Y0167533D03*
X0096960Y0167296D03*
X0096960Y0167060D03*
X0096960Y0166824D03*
X0096960Y0166588D03*
X0096960Y0166352D03*
X0096960Y0166115D03*
X0101448Y0169422D03*
X0101448Y0169659D03*
X0101448Y0169895D03*
X0101212Y0170131D03*
X0101212Y0170367D03*
X0101212Y0170604D03*
X0100976Y0170840D03*
X0100976Y0171076D03*
X0100976Y0171312D03*
X0101685Y0169186D03*
X0104283Y0171312D03*
X0107118Y0170367D03*
X0107118Y0170131D03*
X0107118Y0169895D03*
X0106881Y0169659D03*
X0106881Y0169422D03*
X0106881Y0169186D03*
X0107354Y0170604D03*
X0107354Y0170840D03*
X0107590Y0171312D03*
X0107590Y0171548D03*
X0105937Y0166588D03*
X0105937Y0166352D03*
X0153842Y0166352D03*
X0153842Y0166588D03*
X0153842Y0166824D03*
X0153842Y0167060D03*
X0153842Y0167296D03*
X0153842Y0167533D03*
X0153842Y0167769D03*
X0153842Y0168005D03*
X0153842Y0168241D03*
X0153842Y0168478D03*
X0153842Y0166115D03*
X0158803Y0168478D03*
X0161874Y0168478D03*
X0161874Y0168241D03*
X0161874Y0168005D03*
X0161874Y0167769D03*
X0161874Y0167533D03*
X0160929Y0165879D03*
X0164236Y0167060D03*
X0166362Y0168714D03*
X0168488Y0168005D03*
X0171559Y0168005D03*
X0171559Y0167769D03*
X0171559Y0168241D03*
X0174157Y0167296D03*
X0176283Y0167533D03*
X0176283Y0167769D03*
X0176283Y0168005D03*
X0176283Y0168241D03*
X0176519Y0169895D03*
X0176519Y0170131D03*
X0176519Y0170367D03*
X0183842Y0169895D03*
X0183842Y0169659D03*
X0183842Y0169422D03*
X0184078Y0169186D03*
X0184078Y0170131D03*
X0184315Y0167296D03*
X0184078Y0167060D03*
X0184078Y0166824D03*
X0183842Y0166352D03*
X0187149Y0166352D03*
X0187149Y0166588D03*
X0187149Y0166824D03*
X0187149Y0167060D03*
X0187149Y0167296D03*
X0187149Y0169186D03*
X0187149Y0169422D03*
X0187149Y0169659D03*
X0187149Y0169895D03*
X0187149Y0170131D03*
X0187149Y0170367D03*
X0193763Y0169895D03*
X0193763Y0169659D03*
X0193763Y0169422D03*
X0193763Y0169186D03*
X0193763Y0168950D03*
X0193763Y0168714D03*
X0193763Y0168478D03*
X0193763Y0168241D03*
X0193763Y0168005D03*
X0193763Y0167769D03*
X0193763Y0167533D03*
X0193763Y0167296D03*
X0193763Y0167060D03*
X0193763Y0166824D03*
X0193763Y0166588D03*
X0193763Y0166352D03*
X0193763Y0166115D03*
X0193763Y0171312D03*
X0193763Y0171548D03*
X0193763Y0171785D03*
X0193763Y0172021D03*
X0198960Y0170367D03*
X0198960Y0170131D03*
X0198960Y0169895D03*
X0198960Y0168005D03*
X0198960Y0167769D03*
X0198960Y0167533D03*
X0198960Y0167296D03*
X0198960Y0167060D03*
X0198960Y0166824D03*
X0198960Y0166588D03*
X0198960Y0166352D03*
X0198960Y0166115D03*
X0203448Y0169422D03*
X0203448Y0169659D03*
X0203448Y0169895D03*
X0203212Y0170131D03*
X0203212Y0170367D03*
X0203212Y0170604D03*
X0202976Y0170840D03*
X0202976Y0171076D03*
X0202976Y0171312D03*
X0203685Y0169186D03*
X0206283Y0171312D03*
X0209118Y0170367D03*
X0209118Y0170131D03*
X0209118Y0169895D03*
X0208881Y0169659D03*
X0208881Y0169422D03*
X0208881Y0169186D03*
X0209354Y0170604D03*
X0209354Y0170840D03*
X0209590Y0171312D03*
X0209590Y0171548D03*
X0207937Y0166588D03*
X0207937Y0166352D03*
X0161874Y0170367D03*
X0161874Y0170604D03*
X0161874Y0170840D03*
X0161874Y0171076D03*
X0255842Y0168478D03*
X0255842Y0168241D03*
X0255842Y0168005D03*
X0255842Y0167769D03*
X0255842Y0167533D03*
X0255842Y0167296D03*
X0255842Y0167060D03*
X0255842Y0166824D03*
X0255842Y0166588D03*
X0255842Y0166352D03*
X0255842Y0166115D03*
X0260803Y0168478D03*
X0263874Y0168478D03*
X0263874Y0168241D03*
X0263874Y0168005D03*
X0263874Y0167769D03*
X0263874Y0167533D03*
X0262929Y0165879D03*
X0266236Y0167060D03*
X0268362Y0168714D03*
X0270488Y0168005D03*
X0273559Y0168005D03*
X0273559Y0167769D03*
X0273559Y0168241D03*
X0276157Y0167296D03*
X0278283Y0167533D03*
X0278283Y0167769D03*
X0278283Y0168005D03*
X0278283Y0168241D03*
X0278519Y0169895D03*
X0278519Y0170131D03*
X0278519Y0170367D03*
X0285842Y0169895D03*
X0285842Y0169659D03*
X0285842Y0169422D03*
X0286078Y0169186D03*
X0286078Y0170131D03*
X0286315Y0167296D03*
X0286078Y0167060D03*
X0286078Y0166824D03*
X0285842Y0166352D03*
X0289149Y0166352D03*
X0289149Y0166588D03*
X0289149Y0166824D03*
X0289149Y0167060D03*
X0289149Y0167296D03*
X0289149Y0169186D03*
X0289149Y0169422D03*
X0289149Y0169659D03*
X0289149Y0169895D03*
X0289149Y0170131D03*
X0289149Y0170367D03*
X0295763Y0169895D03*
X0295763Y0169659D03*
X0295763Y0169422D03*
X0295763Y0169186D03*
X0295763Y0168950D03*
X0295763Y0168714D03*
X0295763Y0168478D03*
X0295763Y0168241D03*
X0295763Y0168005D03*
X0295763Y0167769D03*
X0295763Y0167533D03*
X0295763Y0167296D03*
X0295763Y0167060D03*
X0295763Y0166824D03*
X0295763Y0166588D03*
X0295763Y0166352D03*
X0295763Y0166115D03*
X0295763Y0171312D03*
X0295763Y0171548D03*
X0295763Y0171785D03*
X0295763Y0172021D03*
X0300960Y0170367D03*
X0300960Y0170131D03*
X0300960Y0169895D03*
X0300960Y0168005D03*
X0300960Y0167769D03*
X0300960Y0167533D03*
X0300960Y0167296D03*
X0300960Y0167060D03*
X0300960Y0166824D03*
X0300960Y0166588D03*
X0300960Y0166352D03*
X0300960Y0166115D03*
X0305448Y0169422D03*
X0305448Y0169659D03*
X0305448Y0169895D03*
X0305212Y0170131D03*
X0305212Y0170367D03*
X0305212Y0170604D03*
X0304976Y0170840D03*
X0304976Y0171076D03*
X0304976Y0171312D03*
X0305685Y0169186D03*
X0308283Y0171312D03*
X0311118Y0170367D03*
X0311118Y0170131D03*
X0311118Y0169895D03*
X0310881Y0169659D03*
X0310881Y0169422D03*
X0310881Y0169186D03*
X0311354Y0170604D03*
X0311354Y0170840D03*
X0311590Y0171312D03*
X0311590Y0171548D03*
X0309937Y0166588D03*
X0309937Y0166352D03*
X0263874Y0170367D03*
X0263874Y0170604D03*
X0263874Y0170840D03*
X0263874Y0171076D03*
X0263874Y0040576D03*
X0263874Y0040340D03*
X0263874Y0040104D03*
X0263874Y0039867D03*
X0263874Y0037978D03*
X0263874Y0037741D03*
X0263874Y0037505D03*
X0263874Y0037269D03*
X0263874Y0037033D03*
X0262929Y0035379D03*
X0260803Y0037978D03*
X0255842Y0037978D03*
X0255842Y0037741D03*
X0255842Y0037505D03*
X0255842Y0037269D03*
X0255842Y0037033D03*
X0255842Y0036796D03*
X0255842Y0036560D03*
X0255842Y0036324D03*
X0255842Y0036088D03*
X0255842Y0035852D03*
X0255842Y0035615D03*
X0266236Y0036560D03*
X0268362Y0038214D03*
X0270488Y0037505D03*
X0273559Y0037505D03*
X0273559Y0037269D03*
X0273559Y0037741D03*
X0276157Y0036796D03*
X0278283Y0037033D03*
X0278283Y0037269D03*
X0278283Y0037505D03*
X0278283Y0037741D03*
X0278519Y0039395D03*
X0278519Y0039631D03*
X0278519Y0039867D03*
X0285842Y0039395D03*
X0285842Y0039159D03*
X0285842Y0038922D03*
X0286078Y0038686D03*
X0286078Y0039631D03*
X0286315Y0036796D03*
X0286078Y0036560D03*
X0286078Y0036324D03*
X0285842Y0035852D03*
X0289149Y0035852D03*
X0289149Y0036088D03*
X0289149Y0036324D03*
X0289149Y0036560D03*
X0289149Y0036796D03*
X0289149Y0038686D03*
X0289149Y0038922D03*
X0289149Y0039159D03*
X0289149Y0039395D03*
X0289149Y0039631D03*
X0289149Y0039867D03*
X0295763Y0039395D03*
X0295763Y0039159D03*
X0295763Y0038922D03*
X0295763Y0038686D03*
X0295763Y0038450D03*
X0295763Y0038214D03*
X0295763Y0037978D03*
X0295763Y0037741D03*
X0295763Y0037505D03*
X0295763Y0037269D03*
X0295763Y0037033D03*
X0295763Y0036796D03*
X0295763Y0036560D03*
X0295763Y0036324D03*
X0295763Y0036088D03*
X0295763Y0035852D03*
X0295763Y0035615D03*
X0295763Y0040812D03*
X0295763Y0041048D03*
X0295763Y0041285D03*
X0295763Y0041521D03*
X0300960Y0039867D03*
X0300960Y0039631D03*
X0300960Y0039395D03*
X0300960Y0037505D03*
X0300960Y0037269D03*
X0300960Y0037033D03*
X0300960Y0036796D03*
X0300960Y0036560D03*
X0300960Y0036324D03*
X0300960Y0036088D03*
X0300960Y0035852D03*
X0300960Y0035615D03*
X0305448Y0038922D03*
X0305448Y0039159D03*
X0305448Y0039395D03*
X0305212Y0039631D03*
X0305212Y0039867D03*
X0305212Y0040104D03*
X0304976Y0040340D03*
X0304976Y0040576D03*
X0304976Y0040812D03*
X0305685Y0038686D03*
X0308283Y0040812D03*
X0311118Y0039867D03*
X0311118Y0039631D03*
X0311118Y0039395D03*
X0310881Y0039159D03*
X0310881Y0038922D03*
X0310881Y0038686D03*
X0311354Y0040104D03*
X0311354Y0040340D03*
X0311590Y0040812D03*
X0311590Y0041048D03*
X0309937Y0036088D03*
X0309937Y0035852D03*
X0209590Y0040812D03*
X0209590Y0041048D03*
X0209354Y0040340D03*
X0209354Y0040104D03*
X0209118Y0039867D03*
X0209118Y0039631D03*
X0209118Y0039395D03*
X0208881Y0039159D03*
X0208881Y0038922D03*
X0208881Y0038686D03*
X0207937Y0036088D03*
X0207937Y0035852D03*
X0203685Y0038686D03*
X0203448Y0038922D03*
X0203448Y0039159D03*
X0203448Y0039395D03*
X0203212Y0039631D03*
X0203212Y0039867D03*
X0203212Y0040104D03*
X0202976Y0040340D03*
X0202976Y0040576D03*
X0202976Y0040812D03*
X0206283Y0040812D03*
X0198960Y0039867D03*
X0198960Y0039631D03*
X0198960Y0039395D03*
X0198960Y0037505D03*
X0198960Y0037269D03*
X0198960Y0037033D03*
X0198960Y0036796D03*
X0198960Y0036560D03*
X0198960Y0036324D03*
X0198960Y0036088D03*
X0198960Y0035852D03*
X0198960Y0035615D03*
X0193763Y0035615D03*
X0193763Y0035852D03*
X0193763Y0036088D03*
X0193763Y0036324D03*
X0193763Y0036560D03*
X0193763Y0036796D03*
X0193763Y0037033D03*
X0193763Y0037269D03*
X0193763Y0037505D03*
X0193763Y0037741D03*
X0193763Y0037978D03*
X0193763Y0038214D03*
X0193763Y0038450D03*
X0193763Y0038686D03*
X0193763Y0038922D03*
X0193763Y0039159D03*
X0193763Y0039395D03*
X0193763Y0040812D03*
X0193763Y0041048D03*
X0193763Y0041285D03*
X0193763Y0041521D03*
X0187149Y0039867D03*
X0187149Y0039631D03*
X0187149Y0039395D03*
X0187149Y0039159D03*
X0187149Y0038922D03*
X0187149Y0038686D03*
X0187149Y0036796D03*
X0187149Y0036560D03*
X0187149Y0036324D03*
X0187149Y0036088D03*
X0187149Y0035852D03*
X0184315Y0036796D03*
X0184078Y0036560D03*
X0184078Y0036324D03*
X0183842Y0035852D03*
X0184078Y0038686D03*
X0183842Y0038922D03*
X0183842Y0039159D03*
X0183842Y0039395D03*
X0184078Y0039631D03*
X0176519Y0039631D03*
X0176519Y0039395D03*
X0176519Y0039867D03*
X0176283Y0037741D03*
X0176283Y0037505D03*
X0176283Y0037269D03*
X0176283Y0037033D03*
X0174157Y0036796D03*
X0171559Y0037269D03*
X0171559Y0037505D03*
X0171559Y0037741D03*
X0168488Y0037505D03*
X0166362Y0038214D03*
X0164236Y0036560D03*
X0161874Y0037033D03*
X0161874Y0037269D03*
X0161874Y0037505D03*
X0161874Y0037741D03*
X0161874Y0037978D03*
X0161874Y0039867D03*
X0161874Y0040104D03*
X0161874Y0040340D03*
X0161874Y0040576D03*
X0158803Y0037978D03*
X0160929Y0035379D03*
X0153842Y0035615D03*
X0153842Y0035852D03*
X0153842Y0036088D03*
X0153842Y0036324D03*
X0153842Y0036560D03*
X0153842Y0036796D03*
X0153842Y0037033D03*
X0153842Y0037269D03*
X0153842Y0037505D03*
X0153842Y0037741D03*
X0153842Y0037978D03*
X0107590Y0040812D03*
X0107590Y0041048D03*
X0107354Y0040340D03*
X0107354Y0040104D03*
X0107118Y0039867D03*
X0107118Y0039631D03*
X0107118Y0039395D03*
X0106881Y0039159D03*
X0106881Y0038922D03*
X0106881Y0038686D03*
X0105937Y0036088D03*
X0105937Y0035852D03*
X0101685Y0038686D03*
X0101448Y0038922D03*
X0101448Y0039159D03*
X0101448Y0039395D03*
X0101212Y0039631D03*
X0101212Y0039867D03*
X0101212Y0040104D03*
X0100976Y0040340D03*
X0100976Y0040576D03*
X0100976Y0040812D03*
X0104283Y0040812D03*
X0096960Y0039867D03*
X0096960Y0039631D03*
X0096960Y0039395D03*
X0096960Y0037505D03*
X0096960Y0037269D03*
X0096960Y0037033D03*
X0096960Y0036796D03*
X0096960Y0036560D03*
X0096960Y0036324D03*
X0096960Y0036088D03*
X0096960Y0035852D03*
X0096960Y0035615D03*
X0091763Y0035615D03*
X0091763Y0035852D03*
X0091763Y0036088D03*
X0091763Y0036324D03*
X0091763Y0036560D03*
X0091763Y0036796D03*
X0091763Y0037033D03*
X0091763Y0037269D03*
X0091763Y0037505D03*
X0091763Y0037741D03*
X0091763Y0037978D03*
X0091763Y0038214D03*
X0091763Y0038450D03*
X0091763Y0038686D03*
X0091763Y0038922D03*
X0091763Y0039159D03*
X0091763Y0039395D03*
X0091763Y0040812D03*
X0091763Y0041048D03*
X0091763Y0041285D03*
X0091763Y0041521D03*
X0085149Y0039867D03*
X0085149Y0039631D03*
X0085149Y0039395D03*
X0085149Y0039159D03*
X0085149Y0038922D03*
X0085149Y0038686D03*
X0085149Y0036796D03*
X0085149Y0036560D03*
X0085149Y0036324D03*
X0085149Y0036088D03*
X0085149Y0035852D03*
X0082315Y0036796D03*
X0082078Y0036560D03*
X0082078Y0036324D03*
X0081842Y0035852D03*
X0082078Y0038686D03*
X0081842Y0038922D03*
X0081842Y0039159D03*
X0081842Y0039395D03*
X0082078Y0039631D03*
X0074519Y0039631D03*
X0074519Y0039395D03*
X0074519Y0039867D03*
X0074283Y0037741D03*
X0074283Y0037505D03*
X0074283Y0037269D03*
X0074283Y0037033D03*
X0072157Y0036796D03*
X0069559Y0037269D03*
X0069559Y0037505D03*
X0069559Y0037741D03*
X0066488Y0037505D03*
X0064362Y0038214D03*
X0062236Y0036560D03*
X0059874Y0037033D03*
X0059874Y0037269D03*
X0059874Y0037505D03*
X0059874Y0037741D03*
X0059874Y0037978D03*
X0059874Y0039867D03*
X0059874Y0040104D03*
X0059874Y0040340D03*
X0059874Y0040576D03*
X0056803Y0037978D03*
X0058929Y0035379D03*
X0051842Y0035615D03*
X0051842Y0035852D03*
X0051842Y0036088D03*
X0051842Y0036324D03*
X0051842Y0036560D03*
X0051842Y0036796D03*
X0051842Y0037033D03*
X0051842Y0037269D03*
X0051842Y0037505D03*
X0051842Y0037741D03*
X0051842Y0037978D03*
X0051842Y0166115D03*
X0051842Y0166352D03*
X0051842Y0166588D03*
X0051842Y0166824D03*
X0051842Y0167060D03*
X0051842Y0167296D03*
X0051842Y0167533D03*
X0051842Y0167769D03*
X0051842Y0168005D03*
X0051842Y0168241D03*
X0051842Y0168478D03*
D73*
X0059047Y0166352D03*
X0059283Y0167060D03*
X0063535Y0165879D03*
X0063299Y0170131D03*
X0071803Y0166824D03*
X0071803Y0166588D03*
X0074874Y0168478D03*
X0075110Y0168950D03*
X0075110Y0169186D03*
X0075110Y0169422D03*
X0084322Y0172021D03*
X0102511Y0167769D03*
X0102511Y0167533D03*
X0102511Y0167296D03*
X0104165Y0170131D03*
X0104165Y0170367D03*
X0105819Y0167533D03*
X0161047Y0166352D03*
X0161283Y0167060D03*
X0165535Y0165879D03*
X0165299Y0170131D03*
X0173803Y0166824D03*
X0173803Y0166588D03*
X0176874Y0168478D03*
X0177110Y0168950D03*
X0177110Y0169186D03*
X0177110Y0169422D03*
X0186322Y0172021D03*
X0204511Y0167769D03*
X0204511Y0167533D03*
X0204511Y0167296D03*
X0206165Y0170131D03*
X0206165Y0170367D03*
X0207819Y0167533D03*
X0263047Y0166352D03*
X0263283Y0167060D03*
X0267535Y0165879D03*
X0267299Y0170131D03*
X0275803Y0166824D03*
X0275803Y0166588D03*
X0278874Y0168478D03*
X0279110Y0168950D03*
X0279110Y0169186D03*
X0279110Y0169422D03*
X0288322Y0172021D03*
X0306511Y0167769D03*
X0306511Y0167533D03*
X0306511Y0167296D03*
X0308165Y0170131D03*
X0308165Y0170367D03*
X0309819Y0167533D03*
X0308165Y0039867D03*
X0308165Y0039631D03*
X0306511Y0037269D03*
X0306511Y0037033D03*
X0306511Y0036796D03*
X0309819Y0037033D03*
X0288322Y0041521D03*
X0279110Y0038922D03*
X0279110Y0038686D03*
X0279110Y0038450D03*
X0278874Y0037978D03*
X0275803Y0036324D03*
X0275803Y0036088D03*
X0267535Y0035379D03*
X0267299Y0039631D03*
X0263283Y0036560D03*
X0263047Y0035852D03*
X0207819Y0037033D03*
X0206165Y0039631D03*
X0206165Y0039867D03*
X0204511Y0037269D03*
X0204511Y0037033D03*
X0204511Y0036796D03*
X0186322Y0041521D03*
X0177110Y0038922D03*
X0177110Y0038686D03*
X0177110Y0038450D03*
X0176874Y0037978D03*
X0173803Y0036324D03*
X0173803Y0036088D03*
X0165535Y0035379D03*
X0165299Y0039631D03*
X0161283Y0036560D03*
X0161047Y0035852D03*
X0105819Y0037033D03*
X0104165Y0039631D03*
X0104165Y0039867D03*
X0102511Y0037269D03*
X0102511Y0037033D03*
X0102511Y0036796D03*
X0084322Y0041521D03*
X0075110Y0038922D03*
X0075110Y0038686D03*
X0075110Y0038450D03*
X0074874Y0037978D03*
X0071803Y0036324D03*
X0071803Y0036088D03*
X0063535Y0035379D03*
X0063299Y0039631D03*
X0059283Y0036560D03*
X0059047Y0035852D03*
X0063535Y0296379D03*
X0063299Y0300631D03*
X0059283Y0297560D03*
X0059047Y0296852D03*
X0071803Y0297088D03*
X0071803Y0297324D03*
X0074874Y0298978D03*
X0075110Y0299450D03*
X0075110Y0299686D03*
X0075110Y0299922D03*
X0084322Y0302521D03*
X0102511Y0298269D03*
X0102511Y0298033D03*
X0102511Y0297796D03*
X0104165Y0300631D03*
X0104165Y0300867D03*
X0105819Y0298033D03*
X0161047Y0296852D03*
X0161283Y0297560D03*
X0165535Y0296379D03*
X0165299Y0300631D03*
X0173803Y0297324D03*
X0173803Y0297088D03*
X0176874Y0298978D03*
X0177110Y0299450D03*
X0177110Y0299686D03*
X0177110Y0299922D03*
X0186322Y0302521D03*
X0204511Y0298269D03*
X0204511Y0298033D03*
X0204511Y0297796D03*
X0206165Y0300631D03*
X0206165Y0300867D03*
X0207819Y0298033D03*
X0263047Y0296852D03*
X0263283Y0297560D03*
X0267535Y0296379D03*
X0267299Y0300631D03*
X0275803Y0297324D03*
X0275803Y0297088D03*
X0278874Y0298978D03*
X0279110Y0299450D03*
X0279110Y0299686D03*
X0279110Y0299922D03*
X0288322Y0302521D03*
X0306511Y0298269D03*
X0306511Y0298033D03*
X0306511Y0297796D03*
X0308165Y0300631D03*
X0308165Y0300867D03*
X0309819Y0298033D03*
D74*
X0309937Y0298269D03*
X0309937Y0298505D03*
X0308283Y0300395D03*
X0280645Y0302521D03*
X0278992Y0299214D03*
X0263165Y0297324D03*
X0263165Y0297088D03*
X0207937Y0298269D03*
X0207937Y0298505D03*
X0206283Y0300395D03*
X0178645Y0302521D03*
X0176992Y0299214D03*
X0161165Y0297324D03*
X0161165Y0297088D03*
X0105937Y0298269D03*
X0105937Y0298505D03*
X0104283Y0300395D03*
X0076645Y0302521D03*
X0074992Y0299214D03*
X0059165Y0297324D03*
X0059165Y0297088D03*
X0076645Y0172021D03*
X0074992Y0168714D03*
X0059165Y0166824D03*
X0059165Y0166588D03*
X0104283Y0169895D03*
X0105937Y0168005D03*
X0105937Y0167769D03*
X0161165Y0166824D03*
X0161165Y0166588D03*
X0176992Y0168714D03*
X0178645Y0172021D03*
X0206283Y0169895D03*
X0207937Y0168005D03*
X0207937Y0167769D03*
X0263165Y0166824D03*
X0263165Y0166588D03*
X0278992Y0168714D03*
X0280645Y0172021D03*
X0308283Y0169895D03*
X0309937Y0168005D03*
X0309937Y0167769D03*
X0308283Y0039395D03*
X0309937Y0037505D03*
X0309937Y0037269D03*
X0280645Y0041521D03*
X0278992Y0038214D03*
X0263165Y0036324D03*
X0263165Y0036088D03*
X0207937Y0037269D03*
X0207937Y0037505D03*
X0206283Y0039395D03*
X0178645Y0041521D03*
X0176992Y0038214D03*
X0161165Y0036324D03*
X0161165Y0036088D03*
X0105937Y0037269D03*
X0105937Y0037505D03*
X0104283Y0039395D03*
X0076645Y0041521D03*
X0074992Y0038214D03*
X0059165Y0036324D03*
X0059165Y0036088D03*
D75*
X0076055Y0036324D03*
X0076055Y0036560D03*
X0076055Y0040104D03*
X0076055Y0040340D03*
X0083614Y0040104D03*
X0083614Y0038450D03*
X0083614Y0038214D03*
X0095425Y0040104D03*
X0095189Y0041285D03*
X0178055Y0040340D03*
X0178055Y0040104D03*
X0178055Y0036560D03*
X0178055Y0036324D03*
X0185614Y0038214D03*
X0185614Y0038450D03*
X0185614Y0040104D03*
X0197189Y0041285D03*
X0197425Y0040104D03*
X0280055Y0040104D03*
X0280055Y0040340D03*
X0280055Y0036560D03*
X0280055Y0036324D03*
X0287614Y0038214D03*
X0287614Y0038450D03*
X0287614Y0040104D03*
X0299189Y0041285D03*
X0299425Y0040104D03*
X0280055Y0166824D03*
X0280055Y0167060D03*
X0280055Y0170604D03*
X0280055Y0170840D03*
X0287614Y0170604D03*
X0287614Y0168950D03*
X0287614Y0168714D03*
X0299425Y0170604D03*
X0299189Y0171785D03*
X0197425Y0170604D03*
X0197189Y0171785D03*
X0185614Y0170604D03*
X0185614Y0168950D03*
X0185614Y0168714D03*
X0178055Y0167060D03*
X0178055Y0166824D03*
X0178055Y0170604D03*
X0178055Y0170840D03*
X0095425Y0170604D03*
X0095189Y0171785D03*
X0083614Y0170604D03*
X0083614Y0168950D03*
X0083614Y0168714D03*
X0076055Y0167060D03*
X0076055Y0166824D03*
X0076055Y0170604D03*
X0076055Y0170840D03*
X0076055Y0297324D03*
X0076055Y0297560D03*
X0076055Y0301104D03*
X0076055Y0301340D03*
X0083614Y0301104D03*
X0083614Y0299450D03*
X0083614Y0299214D03*
X0095425Y0301104D03*
X0095189Y0302285D03*
X0178055Y0301340D03*
X0178055Y0301104D03*
X0178055Y0297560D03*
X0178055Y0297324D03*
X0185614Y0299214D03*
X0185614Y0299450D03*
X0185614Y0301104D03*
X0197189Y0302285D03*
X0197425Y0301104D03*
X0280055Y0301104D03*
X0280055Y0301340D03*
X0280055Y0297560D03*
X0280055Y0297324D03*
X0287614Y0299214D03*
X0287614Y0299450D03*
X0287614Y0301104D03*
X0299189Y0302285D03*
X0299425Y0301104D03*
D76*
X0300015Y0300159D03*
X0288204Y0302285D03*
X0280409Y0296379D03*
X0271669Y0296615D03*
X0271669Y0300395D03*
X0267417Y0299922D03*
X0267417Y0297088D03*
X0267417Y0296852D03*
X0263637Y0300395D03*
X0259149Y0300159D03*
X0259149Y0296852D03*
X0254897Y0299686D03*
X0254897Y0299922D03*
X0254897Y0300159D03*
X0254897Y0300395D03*
X0198015Y0300159D03*
X0186204Y0302285D03*
X0178409Y0296379D03*
X0169669Y0296615D03*
X0169669Y0300395D03*
X0165417Y0299922D03*
X0165417Y0297088D03*
X0165417Y0296852D03*
X0161637Y0300395D03*
X0157149Y0300159D03*
X0157149Y0296852D03*
X0152897Y0299686D03*
X0152897Y0299922D03*
X0152897Y0300159D03*
X0152897Y0300395D03*
X0096015Y0300159D03*
X0084204Y0302285D03*
X0076409Y0296379D03*
X0067669Y0296615D03*
X0067669Y0300395D03*
X0063417Y0299922D03*
X0063417Y0297088D03*
X0063417Y0296852D03*
X0059637Y0300395D03*
X0055149Y0300159D03*
X0055149Y0296852D03*
X0050897Y0299686D03*
X0050897Y0299922D03*
X0050897Y0300159D03*
X0050897Y0300395D03*
X0084204Y0171785D03*
X0076409Y0165879D03*
X0067669Y0166115D03*
X0067669Y0169895D03*
X0063417Y0169422D03*
X0063417Y0166588D03*
X0063417Y0166352D03*
X0059637Y0169895D03*
X0055149Y0169659D03*
X0055149Y0166352D03*
X0050897Y0169186D03*
X0050897Y0169422D03*
X0050897Y0169659D03*
X0050897Y0169895D03*
X0096015Y0169659D03*
X0152897Y0169659D03*
X0152897Y0169895D03*
X0152897Y0169422D03*
X0152897Y0169186D03*
X0157149Y0169659D03*
X0157149Y0166352D03*
X0161637Y0169895D03*
X0165417Y0169422D03*
X0165417Y0166588D03*
X0165417Y0166352D03*
X0169669Y0166115D03*
X0169669Y0169895D03*
X0178409Y0165879D03*
X0186204Y0171785D03*
X0198015Y0169659D03*
X0254897Y0169659D03*
X0254897Y0169895D03*
X0254897Y0169422D03*
X0254897Y0169186D03*
X0259149Y0169659D03*
X0259149Y0166352D03*
X0263637Y0169895D03*
X0267417Y0169422D03*
X0267417Y0166588D03*
X0267417Y0166352D03*
X0271669Y0166115D03*
X0271669Y0169895D03*
X0280409Y0165879D03*
X0288204Y0171785D03*
X0300015Y0169659D03*
X0288204Y0041285D03*
X0280409Y0035379D03*
X0271669Y0035615D03*
X0271669Y0039395D03*
X0267417Y0038922D03*
X0267417Y0036088D03*
X0267417Y0035852D03*
X0263637Y0039395D03*
X0259149Y0039159D03*
X0259149Y0035852D03*
X0254897Y0038686D03*
X0254897Y0038922D03*
X0254897Y0039159D03*
X0254897Y0039395D03*
X0300015Y0039159D03*
X0198015Y0039159D03*
X0186204Y0041285D03*
X0178409Y0035379D03*
X0169669Y0035615D03*
X0169669Y0039395D03*
X0165417Y0038922D03*
X0165417Y0036088D03*
X0165417Y0035852D03*
X0161637Y0039395D03*
X0157149Y0039159D03*
X0157149Y0035852D03*
X0152897Y0038686D03*
X0152897Y0038922D03*
X0152897Y0039159D03*
X0152897Y0039395D03*
X0096015Y0039159D03*
X0084204Y0041285D03*
X0076409Y0035379D03*
X0067669Y0035615D03*
X0067669Y0039395D03*
X0063417Y0038922D03*
X0063417Y0036088D03*
X0063417Y0035852D03*
X0059637Y0039395D03*
X0055149Y0039159D03*
X0055149Y0035852D03*
X0050897Y0038686D03*
X0050897Y0038922D03*
X0050897Y0039159D03*
X0050897Y0039395D03*
D77*
X0075937Y0036796D03*
X0095307Y0040340D03*
X0095307Y0040576D03*
X0095307Y0040812D03*
X0095307Y0041048D03*
X0177937Y0036796D03*
X0197307Y0040340D03*
X0197307Y0040576D03*
X0197307Y0040812D03*
X0197307Y0041048D03*
X0279937Y0036796D03*
X0299307Y0040340D03*
X0299307Y0040576D03*
X0299307Y0040812D03*
X0299307Y0041048D03*
X0279937Y0167296D03*
X0299307Y0170840D03*
X0299307Y0171076D03*
X0299307Y0171312D03*
X0299307Y0171548D03*
X0197307Y0171548D03*
X0197307Y0171312D03*
X0197307Y0171076D03*
X0197307Y0170840D03*
X0177937Y0167296D03*
X0095307Y0170840D03*
X0095307Y0171076D03*
X0095307Y0171312D03*
X0095307Y0171548D03*
X0075937Y0167296D03*
X0075937Y0297796D03*
X0095307Y0301340D03*
X0095307Y0301576D03*
X0095307Y0301812D03*
X0095307Y0302048D03*
X0177937Y0297796D03*
X0197307Y0301340D03*
X0197307Y0301576D03*
X0197307Y0301812D03*
X0197307Y0302048D03*
X0279937Y0297796D03*
X0299307Y0301340D03*
X0299307Y0301576D03*
X0299307Y0301812D03*
X0299307Y0302048D03*
D78*
X0299779Y0299922D03*
X0299779Y0299686D03*
X0299779Y0299450D03*
X0299779Y0299214D03*
X0299779Y0298978D03*
X0287968Y0302048D03*
X0280409Y0302048D03*
X0280409Y0296615D03*
X0271669Y0296852D03*
X0271669Y0300159D03*
X0259622Y0298033D03*
X0259385Y0297324D03*
X0197779Y0298978D03*
X0197779Y0299214D03*
X0197779Y0299450D03*
X0197779Y0299686D03*
X0197779Y0299922D03*
X0185968Y0302048D03*
X0178409Y0302048D03*
X0178409Y0296615D03*
X0169669Y0296852D03*
X0169669Y0300159D03*
X0157622Y0298033D03*
X0157385Y0297324D03*
X0095779Y0298978D03*
X0095779Y0299214D03*
X0095779Y0299450D03*
X0095779Y0299686D03*
X0095779Y0299922D03*
X0083968Y0302048D03*
X0076409Y0302048D03*
X0076409Y0296615D03*
X0067669Y0296852D03*
X0067669Y0300159D03*
X0055622Y0298033D03*
X0055385Y0297324D03*
X0076409Y0171548D03*
X0076409Y0166115D03*
X0067669Y0166352D03*
X0067669Y0169659D03*
X0055622Y0167533D03*
X0055385Y0166824D03*
X0083968Y0171548D03*
X0095779Y0169422D03*
X0095779Y0169186D03*
X0095779Y0168950D03*
X0095779Y0168714D03*
X0095779Y0168478D03*
X0157385Y0166824D03*
X0157622Y0167533D03*
X0169669Y0166352D03*
X0169669Y0169659D03*
X0178409Y0171548D03*
X0178409Y0166115D03*
X0185968Y0171548D03*
X0197779Y0169422D03*
X0197779Y0169186D03*
X0197779Y0168950D03*
X0197779Y0168714D03*
X0197779Y0168478D03*
X0259385Y0166824D03*
X0259622Y0167533D03*
X0271669Y0166352D03*
X0271669Y0169659D03*
X0280409Y0171548D03*
X0280409Y0166115D03*
X0287968Y0171548D03*
X0299779Y0169422D03*
X0299779Y0169186D03*
X0299779Y0168950D03*
X0299779Y0168714D03*
X0299779Y0168478D03*
X0287968Y0041048D03*
X0280409Y0041048D03*
X0280409Y0035615D03*
X0271669Y0035852D03*
X0271669Y0039159D03*
X0259622Y0037033D03*
X0259385Y0036324D03*
X0299779Y0037978D03*
X0299779Y0038214D03*
X0299779Y0038450D03*
X0299779Y0038686D03*
X0299779Y0038922D03*
X0197779Y0038922D03*
X0197779Y0038686D03*
X0197779Y0038450D03*
X0197779Y0038214D03*
X0197779Y0037978D03*
X0185968Y0041048D03*
X0178409Y0041048D03*
X0178409Y0035615D03*
X0169669Y0035852D03*
X0169669Y0039159D03*
X0157622Y0037033D03*
X0157385Y0036324D03*
X0095779Y0037978D03*
X0095779Y0038214D03*
X0095779Y0038450D03*
X0095779Y0038686D03*
X0095779Y0038922D03*
X0083968Y0041048D03*
X0076409Y0041048D03*
X0076409Y0035615D03*
X0067669Y0035852D03*
X0067669Y0039159D03*
X0055622Y0037033D03*
X0055385Y0036324D03*
D79*
X0055504Y0037269D03*
X0055267Y0038450D03*
X0055267Y0038686D03*
X0067787Y0038922D03*
X0067787Y0036088D03*
X0076291Y0035852D03*
X0076291Y0040812D03*
X0083850Y0040812D03*
X0083850Y0037741D03*
X0083850Y0037505D03*
X0157267Y0038450D03*
X0157267Y0038686D03*
X0157504Y0037269D03*
X0169787Y0036088D03*
X0169787Y0038922D03*
X0178291Y0040812D03*
X0178291Y0035852D03*
X0185850Y0037505D03*
X0185850Y0037741D03*
X0185850Y0040812D03*
X0259267Y0038686D03*
X0259267Y0038450D03*
X0259504Y0037269D03*
X0271787Y0036088D03*
X0271787Y0038922D03*
X0280291Y0040812D03*
X0280291Y0035852D03*
X0287850Y0037505D03*
X0287850Y0037741D03*
X0287850Y0040812D03*
X0280291Y0166352D03*
X0280291Y0171312D03*
X0287850Y0171312D03*
X0287850Y0168241D03*
X0287850Y0168005D03*
X0271787Y0166588D03*
X0271787Y0169422D03*
X0259504Y0167769D03*
X0259267Y0168950D03*
X0259267Y0169186D03*
X0185850Y0168241D03*
X0185850Y0168005D03*
X0185850Y0171312D03*
X0178291Y0171312D03*
X0178291Y0166352D03*
X0169787Y0166588D03*
X0169787Y0169422D03*
X0157504Y0167769D03*
X0157267Y0168950D03*
X0157267Y0169186D03*
X0083850Y0168241D03*
X0083850Y0168005D03*
X0083850Y0171312D03*
X0076291Y0171312D03*
X0076291Y0166352D03*
X0067787Y0166588D03*
X0067787Y0169422D03*
X0055504Y0167769D03*
X0055267Y0168950D03*
X0055267Y0169186D03*
X0076291Y0296852D03*
X0076291Y0301812D03*
X0083850Y0301812D03*
X0083850Y0298741D03*
X0083850Y0298505D03*
X0067787Y0297088D03*
X0067787Y0299922D03*
X0055504Y0298269D03*
X0055267Y0299450D03*
X0055267Y0299686D03*
X0157267Y0299686D03*
X0157267Y0299450D03*
X0157504Y0298269D03*
X0169787Y0297088D03*
X0169787Y0299922D03*
X0178291Y0301812D03*
X0178291Y0296852D03*
X0185850Y0298505D03*
X0185850Y0298741D03*
X0185850Y0301812D03*
X0259267Y0299686D03*
X0259267Y0299450D03*
X0259504Y0298269D03*
X0271787Y0297088D03*
X0271787Y0299922D03*
X0280291Y0301812D03*
X0280291Y0296852D03*
X0287850Y0298505D03*
X0287850Y0298741D03*
X0287850Y0301812D03*
D80*
X0286196Y0300867D03*
X0285960Y0297088D03*
X0273441Y0298033D03*
X0273441Y0298978D03*
X0270606Y0298978D03*
X0270606Y0298741D03*
X0270606Y0298269D03*
X0270606Y0298033D03*
X0263992Y0299214D03*
X0263047Y0296615D03*
X0260685Y0297796D03*
X0260448Y0297560D03*
X0260685Y0299214D03*
X0255724Y0299214D03*
X0209472Y0301576D03*
X0206165Y0301576D03*
X0206165Y0301340D03*
X0204511Y0297560D03*
X0204511Y0297324D03*
X0204511Y0297088D03*
X0207819Y0297324D03*
X0183960Y0297088D03*
X0184196Y0300867D03*
X0171441Y0298978D03*
X0171441Y0298033D03*
X0168606Y0298033D03*
X0168606Y0298269D03*
X0168606Y0298741D03*
X0168606Y0298978D03*
X0161992Y0299214D03*
X0161047Y0296615D03*
X0158685Y0297796D03*
X0158448Y0297560D03*
X0158685Y0299214D03*
X0153724Y0299214D03*
X0107472Y0301576D03*
X0104165Y0301576D03*
X0104165Y0301340D03*
X0102511Y0297560D03*
X0102511Y0297324D03*
X0102511Y0297088D03*
X0105819Y0297324D03*
X0081960Y0297088D03*
X0082196Y0300867D03*
X0069441Y0298978D03*
X0069441Y0298033D03*
X0066606Y0298033D03*
X0066606Y0298269D03*
X0066606Y0298741D03*
X0066606Y0298978D03*
X0059992Y0299214D03*
X0059047Y0296615D03*
X0056685Y0297796D03*
X0056448Y0297560D03*
X0056685Y0299214D03*
X0051724Y0299214D03*
X0104165Y0171076D03*
X0104165Y0170840D03*
X0107472Y0171076D03*
X0105819Y0166824D03*
X0102511Y0166824D03*
X0102511Y0166588D03*
X0102511Y0167060D03*
X0081960Y0166588D03*
X0082196Y0170367D03*
X0069441Y0168478D03*
X0069441Y0167533D03*
X0066606Y0167533D03*
X0066606Y0167769D03*
X0066606Y0168241D03*
X0066606Y0168478D03*
X0059992Y0168714D03*
X0059047Y0166115D03*
X0056685Y0167296D03*
X0056448Y0167060D03*
X0056685Y0168714D03*
X0051724Y0168714D03*
X0153724Y0168714D03*
X0158685Y0168714D03*
X0158685Y0167296D03*
X0158448Y0167060D03*
X0161047Y0166115D03*
X0161992Y0168714D03*
X0168606Y0168478D03*
X0168606Y0168241D03*
X0168606Y0167769D03*
X0168606Y0167533D03*
X0171441Y0167533D03*
X0171441Y0168478D03*
X0183960Y0166588D03*
X0184196Y0170367D03*
X0204511Y0167060D03*
X0204511Y0166824D03*
X0204511Y0166588D03*
X0207819Y0166824D03*
X0206165Y0170840D03*
X0206165Y0171076D03*
X0209472Y0171076D03*
X0255724Y0168714D03*
X0260685Y0168714D03*
X0260685Y0167296D03*
X0260448Y0167060D03*
X0263047Y0166115D03*
X0263992Y0168714D03*
X0270606Y0168478D03*
X0270606Y0168241D03*
X0270606Y0167769D03*
X0270606Y0167533D03*
X0273441Y0167533D03*
X0273441Y0168478D03*
X0285960Y0166588D03*
X0286196Y0170367D03*
X0306511Y0167060D03*
X0306511Y0166824D03*
X0306511Y0166588D03*
X0309819Y0166824D03*
X0308165Y0170840D03*
X0308165Y0171076D03*
X0311472Y0171076D03*
X0306511Y0297088D03*
X0306511Y0297324D03*
X0306511Y0297560D03*
X0309819Y0297324D03*
X0308165Y0301340D03*
X0308165Y0301576D03*
X0311472Y0301576D03*
X0311472Y0040576D03*
X0308165Y0040576D03*
X0308165Y0040340D03*
X0306511Y0036560D03*
X0306511Y0036324D03*
X0306511Y0036088D03*
X0309819Y0036324D03*
X0285960Y0036088D03*
X0286196Y0039867D03*
X0273441Y0037978D03*
X0273441Y0037033D03*
X0270606Y0037033D03*
X0270606Y0037269D03*
X0270606Y0037741D03*
X0270606Y0037978D03*
X0263992Y0038214D03*
X0263047Y0035615D03*
X0260685Y0036796D03*
X0260448Y0036560D03*
X0260685Y0038214D03*
X0255724Y0038214D03*
X0209472Y0040576D03*
X0206165Y0040576D03*
X0206165Y0040340D03*
X0204511Y0036560D03*
X0204511Y0036324D03*
X0204511Y0036088D03*
X0207819Y0036324D03*
X0183960Y0036088D03*
X0184196Y0039867D03*
X0171441Y0037978D03*
X0171441Y0037033D03*
X0168606Y0037033D03*
X0168606Y0037269D03*
X0168606Y0037741D03*
X0168606Y0037978D03*
X0161992Y0038214D03*
X0161047Y0035615D03*
X0158685Y0036796D03*
X0158448Y0036560D03*
X0158685Y0038214D03*
X0153724Y0038214D03*
X0107472Y0040576D03*
X0104165Y0040576D03*
X0104165Y0040340D03*
X0102511Y0036560D03*
X0102511Y0036324D03*
X0102511Y0036088D03*
X0105819Y0036324D03*
X0081960Y0036088D03*
X0082196Y0039867D03*
X0069441Y0037978D03*
X0069441Y0037033D03*
X0066606Y0037033D03*
X0066606Y0037269D03*
X0066606Y0037741D03*
X0066606Y0037978D03*
X0059992Y0038214D03*
X0059047Y0035615D03*
X0056685Y0036796D03*
X0056448Y0036560D03*
X0056685Y0038214D03*
X0051724Y0038214D03*
D81*
X0055385Y0037741D03*
X0055385Y0037505D03*
X0067905Y0036796D03*
X0067905Y0036560D03*
X0067905Y0036324D03*
X0067905Y0038214D03*
X0067905Y0038450D03*
X0067905Y0038686D03*
X0076173Y0040576D03*
X0076173Y0036088D03*
X0083732Y0037033D03*
X0083732Y0037269D03*
X0083732Y0037978D03*
X0083732Y0040340D03*
X0083732Y0040576D03*
X0157385Y0037741D03*
X0157385Y0037505D03*
X0169905Y0036796D03*
X0169905Y0036560D03*
X0169905Y0036324D03*
X0169905Y0038214D03*
X0169905Y0038450D03*
X0169905Y0038686D03*
X0178173Y0040576D03*
X0178173Y0036088D03*
X0185732Y0037033D03*
X0185732Y0037269D03*
X0185732Y0037978D03*
X0185732Y0040340D03*
X0185732Y0040576D03*
X0259385Y0037741D03*
X0259385Y0037505D03*
X0271905Y0036796D03*
X0271905Y0036560D03*
X0271905Y0036324D03*
X0271905Y0038214D03*
X0271905Y0038450D03*
X0271905Y0038686D03*
X0280173Y0040576D03*
X0280173Y0036088D03*
X0287732Y0037033D03*
X0287732Y0037269D03*
X0287732Y0037978D03*
X0287732Y0040340D03*
X0287732Y0040576D03*
X0280173Y0166588D03*
X0280173Y0171076D03*
X0287732Y0171076D03*
X0287732Y0170840D03*
X0287732Y0168478D03*
X0287732Y0167769D03*
X0287732Y0167533D03*
X0271905Y0167296D03*
X0271905Y0167060D03*
X0271905Y0166824D03*
X0271905Y0168714D03*
X0271905Y0168950D03*
X0271905Y0169186D03*
X0259385Y0168241D03*
X0259385Y0168005D03*
X0185732Y0167769D03*
X0185732Y0167533D03*
X0185732Y0168478D03*
X0185732Y0170840D03*
X0185732Y0171076D03*
X0178173Y0171076D03*
X0178173Y0166588D03*
X0169905Y0166824D03*
X0169905Y0167060D03*
X0169905Y0167296D03*
X0169905Y0168714D03*
X0169905Y0168950D03*
X0169905Y0169186D03*
X0157385Y0168241D03*
X0157385Y0168005D03*
X0083732Y0167769D03*
X0083732Y0167533D03*
X0083732Y0168478D03*
X0083732Y0170840D03*
X0083732Y0171076D03*
X0076173Y0171076D03*
X0076173Y0166588D03*
X0067905Y0166824D03*
X0067905Y0167060D03*
X0067905Y0167296D03*
X0067905Y0168714D03*
X0067905Y0168950D03*
X0067905Y0169186D03*
X0055385Y0168241D03*
X0055385Y0168005D03*
X0067905Y0297324D03*
X0067905Y0297560D03*
X0067905Y0297796D03*
X0067905Y0299214D03*
X0067905Y0299450D03*
X0067905Y0299686D03*
X0076173Y0301576D03*
X0076173Y0297088D03*
X0083732Y0298033D03*
X0083732Y0298269D03*
X0083732Y0298978D03*
X0083732Y0301340D03*
X0083732Y0301576D03*
X0055385Y0298741D03*
X0055385Y0298505D03*
X0157385Y0298505D03*
X0157385Y0298741D03*
X0169905Y0299214D03*
X0169905Y0299450D03*
X0169905Y0299686D03*
X0169905Y0297796D03*
X0169905Y0297560D03*
X0169905Y0297324D03*
X0178173Y0297088D03*
X0178173Y0301576D03*
X0185732Y0301576D03*
X0185732Y0301340D03*
X0185732Y0298978D03*
X0185732Y0298269D03*
X0185732Y0298033D03*
X0259385Y0298505D03*
X0259385Y0298741D03*
X0271905Y0299214D03*
X0271905Y0299450D03*
X0271905Y0299686D03*
X0271905Y0297796D03*
X0271905Y0297560D03*
X0271905Y0297324D03*
X0280173Y0297088D03*
X0280173Y0301576D03*
X0287732Y0301576D03*
X0287732Y0301340D03*
X0287732Y0298978D03*
X0287732Y0298269D03*
X0287732Y0298033D03*
D82*
X0295763Y0301340D03*
X0257968Y0297560D03*
X0193763Y0301340D03*
X0155968Y0297560D03*
X0091763Y0301340D03*
X0053968Y0297560D03*
X0091763Y0170840D03*
X0053968Y0167060D03*
X0155968Y0167060D03*
X0193763Y0170840D03*
X0257968Y0167060D03*
X0295763Y0170840D03*
X0295763Y0040340D03*
X0257968Y0036560D03*
X0193763Y0040340D03*
X0155968Y0036560D03*
X0091763Y0040340D03*
X0053968Y0036560D03*
D83*
X0055149Y0039631D03*
X0062472Y0036796D03*
X0071685Y0035852D03*
X0071685Y0035615D03*
X0071921Y0036560D03*
X0074756Y0039159D03*
X0104283Y0040104D03*
X0105937Y0036796D03*
X0105937Y0036560D03*
X0157149Y0039631D03*
X0164472Y0036796D03*
X0173685Y0035852D03*
X0173685Y0035615D03*
X0173921Y0036560D03*
X0176756Y0039159D03*
X0206283Y0040104D03*
X0207937Y0036796D03*
X0207937Y0036560D03*
X0259149Y0039631D03*
X0266472Y0036796D03*
X0275685Y0035852D03*
X0275685Y0035615D03*
X0275921Y0036560D03*
X0278756Y0039159D03*
X0308283Y0040104D03*
X0309937Y0036796D03*
X0309937Y0036560D03*
X0309937Y0167060D03*
X0309937Y0167296D03*
X0308283Y0170604D03*
X0278756Y0169659D03*
X0275921Y0167060D03*
X0275685Y0166352D03*
X0275685Y0166115D03*
X0266472Y0167296D03*
X0259149Y0170131D03*
X0207937Y0167296D03*
X0207937Y0167060D03*
X0206283Y0170604D03*
X0176756Y0169659D03*
X0173921Y0167060D03*
X0173685Y0166352D03*
X0173685Y0166115D03*
X0164472Y0167296D03*
X0157149Y0170131D03*
X0105937Y0167296D03*
X0105937Y0167060D03*
X0104283Y0170604D03*
X0074756Y0169659D03*
X0071921Y0167060D03*
X0071685Y0166352D03*
X0071685Y0166115D03*
X0062472Y0167296D03*
X0055149Y0170131D03*
X0071685Y0296615D03*
X0071685Y0296852D03*
X0071921Y0297560D03*
X0074756Y0300159D03*
X0062472Y0297796D03*
X0055149Y0300631D03*
X0104283Y0301104D03*
X0105937Y0297796D03*
X0105937Y0297560D03*
X0157149Y0300631D03*
X0164472Y0297796D03*
X0173685Y0296852D03*
X0173685Y0296615D03*
X0173921Y0297560D03*
X0176756Y0300159D03*
X0206283Y0301104D03*
X0207937Y0297796D03*
X0207937Y0297560D03*
X0259149Y0300631D03*
X0266472Y0297796D03*
X0275685Y0296852D03*
X0275685Y0296615D03*
X0275921Y0297560D03*
X0278756Y0300159D03*
X0308283Y0301104D03*
X0309937Y0297796D03*
X0309937Y0297560D03*
D84*
X0306511Y0299214D03*
X0267535Y0299686D03*
X0267299Y0300159D03*
X0267299Y0298505D03*
X0267535Y0296615D03*
X0263519Y0299450D03*
X0263519Y0300631D03*
X0259031Y0296615D03*
X0255015Y0299450D03*
X0204511Y0299214D03*
X0165535Y0299686D03*
X0165299Y0300159D03*
X0165299Y0298505D03*
X0165535Y0296615D03*
X0161519Y0299450D03*
X0161519Y0300631D03*
X0157031Y0296615D03*
X0153015Y0299450D03*
X0102511Y0299214D03*
X0063535Y0299686D03*
X0063299Y0300159D03*
X0063299Y0298505D03*
X0063535Y0296615D03*
X0059519Y0299450D03*
X0059519Y0300631D03*
X0055031Y0296615D03*
X0051015Y0299450D03*
X0059519Y0170131D03*
X0059519Y0168950D03*
X0063299Y0169659D03*
X0063535Y0169186D03*
X0063299Y0168005D03*
X0063535Y0166115D03*
X0055031Y0166115D03*
X0051015Y0168950D03*
X0102511Y0168714D03*
X0153015Y0168950D03*
X0157031Y0166115D03*
X0161519Y0168950D03*
X0161519Y0170131D03*
X0165299Y0169659D03*
X0165535Y0169186D03*
X0165299Y0168005D03*
X0165535Y0166115D03*
X0204511Y0168714D03*
X0255015Y0168950D03*
X0259031Y0166115D03*
X0263519Y0168950D03*
X0263519Y0170131D03*
X0267299Y0169659D03*
X0267535Y0169186D03*
X0267299Y0168005D03*
X0267535Y0166115D03*
X0306511Y0168714D03*
X0267299Y0039159D03*
X0267535Y0038686D03*
X0267299Y0037505D03*
X0267535Y0035615D03*
X0263519Y0038450D03*
X0263519Y0039631D03*
X0259031Y0035615D03*
X0255015Y0038450D03*
X0204511Y0038214D03*
X0165535Y0038686D03*
X0165299Y0039159D03*
X0165299Y0037505D03*
X0165535Y0035615D03*
X0161519Y0038450D03*
X0161519Y0039631D03*
X0157031Y0035615D03*
X0153015Y0038450D03*
X0102511Y0038214D03*
X0063535Y0038686D03*
X0063299Y0039159D03*
X0063299Y0037505D03*
X0063535Y0035615D03*
X0059519Y0038450D03*
X0059519Y0039631D03*
X0055031Y0035615D03*
X0051015Y0038450D03*
X0306511Y0038214D03*
D85*
X0308283Y0038686D03*
X0309937Y0038214D03*
X0309937Y0037978D03*
X0267417Y0037741D03*
X0267181Y0037269D03*
X0267181Y0039395D03*
X0259149Y0039395D03*
X0207937Y0038214D03*
X0207937Y0037978D03*
X0206283Y0038686D03*
X0165417Y0037741D03*
X0165181Y0037269D03*
X0165181Y0039395D03*
X0157149Y0039395D03*
X0105937Y0038214D03*
X0105937Y0037978D03*
X0104283Y0038686D03*
X0063417Y0037741D03*
X0063181Y0037269D03*
X0063181Y0039395D03*
X0055149Y0039395D03*
X0063181Y0167769D03*
X0063417Y0168241D03*
X0063181Y0169895D03*
X0055149Y0169895D03*
X0104283Y0169186D03*
X0105937Y0168714D03*
X0105937Y0168478D03*
X0157149Y0169895D03*
X0165181Y0169895D03*
X0165417Y0168241D03*
X0165181Y0167769D03*
X0206283Y0169186D03*
X0207937Y0168714D03*
X0207937Y0168478D03*
X0259149Y0169895D03*
X0267181Y0169895D03*
X0267417Y0168241D03*
X0267181Y0167769D03*
X0308283Y0169186D03*
X0309937Y0168714D03*
X0309937Y0168478D03*
X0309937Y0298978D03*
X0309937Y0299214D03*
X0308283Y0299686D03*
X0267417Y0298741D03*
X0267181Y0298269D03*
X0267181Y0300395D03*
X0259149Y0300395D03*
X0207937Y0299214D03*
X0207937Y0298978D03*
X0206283Y0299686D03*
X0165417Y0298741D03*
X0165181Y0298269D03*
X0165181Y0300395D03*
X0157149Y0300395D03*
X0105937Y0299214D03*
X0105937Y0298978D03*
X0104283Y0299686D03*
X0063417Y0298741D03*
X0063181Y0298269D03*
X0063181Y0300395D03*
X0055149Y0300395D03*
D86*
X0055031Y0296379D03*
X0062826Y0298033D03*
X0063771Y0298978D03*
X0102511Y0298978D03*
X0102511Y0298741D03*
X0102511Y0298505D03*
X0104165Y0299922D03*
X0104165Y0300159D03*
X0105819Y0298741D03*
X0157031Y0296379D03*
X0164826Y0298033D03*
X0165771Y0298978D03*
X0204511Y0298978D03*
X0204511Y0298741D03*
X0204511Y0298505D03*
X0206165Y0299922D03*
X0206165Y0300159D03*
X0207819Y0298741D03*
X0259031Y0296379D03*
X0266826Y0298033D03*
X0267771Y0298978D03*
X0306511Y0298978D03*
X0306511Y0298741D03*
X0306511Y0298505D03*
X0308165Y0299922D03*
X0308165Y0300159D03*
X0309819Y0298741D03*
X0308165Y0169659D03*
X0308165Y0169422D03*
X0306511Y0168478D03*
X0306511Y0168241D03*
X0306511Y0168005D03*
X0309819Y0168241D03*
X0267771Y0168478D03*
X0266826Y0167533D03*
X0259031Y0165879D03*
X0207819Y0168241D03*
X0206165Y0169422D03*
X0206165Y0169659D03*
X0204511Y0168478D03*
X0204511Y0168241D03*
X0204511Y0168005D03*
X0165771Y0168478D03*
X0164826Y0167533D03*
X0157031Y0165879D03*
X0105819Y0168241D03*
X0104165Y0169422D03*
X0104165Y0169659D03*
X0102511Y0168478D03*
X0102511Y0168241D03*
X0102511Y0168005D03*
X0063771Y0168478D03*
X0062826Y0167533D03*
X0055031Y0165879D03*
X0104165Y0039159D03*
X0104165Y0038922D03*
X0102511Y0037978D03*
X0102511Y0037741D03*
X0102511Y0037505D03*
X0105819Y0037741D03*
X0063771Y0037978D03*
X0062826Y0037033D03*
X0055031Y0035379D03*
X0157031Y0035379D03*
X0164826Y0037033D03*
X0165771Y0037978D03*
X0204511Y0037978D03*
X0204511Y0037741D03*
X0204511Y0037505D03*
X0206165Y0038922D03*
X0206165Y0039159D03*
X0207819Y0037741D03*
X0259031Y0035379D03*
X0266826Y0037033D03*
X0267771Y0037978D03*
X0306511Y0037978D03*
X0306511Y0037741D03*
X0306511Y0037505D03*
X0308165Y0038922D03*
X0308165Y0039159D03*
X0309819Y0037741D03*
D87*
X0308165Y0038450D03*
X0206165Y0038450D03*
X0104165Y0038450D03*
X0104165Y0168950D03*
X0206165Y0168950D03*
X0308165Y0168950D03*
X0308165Y0299450D03*
X0206165Y0299450D03*
X0104165Y0299450D03*
D88*
X0133545Y0246841D03*
X0137797Y0245581D03*
X0235545Y0246841D03*
X0239797Y0245581D03*
X0235545Y0116341D03*
X0239797Y0115081D03*
X0137797Y0115081D03*
X0133545Y0116341D03*
X0035797Y0115081D03*
X0031545Y0116341D03*
X0035797Y0245581D03*
X0031545Y0246841D03*
X0035797Y0376081D03*
X0031545Y0377341D03*
X0133545Y0377341D03*
X0137797Y0376081D03*
X0235545Y0377341D03*
X0239797Y0376081D03*
D89*
X0239797Y0378679D03*
X0137797Y0378679D03*
X0035797Y0378679D03*
X0035797Y0248179D03*
X0137797Y0248179D03*
X0239797Y0248179D03*
X0239797Y0117679D03*
X0137797Y0117679D03*
X0035797Y0117679D03*
D90*
X0035797Y0120278D03*
X0137797Y0120278D03*
X0239797Y0120278D03*
X0239797Y0250778D03*
X0137797Y0250778D03*
X0035797Y0250778D03*
X0035797Y0381278D03*
X0137797Y0381278D03*
X0239797Y0381278D03*
D91*
X0239010Y0381278D03*
X0239797Y0384900D03*
X0236648Y0376396D03*
X0137797Y0384900D03*
X0137010Y0381278D03*
X0134648Y0376396D03*
X0035797Y0384900D03*
X0035010Y0381278D03*
X0032648Y0376396D03*
X0035797Y0254400D03*
X0035010Y0250778D03*
X0032648Y0245896D03*
X0134648Y0245896D03*
X0137010Y0250778D03*
X0137797Y0254400D03*
X0236648Y0245896D03*
X0239010Y0250778D03*
X0239797Y0254400D03*
X0239797Y0123900D03*
X0239010Y0120278D03*
X0236648Y0115396D03*
X0137797Y0123900D03*
X0137010Y0120278D03*
X0134648Y0115396D03*
X0035797Y0123900D03*
X0035010Y0120278D03*
X0032648Y0115396D03*
D92*
X0032963Y0120356D03*
X0035797Y0127915D03*
X0134963Y0120356D03*
X0137797Y0127915D03*
X0236963Y0120356D03*
X0239797Y0127915D03*
X0236963Y0250856D03*
X0239797Y0258415D03*
X0137797Y0258415D03*
X0134963Y0250856D03*
X0035797Y0258415D03*
X0032963Y0250856D03*
X0032963Y0381356D03*
X0035797Y0388915D03*
X0134963Y0381356D03*
X0137797Y0388915D03*
X0236963Y0381356D03*
X0239797Y0388915D03*
D93*
X0235703Y0388994D03*
X0235703Y0386474D03*
X0235703Y0384270D03*
X0235703Y0382852D03*
X0239640Y0381278D03*
X0239640Y0376081D03*
X0137640Y0376081D03*
X0137640Y0381278D03*
X0133703Y0382852D03*
X0133703Y0384270D03*
X0133703Y0386474D03*
X0133703Y0388994D03*
X0035640Y0381278D03*
X0031703Y0382852D03*
X0031703Y0384270D03*
X0031703Y0386474D03*
X0031703Y0388994D03*
X0035640Y0376081D03*
X0031703Y0258494D03*
X0031703Y0255974D03*
X0031703Y0253770D03*
X0031703Y0252352D03*
X0035640Y0250778D03*
X0035640Y0245581D03*
X0133703Y0252352D03*
X0133703Y0253770D03*
X0133703Y0255974D03*
X0133703Y0258494D03*
X0137640Y0250778D03*
X0137640Y0245581D03*
X0235703Y0252352D03*
X0235703Y0253770D03*
X0235703Y0255974D03*
X0235703Y0258494D03*
X0239640Y0250778D03*
X0239640Y0245581D03*
X0235703Y0127994D03*
X0235703Y0125474D03*
X0235703Y0123270D03*
X0235703Y0121852D03*
X0239640Y0120278D03*
X0239640Y0115081D03*
X0137640Y0115081D03*
X0137640Y0120278D03*
X0133703Y0121852D03*
X0133703Y0123270D03*
X0133703Y0125474D03*
X0133703Y0127994D03*
X0035640Y0120278D03*
X0031703Y0121852D03*
X0031703Y0123270D03*
X0031703Y0125474D03*
X0031703Y0127994D03*
X0035640Y0115081D03*
D94*
X0035640Y0117679D03*
X0035482Y0120356D03*
X0031860Y0118781D03*
X0031860Y0121931D03*
X0031860Y0125553D03*
X0031860Y0127915D03*
X0032018Y0127915D03*
X0133860Y0127915D03*
X0134018Y0127915D03*
X0133860Y0125553D03*
X0133860Y0121931D03*
X0133860Y0118781D03*
X0137640Y0117679D03*
X0137482Y0120356D03*
X0235860Y0118781D03*
X0235860Y0121931D03*
X0235860Y0125553D03*
X0235860Y0127915D03*
X0236018Y0127915D03*
X0239482Y0120356D03*
X0239640Y0117679D03*
X0239640Y0248179D03*
X0239482Y0250856D03*
X0235860Y0249281D03*
X0235860Y0252431D03*
X0235860Y0256053D03*
X0235860Y0258415D03*
X0236018Y0258415D03*
X0137482Y0250856D03*
X0137640Y0248179D03*
X0133860Y0249281D03*
X0133860Y0252431D03*
X0133860Y0256053D03*
X0133860Y0258415D03*
X0134018Y0258415D03*
X0035482Y0250856D03*
X0035640Y0248179D03*
X0031860Y0249281D03*
X0031860Y0252431D03*
X0031860Y0256053D03*
X0031860Y0258415D03*
X0032018Y0258415D03*
X0035640Y0378679D03*
X0035482Y0381356D03*
X0031860Y0379781D03*
X0031860Y0382931D03*
X0031860Y0386553D03*
X0031860Y0388915D03*
X0032018Y0388915D03*
X0133860Y0388915D03*
X0134018Y0388915D03*
X0133860Y0386553D03*
X0133860Y0382931D03*
X0133860Y0379781D03*
X0137640Y0378679D03*
X0137482Y0381356D03*
X0235860Y0382931D03*
X0235860Y0379781D03*
X0239640Y0378679D03*
X0239482Y0381356D03*
X0235860Y0386553D03*
X0235860Y0388915D03*
X0236018Y0388915D03*
D95*
X0239640Y0384978D03*
X0238222Y0381356D03*
X0137640Y0384978D03*
X0136222Y0381356D03*
X0035640Y0384978D03*
X0034222Y0381356D03*
X0035640Y0254478D03*
X0034222Y0250856D03*
X0136222Y0250856D03*
X0137640Y0254478D03*
X0238222Y0250856D03*
X0239640Y0254478D03*
X0239640Y0123978D03*
X0238222Y0120356D03*
X0137640Y0123978D03*
X0136222Y0120356D03*
X0035640Y0123978D03*
X0034222Y0120356D03*
D96*
X0032490Y0120278D03*
X0035167Y0127994D03*
X0035640Y0127994D03*
X0134490Y0120278D03*
X0137167Y0127994D03*
X0137640Y0127994D03*
X0236490Y0120278D03*
X0239167Y0127994D03*
X0239640Y0127994D03*
X0236490Y0250778D03*
X0239167Y0258494D03*
X0239640Y0258494D03*
X0137640Y0258494D03*
X0137167Y0258494D03*
X0134490Y0250778D03*
X0035640Y0258494D03*
X0035167Y0258494D03*
X0032490Y0250778D03*
X0032490Y0381278D03*
X0035167Y0388994D03*
X0035640Y0388994D03*
X0134490Y0381278D03*
X0137167Y0388994D03*
X0137640Y0388994D03*
X0236490Y0381278D03*
X0239167Y0388994D03*
X0239640Y0388994D03*
D97*
X0238852Y0388994D03*
X0238695Y0388994D03*
X0238537Y0388994D03*
X0238380Y0388994D03*
X0238222Y0388994D03*
X0238065Y0388994D03*
X0237907Y0388994D03*
X0237750Y0388994D03*
X0237593Y0388994D03*
X0237435Y0388994D03*
X0237278Y0388994D03*
X0237120Y0388994D03*
X0236963Y0388994D03*
X0236805Y0388994D03*
X0236648Y0388994D03*
X0236490Y0388994D03*
X0236333Y0388994D03*
X0236175Y0388994D03*
X0236175Y0386474D03*
X0236018Y0386474D03*
X0236490Y0386317D03*
X0238065Y0386474D03*
X0238222Y0386474D03*
X0238380Y0386474D03*
X0238537Y0386474D03*
X0238537Y0384270D03*
X0238380Y0384270D03*
X0238222Y0384270D03*
X0238065Y0384270D03*
X0237907Y0384270D03*
X0238695Y0384270D03*
X0236648Y0384270D03*
X0236490Y0384270D03*
X0236333Y0384270D03*
X0236175Y0384270D03*
X0236018Y0384270D03*
X0235860Y0384270D03*
X0236018Y0382852D03*
X0236175Y0382852D03*
X0237435Y0382222D03*
X0237750Y0382065D03*
X0237907Y0380648D03*
X0237593Y0380490D03*
X0236333Y0379860D03*
X0236175Y0379860D03*
X0236018Y0379703D03*
X0236963Y0378600D03*
X0237120Y0378600D03*
X0237278Y0378758D03*
X0237435Y0378758D03*
X0237593Y0378758D03*
X0237750Y0378758D03*
X0237907Y0378758D03*
X0238065Y0378758D03*
X0238222Y0378758D03*
X0238380Y0378758D03*
X0238537Y0378758D03*
X0238695Y0378758D03*
X0238852Y0378758D03*
X0239010Y0378758D03*
X0239167Y0378758D03*
X0239325Y0378758D03*
X0239482Y0378758D03*
X0239325Y0381278D03*
X0239325Y0376081D03*
X0239482Y0376081D03*
X0239167Y0376081D03*
X0239010Y0376081D03*
X0238852Y0376081D03*
X0238695Y0376081D03*
X0238537Y0376081D03*
X0238380Y0376081D03*
X0238222Y0376081D03*
X0238065Y0376081D03*
X0237907Y0376081D03*
X0237750Y0376081D03*
X0237593Y0376081D03*
X0237435Y0376081D03*
X0237278Y0376081D03*
X0237120Y0376081D03*
X0236963Y0376238D03*
X0236805Y0376238D03*
X0137482Y0376081D03*
X0137325Y0376081D03*
X0137167Y0376081D03*
X0137010Y0376081D03*
X0136852Y0376081D03*
X0136695Y0376081D03*
X0136537Y0376081D03*
X0136380Y0376081D03*
X0136222Y0376081D03*
X0136065Y0376081D03*
X0135907Y0376081D03*
X0135750Y0376081D03*
X0135593Y0376081D03*
X0135435Y0376081D03*
X0135278Y0376081D03*
X0135120Y0376081D03*
X0134963Y0376238D03*
X0134805Y0376238D03*
X0134963Y0378600D03*
X0135120Y0378600D03*
X0135278Y0378758D03*
X0135435Y0378758D03*
X0135593Y0378758D03*
X0135750Y0378758D03*
X0135907Y0378758D03*
X0136065Y0378758D03*
X0136222Y0378758D03*
X0136380Y0378758D03*
X0136537Y0378758D03*
X0136695Y0378758D03*
X0136852Y0378758D03*
X0137010Y0378758D03*
X0137167Y0378758D03*
X0137325Y0378758D03*
X0137482Y0378758D03*
X0135907Y0380648D03*
X0135593Y0380490D03*
X0134333Y0379860D03*
X0134175Y0379860D03*
X0134018Y0379703D03*
X0135435Y0382222D03*
X0135750Y0382065D03*
X0134175Y0382852D03*
X0134018Y0382852D03*
X0134018Y0384270D03*
X0134175Y0384270D03*
X0134333Y0384270D03*
X0134490Y0384270D03*
X0134648Y0384270D03*
X0133860Y0384270D03*
X0135907Y0384270D03*
X0136065Y0384270D03*
X0136222Y0384270D03*
X0136380Y0384270D03*
X0136537Y0384270D03*
X0136695Y0384270D03*
X0136537Y0386474D03*
X0136380Y0386474D03*
X0136222Y0386474D03*
X0136065Y0386474D03*
X0134490Y0386317D03*
X0134175Y0386474D03*
X0134018Y0386474D03*
X0134175Y0388994D03*
X0134333Y0388994D03*
X0134490Y0388994D03*
X0134648Y0388994D03*
X0134805Y0388994D03*
X0134963Y0388994D03*
X0135120Y0388994D03*
X0135278Y0388994D03*
X0135435Y0388994D03*
X0135593Y0388994D03*
X0135750Y0388994D03*
X0135907Y0388994D03*
X0136065Y0388994D03*
X0136222Y0388994D03*
X0136380Y0388994D03*
X0136537Y0388994D03*
X0136695Y0388994D03*
X0136852Y0388994D03*
X0137325Y0381278D03*
X0035482Y0378758D03*
X0035325Y0378758D03*
X0035167Y0378758D03*
X0035010Y0378758D03*
X0034852Y0378758D03*
X0034695Y0378758D03*
X0034537Y0378758D03*
X0034380Y0378758D03*
X0034222Y0378758D03*
X0034065Y0378758D03*
X0033907Y0378758D03*
X0033750Y0378758D03*
X0033593Y0378758D03*
X0033435Y0378758D03*
X0033278Y0378758D03*
X0033120Y0378600D03*
X0032963Y0378600D03*
X0032333Y0379860D03*
X0032175Y0379860D03*
X0032018Y0379703D03*
X0033593Y0380490D03*
X0033907Y0380648D03*
X0033750Y0382065D03*
X0033435Y0382222D03*
X0032175Y0382852D03*
X0032018Y0382852D03*
X0032018Y0384270D03*
X0032175Y0384270D03*
X0032333Y0384270D03*
X0032490Y0384270D03*
X0032648Y0384270D03*
X0031860Y0384270D03*
X0033907Y0384270D03*
X0034065Y0384270D03*
X0034222Y0384270D03*
X0034380Y0384270D03*
X0034537Y0384270D03*
X0034695Y0384270D03*
X0034537Y0386474D03*
X0034380Y0386474D03*
X0034222Y0386474D03*
X0034065Y0386474D03*
X0032490Y0386317D03*
X0032175Y0386474D03*
X0032018Y0386474D03*
X0032175Y0388994D03*
X0032333Y0388994D03*
X0032490Y0388994D03*
X0032648Y0388994D03*
X0032805Y0388994D03*
X0032963Y0388994D03*
X0033120Y0388994D03*
X0033278Y0388994D03*
X0033435Y0388994D03*
X0033593Y0388994D03*
X0033750Y0388994D03*
X0033907Y0388994D03*
X0034065Y0388994D03*
X0034222Y0388994D03*
X0034380Y0388994D03*
X0034537Y0388994D03*
X0034695Y0388994D03*
X0034852Y0388994D03*
X0035325Y0381278D03*
X0035325Y0376081D03*
X0035482Y0376081D03*
X0035167Y0376081D03*
X0035010Y0376081D03*
X0034852Y0376081D03*
X0034695Y0376081D03*
X0034537Y0376081D03*
X0034380Y0376081D03*
X0034222Y0376081D03*
X0034065Y0376081D03*
X0033907Y0376081D03*
X0033750Y0376081D03*
X0033593Y0376081D03*
X0033435Y0376081D03*
X0033278Y0376081D03*
X0033120Y0376081D03*
X0032963Y0376238D03*
X0032805Y0376238D03*
X0032805Y0258494D03*
X0032648Y0258494D03*
X0032490Y0258494D03*
X0032333Y0258494D03*
X0032175Y0258494D03*
X0032963Y0258494D03*
X0033120Y0258494D03*
X0033278Y0258494D03*
X0033435Y0258494D03*
X0033593Y0258494D03*
X0033750Y0258494D03*
X0033907Y0258494D03*
X0034065Y0258494D03*
X0034222Y0258494D03*
X0034380Y0258494D03*
X0034537Y0258494D03*
X0034695Y0258494D03*
X0034852Y0258494D03*
X0034537Y0255974D03*
X0034380Y0255974D03*
X0034222Y0255974D03*
X0034065Y0255974D03*
X0032490Y0255817D03*
X0032175Y0255974D03*
X0032018Y0255974D03*
X0032018Y0253770D03*
X0032175Y0253770D03*
X0032333Y0253770D03*
X0032490Y0253770D03*
X0032648Y0253770D03*
X0031860Y0253770D03*
X0032018Y0252352D03*
X0032175Y0252352D03*
X0033435Y0251722D03*
X0033750Y0251565D03*
X0033907Y0250148D03*
X0033593Y0249990D03*
X0032333Y0249360D03*
X0032175Y0249360D03*
X0032018Y0249203D03*
X0032963Y0248100D03*
X0033120Y0248100D03*
X0033278Y0248258D03*
X0033435Y0248258D03*
X0033593Y0248258D03*
X0033750Y0248258D03*
X0033907Y0248258D03*
X0034065Y0248258D03*
X0034222Y0248258D03*
X0034380Y0248258D03*
X0034537Y0248258D03*
X0034695Y0248258D03*
X0034852Y0248258D03*
X0035010Y0248258D03*
X0035167Y0248258D03*
X0035325Y0248258D03*
X0035482Y0248258D03*
X0035325Y0250778D03*
X0034695Y0253770D03*
X0034537Y0253770D03*
X0034380Y0253770D03*
X0034222Y0253770D03*
X0034065Y0253770D03*
X0033907Y0253770D03*
X0032963Y0245738D03*
X0032805Y0245738D03*
X0033120Y0245581D03*
X0033278Y0245581D03*
X0033435Y0245581D03*
X0033593Y0245581D03*
X0033750Y0245581D03*
X0033907Y0245581D03*
X0034065Y0245581D03*
X0034222Y0245581D03*
X0034380Y0245581D03*
X0034537Y0245581D03*
X0034695Y0245581D03*
X0034852Y0245581D03*
X0035010Y0245581D03*
X0035167Y0245581D03*
X0035325Y0245581D03*
X0035482Y0245581D03*
X0134018Y0249203D03*
X0134175Y0249360D03*
X0134333Y0249360D03*
X0134963Y0248100D03*
X0135120Y0248100D03*
X0135278Y0248258D03*
X0135435Y0248258D03*
X0135593Y0248258D03*
X0135750Y0248258D03*
X0135907Y0248258D03*
X0136065Y0248258D03*
X0136222Y0248258D03*
X0136380Y0248258D03*
X0136537Y0248258D03*
X0136695Y0248258D03*
X0136852Y0248258D03*
X0137010Y0248258D03*
X0137167Y0248258D03*
X0137325Y0248258D03*
X0137482Y0248258D03*
X0135907Y0250148D03*
X0135593Y0249990D03*
X0135750Y0251565D03*
X0135435Y0251722D03*
X0134175Y0252352D03*
X0134018Y0252352D03*
X0134018Y0253770D03*
X0134175Y0253770D03*
X0134333Y0253770D03*
X0134490Y0253770D03*
X0134648Y0253770D03*
X0133860Y0253770D03*
X0135907Y0253770D03*
X0136065Y0253770D03*
X0136222Y0253770D03*
X0136380Y0253770D03*
X0136537Y0253770D03*
X0136695Y0253770D03*
X0136537Y0255974D03*
X0136380Y0255974D03*
X0136222Y0255974D03*
X0136065Y0255974D03*
X0134490Y0255817D03*
X0134175Y0255974D03*
X0134018Y0255974D03*
X0134175Y0258494D03*
X0134333Y0258494D03*
X0134490Y0258494D03*
X0134648Y0258494D03*
X0134805Y0258494D03*
X0134963Y0258494D03*
X0135120Y0258494D03*
X0135278Y0258494D03*
X0135435Y0258494D03*
X0135593Y0258494D03*
X0135750Y0258494D03*
X0135907Y0258494D03*
X0136065Y0258494D03*
X0136222Y0258494D03*
X0136380Y0258494D03*
X0136537Y0258494D03*
X0136695Y0258494D03*
X0136852Y0258494D03*
X0137325Y0250778D03*
X0137325Y0245581D03*
X0137482Y0245581D03*
X0137167Y0245581D03*
X0137010Y0245581D03*
X0136852Y0245581D03*
X0136695Y0245581D03*
X0136537Y0245581D03*
X0136380Y0245581D03*
X0136222Y0245581D03*
X0136065Y0245581D03*
X0135907Y0245581D03*
X0135750Y0245581D03*
X0135593Y0245581D03*
X0135435Y0245581D03*
X0135278Y0245581D03*
X0135120Y0245581D03*
X0134963Y0245738D03*
X0134805Y0245738D03*
X0236018Y0249203D03*
X0236175Y0249360D03*
X0236333Y0249360D03*
X0236963Y0248100D03*
X0237120Y0248100D03*
X0237278Y0248258D03*
X0237435Y0248258D03*
X0237593Y0248258D03*
X0237750Y0248258D03*
X0237907Y0248258D03*
X0238065Y0248258D03*
X0238222Y0248258D03*
X0238380Y0248258D03*
X0238537Y0248258D03*
X0238695Y0248258D03*
X0238852Y0248258D03*
X0239010Y0248258D03*
X0239167Y0248258D03*
X0239325Y0248258D03*
X0239482Y0248258D03*
X0237907Y0250148D03*
X0237593Y0249990D03*
X0237750Y0251565D03*
X0237435Y0251722D03*
X0236175Y0252352D03*
X0236018Y0252352D03*
X0236018Y0253770D03*
X0236175Y0253770D03*
X0236333Y0253770D03*
X0236490Y0253770D03*
X0236648Y0253770D03*
X0235860Y0253770D03*
X0237907Y0253770D03*
X0238065Y0253770D03*
X0238222Y0253770D03*
X0238380Y0253770D03*
X0238537Y0253770D03*
X0238695Y0253770D03*
X0238537Y0255974D03*
X0238380Y0255974D03*
X0238222Y0255974D03*
X0238065Y0255974D03*
X0236490Y0255817D03*
X0236175Y0255974D03*
X0236018Y0255974D03*
X0236175Y0258494D03*
X0236333Y0258494D03*
X0236490Y0258494D03*
X0236648Y0258494D03*
X0236805Y0258494D03*
X0236963Y0258494D03*
X0237120Y0258494D03*
X0237278Y0258494D03*
X0237435Y0258494D03*
X0237593Y0258494D03*
X0237750Y0258494D03*
X0237907Y0258494D03*
X0238065Y0258494D03*
X0238222Y0258494D03*
X0238380Y0258494D03*
X0238537Y0258494D03*
X0238695Y0258494D03*
X0238852Y0258494D03*
X0239325Y0250778D03*
X0239325Y0245581D03*
X0239482Y0245581D03*
X0239167Y0245581D03*
X0239010Y0245581D03*
X0238852Y0245581D03*
X0238695Y0245581D03*
X0238537Y0245581D03*
X0238380Y0245581D03*
X0238222Y0245581D03*
X0238065Y0245581D03*
X0237907Y0245581D03*
X0237750Y0245581D03*
X0237593Y0245581D03*
X0237435Y0245581D03*
X0237278Y0245581D03*
X0237120Y0245581D03*
X0236963Y0245738D03*
X0236805Y0245738D03*
X0236805Y0127994D03*
X0236648Y0127994D03*
X0236490Y0127994D03*
X0236333Y0127994D03*
X0236175Y0127994D03*
X0236963Y0127994D03*
X0237120Y0127994D03*
X0237278Y0127994D03*
X0237435Y0127994D03*
X0237593Y0127994D03*
X0237750Y0127994D03*
X0237907Y0127994D03*
X0238065Y0127994D03*
X0238222Y0127994D03*
X0238380Y0127994D03*
X0238537Y0127994D03*
X0238695Y0127994D03*
X0238852Y0127994D03*
X0238537Y0125474D03*
X0238380Y0125474D03*
X0238222Y0125474D03*
X0238065Y0125474D03*
X0236490Y0125317D03*
X0236175Y0125474D03*
X0236018Y0125474D03*
X0236018Y0123270D03*
X0236175Y0123270D03*
X0236333Y0123270D03*
X0236490Y0123270D03*
X0236648Y0123270D03*
X0235860Y0123270D03*
X0236018Y0121852D03*
X0236175Y0121852D03*
X0237435Y0121222D03*
X0237750Y0121065D03*
X0237907Y0119648D03*
X0237593Y0119490D03*
X0236333Y0118860D03*
X0236175Y0118860D03*
X0236018Y0118703D03*
X0236963Y0117600D03*
X0237120Y0117600D03*
X0237278Y0117758D03*
X0237435Y0117758D03*
X0237593Y0117758D03*
X0237750Y0117758D03*
X0237907Y0117758D03*
X0238065Y0117758D03*
X0238222Y0117758D03*
X0238380Y0117758D03*
X0238537Y0117758D03*
X0238695Y0117758D03*
X0238852Y0117758D03*
X0239010Y0117758D03*
X0239167Y0117758D03*
X0239325Y0117758D03*
X0239482Y0117758D03*
X0239325Y0120278D03*
X0238695Y0123270D03*
X0238537Y0123270D03*
X0238380Y0123270D03*
X0238222Y0123270D03*
X0238065Y0123270D03*
X0237907Y0123270D03*
X0236963Y0115238D03*
X0236805Y0115238D03*
X0237120Y0115081D03*
X0237278Y0115081D03*
X0237435Y0115081D03*
X0237593Y0115081D03*
X0237750Y0115081D03*
X0237907Y0115081D03*
X0238065Y0115081D03*
X0238222Y0115081D03*
X0238380Y0115081D03*
X0238537Y0115081D03*
X0238695Y0115081D03*
X0238852Y0115081D03*
X0239010Y0115081D03*
X0239167Y0115081D03*
X0239325Y0115081D03*
X0239482Y0115081D03*
X0137482Y0115081D03*
X0137325Y0115081D03*
X0137167Y0115081D03*
X0137010Y0115081D03*
X0136852Y0115081D03*
X0136695Y0115081D03*
X0136537Y0115081D03*
X0136380Y0115081D03*
X0136222Y0115081D03*
X0136065Y0115081D03*
X0135907Y0115081D03*
X0135750Y0115081D03*
X0135593Y0115081D03*
X0135435Y0115081D03*
X0135278Y0115081D03*
X0135120Y0115081D03*
X0134963Y0115238D03*
X0134805Y0115238D03*
X0134963Y0117600D03*
X0135120Y0117600D03*
X0135278Y0117758D03*
X0135435Y0117758D03*
X0135593Y0117758D03*
X0135750Y0117758D03*
X0135907Y0117758D03*
X0136065Y0117758D03*
X0136222Y0117758D03*
X0136380Y0117758D03*
X0136537Y0117758D03*
X0136695Y0117758D03*
X0136852Y0117758D03*
X0137010Y0117758D03*
X0137167Y0117758D03*
X0137325Y0117758D03*
X0137482Y0117758D03*
X0135907Y0119648D03*
X0135593Y0119490D03*
X0134333Y0118860D03*
X0134175Y0118860D03*
X0134018Y0118703D03*
X0135435Y0121222D03*
X0135750Y0121065D03*
X0134175Y0121852D03*
X0134018Y0121852D03*
X0134018Y0123270D03*
X0134175Y0123270D03*
X0134333Y0123270D03*
X0134490Y0123270D03*
X0134648Y0123270D03*
X0133860Y0123270D03*
X0135907Y0123270D03*
X0136065Y0123270D03*
X0136222Y0123270D03*
X0136380Y0123270D03*
X0136537Y0123270D03*
X0136695Y0123270D03*
X0136537Y0125474D03*
X0136380Y0125474D03*
X0136222Y0125474D03*
X0136065Y0125474D03*
X0134490Y0125317D03*
X0134175Y0125474D03*
X0134018Y0125474D03*
X0134175Y0127994D03*
X0134333Y0127994D03*
X0134490Y0127994D03*
X0134648Y0127994D03*
X0134805Y0127994D03*
X0134963Y0127994D03*
X0135120Y0127994D03*
X0135278Y0127994D03*
X0135435Y0127994D03*
X0135593Y0127994D03*
X0135750Y0127994D03*
X0135907Y0127994D03*
X0136065Y0127994D03*
X0136222Y0127994D03*
X0136380Y0127994D03*
X0136537Y0127994D03*
X0136695Y0127994D03*
X0136852Y0127994D03*
X0137325Y0120278D03*
X0035482Y0117758D03*
X0035325Y0117758D03*
X0035167Y0117758D03*
X0035010Y0117758D03*
X0034852Y0117758D03*
X0034695Y0117758D03*
X0034537Y0117758D03*
X0034380Y0117758D03*
X0034222Y0117758D03*
X0034065Y0117758D03*
X0033907Y0117758D03*
X0033750Y0117758D03*
X0033593Y0117758D03*
X0033435Y0117758D03*
X0033278Y0117758D03*
X0033120Y0117600D03*
X0032963Y0117600D03*
X0032333Y0118860D03*
X0032175Y0118860D03*
X0032018Y0118703D03*
X0033593Y0119490D03*
X0033907Y0119648D03*
X0033750Y0121065D03*
X0033435Y0121222D03*
X0032175Y0121852D03*
X0032018Y0121852D03*
X0032018Y0123270D03*
X0032175Y0123270D03*
X0032333Y0123270D03*
X0032490Y0123270D03*
X0032648Y0123270D03*
X0031860Y0123270D03*
X0033907Y0123270D03*
X0034065Y0123270D03*
X0034222Y0123270D03*
X0034380Y0123270D03*
X0034537Y0123270D03*
X0034695Y0123270D03*
X0034537Y0125474D03*
X0034380Y0125474D03*
X0034222Y0125474D03*
X0034065Y0125474D03*
X0032490Y0125317D03*
X0032175Y0125474D03*
X0032018Y0125474D03*
X0032175Y0127994D03*
X0032333Y0127994D03*
X0032490Y0127994D03*
X0032648Y0127994D03*
X0032805Y0127994D03*
X0032963Y0127994D03*
X0033120Y0127994D03*
X0033278Y0127994D03*
X0033435Y0127994D03*
X0033593Y0127994D03*
X0033750Y0127994D03*
X0033907Y0127994D03*
X0034065Y0127994D03*
X0034222Y0127994D03*
X0034380Y0127994D03*
X0034537Y0127994D03*
X0034695Y0127994D03*
X0034852Y0127994D03*
X0035325Y0120278D03*
X0035325Y0115081D03*
X0035482Y0115081D03*
X0035167Y0115081D03*
X0035010Y0115081D03*
X0034852Y0115081D03*
X0034695Y0115081D03*
X0034537Y0115081D03*
X0034380Y0115081D03*
X0034222Y0115081D03*
X0034065Y0115081D03*
X0033907Y0115081D03*
X0033750Y0115081D03*
X0033593Y0115081D03*
X0033435Y0115081D03*
X0033278Y0115081D03*
X0033120Y0115081D03*
X0032963Y0115238D03*
X0032805Y0115238D03*
D98*
X0035482Y0124057D03*
X0137482Y0124057D03*
X0239482Y0124057D03*
X0239482Y0254557D03*
X0137482Y0254557D03*
X0035482Y0254557D03*
X0035482Y0385057D03*
X0137482Y0385057D03*
X0239482Y0385057D03*
D99*
X0239482Y0388915D03*
X0239325Y0388915D03*
X0137482Y0388915D03*
X0137325Y0388915D03*
X0035482Y0388915D03*
X0035325Y0388915D03*
X0035325Y0258415D03*
X0035482Y0258415D03*
X0137325Y0258415D03*
X0137482Y0258415D03*
X0239325Y0258415D03*
X0239482Y0258415D03*
X0239482Y0127915D03*
X0239325Y0127915D03*
X0137482Y0127915D03*
X0137325Y0127915D03*
X0035482Y0127915D03*
X0035325Y0127915D03*
D100*
X0035325Y0124136D03*
X0033120Y0124136D03*
X0032175Y0116419D03*
X0134175Y0116419D03*
X0135120Y0124136D03*
X0137325Y0124136D03*
X0236175Y0116419D03*
X0237120Y0124136D03*
X0239325Y0124136D03*
X0236175Y0246919D03*
X0237120Y0254636D03*
X0239325Y0254636D03*
X0137325Y0254636D03*
X0135120Y0254636D03*
X0134175Y0246919D03*
X0035325Y0254636D03*
X0033120Y0254636D03*
X0032175Y0246919D03*
X0032175Y0377419D03*
X0033120Y0385136D03*
X0035325Y0385136D03*
X0134175Y0377419D03*
X0135120Y0385136D03*
X0137325Y0385136D03*
X0236175Y0377419D03*
X0237120Y0385136D03*
X0239325Y0385136D03*
D101*
X0238695Y0386396D03*
X0237907Y0386396D03*
X0236648Y0386238D03*
X0236333Y0386396D03*
X0236333Y0382774D03*
X0237593Y0382144D03*
X0237907Y0381986D03*
X0239167Y0381356D03*
X0237750Y0380569D03*
X0237435Y0380411D03*
X0236805Y0378522D03*
X0236648Y0378364D03*
X0137167Y0381356D03*
X0135907Y0381986D03*
X0135593Y0382144D03*
X0134333Y0382774D03*
X0135435Y0380411D03*
X0135750Y0380569D03*
X0134805Y0378522D03*
X0134648Y0378364D03*
X0134648Y0386238D03*
X0134333Y0386396D03*
X0135907Y0386396D03*
X0136695Y0386396D03*
X0035167Y0381356D03*
X0033907Y0381986D03*
X0033593Y0382144D03*
X0032333Y0382774D03*
X0033435Y0380411D03*
X0033750Y0380569D03*
X0032805Y0378522D03*
X0032648Y0378364D03*
X0032648Y0386238D03*
X0032333Y0386396D03*
X0033907Y0386396D03*
X0034695Y0386396D03*
X0034695Y0255896D03*
X0033907Y0255896D03*
X0032648Y0255738D03*
X0032333Y0255896D03*
X0032333Y0252274D03*
X0033593Y0251644D03*
X0033907Y0251486D03*
X0035167Y0250856D03*
X0033750Y0250069D03*
X0033435Y0249911D03*
X0032805Y0248022D03*
X0032648Y0247864D03*
X0134333Y0252274D03*
X0135593Y0251644D03*
X0135907Y0251486D03*
X0137167Y0250856D03*
X0135750Y0250069D03*
X0135435Y0249911D03*
X0134805Y0248022D03*
X0134648Y0247864D03*
X0134648Y0255738D03*
X0134333Y0255896D03*
X0135907Y0255896D03*
X0136695Y0255896D03*
X0236333Y0255896D03*
X0236648Y0255738D03*
X0237907Y0255896D03*
X0238695Y0255896D03*
X0236333Y0252274D03*
X0237593Y0251644D03*
X0237907Y0251486D03*
X0239167Y0250856D03*
X0237750Y0250069D03*
X0237435Y0249911D03*
X0236805Y0248022D03*
X0236648Y0247864D03*
X0236333Y0125396D03*
X0236648Y0125238D03*
X0237907Y0125396D03*
X0238695Y0125396D03*
X0236333Y0121774D03*
X0237593Y0121144D03*
X0237907Y0120986D03*
X0239167Y0120356D03*
X0237750Y0119569D03*
X0237435Y0119411D03*
X0236805Y0117522D03*
X0236648Y0117364D03*
X0137167Y0120356D03*
X0135907Y0120986D03*
X0135593Y0121144D03*
X0134333Y0121774D03*
X0135435Y0119411D03*
X0135750Y0119569D03*
X0134805Y0117522D03*
X0134648Y0117364D03*
X0134648Y0125238D03*
X0134333Y0125396D03*
X0135907Y0125396D03*
X0136695Y0125396D03*
X0035167Y0120356D03*
X0033907Y0120986D03*
X0033593Y0121144D03*
X0032333Y0121774D03*
X0033435Y0119411D03*
X0033750Y0119569D03*
X0032805Y0117522D03*
X0032648Y0117364D03*
X0032648Y0125238D03*
X0032333Y0125396D03*
X0033907Y0125396D03*
X0034695Y0125396D03*
D102*
X0035167Y0124215D03*
X0033435Y0124215D03*
X0033278Y0124215D03*
X0032963Y0124215D03*
X0032805Y0124215D03*
X0032333Y0116341D03*
X0134333Y0116341D03*
X0134805Y0124215D03*
X0134963Y0124215D03*
X0135278Y0124215D03*
X0135435Y0124215D03*
X0137167Y0124215D03*
X0236333Y0116341D03*
X0236805Y0124215D03*
X0236963Y0124215D03*
X0237278Y0124215D03*
X0237435Y0124215D03*
X0239167Y0124215D03*
X0236333Y0246841D03*
X0236805Y0254715D03*
X0236963Y0254715D03*
X0237278Y0254715D03*
X0237435Y0254715D03*
X0239167Y0254715D03*
X0137167Y0254715D03*
X0135435Y0254715D03*
X0135278Y0254715D03*
X0134963Y0254715D03*
X0134805Y0254715D03*
X0134333Y0246841D03*
X0035167Y0254715D03*
X0033435Y0254715D03*
X0033278Y0254715D03*
X0032963Y0254715D03*
X0032805Y0254715D03*
X0032333Y0246841D03*
X0032333Y0377341D03*
X0032805Y0385215D03*
X0032963Y0385215D03*
X0033278Y0385215D03*
X0033435Y0385215D03*
X0035167Y0385215D03*
X0134333Y0377341D03*
X0134805Y0385215D03*
X0134963Y0385215D03*
X0135278Y0385215D03*
X0135435Y0385215D03*
X0137167Y0385215D03*
X0236333Y0377341D03*
X0236805Y0385215D03*
X0236963Y0385215D03*
X0237278Y0385215D03*
X0237435Y0385215D03*
X0239167Y0385215D03*
D103*
X0239010Y0385293D03*
X0238852Y0385293D03*
X0237750Y0385293D03*
X0237593Y0385293D03*
X0237278Y0381356D03*
X0236490Y0377419D03*
X0137010Y0385293D03*
X0136852Y0385293D03*
X0135750Y0385293D03*
X0135593Y0385293D03*
X0135278Y0381356D03*
X0134490Y0377419D03*
X0035010Y0385293D03*
X0034852Y0385293D03*
X0033750Y0385293D03*
X0033593Y0385293D03*
X0033278Y0381356D03*
X0032490Y0377419D03*
X0033593Y0254793D03*
X0033750Y0254793D03*
X0034852Y0254793D03*
X0035010Y0254793D03*
X0033278Y0250856D03*
X0032490Y0246919D03*
X0134490Y0246919D03*
X0135278Y0250856D03*
X0135593Y0254793D03*
X0135750Y0254793D03*
X0136852Y0254793D03*
X0137010Y0254793D03*
X0236490Y0246919D03*
X0237278Y0250856D03*
X0237593Y0254793D03*
X0237750Y0254793D03*
X0238852Y0254793D03*
X0239010Y0254793D03*
X0239010Y0124293D03*
X0238852Y0124293D03*
X0237750Y0124293D03*
X0237593Y0124293D03*
X0237278Y0120356D03*
X0236490Y0116419D03*
X0137010Y0124293D03*
X0136852Y0124293D03*
X0135750Y0124293D03*
X0135593Y0124293D03*
X0135278Y0120356D03*
X0134490Y0116419D03*
X0035010Y0124293D03*
X0034852Y0124293D03*
X0033750Y0124293D03*
X0033593Y0124293D03*
X0033278Y0120356D03*
X0032490Y0116419D03*
D104*
X0032648Y0120356D03*
X0035010Y0127915D03*
X0134648Y0120356D03*
X0137010Y0127915D03*
X0236648Y0120356D03*
X0239010Y0127915D03*
X0236648Y0250856D03*
X0239010Y0258415D03*
X0137010Y0258415D03*
X0134648Y0250856D03*
X0035010Y0258415D03*
X0032648Y0250856D03*
X0032648Y0381356D03*
X0035010Y0388915D03*
X0134648Y0381356D03*
X0137010Y0388915D03*
X0236648Y0381356D03*
X0239010Y0388915D03*
D105*
X0238852Y0381356D03*
X0235703Y0377419D03*
X0136852Y0381356D03*
X0133703Y0377419D03*
X0034852Y0381356D03*
X0031703Y0377419D03*
X0034852Y0250856D03*
X0031703Y0246919D03*
X0133703Y0246919D03*
X0136852Y0250856D03*
X0235703Y0246919D03*
X0238852Y0250856D03*
X0238852Y0120356D03*
X0235703Y0116419D03*
X0136852Y0120356D03*
X0133703Y0116419D03*
X0034852Y0120356D03*
X0031703Y0116419D03*
D106*
X0034695Y0120278D03*
X0136695Y0120278D03*
X0238695Y0120278D03*
X0238695Y0250778D03*
X0136695Y0250778D03*
X0034695Y0250778D03*
X0034695Y0381278D03*
X0136695Y0381278D03*
X0238695Y0381278D03*
D107*
X0238537Y0381356D03*
X0136537Y0381356D03*
X0034537Y0381356D03*
X0034537Y0250856D03*
X0136537Y0250856D03*
X0238537Y0250856D03*
X0238537Y0120356D03*
X0136537Y0120356D03*
X0034537Y0120356D03*
D108*
X0034380Y0120278D03*
X0031860Y0116341D03*
X0133860Y0116341D03*
X0136380Y0120278D03*
X0235860Y0116341D03*
X0238380Y0120278D03*
X0235860Y0246841D03*
X0238380Y0250778D03*
X0136380Y0250778D03*
X0133860Y0246841D03*
X0034380Y0250778D03*
X0031860Y0246841D03*
X0031860Y0377341D03*
X0034380Y0381278D03*
X0133860Y0377341D03*
X0136380Y0381278D03*
X0235860Y0377341D03*
X0238380Y0381278D03*
D109*
X0238065Y0381278D03*
X0136065Y0381278D03*
X0034065Y0381278D03*
X0034065Y0250778D03*
X0136065Y0250778D03*
X0238065Y0250778D03*
X0238065Y0120278D03*
X0136065Y0120278D03*
X0034065Y0120278D03*
D110*
X0033120Y0120278D03*
X0135120Y0120278D03*
X0237120Y0120278D03*
X0237120Y0250778D03*
X0135120Y0250778D03*
X0033120Y0250778D03*
X0033120Y0381278D03*
X0135120Y0381278D03*
X0237120Y0381278D03*
D111*
X0236805Y0381278D03*
X0134805Y0381278D03*
X0032805Y0381278D03*
X0032805Y0250778D03*
X0134805Y0250778D03*
X0236805Y0250778D03*
X0236805Y0120278D03*
X0134805Y0120278D03*
X0032805Y0120278D03*
D112*
X0032018Y0116419D03*
X0134018Y0116419D03*
X0236018Y0116419D03*
X0236018Y0246919D03*
X0134018Y0246919D03*
X0032018Y0246919D03*
X0032018Y0377419D03*
X0134018Y0377419D03*
X0236018Y0377419D03*
D113*
X0235703Y0379781D03*
X0133703Y0379781D03*
X0031703Y0379781D03*
X0031703Y0249281D03*
X0133703Y0249281D03*
X0235703Y0249281D03*
X0235703Y0118781D03*
X0133703Y0118781D03*
X0031703Y0118781D03*
M02*
