G75*
%MOIN*%
%OFA0B0*%
%FSLAX25Y25*%
%IPPOS*%
%LPD*%
%AMOC8*
5,1,8,0,0,1.08239X$1,22.5*
%
%ADD10R,0.11036X0.05131*%
%ADD11C,0.08200*%
%ADD12C,0.07550*%
%ADD13C,0.06800*%
%ADD14R,0.03300X0.05800*%
%ADD15C,0.03300*%
%ADD16C,0.13800*%
%ADD17C,0.04737*%
%ADD18C,0.05000*%
%ADD19C,0.06706*%
D10*
X0047254Y0067411D03*
X0047254Y0075285D03*
X0047254Y0083159D03*
X0047254Y0091033D03*
X0047254Y0098907D03*
X0047254Y0106781D03*
X0047254Y0114656D03*
X0047254Y0122530D03*
X0110246Y0122530D03*
X0110246Y0114656D03*
X0110246Y0106781D03*
X0110246Y0098907D03*
X0110246Y0091033D03*
X0110246Y0083159D03*
X0110246Y0075285D03*
X0110246Y0067411D03*
X0149254Y0067411D03*
X0149254Y0075285D03*
X0149254Y0083159D03*
X0149254Y0091033D03*
X0149254Y0098907D03*
X0149254Y0106781D03*
X0149254Y0114656D03*
X0149254Y0122530D03*
X0212246Y0122530D03*
X0212246Y0114656D03*
X0212246Y0106781D03*
X0212246Y0098907D03*
X0212246Y0091033D03*
X0212246Y0083159D03*
X0212246Y0075285D03*
X0212246Y0067411D03*
X0251254Y0067411D03*
X0251254Y0075285D03*
X0251254Y0083159D03*
X0251254Y0091033D03*
X0251254Y0098907D03*
X0251254Y0106781D03*
X0251254Y0114656D03*
X0251254Y0122530D03*
X0314246Y0122530D03*
X0314246Y0114656D03*
X0314246Y0106781D03*
X0314246Y0098907D03*
X0314246Y0091033D03*
X0314246Y0083159D03*
X0314246Y0075285D03*
X0314246Y0067411D03*
X0314246Y0197911D03*
X0314246Y0205785D03*
X0314246Y0213659D03*
X0314246Y0221533D03*
X0314246Y0229407D03*
X0314246Y0237281D03*
X0314246Y0245156D03*
X0314246Y0253030D03*
X0251254Y0253030D03*
X0251254Y0245156D03*
X0251254Y0237281D03*
X0251254Y0229407D03*
X0251254Y0221533D03*
X0251254Y0213659D03*
X0251254Y0205785D03*
X0251254Y0197911D03*
X0212246Y0197911D03*
X0212246Y0205785D03*
X0212246Y0213659D03*
X0212246Y0221533D03*
X0212246Y0229407D03*
X0212246Y0237281D03*
X0212246Y0245156D03*
X0212246Y0253030D03*
X0149254Y0253030D03*
X0149254Y0245156D03*
X0149254Y0237281D03*
X0149254Y0229407D03*
X0149254Y0221533D03*
X0149254Y0213659D03*
X0149254Y0205785D03*
X0149254Y0197911D03*
X0110246Y0197911D03*
X0110246Y0205785D03*
X0110246Y0213659D03*
X0110246Y0221533D03*
X0110246Y0229407D03*
X0110246Y0237281D03*
X0110246Y0245156D03*
X0110246Y0253030D03*
X0047254Y0253030D03*
X0047254Y0245156D03*
X0047254Y0237281D03*
X0047254Y0229407D03*
X0047254Y0221533D03*
X0047254Y0213659D03*
X0047254Y0205785D03*
X0047254Y0197911D03*
X0047254Y0328411D03*
X0047254Y0336285D03*
X0047254Y0344159D03*
X0047254Y0352033D03*
X0047254Y0359907D03*
X0047254Y0367781D03*
X0047254Y0375656D03*
X0047254Y0383530D03*
X0110246Y0383530D03*
X0110246Y0375656D03*
X0110246Y0367781D03*
X0110246Y0359907D03*
X0110246Y0352033D03*
X0110246Y0344159D03*
X0110246Y0336285D03*
X0110246Y0328411D03*
X0149254Y0328411D03*
X0149254Y0336285D03*
X0149254Y0344159D03*
X0149254Y0352033D03*
X0149254Y0359907D03*
X0149254Y0367781D03*
X0149254Y0375656D03*
X0149254Y0383530D03*
X0212246Y0383530D03*
X0212246Y0375656D03*
X0212246Y0367781D03*
X0212246Y0359907D03*
X0212246Y0352033D03*
X0212246Y0344159D03*
X0212246Y0336285D03*
X0212246Y0328411D03*
X0251254Y0328411D03*
X0251254Y0336285D03*
X0251254Y0344159D03*
X0251254Y0352033D03*
X0251254Y0359907D03*
X0251254Y0367781D03*
X0251254Y0375656D03*
X0251254Y0383530D03*
X0314246Y0383530D03*
X0314246Y0375656D03*
X0314246Y0367781D03*
X0314246Y0359907D03*
X0314246Y0352033D03*
X0314246Y0344159D03*
X0314246Y0336285D03*
X0314246Y0328411D03*
D11*
X0327750Y0324750D03*
X0327750Y0314750D03*
X0327750Y0334750D03*
X0327750Y0344750D03*
X0327750Y0354750D03*
X0327750Y0364750D03*
X0327750Y0374750D03*
X0327750Y0384750D03*
X0237750Y0364750D03*
X0237750Y0354750D03*
X0237750Y0344750D03*
X0237750Y0334750D03*
X0237750Y0324750D03*
X0237750Y0314750D03*
X0225750Y0314750D03*
X0225750Y0324750D03*
X0225750Y0334750D03*
X0225750Y0344750D03*
X0225750Y0354750D03*
X0225750Y0364750D03*
X0225750Y0374750D03*
X0225750Y0384750D03*
X0135750Y0364750D03*
X0135750Y0354750D03*
X0135750Y0344750D03*
X0135750Y0334750D03*
X0135750Y0324750D03*
X0135750Y0314750D03*
X0123750Y0314750D03*
X0123750Y0324750D03*
X0123750Y0334750D03*
X0123750Y0344750D03*
X0123750Y0354750D03*
X0123750Y0364750D03*
X0123750Y0374750D03*
X0123750Y0384750D03*
X0033750Y0364750D03*
X0033750Y0354750D03*
X0033750Y0344750D03*
X0033750Y0334750D03*
X0033750Y0324750D03*
X0033750Y0314750D03*
X0033750Y0234250D03*
X0033750Y0224250D03*
X0033750Y0214250D03*
X0033750Y0204250D03*
X0033750Y0194250D03*
X0033750Y0184250D03*
X0033750Y0103750D03*
X0033750Y0093750D03*
X0033750Y0083750D03*
X0033750Y0073750D03*
X0033750Y0063750D03*
X0033750Y0053750D03*
X0123750Y0053750D03*
X0123750Y0063750D03*
X0123750Y0073750D03*
X0123750Y0083750D03*
X0123750Y0093750D03*
X0123750Y0103750D03*
X0123750Y0113750D03*
X0123750Y0123750D03*
X0135750Y0103750D03*
X0135750Y0093750D03*
X0135750Y0083750D03*
X0135750Y0073750D03*
X0135750Y0063750D03*
X0135750Y0053750D03*
X0225750Y0053750D03*
X0225750Y0063750D03*
X0225750Y0073750D03*
X0225750Y0083750D03*
X0225750Y0093750D03*
X0225750Y0103750D03*
X0225750Y0113750D03*
X0225750Y0123750D03*
X0237750Y0103750D03*
X0237750Y0093750D03*
X0237750Y0083750D03*
X0237750Y0073750D03*
X0237750Y0063750D03*
X0237750Y0053750D03*
X0327750Y0053750D03*
X0327750Y0063750D03*
X0327750Y0073750D03*
X0327750Y0083750D03*
X0327750Y0093750D03*
X0327750Y0103750D03*
X0327750Y0113750D03*
X0327750Y0123750D03*
X0327750Y0184250D03*
X0327750Y0194250D03*
X0327750Y0204250D03*
X0327750Y0214250D03*
X0327750Y0224250D03*
X0327750Y0234250D03*
X0327750Y0244250D03*
X0327750Y0254250D03*
X0237750Y0234250D03*
X0237750Y0224250D03*
X0237750Y0214250D03*
X0237750Y0204250D03*
X0237750Y0194250D03*
X0237750Y0184250D03*
X0225750Y0184250D03*
X0225750Y0194250D03*
X0225750Y0204250D03*
X0225750Y0214250D03*
X0225750Y0224250D03*
X0225750Y0234250D03*
X0225750Y0244250D03*
X0225750Y0254250D03*
X0135750Y0234250D03*
X0135750Y0224250D03*
X0135750Y0214250D03*
X0135750Y0204250D03*
X0135750Y0194250D03*
X0135750Y0184250D03*
X0123750Y0184250D03*
X0123750Y0194250D03*
X0123750Y0204250D03*
X0123750Y0214250D03*
X0123750Y0224250D03*
X0123750Y0234250D03*
X0123750Y0244250D03*
X0123750Y0254250D03*
D12*
X0101250Y0315750D03*
X0091250Y0315750D03*
X0193250Y0315750D03*
X0203250Y0315750D03*
X0295250Y0315750D03*
X0305250Y0315750D03*
X0305250Y0185250D03*
X0295250Y0185250D03*
X0203250Y0185250D03*
X0193250Y0185250D03*
X0101250Y0185250D03*
X0091250Y0185250D03*
X0091250Y0054750D03*
X0101250Y0054750D03*
X0193250Y0054750D03*
X0203250Y0054750D03*
X0295250Y0054750D03*
X0305250Y0054750D03*
D13*
X0280250Y0054750D03*
X0270250Y0054750D03*
X0260250Y0054750D03*
X0178250Y0054750D03*
X0168250Y0054750D03*
X0158250Y0054750D03*
X0076250Y0054750D03*
X0066250Y0054750D03*
X0056250Y0054750D03*
X0056250Y0185250D03*
X0066250Y0185250D03*
X0076250Y0185250D03*
X0158250Y0185250D03*
X0168250Y0185250D03*
X0178250Y0185250D03*
X0260250Y0185250D03*
X0270250Y0185250D03*
X0280250Y0185250D03*
X0280250Y0315750D03*
X0270250Y0315750D03*
X0260250Y0315750D03*
X0178250Y0315750D03*
X0168250Y0315750D03*
X0158250Y0315750D03*
X0076250Y0315750D03*
X0066250Y0315750D03*
X0056250Y0315750D03*
D14*
X0118650Y0264250D03*
X0121850Y0264250D03*
X0220650Y0264250D03*
X0223850Y0264250D03*
X0322650Y0264250D03*
X0325850Y0264250D03*
X0325850Y0133750D03*
X0322650Y0133750D03*
X0223850Y0133750D03*
X0220650Y0133750D03*
X0121850Y0133750D03*
X0118650Y0133750D03*
X0118650Y0394750D03*
X0121850Y0394750D03*
X0220650Y0394750D03*
X0223850Y0394750D03*
X0322650Y0394750D03*
X0325850Y0394750D03*
D15*
X0330250Y0415750D03*
X0245250Y0314750D03*
X0228250Y0285250D03*
X0143250Y0314750D03*
X0126250Y0285250D03*
X0041250Y0314750D03*
X0126250Y0415750D03*
X0228250Y0415750D03*
X0330250Y0285250D03*
X0245250Y0184250D03*
X0228250Y0154750D03*
X0143250Y0184250D03*
X0126250Y0154750D03*
X0041250Y0184250D03*
X0041250Y0053750D03*
X0143250Y0053750D03*
X0245250Y0053750D03*
X0330250Y0154750D03*
D16*
X0038750Y0038750D03*
X0118750Y0038750D03*
X0140750Y0038750D03*
X0220750Y0038750D03*
X0242750Y0038750D03*
X0322750Y0038750D03*
X0322750Y0169250D03*
X0242750Y0169250D03*
X0220750Y0169250D03*
X0140750Y0169250D03*
X0118750Y0169250D03*
X0038750Y0169250D03*
X0038750Y0299750D03*
X0118750Y0299750D03*
X0140750Y0299750D03*
X0220750Y0299750D03*
X0242750Y0299750D03*
X0322750Y0299750D03*
D17*
X0305750Y0426500D03*
X0055750Y0426500D03*
D18*
X0052185Y0020500D02*
X0052187Y0020619D01*
X0052193Y0020738D01*
X0052203Y0020857D01*
X0052217Y0020975D01*
X0052235Y0021093D01*
X0052256Y0021210D01*
X0052282Y0021326D01*
X0052312Y0021442D01*
X0052345Y0021556D01*
X0052382Y0021669D01*
X0052423Y0021781D01*
X0052468Y0021892D01*
X0052516Y0022001D01*
X0052568Y0022108D01*
X0052624Y0022213D01*
X0052683Y0022317D01*
X0052745Y0022418D01*
X0052811Y0022518D01*
X0052880Y0022615D01*
X0052952Y0022709D01*
X0053028Y0022802D01*
X0053106Y0022891D01*
X0053187Y0022978D01*
X0053272Y0023063D01*
X0053359Y0023144D01*
X0053448Y0023222D01*
X0053541Y0023298D01*
X0053635Y0023370D01*
X0053732Y0023439D01*
X0053832Y0023505D01*
X0053933Y0023567D01*
X0054037Y0023626D01*
X0054142Y0023682D01*
X0054249Y0023734D01*
X0054358Y0023782D01*
X0054469Y0023827D01*
X0054581Y0023868D01*
X0054694Y0023905D01*
X0054808Y0023938D01*
X0054924Y0023968D01*
X0055040Y0023994D01*
X0055157Y0024015D01*
X0055275Y0024033D01*
X0055393Y0024047D01*
X0055512Y0024057D01*
X0055631Y0024063D01*
X0055750Y0024065D01*
X0055869Y0024063D01*
X0055988Y0024057D01*
X0056107Y0024047D01*
X0056225Y0024033D01*
X0056343Y0024015D01*
X0056460Y0023994D01*
X0056576Y0023968D01*
X0056692Y0023938D01*
X0056806Y0023905D01*
X0056919Y0023868D01*
X0057031Y0023827D01*
X0057142Y0023782D01*
X0057251Y0023734D01*
X0057358Y0023682D01*
X0057463Y0023626D01*
X0057567Y0023567D01*
X0057668Y0023505D01*
X0057768Y0023439D01*
X0057865Y0023370D01*
X0057959Y0023298D01*
X0058052Y0023222D01*
X0058141Y0023144D01*
X0058228Y0023063D01*
X0058313Y0022978D01*
X0058394Y0022891D01*
X0058472Y0022802D01*
X0058548Y0022709D01*
X0058620Y0022615D01*
X0058689Y0022518D01*
X0058755Y0022418D01*
X0058817Y0022317D01*
X0058876Y0022213D01*
X0058932Y0022108D01*
X0058984Y0022001D01*
X0059032Y0021892D01*
X0059077Y0021781D01*
X0059118Y0021669D01*
X0059155Y0021556D01*
X0059188Y0021442D01*
X0059218Y0021326D01*
X0059244Y0021210D01*
X0059265Y0021093D01*
X0059283Y0020975D01*
X0059297Y0020857D01*
X0059307Y0020738D01*
X0059313Y0020619D01*
X0059315Y0020500D01*
X0059313Y0020381D01*
X0059307Y0020262D01*
X0059297Y0020143D01*
X0059283Y0020025D01*
X0059265Y0019907D01*
X0059244Y0019790D01*
X0059218Y0019674D01*
X0059188Y0019558D01*
X0059155Y0019444D01*
X0059118Y0019331D01*
X0059077Y0019219D01*
X0059032Y0019108D01*
X0058984Y0018999D01*
X0058932Y0018892D01*
X0058876Y0018787D01*
X0058817Y0018683D01*
X0058755Y0018582D01*
X0058689Y0018482D01*
X0058620Y0018385D01*
X0058548Y0018291D01*
X0058472Y0018198D01*
X0058394Y0018109D01*
X0058313Y0018022D01*
X0058228Y0017937D01*
X0058141Y0017856D01*
X0058052Y0017778D01*
X0057959Y0017702D01*
X0057865Y0017630D01*
X0057768Y0017561D01*
X0057668Y0017495D01*
X0057567Y0017433D01*
X0057463Y0017374D01*
X0057358Y0017318D01*
X0057251Y0017266D01*
X0057142Y0017218D01*
X0057031Y0017173D01*
X0056919Y0017132D01*
X0056806Y0017095D01*
X0056692Y0017062D01*
X0056576Y0017032D01*
X0056460Y0017006D01*
X0056343Y0016985D01*
X0056225Y0016967D01*
X0056107Y0016953D01*
X0055988Y0016943D01*
X0055869Y0016937D01*
X0055750Y0016935D01*
X0055631Y0016937D01*
X0055512Y0016943D01*
X0055393Y0016953D01*
X0055275Y0016967D01*
X0055157Y0016985D01*
X0055040Y0017006D01*
X0054924Y0017032D01*
X0054808Y0017062D01*
X0054694Y0017095D01*
X0054581Y0017132D01*
X0054469Y0017173D01*
X0054358Y0017218D01*
X0054249Y0017266D01*
X0054142Y0017318D01*
X0054037Y0017374D01*
X0053933Y0017433D01*
X0053832Y0017495D01*
X0053732Y0017561D01*
X0053635Y0017630D01*
X0053541Y0017702D01*
X0053448Y0017778D01*
X0053359Y0017856D01*
X0053272Y0017937D01*
X0053187Y0018022D01*
X0053106Y0018109D01*
X0053028Y0018198D01*
X0052952Y0018291D01*
X0052880Y0018385D01*
X0052811Y0018482D01*
X0052745Y0018582D01*
X0052683Y0018683D01*
X0052624Y0018787D01*
X0052568Y0018892D01*
X0052516Y0018999D01*
X0052468Y0019108D01*
X0052423Y0019219D01*
X0052382Y0019331D01*
X0052345Y0019444D01*
X0052312Y0019558D01*
X0052282Y0019674D01*
X0052256Y0019790D01*
X0052235Y0019907D01*
X0052217Y0020025D01*
X0052203Y0020143D01*
X0052193Y0020262D01*
X0052187Y0020381D01*
X0052185Y0020500D01*
D19*
X0055750Y0020500D03*
M02*
